<?xml version="1.0" encoding="utf-8"?>
<!-- Generator: Adobe Illustrator 25.4.0, SVG Export Plug-In . SVG Version: 6.00 Build 0)  -->
<svg version="1.1" id="Camada_1" xmlns="http://www.w3.org/2000/svg" xmlns:xlink="http://www.w3.org/1999/xlink" x="0px" y="0px"
	 viewBox="0 0 1065.7 183.1" style="enable-background:new 0 0 1065.7 183.1;" xml:space="preserve">
<style type="text/css">
	.st0{fill-rule:evenodd;clip-rule:evenodd;fill:#FFFFFF;}
	.st1{fill:#FFFFFF;}
</style>
<g>
	<g>
		<polygon class="st0" points="473.3,106.6 453.5,106.6 453.5,106.6 451.9,103.7 471.8,103.7 471.8,103.7 		"/>
		<polygon class="st0" points="473.3,76.6 473.3,76.6 471.8,79.4 451.9,79.4 453.5,76.6 453.5,76.6 		"/>
		<g>
			<polygon class="st0" points="475.9,90.2 467.5,90.2 463.3,82.3 471.7,82.3 471.7,82.3 474.2,87 			"/>
			<polygon class="st0" points="465.2,91.6 461,99.5 449.7,99.5 448.2,96.6 459.5,96.6 459.3,96.2 457.6,93 457.6,93 446.3,93 
				445.6,91.6 445.5,91.6 445.5,91.6 446.3,90.1 457.6,90.1 459.3,87 459.5,86.6 459.5,86.6 448.2,86.6 449.7,83.7 461,83.7 
				461,83.7 			"/>
			<polygon class="st0" points="475.9,93 475.9,93 474.2,96.2 471.7,100.9 463.3,100.9 467.5,93 			"/>
		</g>
		<polygon class="st0" points="482.9,91.6 475.6,105.2 474,102.3 474,102.3 474,102.3 476.5,97.7 476.5,97.7 479.8,91.6 476.5,85.6 
			476.5,85.5 474,80.9 474,80.9 474,80.9 475.6,78 		"/>
		<polygon class="st1" points="475.6,105.2 474,102.3 474,102.3 474,102.3 476.5,97.7 476.5,97.7 479.8,91.6 476.5,85.6 476.5,85.5 
			474,80.9 474,80.9 474,80.9 475.6,78 482.9,91.6 		"/>
	</g>
	<g>
		<path class="st1" d="M606.4,88.5c0-0.5-0.2-0.9-0.5-1.2c-0.4-0.3-1-0.5-1.9-0.8c-0.9-0.3-1.7-0.6-2.2-0.9c-1-0.7-1.6-1.5-1.6-2.6
			c0-0.9,0.4-1.7,1.1-2.3c0.8-0.6,1.7-0.9,2.9-0.9c0.8,0,1.5,0.1,2.1,0.4c0.6,0.3,1.1,0.7,1.5,1.3c0.4,0.5,0.5,1.1,0.5,1.8h-2
			c0-0.6-0.2-1.1-0.6-1.4c-0.4-0.3-0.9-0.5-1.6-0.5c-0.7,0-1.2,0.1-1.5,0.4c-0.4,0.3-0.5,0.7-0.5,1.2c0,0.4,0.2,0.8,0.6,1.1
			c0.4,0.3,1,0.6,1.9,0.8c0.9,0.3,1.6,0.6,2.2,0.9c0.5,0.3,0.9,0.7,1.2,1.2s0.4,1,0.4,1.5c0,1-0.4,1.7-1.1,2.3
			c-0.7,0.6-1.7,0.8-3,0.8c-0.8,0-1.6-0.2-2.3-0.5c-0.7-0.3-1.2-0.7-1.6-1.3c-0.4-0.5-0.6-1.2-0.6-1.9h2c0,0.7,0.2,1.2,0.6,1.5
			c0.4,0.4,1,0.5,1.9,0.5c0.7,0,1.2-0.1,1.6-0.4C606.3,89.3,606.4,89,606.4,88.5z"/>
		<path class="st1" d="M618.1,88.5c0-0.5-0.2-0.9-0.5-1.2c-0.4-0.3-1-0.5-1.9-0.8c-0.9-0.3-1.7-0.6-2.2-0.9c-1-0.7-1.6-1.5-1.6-2.6
			c0-0.9,0.4-1.7,1.1-2.3c0.8-0.6,1.7-0.9,2.9-0.9c0.8,0,1.5,0.1,2.1,0.4c0.6,0.3,1.1,0.7,1.5,1.3c0.4,0.5,0.5,1.1,0.5,1.8h-2
			c0-0.6-0.2-1.1-0.6-1.4c-0.4-0.3-0.9-0.5-1.6-0.5c-0.7,0-1.2,0.1-1.5,0.4c-0.4,0.3-0.5,0.7-0.5,1.2c0,0.4,0.2,0.8,0.6,1.1
			c0.4,0.3,1,0.6,1.9,0.8c0.9,0.3,1.6,0.6,2.2,0.9c0.5,0.3,0.9,0.7,1.2,1.2c0.3,0.4,0.4,1,0.4,1.5c0,1-0.4,1.7-1.1,2.3
			c-0.7,0.6-1.7,0.8-3,0.8c-0.8,0-1.6-0.2-2.3-0.5c-0.7-0.3-1.2-0.7-1.6-1.3c-0.4-0.5-0.6-1.2-0.6-1.9h2c0,0.7,0.2,1.2,0.6,1.5
			c0.4,0.4,1,0.5,1.9,0.5c0.7,0,1.2-0.1,1.6-0.4C618,89.3,618.1,89,618.1,88.5z"/>
		<path class="st1" d="M496.7,91.5H489v-1.3l3.8-4.2c0.6-0.6,0.9-1.1,1.2-1.5c0.2-0.4,0.4-0.8,0.4-1.2c0-0.5-0.2-1-0.5-1.3
			c-0.3-0.3-0.7-0.5-1.2-0.5c-0.6,0-1.1,0.2-1.4,0.6c-0.3,0.4-0.5,0.9-0.5,1.6h-1.9c0-0.7,0.2-1.3,0.5-1.9c0.3-0.6,0.8-1,1.4-1.3
			c0.6-0.3,1.3-0.5,2-0.5c1.1,0,2,0.3,2.6,0.8c0.6,0.6,1,1.3,1,2.3c0,0.6-0.2,1.2-0.5,1.8c-0.3,0.6-0.9,1.3-1.6,2.1l-2.8,3h5.3V91.5
			L496.7,91.5z"/>
		<path class="st1" d="M506.7,79.9v1.6h-0.2c-1.1,0-1.9,0.3-2.6,0.9s-1,1.4-1.1,2.4c0.6-0.6,1.4-1,2.4-1c1,0,1.8,0.4,2.4,1.1
			c0.6,0.7,0.9,1.6,0.9,2.8c0,1.2-0.3,2.1-1,2.8c-0.7,0.7-1.6,1.1-2.7,1.1c-1.1,0-2.1-0.4-2.8-1.3c-0.7-0.8-1.1-2-1.1-3.3v-0.7
			c0-2,0.5-3.6,1.5-4.7c1-1.1,2.4-1.7,4.2-1.7L506.7,79.9L506.7,79.9z M504.6,85.4c-0.4,0-0.8,0.1-1.2,0.4c-0.3,0.2-0.6,0.6-0.8,0.9
			v0.6c0,0.9,0.2,1.5,0.5,2c0.4,0.5,0.8,0.8,1.4,0.8c0.6,0,1-0.2,1.3-0.6s0.5-1,0.5-1.7s-0.2-1.3-0.5-1.7
			C505.6,85.6,505.2,85.4,504.6,85.4z"/>
		<path class="st1" d="M580.6,87h-2.2v4.4h-2V80h4c1.3,0,2.3,0.3,3.1,0.9c0.7,0.6,1.1,1.5,1.1,2.6c0,0.8-0.2,1.4-0.6,1.9
			s-0.9,0.9-1.5,1.2l2.6,4.8v0.1h-2.1L580.6,87z M578.4,85.4h2c0.7,0,1.2-0.2,1.6-0.5s0.6-0.8,0.6-1.4c0-0.6-0.2-1.1-0.5-1.4
			c-0.3-0.3-0.9-0.5-1.6-0.5h-2.1V85.4z"/>
		<path class="st1" d="M595.4,86.3h-4.7v3.5h5.5v1.6h-7.5V80h7.4v1.6h-5.5v3.2h4.7L595.4,86.3L595.4,86.3z"/>
		<g>
			<path class="st1" d="M518.5,79.9v1.6h-0.2c-1.1,0-1.9,0.3-2.6,0.9s-1,1.4-1.1,2.4c0.6-0.6,1.4-1,2.4-1c1,0,1.8,0.4,2.4,1.1
				c0.6,0.7,0.9,1.6,0.9,2.8c0,1.2-0.3,2.1-1,2.8c-0.7,0.7-1.6,1.1-2.7,1.1c-1.1,0-2.1-0.4-2.8-1.3c-0.7-0.8-1.1-2-1.1-3.3v-0.7
				c0-2,0.5-3.6,1.5-4.7c1-1.1,2.4-1.7,4.2-1.7L518.5,79.9L518.5,79.9z M516.5,85.4c-0.4,0-0.8,0.1-1.2,0.4
				c-0.3,0.2-0.6,0.6-0.8,0.9v0.6c0,0.9,0.2,1.5,0.5,2c0.4,0.5,0.8,0.8,1.4,0.8c0.6,0,1-0.2,1.3-0.6s0.5-1,0.5-1.7s-0.2-1.3-0.5-1.7
				C517.5,85.6,517,85.4,516.5,85.4z"/>
			<path class="st1" d="M532,86.6c0,1.6-0.3,2.9-0.9,3.7c-0.6,0.8-1.6,1.3-2.8,1.3c-1.2,0-2.2-0.4-2.8-1.2c-0.6-0.8-1-2-1-3.6v-2
				c0-1.6,0.3-2.9,0.9-3.7c0.6-0.8,1.6-1.2,2.8-1.2c1.3,0,2.2,0.4,2.8,1.2c0.6,0.8,0.9,2,1,3.6V86.6L532,86.6z M530.1,84.5
				c0-1.1-0.1-1.9-0.4-2.4c-0.3-0.5-0.8-0.8-1.4-0.8c-0.6,0-1.1,0.2-1.4,0.7s-0.4,1.2-0.5,2.2v2.6c0,1.1,0.1,1.9,0.4,2.4
				c0.3,0.5,0.8,0.8,1.4,0.8c0.6,0,1.1-0.2,1.4-0.7c0.3-0.5,0.4-1.2,0.5-2.3V84.5z"/>
			<path class="st1" d="M548.6,86.3h-4.7v3.5h5.5v1.6h-7.5V80h7.4v1.6h-5.5v3.2h4.7L548.6,86.3L548.6,86.3z"/>
			<path class="st1" d="M557.4,84.1l2.4-4.1h2.3l-3.5,5.7l3.5,5.8h-2.3l-2.5-4.2l-2.5,4.2h-2.3l3.6-5.8l-3.5-5.7h2.3L557.4,84.1z"/>
			<path class="st1" d="M566.8,87.2v4.3h-2V80h4.4c1.3,0,2.3,0.3,3.1,1c0.8,0.7,1.1,1.6,1.1,2.7c0,1.1-0.4,2-1.1,2.6
				c-0.7,0.6-1.8,0.9-3.1,0.9L566.8,87.2L566.8,87.2z M566.8,85.6h2.4c0.7,0,1.2-0.2,1.6-0.5c0.4-0.3,0.6-0.8,0.6-1.4
				c0-0.6-0.2-1.1-0.6-1.5c-0.4-0.4-0.9-0.6-1.6-0.6h-2.5V85.6L566.8,85.6z"/>
			<g>
				<path class="st1" d="M489.6,100.3h2.9v0.7h-3.7v-6.1h0.8V100.3z"/>
				<path class="st1" d="M493.1,98.6c0-0.4,0.1-0.8,0.3-1.2c0.2-0.4,0.4-0.6,0.7-0.8c0.3-0.2,0.7-0.3,1.1-0.3c0.6,0,1.1,0.2,1.5,0.6
					c0.4,0.4,0.6,1,0.6,1.7v0.1c0,0.4-0.1,0.8-0.3,1.2c-0.2,0.4-0.4,0.6-0.7,0.8s-0.7,0.3-1.1,0.3c-0.6,0-1.1-0.2-1.5-0.6
					S493.1,99.4,493.1,98.6L493.1,98.6L493.1,98.6z M493.9,98.7c0,0.5,0.1,0.9,0.4,1.2s0.5,0.5,0.9,0.5c0.4,0,0.7-0.2,0.9-0.5
					c0.2-0.3,0.3-0.7,0.3-1.3c0-0.5-0.1-0.9-0.4-1.2c-0.2-0.3-0.6-0.5-0.9-0.5c-0.4,0-0.7,0.2-0.9,0.5
					C494,97.7,493.9,98.1,493.9,98.7z"/>
				<path class="st1" d="M498,98.6c0-0.7,0.2-1.3,0.5-1.7c0.3-0.4,0.8-0.6,1.3-0.6c0.6,0,1,0.2,1.3,0.6l0-0.5h0.7v4.4
					c0,0.6-0.2,1.1-0.5,1.4c-0.3,0.3-0.8,0.5-1.4,0.5c-0.3,0-0.6-0.1-1-0.2c-0.3-0.1-0.6-0.3-0.7-0.6l0.4-0.5
					c0.3,0.4,0.7,0.6,1.2,0.6c0.4,0,0.7-0.1,0.9-0.3c0.2-0.2,0.3-0.5,0.3-0.9v-0.4c-0.3,0.4-0.7,0.5-1.3,0.5c-0.5,0-1-0.2-1.3-0.6
					C498.2,100,498,99.4,498,98.6z M498.8,98.7c0,0.5,0.1,0.9,0.3,1.2c0.2,0.3,0.5,0.4,0.9,0.4c0.5,0,0.8-0.2,1.1-0.7v-2.1
					c-0.2-0.4-0.6-0.7-1.1-0.7c-0.4,0-0.7,0.1-0.9,0.4C498.9,97.7,498.8,98.1,498.8,98.7z"/>
				<path class="st1" d="M503.9,94.5h0.9l-1.1,1.2l-0.6,0L503.9,94.5z M503.9,100.9h-0.8v-4.5h0.8V100.9z"/>
				<path class="st1" d="M507.8,99.7c0-0.2-0.1-0.4-0.2-0.5c-0.2-0.1-0.4-0.2-0.8-0.3c-0.4-0.1-0.7-0.2-0.9-0.3
					c-0.2-0.1-0.4-0.3-0.5-0.4c-0.1-0.2-0.2-0.4-0.2-0.6c0-0.4,0.2-0.7,0.5-0.9s0.7-0.4,1.2-0.4c0.5,0,0.9,0.1,1.3,0.4
					c0.3,0.3,0.5,0.6,0.5,1h-0.8c0-0.2-0.1-0.4-0.3-0.6s-0.4-0.2-0.7-0.2c-0.3,0-0.5,0.1-0.7,0.2c-0.2,0.1-0.2,0.3-0.2,0.5
					c0,0.2,0.1,0.3,0.2,0.4c0.1,0.1,0.4,0.2,0.8,0.3c0.4,0.1,0.7,0.2,0.9,0.3c0.2,0.1,0.4,0.3,0.5,0.4s0.2,0.4,0.2,0.6
					c0,0.4-0.2,0.7-0.5,1c-0.3,0.2-0.7,0.4-1.3,0.4c-0.4,0-0.7-0.1-1-0.2c-0.3-0.1-0.5-0.3-0.7-0.5c-0.2-0.2-0.2-0.5-0.2-0.8h0.8
					c0,0.3,0.1,0.5,0.3,0.6c0.2,0.2,0.5,0.2,0.8,0.2c0.3,0,0.5-0.1,0.7-0.2C507.7,100.1,507.8,99.9,507.8,99.7z"/>
				<path class="st1" d="M510.6,95.3v1.1h0.8V97h-0.8v2.8c0,0.2,0,0.3,0.1,0.4c0.1,0.1,0.2,0.1,0.4,0.1c0.1,0,0.2,0,0.4-0.1v0.6
					c-0.2,0.1-0.4,0.1-0.6,0.1c-0.3,0-0.6-0.1-0.8-0.3c-0.2-0.2-0.3-0.5-0.3-0.9V97H509v-0.6h0.8v-1.1L510.6,95.3L510.6,95.3z"/>
				<path class="st1" d="M512.4,95.2c0-0.1,0-0.2,0.1-0.3c0.1-0.1,0.2-0.1,0.3-0.1c0.2,0,0.3,0,0.3,0.1c0.1,0.1,0.1,0.2,0.1,0.3
					s0,0.2-0.1,0.3c-0.1,0.1-0.2,0.1-0.3,0.1c-0.2,0-0.3,0-0.3-0.1C512.4,95.4,512.4,95.3,512.4,95.2z M513.2,100.9h-0.8v-4.5h0.8
					V100.9z"/>
				<path class="st1" d="M516.3,100.4c0.3,0,0.5-0.1,0.7-0.3s0.3-0.4,0.3-0.6h0.7c0,0.3-0.1,0.5-0.3,0.7s-0.4,0.4-0.7,0.6
					c-0.3,0.1-0.6,0.2-0.9,0.2c-0.6,0-1.1-0.2-1.5-0.6c-0.4-0.4-0.5-1-0.5-1.7v-0.1c0-0.4,0.1-0.8,0.2-1.2c0.2-0.3,0.4-0.6,0.7-0.8
					c0.3-0.2,0.7-0.3,1.1-0.3c0.5,0,0.9,0.2,1.3,0.5c0.3,0.3,0.5,0.7,0.5,1.2h-0.7c0-0.3-0.1-0.5-0.3-0.7c-0.2-0.2-0.4-0.3-0.7-0.3
					c-0.4,0-0.7,0.1-0.9,0.4c-0.2,0.3-0.3,0.7-0.3,1.2v0.1c0,0.5,0.1,0.9,0.3,1.2S515.9,100.4,516.3,100.4z"/>
				<path class="st1" d="M521.8,100.9c0-0.1-0.1-0.2-0.1-0.5c-0.4,0.4-0.8,0.6-1.3,0.6c-0.4,0-0.8-0.1-1.1-0.4
					c-0.3-0.3-0.4-0.6-0.4-1c0-0.5,0.2-0.8,0.5-1.1s0.9-0.4,1.5-0.4h0.8v-0.4c0-0.3-0.1-0.5-0.2-0.6c-0.2-0.2-0.4-0.2-0.7-0.2
					c-0.3,0-0.5,0.1-0.7,0.2c-0.2,0.1-0.3,0.3-0.3,0.5h-0.8c0-0.2,0.1-0.4,0.2-0.7c0.2-0.2,0.4-0.4,0.7-0.5c0.3-0.1,0.6-0.2,0.9-0.2
					c0.5,0,0.9,0.1,1.2,0.4s0.5,0.6,0.5,1.1v2.1c0,0.4,0.1,0.7,0.2,1v0.1L521.8,100.9L521.8,100.9z M520.5,100.3
					c0.2,0,0.5-0.1,0.7-0.2c0.2-0.1,0.4-0.3,0.5-0.5v-0.9H521c-1,0-1.4,0.3-1.4,0.8c0,0.2,0.1,0.4,0.2,0.6
					C520,100.3,520.2,100.3,520.5,100.3z"/>
				<path class="st1" d="M527.6,101c-0.6,0-1.1-0.2-1.5-0.6c-0.4-0.4-0.6-0.9-0.6-1.6v-0.1c0-0.5,0.1-0.9,0.3-1.2
					c0.2-0.4,0.4-0.6,0.7-0.8c0.3-0.2,0.6-0.3,1-0.3c0.6,0,1,0.2,1.4,0.6c0.3,0.4,0.5,0.9,0.5,1.7v0.3h-3.1c0,0.4,0.1,0.8,0.4,1.1
					c0.3,0.3,0.6,0.4,1,0.4c0.3,0,0.5-0.1,0.7-0.2c0.2-0.1,0.4-0.3,0.5-0.4l0.5,0.4C529,100.7,528.4,101,527.6,101z M527.5,96.9
					c-0.3,0-0.6,0.1-0.8,0.3c-0.2,0.2-0.3,0.5-0.4,1h2.3v-0.1c0-0.4-0.1-0.7-0.3-0.9C528.1,97.1,527.9,96.9,527.5,96.9z"/>
				<path class="st1" d="M532.6,100.9v-6.1h1.7c0.5,0,1,0.1,1.4,0.4c0.4,0.2,0.7,0.6,0.9,1c0.2,0.4,0.3,0.9,0.3,1.5v0.4
					c0,0.6-0.1,1.1-0.3,1.5c-0.2,0.4-0.5,0.8-1,1c-0.4,0.2-0.9,0.4-1.4,0.4H532.6z M533.4,95.5v4.8h0.8c0.6,0,1.1-0.2,1.4-0.6
					c0.3-0.4,0.5-0.9,0.5-1.7v-0.4c0-0.7-0.2-1.2-0.5-1.6c-0.3-0.4-0.8-0.6-1.4-0.6L533.4,95.5L533.4,95.5z"/>
				<path class="st1" d="M538.1,95.2c0-0.1,0-0.2,0.1-0.3c0.1-0.1,0.2-0.1,0.3-0.1c0.2,0,0.3,0,0.3,0.1c0.1,0.1,0.1,0.2,0.1,0.3
					s0,0.2-0.1,0.3c-0.1,0.1-0.2,0.1-0.3,0.1c-0.2,0-0.3,0-0.3-0.1C538.1,95.4,538.1,95.3,538.1,95.2z M538.9,100.9h-0.8v-4.5h0.8
					V100.9z"/>
				<path class="st1" d="M542.8,99.7c0-0.2-0.1-0.4-0.2-0.5c-0.2-0.1-0.4-0.2-0.8-0.3c-0.4-0.1-0.7-0.2-0.9-0.3
					c-0.2-0.1-0.4-0.3-0.5-0.4c-0.1-0.2-0.2-0.4-0.2-0.6c0-0.4,0.2-0.7,0.5-0.9c0.3-0.3,0.7-0.4,1.2-0.4c0.5,0,0.9,0.1,1.3,0.4
					c0.3,0.3,0.5,0.6,0.5,1h-0.8c0-0.2-0.1-0.4-0.3-0.6c-0.2-0.2-0.4-0.2-0.7-0.2c-0.3,0-0.5,0.1-0.7,0.2c-0.2,0.1-0.2,0.3-0.2,0.5
					c0,0.2,0.1,0.3,0.2,0.4c0.1,0.1,0.4,0.2,0.8,0.3c0.4,0.1,0.7,0.2,0.9,0.3c0.2,0.1,0.4,0.3,0.5,0.4s0.2,0.4,0.2,0.6
					c0,0.4-0.2,0.7-0.5,1c-0.3,0.2-0.7,0.4-1.3,0.4c-0.4,0-0.7-0.1-1-0.2c-0.3-0.1-0.5-0.3-0.7-0.5c-0.2-0.2-0.2-0.5-0.2-0.8h0.8
					c0,0.3,0.1,0.5,0.3,0.6s0.5,0.2,0.8,0.2c0.3,0,0.5-0.1,0.7-0.2C542.7,100.1,542.8,99.9,542.8,99.7z"/>
				<path class="st1" d="M545.6,95.3v1.1h0.8V97h-0.8v2.8c0,0.2,0,0.3,0.1,0.4c0.1,0.1,0.2,0.1,0.4,0.1c0.1,0,0.2,0,0.4-0.1v0.6
					c-0.2,0.1-0.4,0.1-0.6,0.1c-0.3,0-0.6-0.1-0.8-0.3c-0.2-0.2-0.3-0.5-0.3-0.9V97H544v-0.6h0.8v-1.1L545.6,95.3L545.6,95.3z"/>
				<path class="st1" d="M549.6,97.1c-0.1,0-0.2,0-0.4,0c-0.5,0-0.9,0.2-1,0.7v3.2h-0.8v-4.5h0.8l0,0.5c0.3-0.4,0.6-0.6,1.1-0.6
					c0.2,0,0.3,0,0.3,0.1L549.6,97.1L549.6,97.1z"/>
				<path class="st1" d="M550.3,95.2c0-0.1,0-0.2,0.1-0.3c0.1-0.1,0.2-0.1,0.3-0.1c0.2,0,0.3,0,0.3,0.1c0.1,0.1,0.1,0.2,0.1,0.3
					s0,0.2-0.1,0.3c-0.1,0.1-0.2,0.1-0.3,0.1c-0.2,0-0.3,0-0.3-0.1C550.3,95.4,550.3,95.3,550.3,95.2z M551.1,100.9h-0.8v-4.5h0.8
					V100.9z"/>
				<path class="st1" d="M556.2,98.7c0,0.7-0.2,1.3-0.5,1.7c-0.3,0.4-0.7,0.6-1.3,0.6c-0.6,0-1-0.2-1.3-0.6l0,0.5h-0.7v-6.5h0.8v2.4
					c0.3-0.4,0.7-0.6,1.3-0.6s1,0.2,1.3,0.6C556.1,97.4,556.2,97.9,556.2,98.7L556.2,98.7L556.2,98.7z M555.4,98.6
					c0-0.5-0.1-0.9-0.3-1.2c-0.2-0.3-0.5-0.4-0.9-0.4c-0.5,0-0.9,0.2-1.1,0.7v2c0.2,0.5,0.6,0.7,1.1,0.7c0.4,0,0.7-0.1,0.9-0.4
					C555.3,99.6,555.4,99.2,555.4,98.6z"/>
				<path class="st1" d="M560,100.5c-0.3,0.4-0.7,0.5-1.3,0.5c-0.5,0-0.9-0.1-1.1-0.4c-0.3-0.3-0.4-0.7-0.4-1.3v-3h0.8v2.9
					c0,0.7,0.3,1,0.8,1c0.6,0,1-0.2,1.2-0.7v-3.3h0.8v4.5H560L560,100.5z"/>
				<path class="st1" d="M561.9,95.2c0-0.1,0-0.2,0.1-0.3c0.1-0.1,0.2-0.1,0.3-0.1c0.2,0,0.3,0,0.3,0.1c0.1,0.1,0.1,0.2,0.1,0.3
					s0,0.2-0.1,0.3c-0.1,0.1-0.2,0.1-0.3,0.1c-0.2,0-0.3,0-0.3-0.1C562,95.4,561.9,95.3,561.9,95.2z M562.8,100.9H562v-4.5h0.8
					V100.9z"/>
				<path class="st1" d="M565.8,100.4c0.3,0,0.5-0.1,0.7-0.3s0.3-0.4,0.3-0.6h0.7c0,0.3-0.1,0.5-0.3,0.7s-0.4,0.4-0.7,0.6
					c-0.3,0.1-0.6,0.2-0.9,0.2c-0.6,0-1.1-0.2-1.5-0.6c-0.4-0.4-0.5-1-0.5-1.7v-0.1c0-0.4,0.1-0.8,0.2-1.2c0.2-0.3,0.4-0.6,0.7-0.8
					c0.3-0.2,0.7-0.3,1.1-0.3c0.5,0,0.9,0.2,1.3,0.5c0.3,0.3,0.5,0.7,0.5,1.2h-0.7c0-0.3-0.1-0.5-0.3-0.7c-0.2-0.2-0.4-0.3-0.7-0.3
					c-0.4,0-0.7,0.1-0.9,0.4c-0.2,0.3-0.3,0.7-0.3,1.2v0.1c0,0.5,0.1,0.9,0.3,1.2S565.4,100.4,565.8,100.4z M566,101l-0.1,0.2
					c0.4,0.1,0.6,0.3,0.6,0.7c0,0.3-0.1,0.5-0.3,0.6c-0.2,0.2-0.5,0.2-0.9,0.2l0-0.4c0.2,0,0.4,0,0.5-0.1c0.1-0.1,0.2-0.2,0.2-0.3
					c0-0.1,0-0.2-0.1-0.3c-0.1-0.1-0.3-0.1-0.5-0.1l0.1-0.6H566z"/>
				<path class="st1" d="M571.3,100.9c0-0.1-0.1-0.2-0.1-0.5c-0.4,0.4-0.8,0.6-1.3,0.6c-0.4,0-0.8-0.1-1.1-0.4
					c-0.3-0.3-0.4-0.6-0.4-1c0-0.5,0.2-0.8,0.5-1.1c0.4-0.3,0.9-0.4,1.5-0.4h0.8v-0.4c0-0.3-0.1-0.5-0.2-0.6
					c-0.2-0.2-0.4-0.2-0.7-0.2c-0.3,0-0.5,0.1-0.7,0.2s-0.3,0.3-0.3,0.5h-0.8c0-0.2,0.1-0.4,0.2-0.7c0.2-0.2,0.4-0.4,0.7-0.5
					c0.3-0.1,0.6-0.2,0.9-0.2c0.5,0,0.9,0.1,1.2,0.4c0.3,0.3,0.5,0.6,0.5,1.1v2.1c0,0.4,0.1,0.7,0.2,1v0.1L571.3,100.9L571.3,100.9z
					 M571.9,94.6c0,0.3-0.1,0.5-0.3,0.7s-0.4,0.3-0.6,0.3c-0.1,0-0.2,0-0.3,0c-0.1,0-0.2-0.1-0.3-0.2s-0.2-0.1-0.3-0.2
					c-0.1,0-0.1,0-0.2,0c-0.1,0-0.2,0-0.3,0.1c-0.1,0.1-0.1,0.2-0.1,0.3l-0.5,0c0-0.3,0.1-0.5,0.3-0.7c0.2-0.2,0.4-0.3,0.6-0.3
					c0.1,0,0.2,0,0.3,0c0.1,0,0.2,0.1,0.3,0.2c0.1,0.1,0.2,0.1,0.3,0.2s0.2,0,0.2,0c0.1,0,0.2,0,0.3-0.1c0.1-0.1,0.1-0.2,0.1-0.3
					L571.9,94.6z M570,100.3c0.2,0,0.5-0.1,0.7-0.2c0.2-0.1,0.4-0.3,0.5-0.5v-0.9h-0.6c-1,0-1.4,0.3-1.4,0.8c0,0.2,0.1,0.4,0.2,0.6
					C569.6,100.3,569.8,100.3,570,100.3z"/>
				<path class="st1" d="M573,98.6c0-0.4,0.1-0.8,0.3-1.2c0.2-0.4,0.4-0.6,0.7-0.8c0.3-0.2,0.7-0.3,1.1-0.3c0.6,0,1.1,0.2,1.5,0.6
					c0.4,0.4,0.6,1,0.6,1.7v0.1c0,0.4-0.1,0.8-0.3,1.2c-0.2,0.4-0.4,0.6-0.7,0.8c-0.3,0.2-0.7,0.3-1.1,0.3c-0.6,0-1.1-0.2-1.5-0.6
					C573.2,100,573,99.4,573,98.6L573,98.6L573,98.6z M573.8,98.7c0,0.5,0.1,0.9,0.4,1.2c0.2,0.3,0.5,0.5,0.9,0.5
					c0.4,0,0.7-0.2,0.9-0.5c0.2-0.3,0.3-0.7,0.3-1.3c0-0.5-0.1-0.9-0.4-1.2c-0.2-0.3-0.6-0.5-0.9-0.5c-0.4,0-0.7,0.2-0.9,0.5
					C573.9,97.7,573.8,98.1,573.8,98.7z"/>
				<path class="st1" d="M580.3,100.9v-6.1h2c0.7,0,1.2,0.1,1.5,0.4c0.3,0.3,0.5,0.7,0.5,1.2c0,0.3-0.1,0.5-0.2,0.8
					c-0.2,0.2-0.4,0.4-0.7,0.5c0.3,0.1,0.6,0.3,0.8,0.5c0.2,0.3,0.3,0.6,0.3,0.9c0,0.5-0.2,1-0.5,1.3c-0.4,0.3-0.9,0.5-1.5,0.5
					H580.3L580.3,100.9z M581.1,97.4h1.2c0.4,0,0.6-0.1,0.8-0.3c0.2-0.2,0.3-0.4,0.3-0.7c0-0.3-0.1-0.6-0.3-0.7s-0.5-0.2-0.9-0.2
					h-1.2L581.1,97.4L581.1,97.4z M581.1,98.1v2.2h1.3c0.4,0,0.7-0.1,0.9-0.3c0.2-0.2,0.3-0.5,0.3-0.8c0-0.7-0.4-1.1-1.2-1.1H581.1
					L581.1,98.1z"/>
				<path class="st1" d="M589.5,100.9h-4v-0.6l2.1-2.4c0.3-0.4,0.5-0.6,0.6-0.9c0.1-0.2,0.2-0.5,0.2-0.7c0-0.3-0.1-0.6-0.3-0.8
					c-0.2-0.2-0.5-0.3-0.8-0.3c-0.4,0-0.7,0.1-0.9,0.3c-0.2,0.2-0.3,0.5-0.3,0.9h-0.8c0-0.6,0.2-1,0.5-1.4c0.4-0.3,0.8-0.5,1.5-0.5
					c0.6,0,1,0.1,1.3,0.4s0.5,0.7,0.5,1.2c0,0.6-0.4,1.3-1.2,2.2l-1.6,1.8h3.1V100.9L589.5,100.9z"/>
				<path class="st1" d="M590.5,100.9v-6.1h2c0.7,0,1.2,0.1,1.5,0.4c0.3,0.3,0.5,0.7,0.5,1.2c0,0.3-0.1,0.5-0.2,0.8
					c-0.2,0.2-0.4,0.4-0.7,0.5c0.3,0.1,0.6,0.3,0.8,0.5c0.2,0.3,0.3,0.6,0.3,0.9c0,0.5-0.2,1-0.5,1.3c-0.4,0.3-0.9,0.5-1.5,0.5
					H590.5L590.5,100.9z M591.3,97.4h1.2c0.4,0,0.6-0.1,0.8-0.3c0.2-0.2,0.3-0.4,0.3-0.7c0-0.3-0.1-0.6-0.3-0.7
					c-0.2-0.2-0.5-0.2-0.9-0.2h-1.2V97.4L591.3,97.4z M591.3,98.1v2.2h1.3c0.4,0,0.7-0.1,0.9-0.3c0.2-0.2,0.3-0.5,0.3-0.8
					c0-0.7-0.4-1.1-1.2-1.1H591.3L591.3,98.1z"/>
				<path class="st1" d="M597.7,99.3c0-0.3,0.1-0.6,0.2-0.8c0.2-0.2,0.5-0.5,0.9-0.9c-0.3-0.3-0.5-0.6-0.5-0.8
					c-0.1-0.2-0.1-0.4-0.1-0.6c0-0.5,0.1-0.8,0.4-1.1c0.3-0.3,0.6-0.4,1.1-0.4c0.4,0,0.8,0.1,1,0.4c0.3,0.2,0.4,0.6,0.4,0.9
					c0,0.2-0.1,0.5-0.2,0.7c-0.1,0.2-0.3,0.4-0.7,0.7l-0.4,0.3l1.4,1.6c0.2-0.4,0.3-0.8,0.3-1.2h0.7c0,0.7-0.2,1.3-0.5,1.8l0.9,1
					h-0.9l-0.4-0.5c-0.2,0.2-0.4,0.3-0.7,0.4s-0.6,0.1-0.9,0.1c-0.6,0-1.1-0.2-1.4-0.5C597.9,100.2,597.7,99.8,597.7,99.3z
					 M599.7,100.4c0.4,0,0.8-0.2,1.1-0.5l-1.5-1.8l-0.1,0.1c-0.5,0.3-0.7,0.7-0.7,1.1c0,0.3,0.1,0.6,0.3,0.8
					C599,100.3,599.3,100.4,599.7,100.4z M599,96.2c0,0.3,0.2,0.6,0.5,1l0.5-0.3c0.2-0.1,0.3-0.3,0.4-0.4c0.1-0.1,0.1-0.3,0.1-0.4
					c0-0.2-0.1-0.3-0.2-0.5c-0.1-0.1-0.3-0.2-0.5-0.2c-0.2,0-0.4,0.1-0.5,0.2C599,95.8,599,96,599,96.2z"/>
				<path class="st1" d="M605.5,100.9v-6.1h2c0.7,0,1.2,0.1,1.5,0.4c0.3,0.3,0.5,0.7,0.5,1.2c0,0.3-0.1,0.5-0.2,0.8
					s-0.4,0.4-0.7,0.5c0.3,0.1,0.6,0.3,0.8,0.5c0.2,0.3,0.3,0.6,0.3,0.9c0,0.5-0.2,1-0.5,1.3c-0.4,0.3-0.9,0.5-1.5,0.5H605.5
					L605.5,100.9z M606.3,97.4h1.2c0.4,0,0.6-0.1,0.8-0.3c0.2-0.2,0.3-0.4,0.3-0.7c0-0.3-0.1-0.6-0.3-0.7s-0.5-0.2-0.9-0.2h-1.2
					L606.3,97.4L606.3,97.4z M606.3,98.1v2.2h1.3c0.4,0,0.7-0.1,0.9-0.3c0.2-0.2,0.3-0.5,0.3-0.8c0-0.7-0.4-1.1-1.2-1.1H606.3
					L606.3,98.1z"/>
				<path class="st1" d="M614.6,100.9h-4v-0.6l2.1-2.4c0.3-0.4,0.5-0.6,0.6-0.9c0.1-0.2,0.2-0.5,0.2-0.7c0-0.3-0.1-0.6-0.3-0.8
					c-0.2-0.2-0.5-0.3-0.8-0.3c-0.4,0-0.7,0.1-0.9,0.3c-0.2,0.2-0.3,0.5-0.3,0.9h-0.8c0-0.6,0.2-1,0.5-1.4c0.4-0.3,0.8-0.5,1.5-0.5
					c0.6,0,1,0.1,1.3,0.4s0.5,0.7,0.5,1.2c0,0.6-0.4,1.3-1.2,2.2l-1.6,1.8h3.1V100.9L614.6,100.9z"/>
				<path class="st1" d="M620.1,99c-0.1,0.6-0.3,1.1-0.7,1.5c-0.4,0.4-0.9,0.5-1.6,0.5c-0.7,0-1.3-0.3-1.7-0.8
					c-0.4-0.5-0.7-1.2-0.7-2.1v-0.6c0-0.6,0.1-1.1,0.3-1.5c0.2-0.4,0.5-0.8,0.9-1c0.4-0.2,0.8-0.3,1.3-0.3c0.6,0,1.2,0.2,1.6,0.5
					c0.4,0.4,0.6,0.9,0.7,1.5h-0.8c-0.1-0.5-0.2-0.8-0.5-1.1c-0.2-0.2-0.6-0.3-1-0.3c-0.5,0-0.9,0.2-1.2,0.6
					c-0.3,0.4-0.4,0.9-0.4,1.6v0.6c0,0.7,0.1,1.2,0.4,1.6c0.3,0.4,0.7,0.6,1.2,0.6c0.4,0,0.8-0.1,1-0.3s0.4-0.6,0.5-1.1H620.1
					L620.1,99z"/>
			</g>
		</g>
	</g>
</g>
</svg>
