<svg xmlns="http://www.w3.org/2000/svg" viewBox="0 0 446.25 73.7"><g id="Layer_2" data-name="Layer 2"><g id="Layer_1-2" data-name="Layer 1"><path d="M264.66,62.84c.11-1.1.2-2.33.26-3.69s.11-2.62.12-3.81h1.74c0,.66-.09,1.41-.13,2.25l-.11,2.2c0,.63-.06,1.26-.08,1.88h2.7l.83,0c0,.36-.07.75-.09,1.19h-5.24Z"/><path d="M273.65,57.12a3.74,3.74,0,0,1,1.21.19,2.53,2.53,0,0,1,1,.56,2.3,2.3,0,0,1,.6.9,3.1,3.1,0,0,1,.21,1.13,3.51,3.51,0,0,1-.22,1.21,2.81,2.81,0,0,1-.62,1,2.57,2.57,0,0,1-1,.64,4,4,0,0,1-1.3.21,3.74,3.74,0,0,1-1.21-.19,2.72,2.72,0,0,1-1-.57,2.45,2.45,0,0,1-.62-.92,3.12,3.12,0,0,1-.21-1.14,3.65,3.65,0,0,1,.19-1.15,2.65,2.65,0,0,1,.61-1,2.71,2.71,0,0,1,1-.67A4,4,0,0,1,273.65,57.12Zm0,1.13a1.61,1.61,0,0,0-.85.23,1.41,1.41,0,0,0-.56.7,2.73,2.73,0,0,0-.18,1,2.31,2.31,0,0,0,.15.86,1.25,1.25,0,0,0,.49.6,1.45,1.45,0,0,0,.81.23,1.51,1.51,0,0,0,.85-.24,1.45,1.45,0,0,0,.55-.7,2.82,2.82,0,0,0,.18-1,2.45,2.45,0,0,0-.14-.83,1.31,1.31,0,0,0-.48-.59A1.46,1.46,0,0,0,273.65,58.25Z"/><path d="M278,64a7.06,7.06,0,0,0,2.14.4,2.34,2.34,0,0,0,.66-.08,1.57,1.57,0,0,0,.52-.25,1.14,1.14,0,0,0,.32-.44,1.94,1.94,0,0,0,.15-.64c0-.24.05-.61.06-1.1a4,4,0,0,1-.38.45,1.58,1.58,0,0,1-.41.29,2.17,2.17,0,0,1-.56.21,2.86,2.86,0,0,1-.67.08,2.82,2.82,0,0,1-.92-.15,2.08,2.08,0,0,1-1.28-1.29,3,3,0,0,1-.18-1,3.67,3.67,0,0,1,.29-1.44,2.72,2.72,0,0,1,.85-1.12,3.14,3.14,0,0,1,1.19-.61,5.58,5.58,0,0,1,1.41-.16c.28,0,.61,0,1,.05s.84.11,1.44.21l-.13,1.74-.11,2.18,0,2a4.43,4.43,0,0,1-.09.65,1.71,1.71,0,0,1-.21.56,1.51,1.51,0,0,1-.36.44,1.83,1.83,0,0,1-.5.31,3.08,3.08,0,0,1-.68.2,5,5,0,0,1-.88.07q-.49,0-1.14-.06a12.53,12.53,0,0,1-1.39-.25Zm4-5.65a4,4,0,0,0-.88-.1,2.43,2.43,0,0,0-1.18.26,1.82,1.82,0,0,0-.72.76,2.35,2.35,0,0,0-.26,1.07,1.91,1.91,0,0,0,.16.76,1.06,1.06,0,0,0,.48.54,1.48,1.48,0,0,0,.72.18,1.55,1.55,0,0,0,.53-.09,1.07,1.07,0,0,0,.44-.27,1.8,1.8,0,0,0,.35-.45,1.91,1.91,0,0,0,.21-.61,6.94,6.94,0,0,0,.1-.84C282,59.22,282,58.81,282,58.35Z"/><path d="M284.69,62.84c.05-.55.09-1,.11-1.38,0-.59.07-1.26.1-2s0-1.49.05-2.18h1.61c-.05.64-.09,1.25-.12,1.82s-.05,1.25-.06,2,0,1.34,0,1.78h-1.67Zm.38-6.34.2-.51.15-.39c.06-.16.12-.3.17-.44h1.64l-.55.72-.45.62h-1.16Z"/><path d="M287.54,62.73l-.12-1.21a6.14,6.14,0,0,0,.91.31,3,3,0,0,0,.69.09,1.6,1.6,0,0,0,.53-.08.63.63,0,0,0,.32-.22.51.51,0,0,0,.1-.3.66.66,0,0,0,0-.14.61.61,0,0,0,0-.12l-.08-.13-.13-.13-.24-.19-.3-.23-.65-.53a2.76,2.76,0,0,1-.38-.39,1.63,1.63,0,0,1-.23-.43,1.16,1.16,0,0,1-.08-.45,1.37,1.37,0,0,1,.95-1.29,3.06,3.06,0,0,1,1.1-.17,9.73,9.73,0,0,1,1.66.17l.07,1.15a3.27,3.27,0,0,0-1.22-.26,2.34,2.34,0,0,0-.56.06.65.65,0,0,0-.34.19.48.48,0,0,0-.11.29.43.43,0,0,0,0,.19.77.77,0,0,0,.11.19,1.62,1.62,0,0,0,.19.18l.45.35c.23.17.42.33.59.47a2.77,2.77,0,0,1,.42.42,1.46,1.46,0,0,1,.26.45,1.37,1.37,0,0,1,.09.49,1.27,1.27,0,0,1-.26.76,1.58,1.58,0,0,1-.76.55,3.17,3.17,0,0,1-1.14.2c-.22,0-.49,0-.81,0A8.82,8.82,0,0,1,287.54,62.73Z"/><path d="M296.05,61.69c0,.2-.11.58-.21,1.12a6.71,6.71,0,0,1-.72.13l-.49,0a3.13,3.13,0,0,1-.73-.08,1.11,1.11,0,0,1-.53-.27,1,1,0,0,1-.29-.45,2,2,0,0,1-.07-.55v-.19c0-.08,0-.34.05-.78l.12-2.28h-.79c0-.22,0-.58.05-1.06h.83c0-.22,0-.58.07-1.09l.65-.12.78-.19c0,.5,0,1,0,1.4h1.4c0,.49,0,.84,0,1.06h-1.4q-.12,2.24-.12,2.58a1.47,1.47,0,0,0,.07.53.46.46,0,0,0,.24.27.72.72,0,0,0,.35.08,1.42,1.42,0,0,0,.29,0A3.69,3.69,0,0,0,296.05,61.69Z"/><path d="M296.81,62.84c.05-.55.09-1,.11-1.38,0-.59.07-1.26.1-2s.05-1.49.06-2.18h1.6c-.05.64-.09,1.25-.12,1.82s-.05,1.25-.07,2,0,1.34,0,1.78h-1.66Zm.3-6.55c0-.37,0-.66,0-.86v-.18h1.61a2.85,2.85,0,0,0,0,.31l0,.73h-1.58Z"/><path d="M304.19,61.57q0,.23-.09.51c0,.19-.07.43-.11.71a7,7,0,0,1-1.55.18,4.82,4.82,0,0,1-.86-.08,2.68,2.68,0,0,1-.77-.3,2.3,2.3,0,0,1-.62-.55,2.34,2.34,0,0,1-.4-.84,3.86,3.86,0,0,1-.14-1,4,4,0,0,1,.23-1.33,2.46,2.46,0,0,1,.65-1,2.24,2.24,0,0,1,1-.55,4.69,4.69,0,0,1,1.17-.14,6.18,6.18,0,0,1,.73,0,6.58,6.58,0,0,1,.9.17l.08,1.2a4.38,4.38,0,0,0-1.42-.28,1.87,1.87,0,0,0-.71.13,1.39,1.39,0,0,0-.57.39,1.76,1.76,0,0,0-.34.63,2.64,2.64,0,0,0-.1.74,2.29,2.29,0,0,0,.16.9,1.19,1.19,0,0,0,.56.59,1.87,1.87,0,0,0,.9.21,3,3,0,0,0,.6-.07A5.28,5.28,0,0,0,304.19,61.57Z"/><path d="M305.73,58.48l.1-.56c0-.11,0-.27.07-.48a12.27,12.27,0,0,1,1.31-.25,8.48,8.48,0,0,1,1.11-.07,3.93,3.93,0,0,1,1.11.14,1.57,1.57,0,0,1,.79.45,1.24,1.24,0,0,1,.29.88c0,.21,0,.74-.09,1.6s-.09,1.74-.11,2.65h-1.55c.05-.45.08-1,.12-1.54l.07-1.37a2.82,2.82,0,0,1-.32.19l-.25.11-.48.14-.56.17a2.17,2.17,0,0,0-.38.16,1.55,1.55,0,0,0-.28.2.89.89,0,0,0-.17.24.75.75,0,0,0-.05.26.61.61,0,0,0,.14.4.78.78,0,0,0,.33.24,1.75,1.75,0,0,0,.48.06l.37,0a2.65,2.65,0,0,0,.53-.13,8.36,8.36,0,0,0-.27.93,5,5,0,0,1-.62.08L307,63a2.89,2.89,0,0,1-1.14-.19,1.27,1.27,0,0,1-.66-.59,1.75,1.75,0,0,1-.21-.82,1.31,1.31,0,0,1,.09-.47,1.27,1.27,0,0,1,.24-.42,1.87,1.87,0,0,1,.41-.37,3.33,3.33,0,0,1,.73-.35,10.73,10.73,0,0,1,1.27-.33l.43-.11a1.63,1.63,0,0,0,.36-.13.76.76,0,0,0,.23-.15.55.55,0,0,0,.15-.2.54.54,0,0,0,.05-.22.52.52,0,0,0-.14-.36.71.71,0,0,0-.37-.2,1.88,1.88,0,0,0-.49-.06A6.05,6.05,0,0,0,305.73,58.48Z"/><path d="M319.49,61.59c-.05.22-.12.61-.2,1.17-.4.08-.73.14-1,.17a7.63,7.63,0,0,1-.82,0,5.6,5.6,0,0,1-1.29-.14,2.36,2.36,0,0,1-1-.53,2.23,2.23,0,0,1-.63-.93,3.27,3.27,0,0,1-.2-1.17,3.69,3.69,0,0,1,.23-1.31,2.77,2.77,0,0,1,.66-1,2.47,2.47,0,0,1,1-.57,3.66,3.66,0,0,1,1.14-.17,3.74,3.74,0,0,1,1.07.14,2,2,0,0,1,.85.46,2,2,0,0,1,.52.76,2.59,2.59,0,0,1,.13,1.53h-4c0,.14,0,.25,0,.33A1.82,1.82,0,0,0,316,61a1.41,1.41,0,0,0,.37.53,1.54,1.54,0,0,0,.58.31,2.16,2.16,0,0,0,.66.1,4.12,4.12,0,0,0,.82-.08A8.42,8.42,0,0,0,319.49,61.59Zm-3.55-2.22h2.57a2,2,0,0,0,0-.39,1.21,1.21,0,0,0-.07-.29.85.85,0,0,0-.16-.28.77.77,0,0,0-.23-.21.9.9,0,0,0-.3-.12,1.5,1.5,0,0,0-.37-.05,1.33,1.33,0,0,0-.45.07,1.39,1.39,0,0,0-.4.21,1.06,1.06,0,0,0-.29.31,1.43,1.43,0,0,0-.17.32A4.09,4.09,0,0,0,315.94,59.37Z"/><path d="M323.73,62.84l.14-1.91.11-2.39.07-2.38c0-.11,0-.38,0-.82h1.15l1.06,0h1.13a9,9,0,0,1,1.2.07,3.07,3.07,0,0,1,1,.29,2.69,2.69,0,0,1,.71.53,2.94,2.94,0,0,1,.5.71,4.13,4.13,0,0,1,.29.86,4.5,4.5,0,0,1,.1,1,5,5,0,0,1-.33,1.8,3.37,3.37,0,0,1-1,1.41,3.17,3.17,0,0,1-1.44.72,8.75,8.75,0,0,1-1.79.16h-2.91Zm1.68-1.17.89,0a8.85,8.85,0,0,0,.93,0,2.82,2.82,0,0,0,.73-.16,1.85,1.85,0,0,0,.62-.37,2.21,2.21,0,0,0,.51-.63,3.16,3.16,0,0,0,.3-.78,3.8,3.8,0,0,0,.11-.89,2.94,2.94,0,0,0-.28-1.35,1.78,1.78,0,0,0-.74-.77,3.39,3.39,0,0,0-1.42-.23l-1.42,0Z"/><path d="M332.12,62.84c.05-.55.09-1,.11-1.38,0-.59.07-1.26.1-2s.05-1.49.06-2.18H334c-.05.64-.09,1.25-.12,1.82s-.05,1.25-.07,2,0,1.34,0,1.78h-1.66Zm.3-6.55c0-.37,0-.66,0-.86v-.18h1.61a2.85,2.85,0,0,0,0,.31l0,.73h-1.58Z"/><path d="M335,62.73l-.12-1.21a6.14,6.14,0,0,0,.91.31,3,3,0,0,0,.69.09,1.54,1.54,0,0,0,.52-.08.59.59,0,0,0,.32-.22.53.53,0,0,0,.11-.3.68.68,0,0,0,0-.14.31.31,0,0,0-.05-.12.57.57,0,0,0-.08-.13l-.13-.13-.23-.19-.3-.23-.65-.53a2.76,2.76,0,0,1-.38-.39,1.67,1.67,0,0,1-.24-.43,1.38,1.38,0,0,1-.08-.45,1.35,1.35,0,0,1,.25-.76,1.33,1.33,0,0,1,.71-.53,3.06,3.06,0,0,1,1.1-.17,9.83,9.83,0,0,1,1.66.17l.07,1.15a3.32,3.32,0,0,0-1.23-.26,2.26,2.26,0,0,0-.55.06.68.68,0,0,0-.35.19.46.46,0,0,0-.1.29.63.63,0,0,0,0,.19.59.59,0,0,0,.12.19.82.82,0,0,0,.19.18l.44.35c.23.17.43.33.6.47a2.77,2.77,0,0,1,.42.42,1.66,1.66,0,0,1,.25.45,1.37,1.37,0,0,1,.09.49,1.26,1.26,0,0,1-.25.76,1.57,1.57,0,0,1-.77.55,3.17,3.17,0,0,1-1.14.2c-.22,0-.49,0-.8,0A8.43,8.43,0,0,1,335,62.73Z"/><path d="M343.48,61.69c0,.2-.11.58-.21,1.12a7.17,7.17,0,0,1-.72.13l-.5,0a3.26,3.26,0,0,1-.73-.08,1.16,1.16,0,0,1-.53-.27,1,1,0,0,1-.28-.45,2,2,0,0,1-.07-.55v-.19c0-.08,0-.34.05-.78l.12-2.28h-.79c0-.22,0-.58.05-1.06h.83c0-.22,0-.58.06-1.09l.65-.12.79-.19c0,.5,0,1,0,1.4h1.39c0,.49,0,.84,0,1.06h-1.4C342,59.86,342,60.72,342,61a1.47,1.47,0,0,0,.07.53.46.46,0,0,0,.24.27.72.72,0,0,0,.35.08,1.46,1.46,0,0,0,.29,0A3.69,3.69,0,0,0,343.48,61.69Z"/><path d="M344.23,62.84l.16-2.61,0-1.52c0-.31,0-.62,0-.94,0-.05,0-.23,0-.52h1.5l0,.77c.14-.19.26-.34.35-.44a1.76,1.76,0,0,1,.34-.25,1.67,1.67,0,0,1,.41-.16,2.31,2.31,0,0,1,.46-.05,2.38,2.38,0,0,1,.45.05c0,.34,0,.78,0,1.3a2.23,2.23,0,0,0-.59-.09,1.4,1.4,0,0,0-.56.1,1.17,1.17,0,0,0-.44.29,1.49,1.49,0,0,0-.32.48,2,2,0,0,0-.16.6c0,.19-.05.52-.07,1s0,.91,0,1.36c0,.17,0,.39,0,.65h-1.58Z"/><path d="M348.6,62.84q.09-.83.12-1.38c0-.59.07-1.26.1-2s0-1.49.06-2.18h1.59c0,.64-.08,1.25-.11,1.82s-.06,1.25-.07,2,0,1.34,0,1.78H348.6Zm.3-6.55c0-.37,0-.66,0-.86v-.18h1.61c0,.09,0,.2,0,.31l0,.73H348.9Z"/><path d="M351.61,62.84c.06-.7.14-1.91.22-3.63s.12-3,.12-3.87h1.61c-.06.51-.11,1.17-.15,1.95.36-.07.64-.11.86-.14l.63,0a3.48,3.48,0,0,1,1.45.27,2.06,2.06,0,0,1,.95.9,3,3,0,0,1,.36,1.53,4.12,4.12,0,0,1-.18,1.21,3.24,3.24,0,0,1-.53,1,2.24,2.24,0,0,1-.86.68,2.94,2.94,0,0,1-1.63.16,3,3,0,0,1-.45-.15,2.6,2.6,0,0,1-.37-.23,1.72,1.72,0,0,1-.27-.27c-.07-.09-.15-.21-.25-.37l0,.94h-1.49Zm1.7-4.43-.05.94c0,.21,0,.4,0,.59a3.14,3.14,0,0,0,.14,1.08,1.13,1.13,0,0,0,.47.6,1.3,1.3,0,0,0,.75.22,1.24,1.24,0,0,0,.79-.25,1.54,1.54,0,0,0,.51-.71,2.81,2.81,0,0,0,.18-1,1.77,1.77,0,0,0-.4-1.21,1.5,1.5,0,0,0-1.18-.45,3.12,3.12,0,0,0-.52,0C353.8,58.29,353.58,58.34,353.31,58.41Z"/><path d="M364.27,62.84h-1.48v-.91c-.1.15-.19.27-.27.37a1.35,1.35,0,0,1-.3.27,1.94,1.94,0,0,1-.4.22,4.71,4.71,0,0,1-.51.13,3.83,3.83,0,0,1-.6,0,2.89,2.89,0,0,1-1.07-.18,1.64,1.64,0,0,1-.72-.54,1.72,1.72,0,0,1-.27-1V61.1l.09-1.42.08-1.87c0-.15,0-.34,0-.56h1.57l-.18,2.51c0,.19,0,.35,0,.49s0,.23,0,.29a1.54,1.54,0,0,0,.12.65.77.77,0,0,0,.41.4,1.46,1.46,0,0,0,.63.14,1.53,1.53,0,0,0,.6-.12,1.4,1.4,0,0,0,.44-.31,1.43,1.43,0,0,0,.31-.53,2.8,2.8,0,0,0,.15-.67c0-.21.05-.55.07-1s.05-1.2.06-1.81h1.56c0,.52-.09,1.18-.13,2s-.09,1.44-.1,1.95S364.28,62.23,364.27,62.84Z"/><path d="M365.64,62.84c.05-.55.09-1,.11-1.38,0-.59.07-1.26.1-2s0-1.49.06-2.18h1.6c-.05.64-.09,1.25-.12,1.82s-.05,1.25-.07,2,0,1.34,0,1.78h-1.66Zm.3-6.55c0-.37,0-.66,0-.86v-.18h1.61a2.85,2.85,0,0,0,0,.31l0,.73h-1.58Z"/><path d="M373,61.57a3.78,3.78,0,0,1-.08.51c0,.19-.07.43-.11.71a7,7,0,0,1-1.55.18,4.74,4.74,0,0,1-.86-.08,2.68,2.68,0,0,1-.77-.3A2.3,2.3,0,0,1,369,62a2.34,2.34,0,0,1-.4-.84,3.86,3.86,0,0,1-.14-1,4.26,4.26,0,0,1,.22-1.33,2.58,2.58,0,0,1,.66-1,2.24,2.24,0,0,1,.95-.55,4.69,4.69,0,0,1,1.17-.14,6.18,6.18,0,0,1,.73,0,6.58,6.58,0,0,1,.9.17l.08,1.2a4.38,4.38,0,0,0-1.43-.28,1.85,1.85,0,0,0-.7.13,1.39,1.39,0,0,0-.57.39,1.76,1.76,0,0,0-.34.63,2.64,2.64,0,0,0-.1.74,2.29,2.29,0,0,0,.16.9,1.19,1.19,0,0,0,.56.59,1.87,1.87,0,0,0,.9.21,3,3,0,0,0,.6-.07A4.84,4.84,0,0,0,373,61.57Zm-1.16,1.76-.71,1.4h-1.65c.36-.42.74-.89,1.14-1.42a3.91,3.91,0,0,0,.67,0Z"/><path d="M374.56,58.48c.05-.27.08-.45.09-.56s0-.27.07-.48a12.89,12.89,0,0,1,1.32-.25,8.48,8.48,0,0,1,1.11-.07,3.93,3.93,0,0,1,1.11.14,1.62,1.62,0,0,1,.79.45,1.24,1.24,0,0,1,.28.88c0,.21,0,.74-.08,1.6s-.1,1.74-.11,2.65h-1.55c0-.45.08-1,.11-1.54l.08-1.37a2.82,2.82,0,0,1-.32.19l-.25.11-.49.14c-.23.06-.41.12-.55.17a1.89,1.89,0,0,0-.38.16,1.55,1.55,0,0,0-.28.2.89.89,0,0,0-.17.24.75.75,0,0,0,0,.26.6.6,0,0,0,.13.4.81.81,0,0,0,.34.24,1.75,1.75,0,0,0,.48.06l.37,0a2.65,2.65,0,0,0,.53-.13,8.36,8.36,0,0,0-.27.93,5,5,0,0,1-.62.08l-.43,0a2.89,2.89,0,0,1-1.14-.19,1.24,1.24,0,0,1-.66-.59,1.75,1.75,0,0,1-.21-.82,1.55,1.55,0,0,1,.08-.47,1.51,1.51,0,0,1,.25-.42,1.87,1.87,0,0,1,.41-.37,3.33,3.33,0,0,1,.73-.35,11,11,0,0,1,1.26-.33l.44-.11a1.63,1.63,0,0,0,.36-.13.76.76,0,0,0,.23-.15.55.55,0,0,0,.15-.2.54.54,0,0,0,0-.22.48.48,0,0,0-.14-.36.64.64,0,0,0-.36-.2,1.88,1.88,0,0,0-.49-.06A6.05,6.05,0,0,0,374.56,58.48Zm.95-2.08a2.75,2.75,0,0,1,.1-.71.72.72,0,0,1,.26-.4.61.61,0,0,1,.37-.12h.15l.15,0,.14.06.22.14.29.18.18.1a.41.41,0,0,0,.18,0,.28.28,0,0,0,.13,0,.28.28,0,0,0,.1-.09.58.58,0,0,0,.05-.14s0-.13,0-.23h.7a2.28,2.28,0,0,1-.07.63,1,1,0,0,1-.24.44.6.6,0,0,1-.44.17.76.76,0,0,1-.21,0,1,1,0,0,1-.21-.09l-.39-.23-.36-.22a.53.53,0,0,0-.17,0,.23.23,0,0,0-.16.06.24.24,0,0,0-.09.15c0,.06,0,.16,0,.29h-.68Z"/><path d="M383.52,57.12a3.74,3.74,0,0,1,1.21.19,2.53,2.53,0,0,1,1,.56,2.3,2.3,0,0,1,.6.9,3.1,3.1,0,0,1,.21,1.13,3.29,3.29,0,0,1-.22,1.21,2.81,2.81,0,0,1-.62,1,2.57,2.57,0,0,1-1,.64,4,4,0,0,1-1.3.21,3.74,3.74,0,0,1-1.21-.19,2.72,2.72,0,0,1-1-.57,2.45,2.45,0,0,1-.62-.92,3.12,3.12,0,0,1-.21-1.14,3.65,3.65,0,0,1,.19-1.15,2.65,2.65,0,0,1,.61-1,2.71,2.71,0,0,1,1-.67A4,4,0,0,1,383.52,57.12Zm0,1.13a1.61,1.61,0,0,0-.85.23,1.41,1.41,0,0,0-.56.7,2.73,2.73,0,0,0-.18,1,2.31,2.31,0,0,0,.15.86,1.25,1.25,0,0,0,.49.6,1.45,1.45,0,0,0,.81.23,1.49,1.49,0,0,0,.85-.24,1.45,1.45,0,0,0,.55-.7,2.82,2.82,0,0,0,.18-1,2.45,2.45,0,0,0-.14-.83,1.31,1.31,0,0,0-.48-.59A1.46,1.46,0,0,0,383.52,58.25Z"/><path d="M390.39,62.84c.07-.78.12-1.41.14-1.91s.06-1.34.1-2.53.06-2,.06-2.46v-.6h1.15l1.13,0h1.12a5.36,5.36,0,0,1,.92,0,2.67,2.67,0,0,1,.56.15,1.46,1.46,0,0,1,.4.26,1.48,1.48,0,0,1,.29.36,1.92,1.92,0,0,1,.17.44,2,2,0,0,1,.06.49,2.71,2.71,0,0,1-.07.58,1.76,1.76,0,0,1-.22.5,1.35,1.35,0,0,1-.33.38,1.77,1.77,0,0,1-.35.25,3.16,3.16,0,0,1-.46.18l.41.11a2,2,0,0,1,.33.16,1.23,1.23,0,0,1,.33.28,1.61,1.61,0,0,1,.4.76,2,2,0,0,1,.05.48,2,2,0,0,1-.23,1,1.8,1.8,0,0,1-.62.69,2.34,2.34,0,0,1-.9.34,15.24,15.24,0,0,1-2.12.09h-2.32Zm1.66-1.07h1.25a4.47,4.47,0,0,0,.59,0,1.91,1.91,0,0,0,.41-.11,1.19,1.19,0,0,0,.3-.17.82.82,0,0,0,.19-.22,1.09,1.09,0,0,0,.14-.31,1.49,1.49,0,0,0,.05-.36,1.06,1.06,0,0,0-.09-.45.93.93,0,0,0-.26-.33,1.14,1.14,0,0,0-.41-.21,2.94,2.94,0,0,0-.7-.06h-1.38Zm.14-3.32h.88a6.08,6.08,0,0,0,.76,0,1.67,1.67,0,0,0,.41-.11.88.88,0,0,0,.36-.24,1.29,1.29,0,0,0,.22-.37,1.45,1.45,0,0,0,.06-.41,1,1,0,0,0-.07-.39.68.68,0,0,0-.23-.3,1.15,1.15,0,0,0-.37-.17,3.17,3.17,0,0,0-.63,0h-1.32Z"/><path d="M397.62,62.84c0-.14,0-.25,0-.34l0-.8c.46-.41.88-.81,1.26-1.19s.76-.79,1.16-1.23.69-.79.89-1.05a2.94,2.94,0,0,0,.33-.49.9.9,0,0,0,.11-.27,1,1,0,0,0,0-.23.67.67,0,0,0-.18-.49,1.17,1.17,0,0,0-.5-.3,2.29,2.29,0,0,0-.73-.11,6.48,6.48,0,0,0-.84.07c-.3.05-.68.13-1.16.25l.11-.56c0-.13.05-.35.1-.66a13.05,13.05,0,0,1,2.44-.23,4.9,4.9,0,0,1,1,.1,2.79,2.79,0,0,1,.89.34,1.78,1.78,0,0,1,.56.57,1.35,1.35,0,0,1,.18.67,1.86,1.86,0,0,1-.16.79,3.94,3.94,0,0,1-.38.69,8.67,8.67,0,0,1-.71.92c-.32.39-.68.78-1.06,1.19s-.81.82-1.28,1.26h2.62l.69-.06c0,.12,0,.26,0,.45s0,.42-.06.72h-5.35Z"/><path d="M404.61,62.84c.07-.78.12-1.41.14-1.91s.06-1.34.1-2.53.06-2,.06-2.46v-.6h1.15l1.13,0h1.12a5.36,5.36,0,0,1,.92,0,2.67,2.67,0,0,1,.56.15,1.46,1.46,0,0,1,.4.26,1.48,1.48,0,0,1,.29.36,1.92,1.92,0,0,1,.17.44,2,2,0,0,1,.06.49,2.2,2.2,0,0,1-.07.58,1.76,1.76,0,0,1-.22.5,1.35,1.35,0,0,1-.33.38,1.77,1.77,0,0,1-.35.25,3.16,3.16,0,0,1-.46.18l.41.11a1.66,1.66,0,0,1,.33.16,1.44,1.44,0,0,1,.34.28,2,2,0,0,1,.25.35,1.65,1.65,0,0,1,.14.41,2,2,0,0,1,.05.48,2.13,2.13,0,0,1-.22,1,1.91,1.91,0,0,1-.63.69,2.34,2.34,0,0,1-.9.34,15.24,15.24,0,0,1-2.12.09h-2.32Zm1.67-1.07h1.24a4.37,4.37,0,0,0,.59,0,1.91,1.91,0,0,0,.41-.11,1,1,0,0,0,.3-.17.82.82,0,0,0,.19-.22,1.09,1.09,0,0,0,.14-.31,1.49,1.49,0,0,0,.05-.36,1.06,1.06,0,0,0-.09-.45.93.93,0,0,0-.26-.33,1.18,1.18,0,0,0-.4-.21,3.1,3.1,0,0,0-.71-.06h-1.38Zm.13-3.32h.88a6.08,6.08,0,0,0,.76,0,1.67,1.67,0,0,0,.41-.11.88.88,0,0,0,.36-.24,1.29,1.29,0,0,0,.22-.37,1.47,1.47,0,0,0,.07-.41,1,1,0,0,0-.08-.39.68.68,0,0,0-.23-.3,1.15,1.15,0,0,0-.37-.17,3.17,3.17,0,0,0-.63,0h-1.32Z"/><path d="M420.09,59.2h1.36a4.35,4.35,0,0,1-.62,2.3c.23.26.46.5.67.72s.42.43.59.63h-1.77l-.63-.66a3.8,3.8,0,0,1-.36.26,2.87,2.87,0,0,1-.36.21,3.61,3.61,0,0,1-.46.17,2.71,2.71,0,0,1-.51.11,3.65,3.65,0,0,1-.59,0A3.75,3.75,0,0,1,416,62.7a2,2,0,0,1-1-.79,2.16,2.16,0,0,1-.18-2,2.26,2.26,0,0,1,.56-.76,5.84,5.84,0,0,1,1.21-.8,4.23,4.23,0,0,1-.41-.77A1.85,1.85,0,0,1,416,57a1.48,1.48,0,0,1,.17-.7,1.65,1.65,0,0,1,.49-.6,1.93,1.93,0,0,1,.72-.35,3.36,3.36,0,0,1,.85-.1,6.5,6.5,0,0,1,1.59.22l0,1.23a3.38,3.38,0,0,0-.63-.25,2.2,2.2,0,0,0-.5-.06,1.63,1.63,0,0,0-.59.11.94.94,0,0,0-.4.33.8.8,0,0,0-.14.46,1.41,1.41,0,0,0,0,.28,2.05,2.05,0,0,0,.14.34,4.23,4.23,0,0,0,.4.64c.21.29.43.56.66.82l.6.62c.15.16.3.31.44.47.05-.13.08-.23.11-.32s0-.21.06-.37A4.11,4.11,0,0,0,420.09,59.2ZM419,61.29l-.72-.78-.52-.56-.49-.58a4.73,4.73,0,0,0-.56.38,1.56,1.56,0,0,0-.31.32,1.15,1.15,0,0,0-.17.33,1.26,1.26,0,0,0-.05.33,1,1,0,0,0,.19.59,1.1,1.1,0,0,0,.51.41,2,2,0,0,0,.75.14,1.64,1.64,0,0,0,.45,0,1.89,1.89,0,0,0,.38-.12,1.23,1.23,0,0,0,.28-.18A2.39,2.39,0,0,0,419,61.29Z"/><path d="M425.78,62.84c.07-.78.11-1.41.14-1.91s.06-1.34.1-2.53.06-2,.06-2.46c0-.14,0-.34,0-.6h1.15l1.14,0h1.11a5.57,5.57,0,0,1,.93,0,2.57,2.57,0,0,1,.55.15,1.51,1.51,0,0,1,.41.26,1.45,1.45,0,0,1,.28.36,1.57,1.57,0,0,1,.18.44,2,2,0,0,1,.06.49,2.2,2.2,0,0,1-.08.58,1.75,1.75,0,0,1-.21.5,1.77,1.77,0,0,1-.33.38,1.56,1.56,0,0,1-.36.25,2.61,2.61,0,0,1-.45.18l.41.11a2.45,2.45,0,0,1,.33.16,1.23,1.23,0,0,1,.33.28,1.33,1.33,0,0,1,.25.35,2.19,2.19,0,0,1,.15.41,2.61,2.61,0,0,1,.05.48,2.13,2.13,0,0,1-.23,1,1.75,1.75,0,0,1-.63.69,2.34,2.34,0,0,1-.9.34,15.06,15.06,0,0,1-2.11.09h-2.32Zm1.66-1.07h1.25a4.47,4.47,0,0,0,.59,0,1.82,1.82,0,0,0,.4-.11,1.27,1.27,0,0,0,.31-.17,1,1,0,0,0,.19-.22,1.46,1.46,0,0,0,.14-.31,1.49,1.49,0,0,0,.05-.36,1.24,1.24,0,0,0-.09-.45.93.93,0,0,0-.26-.33,1.14,1.14,0,0,0-.41-.21,3,3,0,0,0-.7-.06h-1.39Zm.14-3.32h.88a6.19,6.19,0,0,0,.76,0,1.8,1.8,0,0,0,.41-.11.88.88,0,0,0,.36-.24,1.25,1.25,0,0,0,.21-.37,1.18,1.18,0,0,0,.07-.41,1,1,0,0,0-.07-.39.76.76,0,0,0-.23-.3,1.26,1.26,0,0,0-.37-.17,3.24,3.24,0,0,0-.63,0h-1.32Z"/><path d="M433,62.84c0-.14,0-.25,0-.34l0-.8c.45-.41.87-.81,1.25-1.19s.77-.79,1.16-1.23.7-.79.9-1.05a2.94,2.94,0,0,0,.33-.49,2.2,2.2,0,0,0,.11-.27,1,1,0,0,0,0-.23.67.67,0,0,0-.18-.49,1.17,1.17,0,0,0-.5-.3,2.33,2.33,0,0,0-.73-.11,6.48,6.48,0,0,0-.84.07c-.3.05-.69.13-1.16.25l.11-.56q0-.2.09-.66a13.13,13.13,0,0,1,2.44-.23,4.93,4.93,0,0,1,1,.1,2.74,2.74,0,0,1,.88.34,1.72,1.72,0,0,1,.57.57,1.35,1.35,0,0,1,.18.67,3,3,0,0,1,0,.42,2,2,0,0,1-.12.37,4.73,4.73,0,0,1-.38.69,10.28,10.28,0,0,1-.71.92c-.33.39-.68.78-1.06,1.19s-.81.82-1.28,1.26h2.62l.69-.06c0,.12,0,.26,0,.45s0,.42-.06.72H433Z"/><path d="M446.12,61.46c-.08.43-.15.87-.2,1.31a11.25,11.25,0,0,1-1.15.16c-.35,0-.65,0-.9,0a5.42,5.42,0,0,1-1.57-.23A3.85,3.85,0,0,1,441,62a2.8,2.8,0,0,1-.88-1.2,4.35,4.35,0,0,1-.27-1.55,4.28,4.28,0,0,1,.33-1.69,3.64,3.64,0,0,1,.93-1.31,3.87,3.87,0,0,1,1.44-.79,5.54,5.54,0,0,1,1.73-.26,9.91,9.91,0,0,1,1.94.2c0,.33,0,.56,0,.69l0,.59a9.82,9.82,0,0,0-1-.23,5.43,5.43,0,0,0-.78-.06,3.52,3.52,0,0,0-1.13.18,2.61,2.61,0,0,0-1,.57,2.66,2.66,0,0,0-.64.94,3.05,3.05,0,0,0-.22,1.15,2.77,2.77,0,0,0,.28,1.28,2.05,2.05,0,0,0,.88.92,2.87,2.87,0,0,0,1.5.35A7.4,7.4,0,0,0,446.12,61.46Z"/><path d="M92.13,47.11c.05-.66.08-1.19.08-1.59l.16-3.8q3.25-2.92,5.95-5.64c1.8-1.82,3.64-3.76,5.52-5.84s3.29-3.74,4.25-5a17.24,17.24,0,0,0,1.56-2.3,6.62,6.62,0,0,0,.52-1.31,4.32,4.32,0,0,0,.13-1.08,3.21,3.21,0,0,0-.86-2.33,5.62,5.62,0,0,0-2.36-1.4,10.81,10.81,0,0,0-3.48-.51,26,26,0,0,0-4,.32q-2.15.31-5.5,1.16l.49-2.63c.11-.63.26-1.68.47-3.16a65.74,65.74,0,0,1,11.58-1.09,24.23,24.23,0,0,1,4.87.48A12.52,12.52,0,0,1,115.74,13a7.64,7.64,0,0,1,2.68,2.69,6.44,6.44,0,0,1,.85,3.19,10,10,0,0,1-.19,2,8.53,8.53,0,0,1-.56,1.79,22,22,0,0,1-1.79,3.26,51.2,51.2,0,0,1-3.39,4.38q-2.31,2.73-5,5.6c-1.82,1.92-3.84,3.92-6.07,6h2.38l5.81,0c1.93,0,3.35,0,4.25-.06s2-.13,3.26-.25c0,.54-.09,1.24-.17,2.1s-.17,2-.27,3.42q-5.93,0-12.31,0Q97.38,47.06,92.13,47.11Z"/><path d="M138.77,25.5a17.09,17.09,0,0,1,3.18-.34,13.31,13.31,0,0,1,5.14,1,7.65,7.65,0,0,1,3.81,3.46,11,11,0,0,1,1.38,5.44,13.27,13.27,0,0,1-.93,4.86,11.74,11.74,0,0,1-2.88,4.28,11.34,11.34,0,0,1-4.69,2.71,19.9,19.9,0,0,1-5.76.82,19.51,19.51,0,0,1-5.11-.66,12.61,12.61,0,0,1-4.42-2.18,9.1,9.1,0,0,1-2.92-3.8,12,12,0,0,1-.95-4.7,22.67,22.67,0,0,1,.41-4.12,25.57,25.57,0,0,1,1.91-5.57,58.85,58.85,0,0,1,3.95-7.21q2.46-3.9,5.59-8H146q-3.79,4.46-5.07,6.12-1.8,2.34-3.38,4.83a51.53,51.53,0,0,0-2.67,4.68,34.19,34.19,0,0,0-1.78,4.22,14.3,14.3,0,0,0-.63,2.37,13.4,13.4,0,0,0-.21,2.31,6.27,6.27,0,0,0,1.66,4.58,5.71,5.71,0,0,0,4.27,1.7,6.45,6.45,0,0,0,3.4-.88,5.39,5.39,0,0,0,2.15-2.39,7.71,7.71,0,0,0,.69-3.23,6.15,6.15,0,0,0-.66-2.93,4.06,4.06,0,0,0-2.24-1.84,9,9,0,0,0-3.3-.62,12.28,12.28,0,0,0-2.53.32C137.37,28,138.41,26.21,138.77,25.5Z"/><path d="M171.34,25.5a17.09,17.09,0,0,1,3.18-.34,13.22,13.22,0,0,1,5.13,1,7.65,7.65,0,0,1,3.81,3.46,11,11,0,0,1,1.38,5.44,13.47,13.47,0,0,1-.92,4.86A12,12,0,0,1,181,44.21a11.38,11.38,0,0,1-4.7,2.71,19.8,19.8,0,0,1-5.76.82,19.56,19.56,0,0,1-5.11-.66,12.7,12.7,0,0,1-4.42-2.18,9.19,9.19,0,0,1-2.92-3.8,12.18,12.18,0,0,1-.95-4.7,22.74,22.74,0,0,1,.42-4.12,24.94,24.94,0,0,1,1.9-5.57,60.23,60.23,0,0,1,3.95-7.21q2.46-3.9,5.59-8h9.49q-3.78,4.46-5.06,6.12c-1.21,1.56-2.33,3.17-3.39,4.83a51.28,51.28,0,0,0-2.66,4.68,35.92,35.92,0,0,0-1.79,4.22,14.3,14.3,0,0,0-.63,2.37,13.4,13.4,0,0,0-.21,2.31,6.31,6.31,0,0,0,1.66,4.58,5.73,5.73,0,0,0,4.27,1.7,6.43,6.43,0,0,0,3.4-.88,5.42,5.42,0,0,0,2.16-2.39,7.71,7.71,0,0,0,.69-3.23,6,6,0,0,0-.67-2.93,4.06,4.06,0,0,0-2.24-1.84,9,9,0,0,0-3.3-.62,12.37,12.37,0,0,0-2.53.32C169.94,28,171,26.21,171.34,25.5Z"/><path d="M204.6,10.9a13.43,13.43,0,0,1,7.06,1.77,11.56,11.56,0,0,1,4.55,5.66,23.66,23.66,0,0,1,1.61,9.07,34.37,34.37,0,0,1-1,8.16,20.64,20.64,0,0,1-2.74,6.68,11.52,11.52,0,0,1-4.78,4,14.83,14.83,0,0,1-6.5,1.45,13.29,13.29,0,0,1-6-1.29,11.11,11.11,0,0,1-4.26-3.62,14.61,14.61,0,0,1-2.3-5.25,27.46,27.46,0,0,1-.65-6,35.74,35.74,0,0,1,1-8.37,20.82,20.82,0,0,1,2.86-6.87,11.49,11.49,0,0,1,4.83-4.1A14.88,14.88,0,0,1,204.6,10.9Zm-.19,5.4a5.14,5.14,0,0,0-1.95.39A5.76,5.76,0,0,0,200.61,18a7.75,7.75,0,0,0-1.49,2.1A17.45,17.45,0,0,0,198.05,23a26.29,26.29,0,0,0-.76,4.07,42.47,42.47,0,0,0-.27,4.82,19.27,19.27,0,0,0,.72,5.78,7.45,7.45,0,0,0,2.14,3.46,4.91,4.91,0,0,0,3.28,1.22,5,5,0,0,0,2-.4,5.67,5.67,0,0,0,2-1.53,10.28,10.28,0,0,0,1.81-3.27,22.74,22.74,0,0,0,1.16-4.73,37.44,37.44,0,0,0,.36-5.2,21.68,21.68,0,0,0-.69-6,7.89,7.89,0,0,0-2.07-3.64A4.66,4.66,0,0,0,204.41,16.3Z"/><path d="M223.56,47.74l.78-10.33.56-12,.35-10.88V10.9q6.67.06,13.91,0l5.18,0,7.8,0-.32,5.83-2.57-.14c-.7,0-1.67-.06-2.91-.08l-3.81,0h-5.44l-3.71.09-.44,9.59q3.7.08,7.45.08c1.73,0,4.65-.06,8.75-.16-.14,1.63-.27,3.6-.38,5.88l-8.25-.08c-2.13,0-4.77.05-7.94.16l-.44,10.1,3,0c.87,0,2.85,0,5.94,0L246.9,42l3.92-.19q-.27,3.14-.38,5.91-7,0-12.66-.05l-8.88,0Z"/><path d="M251,50.51c.29-.2,6.62-7.29,8-9.27l7.33-9.39,2.31-3.12-3.32-5.44-8-12.39c1.77,0,3.46,0,5.08,0,1.3,0,2.78,0,4.46,0,1,2.12,2.09,4.33,3.34,6.61s2.21,4.16,2.88,5.62c1.12-1.51,2.7-3.51,4.75-6s3.65-4.56,4.81-6.25c1.48,0,3,0,4.48,0,1,0,2.47,0,4.48,0q-2.16,2.82-6.1,7.77T278,28.38q3.72,6.21,12.35,19.36c-2.1,0-3.63-.05-4.58-.05-1.55,0-3.21,0-5,.05-1-1.76-2.34-3.9-4-6.42s-3-4.59-4-6.2q-1.53,2.12-4.54,5.82c-2,2.48-7.45,9.72-9.15,11.76-7.85,9-16.86,10-27.53,10.29C235,61.75,244.48,57.18,251,50.51Z"/><path d="M294.28,47.74l.49-6.39.67-14.17.33-10.29c0-.93,0-1.88,0-2.83,0-.7,0-1.76,0-3.16,2.3,0,4.17,0,5.61,0,1.15,0,2.75,0,4.81-.08s3.68-.08,4.88-.08a20.19,20.19,0,0,1,5.48.54,9,9,0,0,1,3.27,1.86,8.5,8.5,0,0,1,2.13,3,11.38,11.38,0,0,1,.81,4.3A11.91,11.91,0,0,1,321,26.87a10.82,10.82,0,0,1-4.82,4.25,16.36,16.36,0,0,1-6.83,1.4,22.06,22.06,0,0,1-3.91-.38q-.6-2.8-1.35-5.26a16.26,16.26,0,0,0,3.31.35,10.19,10.19,0,0,0,3.88-.68,5.51,5.51,0,0,0,2.61-2.19,6.36,6.36,0,0,0,1-3.45,5.2,5.2,0,0,0-.41-2.07,3.64,3.64,0,0,0-1.17-1.52,4.6,4.6,0,0,0-1.7-.77,13.55,13.55,0,0,0-2.65-.2c-1,0-2,0-3,.06s-1.93.05-2.72.05c-.21,3.53-.38,6.9-.48,10.12l-.32,10.31q-.17,5.49-.17,8c0,.64,0,1.58,0,2.8l-3.92-.05Z"/><path d="M326.73,47.74q.81-8,1.22-18.49t.4-18.35c2.16,0,4,0,5.43,0s3.1,0,4.6-.08,3.09-.08,4.76-.08a40.75,40.75,0,0,1,5.6.35,10.59,10.59,0,0,1,4.38,1.62A8.18,8.18,0,0,1,356,15.84a9.07,9.07,0,0,1,.93,4.21,11.12,11.12,0,0,1-.35,2.87,10.12,10.12,0,0,1-1,2.57,9.21,9.21,0,0,1-1.63,2.1A9.73,9.73,0,0,1,352,29a10.9,10.9,0,0,1-2.12.9c-.79.25-1.85.56-3.18.92l1.84,3.56c.59,1.13,1.71,3.17,3.37,6.1l2.72,4.78c.15.25.58,1.07,1.3,2.45l-4.36-.05-4.57.05-3-7.18c-.52-1.09-1.15-2.39-1.89-3.88l-3.26-6.56c-.32-.61-.77-1.53-1.35-2.75a19.49,19.49,0,0,0,3.3.32,11.35,11.35,0,0,0,4.24-.76A6,6,0,0,0,348,24.6a6.14,6.14,0,0,0,1-3.44,5.11,5.11,0,0,0-.44-2.11,3.9,3.9,0,0,0-1.5-1.64,6.08,6.08,0,0,0-2.51-.87,23.86,23.86,0,0,0-2.92-.19l-2.21,0c-.94,0-2.09,0-3.46,0L335.5,27.5,335,47.74l-4.18-.05Z"/><path d="M361.63,47.74l.78-10.33.56-12,.35-10.88V10.9q6.68.06,13.91,0l5.18,0,7.8,0-.32,5.83-2.57-.14c-.7,0-1.67-.06-2.91-.08l-3.81,0h-5.44l-3.71.09L371,26.18c2.47.05,4.95.08,7.46.08,1.72,0,4.64-.06,8.74-.16-.14,1.63-.26,3.6-.37,5.88l-8.26-.08c-2.12,0-4.77.05-7.93.16l-.44,10.1,3,0c.86,0,2.84,0,5.94,0L385,42l3.92-.19q-.27,3.14-.38,5.91-7,0-12.66-.05l-8.88,0Z"/><path d="M394.48,47c-.15-2.73-.34-5-.57-6.69a23.57,23.57,0,0,0,9.61,2.4,9.67,9.67,0,0,0,3.22-.53A4.55,4.55,0,0,0,409,40.66a3.56,3.56,0,0,0,.71-2.15,3.76,3.76,0,0,0-.34-1.64,7.71,7.71,0,0,0-1.72-2.08q-1.55-1.49-5.51-4.89c-1.26-1.09-2.13-1.88-2.6-2.35A19.27,19.27,0,0,1,397,24.79a9,9,0,0,1-1.24-2.45,8.8,8.8,0,0,1,1-7.35,9.32,9.32,0,0,1,4.24-3.48,17.48,17.48,0,0,1,7.11-1.26,45.78,45.78,0,0,1,8.69.95q.13,2.81.54,6.42A21.71,21.71,0,0,0,409.63,16a7.26,7.26,0,0,0-4.32,1.2,3.42,3.42,0,0,0-1.68,2.8,3.63,3.63,0,0,0,.11.9,4,4,0,0,0,.36.92,6.74,6.74,0,0,0,.83,1.16,14,14,0,0,0,1.76,1.67c.78.64,1.44,1.16,2,1.55l3.33,3c.85.7,1.6,1.38,2.27,2.05A20.42,20.42,0,0,1,416,33.2,10.17,10.17,0,0,1,417.1,35a8,8,0,0,1,.8,3.56,9.12,9.12,0,0,1-1,4.28,8.86,8.86,0,0,1-3,3.31,12.48,12.48,0,0,1-4.32,1.79,24,24,0,0,1-5,.5,31.51,31.51,0,0,1-4-.3Q398.23,47.8,394.48,47Z"/><path d="M422.82,47c-.15-2.73-.34-5-.57-6.69a23.57,23.57,0,0,0,9.61,2.4,9.62,9.62,0,0,0,3.22-.53,4.55,4.55,0,0,0,2.22-1.48,3.56,3.56,0,0,0,.71-2.15,3.76,3.76,0,0,0-.34-1.64A7.52,7.52,0,0,0,436,34.79c-1-1-2.86-2.62-5.51-4.89-1.26-1.09-2.12-1.88-2.6-2.35a19.27,19.27,0,0,1-2.49-2.76,9,9,0,0,1-1.24-2.45,8.8,8.8,0,0,1,1-7.35,9.37,9.37,0,0,1,4.24-3.48,17.48,17.48,0,0,1,7.11-1.26,45.78,45.78,0,0,1,8.69.95q.13,2.81.54,6.42A21.67,21.67,0,0,0,438,16a7.26,7.26,0,0,0-4.32,1.2A3.42,3.42,0,0,0,432,20a4.17,4.17,0,0,0,.11.9,4,4,0,0,0,.36.92,6.74,6.74,0,0,0,.83,1.16A14,14,0,0,0,435,24.65c.78.64,1.44,1.16,2,1.55l3.34,3c.84.7,1.59,1.38,2.26,2.05a20.42,20.42,0,0,1,1.71,1.92A9.6,9.6,0,0,1,445.44,35a8.2,8.2,0,0,1,.81,3.56,9.13,9.13,0,0,1-1.06,4.28,8.86,8.86,0,0,1-3,3.31,12.48,12.48,0,0,1-4.32,1.79,24,24,0,0,1-5,.5,31.51,31.51,0,0,1-4-.3Q426.56,47.8,422.82,47Z"/><path d="M67.17,43.33a99.35,99.35,0,0,1-9,10.49C50.4,60.45,48.21,67,48.1,73.55c.13.2.33.22.62,0A158.14,158.14,0,0,1,63.3,55.83a15.27,15.27,0,0,0,3.47-6c.82-2.52,1.19-5.36,1.85-6.22l2.3,3.25c.66-.22-2.18-5.69,0-7.85l3,2.75a6.6,6.6,0,0,0,2.36-2.24l1,.95,2.36-3,.84.73c.42-.11.59-.34.45-.73L79.5,30c-.27-.41-.53-.38-.78,0l-.28,1c-.2.24-.37.25-.51-.12a4.06,4.06,0,0,1-.22-1.73,1.48,1.48,0,0,0-1.35-.73c-.24,4-4,3.12-4.71,1.85-.44-.73-.56-1.7.06-3.25,2.05-4.86,4.19-8,6.56-6.62a6.46,6.46,0,0,1,.5,2.41c0,.36.23.45.67.11l1.8-2.52a3.88,3.88,0,0,1,1,2c1-1.09,2-3.34,2.91-6.28a17.56,17.56,0,0,0,.28-4.82c-.11-.86-1.07-1.28-2-1.35l-9.19-.28a15.08,15.08,0,0,1-6.84-2.58,8.24,8.24,0,0,0-6.9-.61H58.2c1-2.51-.51-3.57-2.64-4.94C52.51-.51,50.11-.32,48.1,1,51.92,2,55.28,3.51,57,6.61c.47,1.55-.07,2.21-1,2.58l-6.9-.11,1.91,1.62A1,1,0,0,1,51,11.88a6.61,6.61,0,0,0-2.35,2.8,19.71,19.71,0,0,1,4.32-1.4,7.43,7.43,0,0,1,2.24.5c-.77,1.78-2.84,3.61-1.91,5.39,2.52-1.15,4.5-1.15,4.88,2.24-.94,1-2.8,2.64-3.31,3.64l5.89.73c.34.27.42.55-.11.84l-2.47,1.29a.58.58,0,0,0,.06.84l6.5,1.13c-1.23,1.06-1.65,2.61-.06,3.47C67.14,35.59,67.84,39,67.17,43.33Z"/><path d="M59.26,39.41A19.09,19.09,0,0,1,50.51,55c-7.87,6.46-8.39,9.85-9.75,13.23a.52.52,0,0,1-.84,0c0-4.35.7-7.16,1.79-8.91C45.52,51.46,52.36,46.64,59.26,39.41Z"/><path d="M52.2,34.87A71.48,71.48,0,0,0,39.92,57C35.14,66,27.9,69.91,20.63,73.7c7.06-6,13.18-12.2,15.78-19.41C39.52,44.31,44.44,37.28,52.2,34.87Z"/><path d="M23.15,63.46C31.56,58.13,36.41,54.29,37,42.27c-.68-5.56,6.94-12.81,7.74-13.18-6.06.84-12.66,8-13.18,15.47C30.6,51.65,27.2,57.7,23.15,63.46Z"/><path d="M9.7,67.38c4.43-5.65,8.35-11.52,9.7-18.44.6-5-.15-10.34,4.26-14.58,4.78-3.56,10.57-7.88,16.93-12.67-.78,9.37-11.77,12.56-13.51,18.61C25.54,45.67,21,60.26,9.7,67.38Z"/><path d="M36.11,17.26c.59-2.59,2.45-3,4.82-2.58Z"/><path d="M33.25,15.9c0,4.42-7.13,10-14.69,15.71A13.48,13.48,0,0,1,8.13,32.73,14.86,14.86,0,0,0,0,33.18c1.86-2.76,5.77-4.29,11.21-4.93a15,15,0,0,0,10.94-4.88A26.1,26.1,0,0,1,33.25,15.9Z"/><path d="M7,21.69c5.2-.33,10.42-.81,16.43-5.79a10.87,10.87,0,0,1,7.23-3,14.68,14.68,0,0,0,9.31-3c-4.38-.32-8.69-.44-12.9-.34a9.2,9.2,0,0,0-4.82,2.19A27.7,27.7,0,0,1,7,21.69Z"/><path d="M54.16,6.66l-10-4.59C40.83.56,37.4,1.13,34,3.36,29.68,5.52,24.36,5.14,19,4.65c2.58,1.63,5.9,3,15.36,2A17.29,17.29,0,0,1,44.74,6C47.92,7.66,51.06,8.08,54.16,6.66Z"/></g></g></svg>