<svg xmlns="http://www.w3.org/2000/svg" xmlns:xlink="http://www.w3.org/1999/xlink" viewBox="0 0 34.79 30"><defs><style>.cls-1{fill:url(#radial-gradient);}.cls-2{fill:url(#radial-gradient-2);}.cls-3{fill:url(#radial-gradient-3);}.cls-4{fill:url(#radial-gradient-4);}.cls-5{fill:url(#radial-gradient-5);}.cls-6{fill:url(#radial-gradient-6);}.cls-7{fill:url(#radial-gradient-7);}.cls-8{fill:url(#radial-gradient-8);}.cls-9{fill:url(#radial-gradient-9);}</style><radialGradient id="radial-gradient" cx="35.47" cy="19.15" r="18.21" gradientTransform="translate(4.03 2.5) scale(0.65 0.65)" gradientUnits="userSpaceOnUse"><stop offset="0" stop-color="#7fbc53"/><stop offset="1" stop-color="#00491a"/></radialGradient><radialGradient id="radial-gradient-2" cx="24.74" cy="29.79" r="7.69" xlink:href="#radial-gradient"/><radialGradient id="radial-gradient-3" cx="16.53" cy="30.02" r="11.03" xlink:href="#radial-gradient"/><radialGradient id="radial-gradient-4" cx="14.99" cy="25.02" r="8.94" xlink:href="#radial-gradient"/><radialGradient id="radial-gradient-5" cx="9.51" cy="23.94" r="12.16" xlink:href="#radial-gradient"/><radialGradient id="radial-gradient-6" cx="17.84" cy="6.09" r="1.22" xlink:href="#radial-gradient"/><radialGradient id="radial-gradient-7" cx="4.19" cy="11.5" r="8.27" xlink:href="#radial-gradient"/><radialGradient id="radial-gradient-8" cx="8.44" cy="5.91" r="7.74" xlink:href="#radial-gradient"/><radialGradient id="radial-gradient-9" cx="16.64" cy="-1.1" r="7.87" xlink:href="#radial-gradient"/></defs><g id="Layer_2" data-name="Layer 2"><g id="Layer_1-2" data-name="Layer 1"><path class="cls-1" d="M27.34,17.64a38.8,38.8,0,0,1-3.68,4.26c-3.15,2.71-4,5.38-4.08,8,.05.08.13.08.25,0a65,65,0,0,1,5.93-7.21,6.14,6.14,0,0,0,1.42-2.45,16.88,16.88,0,0,1,.75-2.53l.94,1.32c.27-.09-.89-2.31,0-3.19L30.08,17a2.8,2.8,0,0,0,1-.91l.38.38,1-1.23.34.3c.17,0,.25-.14.19-.3l-.55-3c-.11-.17-.22-.16-.32,0l-.11.41c-.08.1-.15.1-.21,0a1.67,1.67,0,0,1-.09-.71.6.6,0,0,0-.55-.29,1.06,1.06,0,0,1-1.92.75,1.41,1.41,0,0,1,0-1.32C30,9,30.9,7.73,31.86,8.3a2.68,2.68,0,0,1,.2,1c0,.15.1.19.28.05l.73-1a1.67,1.67,0,0,1,.41.83,7.59,7.59,0,0,0,1.18-2.56,6.8,6.8,0,0,0,.12-2c-.05-.35-.44-.52-.8-.55l-3.74-.12a6.1,6.1,0,0,1-2.79-1,3.33,3.33,0,0,0-2.8-.26h-1c.4-1-.21-1.45-1.08-2a2.53,2.53,0,0,0-3-.25,5.55,5.55,0,0,1,3.63,2.3c.19.63,0,.9-.39,1.05L20,3.69l.78.67a.41.41,0,0,1-.05.47A2.66,2.66,0,0,0,19.79,6a7.23,7.23,0,0,1,1.75-.57,2.82,2.82,0,0,1,.92.2c-.32.72-1.16,1.47-.78,2.19,1-.46,1.83-.47,2,.91a11.11,11.11,0,0,0-1.34,1.49l2.39.29c.14.11.17.23,0,.35l-1,.52a.24.24,0,0,0,0,.34l2.64.46c-.5.43-.67,1.07,0,1.42C27.33,14.49,27.61,15.88,27.34,17.64Z"/><path class="cls-2" d="M24.12,16a7.76,7.76,0,0,1-3.56,6.34c-3.2,2.63-3.42,4-4,5.39a.22.22,0,0,1-.34,0A7,7,0,0,1,17,24.14C18.53,21,21.31,19,24.12,16Z"/><path class="cls-3" d="M21.25,14.19a29,29,0,0,0-5,9C14.3,26.87,11.36,28.45,8.4,30c2.87-2.43,5.36-5,6.42-7.9C16.09,18,18.09,15.18,21.25,14.19Z"/><path class="cls-4" d="M9.42,25.83c3.43-2.17,5.4-3.73,5.64-8.63-.28-2.26,2.82-5.21,3.15-5.36-2.46.34-5.15,3.26-5.36,6.3A17.66,17.66,0,0,1,9.42,25.83Z"/><path class="cls-5" d="M4,27.43a18.05,18.05,0,0,0,4-7.51c.24-2.05-.06-4.21,1.73-5.93,1.94-1.45,4.3-3.21,6.89-5.16-.32,3.81-4.79,5.11-5.5,7.57C10.39,18.59,8.56,24.53,4,27.43Z"/><path class="cls-6" d="M14.7,7c.24-1.06,1-1.23,2-1Z"/><path class="cls-7" d="M13.53,6.47c0,1.8-2.9,4.08-6,6.4a5.49,5.49,0,0,1-4.24.45A6.09,6.09,0,0,0,0,13.51c.76-1.13,2.35-1.75,4.56-2A6.09,6.09,0,0,0,9,9.51,10.75,10.75,0,0,1,13.53,6.47Z"/><path class="cls-8" d="M2.83,8.83A10.25,10.25,0,0,0,9.52,6.47a4.4,4.4,0,0,1,2.94-1.2A6.06,6.06,0,0,0,16.25,4c-1.78-.13-3.54-.18-5.25-.14a3.76,3.76,0,0,0-2,.89A11.31,11.31,0,0,1,2.83,8.83Z"/><path class="cls-9" d="M22,2.71,18,.84a4.18,4.18,0,0,0-4.16.53c-1.74.88-3.9.72-6.08.52,1,.67,2.4,1.22,6.25.82a7,7,0,0,1,4.22-.27A4.15,4.15,0,0,0,22,2.71Z"/></g></g></svg>