<svg xmlns="http://www.w3.org/2000/svg" xmlns:xlink="http://www.w3.org/1999/xlink" viewBox="0 0 407.97 67.38"><defs><style>.cls-1{fill:url(#radial-gradient);}.cls-2{fill:url(#radial-gradient-2);}.cls-3{fill:url(#radial-gradient-3);}.cls-4{fill:url(#radial-gradient-4);}.cls-5{fill:url(#radial-gradient-5);}.cls-6{fill:url(#radial-gradient-6);}.cls-7{fill:url(#radial-gradient-7);}.cls-8{fill:url(#radial-gradient-8);}.cls-9{fill:url(#radial-gradient-9);}.cls-10{fill:url(#radial-gradient-10);}.cls-11{fill:url(#radial-gradient-11);}.cls-12{fill:url(#radial-gradient-12);}.cls-13{fill:url(#radial-gradient-13);}.cls-14{fill:url(#radial-gradient-14);}.cls-15{fill:url(#radial-gradient-15);}</style><radialGradient id="radial-gradient" cx="96.64" cy="26.52" r="14.63" gradientUnits="userSpaceOnUse"><stop offset="0" stop-color="#7fbc53"/><stop offset="1" stop-color="#00491a"/></radialGradient><radialGradient id="radial-gradient-2" cx="126.57" cy="27.09" r="14.73" xlink:href="#radial-gradient"/><radialGradient id="radial-gradient-3" cx="156.34" cy="27.09" r="14.73" xlink:href="#radial-gradient"/><radialGradient id="radial-gradient-4" cx="186.26" cy="26.81" r="14.99" xlink:href="#radial-gradient"/><radialGradient id="radial-gradient-5" cx="217.45" cy="26.81" r="15.07" xlink:href="#radial-gradient"/><radialGradient id="radial-gradient-6" cx="239.14" cy="33.77" r="25.7" xlink:href="#radial-gradient"/><radialGradient id="radial-gradient-7" cx="61.07" cy="33.69" r="26.71" xlink:href="#radial-gradient"/><radialGradient id="radial-gradient-8" cx="45.34" cy="49.29" r="11.27" xlink:href="#radial-gradient"/><radialGradient id="radial-gradient-9" cx="33.29" cy="49.63" r="16.18" xlink:href="#radial-gradient"/><radialGradient id="radial-gradient-10" cx="31.04" cy="42.31" r="13.12" xlink:href="#radial-gradient"/><radialGradient id="radial-gradient-11" cx="22.99" cy="40.72" r="17.83" xlink:href="#radial-gradient"/><radialGradient id="radial-gradient-12" cx="35.21" cy="14.53" r="1.79" xlink:href="#radial-gradient"/><radialGradient id="radial-gradient-13" cx="15.2" cy="22.48" r="12.13" xlink:href="#radial-gradient"/><radialGradient id="radial-gradient-14" cx="21.43" cy="14.28" r="11.36" xlink:href="#radial-gradient"/><radialGradient id="radial-gradient-15" cx="33.44" cy="4" r="11.54" xlink:href="#radial-gradient"/></defs><g id="Layer_2" data-name="Layer 2"><g id="Layer_1-2" data-name="Layer 1"><path d="M242,57.45c.1-1,.18-2.13.24-3.37s.1-2.4.11-3.49h1.59c0,.6-.08,1.29-.12,2.06l-.1,2c0,.57-.06,1.14-.07,1.71h2.47l.75,0c0,.33-.06.69-.08,1.09H242Z"/><path d="M250.18,52.22a3.73,3.73,0,0,1,1.11.17,2.5,2.5,0,0,1,.9.52,2.12,2.12,0,0,1,.55.82,2.78,2.78,0,0,1,.19,1,3.15,3.15,0,0,1-.2,1.1,2.55,2.55,0,0,1-.57.92,2.25,2.25,0,0,1-.92.59,3.56,3.56,0,0,1-1.18.19A3.68,3.68,0,0,1,249,57.4a2.5,2.5,0,0,1-.9-.52,2.14,2.14,0,0,1-.56-.85,2.83,2.83,0,0,1-.2-1,3,3,0,0,1,.18-1.05A2.33,2.33,0,0,1,248,53a2.49,2.49,0,0,1,.95-.6A3.36,3.36,0,0,1,250.18,52.22Zm0,1a1.39,1.39,0,0,0-.78.22,1.24,1.24,0,0,0-.51.63,2.51,2.51,0,0,0-.17.92,2.13,2.13,0,0,0,.14.78,1.15,1.15,0,0,0,.45.55,1.32,1.32,0,0,0,.75.21,1.41,1.41,0,0,0,.77-.21,1.33,1.33,0,0,0,.5-.65,2.52,2.52,0,0,0,.17-.93,2.28,2.28,0,0,0-.13-.76,1.19,1.19,0,0,0-.44-.55A1.32,1.32,0,0,0,250.18,53.25Z"/><path d="M254.15,58.51a6.35,6.35,0,0,0,2,.37,2,2,0,0,0,.6-.08,1.36,1.36,0,0,0,.47-.22,1,1,0,0,0,.3-.4,3,3,0,0,0,.14-.59c0-.22,0-.56.05-1a2.69,2.69,0,0,1-.35.41,1.61,1.61,0,0,1-.38.27,2.09,2.09,0,0,1-.5.19,2.51,2.51,0,0,1-.62.07,2.63,2.63,0,0,1-.84-.13,2,2,0,0,1-.7-.44,1.78,1.78,0,0,1-.47-.74,2.73,2.73,0,0,1-.16-.94,3.41,3.41,0,0,1,.26-1.32,2.57,2.57,0,0,1,.77-1,3,3,0,0,1,1.09-.55,5.19,5.19,0,0,1,1.29-.15,7.33,7.33,0,0,1,.89.05c.33,0,.77.09,1.32.19l-.12,1.59-.1,2,0,1.81a3.81,3.81,0,0,1-.08.59,1.63,1.63,0,0,1-.19.51,1.6,1.6,0,0,1-.33.4,1.8,1.8,0,0,1-.46.29,2.6,2.6,0,0,1-.62.17,4.09,4.09,0,0,1-.8.08,10.26,10.26,0,0,1-1-.07,9.83,9.83,0,0,1-1.28-.22Zm3.67-5.17a4,4,0,0,0-.81-.09,2.16,2.16,0,0,0-1.08.24,1.55,1.55,0,0,0-.66.7,2.2,2.2,0,0,0-.23,1,1.78,1.78,0,0,0,.14.7,1,1,0,0,0,.44.49,1.35,1.35,0,0,0,.66.17,1.51,1.51,0,0,0,.48-.08,1.12,1.12,0,0,0,.4-.25,1.67,1.67,0,0,0,.32-.41,1.62,1.62,0,0,0,.2-.56,6.08,6.08,0,0,0,.09-.77C257.79,54.14,257.8,53.77,257.82,53.34Z"/><path d="M260.27,57.45c.05-.5.09-.92.11-1.26,0-.54.06-1.16.08-1.86s0-1.36.05-2H262c-.05.58-.09,1.14-.11,1.67s-.05,1.13-.06,1.82,0,1.22,0,1.62h-1.53Zm.35-5.8.19-.46c0-.1.08-.22.13-.36s.11-.28.16-.4h1.5c-.23.28-.39.5-.5.65l-.42.57h-1.06Z"/><path d="M262.88,57.35l-.11-1.1a8.12,8.12,0,0,0,.83.28,3,3,0,0,0,.63.08,1.75,1.75,0,0,0,.49-.07.71.71,0,0,0,.29-.2.51.51,0,0,0,.09-.28.41.41,0,0,0,0-.12.31.31,0,0,0,0-.12.41.41,0,0,0-.07-.11l-.12-.12a1.64,1.64,0,0,0-.22-.18l-.27-.21-.59-.48a2.34,2.34,0,0,1-.35-.36,1.15,1.15,0,0,1-.21-.39,1.19,1.19,0,0,1-.08-.41,1.22,1.22,0,0,1,.23-.7,1.27,1.27,0,0,1,.65-.49,3,3,0,0,1,1-.15,8.11,8.11,0,0,1,1.52.16l.06,1a3.07,3.07,0,0,0-1.12-.23,2,2,0,0,0-.51.06.52.52,0,0,0-.31.17.42.42,0,0,0-.07.43.58.58,0,0,0,.11.18l.17.17.41.32c.21.15.39.3.55.42a2.76,2.76,0,0,1,.38.39,1.39,1.39,0,0,1,.23.41,1.19,1.19,0,0,1,.08.45,1.15,1.15,0,0,1-.23.7,1.46,1.46,0,0,1-.7.5,2.87,2.87,0,0,1-1,.18,7.25,7.25,0,0,1-.73,0A7.09,7.09,0,0,1,262.88,57.35Z"/><path d="M270.66,56.4c0,.18-.1.52-.19,1a3.92,3.92,0,0,1-.66.12l-.45,0a2.76,2.76,0,0,1-.67-.07,1,1,0,0,1-.48-.25.85.85,0,0,1-.26-.42,1.61,1.61,0,0,1-.07-.49v-.18c0-.07,0-.31,0-.71l.12-2.09h-.72c0-.2,0-.52,0-1h.76q0-.28.06-1l.59-.12c.13,0,.37-.07.72-.16,0,.45,0,.87,0,1.27h1.28c0,.45,0,.78,0,1h-1.28c-.07,1.36-.11,2.15-.11,2.37a1.52,1.52,0,0,0,.07.48.47.47,0,0,0,.22.24.72.72,0,0,0,.32.08l.27,0A4.4,4.4,0,0,0,270.66,56.4Z"/><path d="M271.35,57.45c0-.5.09-.92.11-1.26q0-.81.09-1.86c0-.7,0-1.36.05-2h1.46c0,.58-.08,1.14-.11,1.67s0,1.13-.06,1.82,0,1.22,0,1.62h-1.52Zm.28-6c0-.35,0-.61,0-.8v-.16h1.47a2.33,2.33,0,0,0,0,.29l0,.67h-1.44Z"/><path d="M278.1,56.29c0,.14-.05.29-.08.47s-.07.39-.1.64a6.4,6.4,0,0,1-1.42.17,4,4,0,0,1-.78-.08,2.41,2.41,0,0,1-.71-.26,2.09,2.09,0,0,1-.93-1.28A3.22,3.22,0,0,1,274,55a3.54,3.54,0,0,1,.21-1.21,2.33,2.33,0,0,1,.59-1,2.13,2.13,0,0,1,.87-.5,4,4,0,0,1,1.07-.13,6.21,6.21,0,0,1,1.49.19l.08,1.1a4.14,4.14,0,0,0-1.31-.26,1.73,1.73,0,0,0-.64.12,1.35,1.35,0,0,0-.52.36,1.42,1.42,0,0,0-.31.58,2.18,2.18,0,0,0-.1.67,2,2,0,0,0,.15.82,1,1,0,0,0,.51.54,1.71,1.71,0,0,0,.82.19,4.13,4.13,0,0,0,.55-.05A4,4,0,0,0,278.1,56.29Z"/><path d="M279.51,53.46c.05-.24.07-.41.09-.51s0-.24.06-.44c.46-.11.86-.18,1.21-.23a8.64,8.64,0,0,1,1-.06,3.65,3.65,0,0,1,1,.13,1.41,1.41,0,0,1,.72.41,1.1,1.1,0,0,1,.26.81c0,.19,0,.67-.08,1.45s-.08,1.59-.09,2.43h-1.42c0-.41.08-.88.1-1.41l.07-1.25-.29.18-.23.09-.44.13-.51.15-.34.15a1.09,1.09,0,0,0-.26.19,1,1,0,0,0-.16.21.69.69,0,0,0,0,.25.56.56,0,0,0,.12.36.62.62,0,0,0,.31.21,1.16,1.16,0,0,0,.44.07l.34,0a3.2,3.2,0,0,0,.47-.13,8.93,8.93,0,0,0-.24.86c-.24,0-.43.06-.57.07l-.39,0a2.79,2.79,0,0,1-1-.17,1.22,1.22,0,0,1-.6-.54,1.61,1.61,0,0,1-.19-.75,1.26,1.26,0,0,1,.29-.82,2.16,2.16,0,0,1,.38-.34,3.05,3.05,0,0,1,.67-.31,9.44,9.44,0,0,1,1.15-.31l.4-.1a2.1,2.1,0,0,0,.33-.11.8.8,0,0,0,.21-.15.49.49,0,0,0,.14-.18.43.43,0,0,0,0-.19.47.47,0,0,0-.13-.34.59.59,0,0,0-.33-.18,1.63,1.63,0,0,0-.45-.06A5.59,5.59,0,0,0,279.51,53.46Z"/><path d="M292.09,56.31c0,.2-.11.55-.19,1.06-.36.08-.67.13-.91.16a6.28,6.28,0,0,1-.75,0,4.74,4.74,0,0,1-1.18-.13,2.16,2.16,0,0,1-.91-.48,2.05,2.05,0,0,1-.58-.86,3.11,3.11,0,0,1-.18-1.06,3.53,3.53,0,0,1,.21-1.2,2.51,2.51,0,0,1,.61-1,2.26,2.26,0,0,1,.88-.52,3.63,3.63,0,0,1,1-.15,3.46,3.46,0,0,1,1,.13,1.7,1.7,0,0,1,.77.42,2,2,0,0,1,.49.7,2.36,2.36,0,0,1,.16.9,2.09,2.09,0,0,1,0,.49H288.8c0,.12,0,.22,0,.29a1.56,1.56,0,0,0,.12.62,1.25,1.25,0,0,0,.33.48,1.44,1.44,0,0,0,.53.29,2.18,2.18,0,0,0,.6.09,4.18,4.18,0,0,0,.76-.08A8.13,8.13,0,0,0,292.09,56.31Zm-3.25-2h2.35a3.23,3.23,0,0,0,0-.35.92.92,0,0,0-.07-.26.72.72,0,0,0-.14-.26.76.76,0,0,0-.21-.19,1.18,1.18,0,0,0-.28-.12,1.86,1.86,0,0,0-.34,0,1.14,1.14,0,0,0-.41.07,1.18,1.18,0,0,0-.37.19,1,1,0,0,0-.26.28,1.46,1.46,0,0,0-.16.3C288.91,54,288.88,54.12,288.84,54.28Z"/><path d="M296,57.45l.14-1.75.1-2.18.06-2.18c0-.09,0-.34,0-.75h2l1,0a7.54,7.54,0,0,1,1.1.07,2.76,2.76,0,0,1,.88.27,2.24,2.24,0,0,1,.65.48,2.47,2.47,0,0,1,.46.65,3.84,3.84,0,0,1,.27.79,4.24,4.24,0,0,1,.09.88,4.56,4.56,0,0,1-.3,1.65,3.21,3.21,0,0,1-.89,1.29,2.83,2.83,0,0,1-1.32.65,8,8,0,0,1-1.63.15H296Zm1.54-1.07.82,0a7.3,7.3,0,0,0,.84,0,2.81,2.81,0,0,0,.67-.14,1.72,1.72,0,0,0,.57-.34,2.26,2.26,0,0,0,.46-.57,2.84,2.84,0,0,0,.28-.72,3.74,3.74,0,0,0,.1-.81,2.62,2.62,0,0,0-.26-1.24,1.59,1.59,0,0,0-.68-.7,3,3,0,0,0-1.29-.21c-.38,0-.81,0-1.3,0Z"/><path d="M303.63,57.45c.05-.5.09-.92.11-1.26q0-.81.09-1.86c0-.7,0-1.36.05-2h1.46c0,.58-.08,1.14-.1,1.67s-.05,1.13-.06,1.82,0,1.22,0,1.62h-1.53Zm.28-6c0-.35,0-.61,0-.8v-.16h1.47a2.33,2.33,0,0,0,0,.29l0,.67h-1.44Z"/><path d="M306.24,57.35l-.11-1.1a7.37,7.37,0,0,0,.83.28,3,3,0,0,0,.63.08,1.62,1.62,0,0,0,.48-.07.65.65,0,0,0,.29-.2.46.46,0,0,0,.1-.28.41.41,0,0,0,0-.12.61.61,0,0,0-.05-.12l-.07-.11a.68.68,0,0,0-.12-.12,1.64,1.64,0,0,0-.22-.18l-.27-.21-.6-.48a2.81,2.81,0,0,1-.34-.36,1.39,1.39,0,0,1-.22-.39,1.18,1.18,0,0,1-.07-.41,1.29,1.29,0,0,1,.22-.7,1.36,1.36,0,0,1,.65-.49,3.07,3.07,0,0,1,1-.15,8.19,8.19,0,0,1,1.52.16l.06,1a3.11,3.11,0,0,0-1.12-.23,2,2,0,0,0-.51.06.52.52,0,0,0-.31.17.39.39,0,0,0-.1.27.45.45,0,0,0,0,.16.58.58,0,0,0,.11.18l.17.17.41.32c.21.15.39.3.55.42a2.76,2.76,0,0,1,.38.39,1.39,1.39,0,0,1,.23.41,1.42,1.42,0,0,1,.08.45,1.22,1.22,0,0,1-.23.7,1.51,1.51,0,0,1-.7.5,2.87,2.87,0,0,1-1,.18c-.2,0-.45,0-.74,0A7.27,7.27,0,0,1,306.24,57.35Z"/><path d="M314,56.4c0,.18-.1.52-.19,1a3.92,3.92,0,0,1-.66.12l-.46,0a2.73,2.73,0,0,1-.66-.07,1.09,1.09,0,0,1-.49-.25.91.91,0,0,1-.25-.42,1.61,1.61,0,0,1-.07-.49v-.18c0-.07,0-.31,0-.71l.12-2.09h-.73c0-.2,0-.52.05-1h.76q0-.28.06-1l.59-.12.72-.16c0,.45,0,.87,0,1.27h1.28c0,.45,0,.78,0,1h-1.28c-.07,1.36-.11,2.15-.11,2.37a1.52,1.52,0,0,0,.07.48.47.47,0,0,0,.22.24.72.72,0,0,0,.32.08l.27,0A4.4,4.4,0,0,0,314,56.4Z"/><path d="M314.7,57.45l.15-2.39,0-1.38c0-.29,0-.57,0-.86,0,0,0-.21,0-.48h1.37l0,.71a3.59,3.59,0,0,1,.33-.41,1.66,1.66,0,0,1,.3-.22,1.16,1.16,0,0,1,.38-.15,1.86,1.86,0,0,1,.42-.05,2,2,0,0,1,.41.05c0,.31,0,.71.05,1.19a1.9,1.9,0,0,0-.54-.09,1.38,1.38,0,0,0-.52.09,1.18,1.18,0,0,0-.4.27,1.25,1.25,0,0,0-.29.44,1.75,1.75,0,0,0-.14.55,8.6,8.6,0,0,0-.07.89c0,.42,0,.84,0,1.25,0,.15,0,.35,0,.59H314.7Z"/><path d="M318.7,57.45c.05-.5.09-.92.11-1.26q0-.81.09-1.86c0-.7,0-1.36.05-2h1.47c-.05.58-.09,1.14-.11,1.67s-.05,1.13-.06,1.82,0,1.22,0,1.62H318.7Zm.28-6c0-.35,0-.61,0-.8v-.16h1.47a2.33,2.33,0,0,0,0,.29l0,.67H319Z"/><path d="M321.45,57.45c.06-.64.13-1.74.2-3.32s.11-2.75.11-3.54h1.47c-.05.47-.1,1.07-.13,1.79.33-.06.59-.11.78-.13l.58,0a3.1,3.1,0,0,1,1.33.25,1.91,1.91,0,0,1,.87.82,2.87,2.87,0,0,1,.32,1.4,3.77,3.77,0,0,1-.16,1.11,2.91,2.91,0,0,1-.49,1,1.91,1.91,0,0,1-.78.61,2.6,2.6,0,0,1-1,.2,2.44,2.44,0,0,1-.48,0,1.65,1.65,0,0,1-.41-.14,1.63,1.63,0,0,1-.34-.21,1.93,1.93,0,0,1-.25-.24,2.54,2.54,0,0,1-.22-.34l0,.86h-1.36ZM323,53.4l0,.86c0,.19,0,.37,0,.54a2.86,2.86,0,0,0,.13,1,1.05,1.05,0,0,0,.43.56,1.26,1.26,0,0,0,.69.19,1.18,1.18,0,0,0,.72-.22,1.46,1.46,0,0,0,.47-.65,2.57,2.57,0,0,0,.16-.91,1.6,1.6,0,0,0-.37-1.11,1.34,1.34,0,0,0-1.07-.42,3.88,3.88,0,0,0-.48,0A5.66,5.66,0,0,0,323,53.4Z"/><path d="M333,57.45h-1.35v-.84a3.38,3.38,0,0,1-.25.34,1.46,1.46,0,0,1-.65.45,2.35,2.35,0,0,1-.46.12,3.12,3.12,0,0,1-.55,0,2.92,2.92,0,0,1-1-.16,1.57,1.57,0,0,1-.66-.5,1.61,1.61,0,0,1-.24-.95v-.1l.08-1.3.08-1.71v-.51h1.44l-.16,2.29q0,.27,0,.45v.26a1.47,1.47,0,0,0,.1.6.8.8,0,0,0,.38.37,1.39,1.39,0,0,0,.57.12,1.33,1.33,0,0,0,.56-.11,1.12,1.12,0,0,0,.4-.28,1.38,1.38,0,0,0,.28-.48,2.55,2.55,0,0,0,.13-.62c0-.18,0-.5.07-.95s.05-1.09.06-1.65h1.43c0,.48-.09,1.08-.13,1.8s-.07,1.31-.09,1.77S333,56.89,333,57.45Z"/><path d="M334.28,57.45c.05-.5.08-.92.1-1.26q.06-.81.09-1.86c0-.7,0-1.36.06-2H336c-.05.58-.08,1.14-.11,1.67s-.05,1.13-.06,1.82,0,1.22,0,1.62h-1.52Zm.27-6c0-.35,0-.61,0-.8v-.16H336c0,.08,0,.18,0,.29l0,.67h-1.45Z"/><path d="M341,56.29c0,.14,0,.29-.07.47s-.07.39-.11.64a6.31,6.31,0,0,1-1.41.17,4,4,0,0,1-.79-.08,2.46,2.46,0,0,1-.7-.26,1.88,1.88,0,0,1-.57-.52A2.16,2.16,0,0,1,337,56a3.59,3.59,0,0,1-.12-.93,3.79,3.79,0,0,1,.2-1.21,2.46,2.46,0,0,1,.6-1,2.13,2.13,0,0,1,.87-.5,3.92,3.92,0,0,1,1.07-.13,5.22,5.22,0,0,1,.67,0,5.37,5.37,0,0,1,.82.15l.07,1.1a4.14,4.14,0,0,0-1.3-.26,1.78,1.78,0,0,0-.65.12,1.43,1.43,0,0,0-.52.36,1.55,1.55,0,0,0-.31.58,2.52,2.52,0,0,0-.09.67,2,2,0,0,0,.15.82,1,1,0,0,0,.51.54,1.68,1.68,0,0,0,.82.19,4.28,4.28,0,0,0,.55-.05A4.14,4.14,0,0,0,341,56.29ZM340,57.9l-.65,1.28H337.8c.33-.38.67-.82,1-1.3a4.56,4.56,0,0,0,.62,0Z"/><path d="M342.43,53.46q.07-.36.09-.51c0-.09,0-.24.06-.44.46-.11.86-.18,1.21-.23a8.81,8.81,0,0,1,1-.06,3.53,3.53,0,0,1,1,.13,1.49,1.49,0,0,1,.73.41,1.14,1.14,0,0,1,.26.81c0,.19,0,.67-.08,1.45s-.09,1.59-.1,2.43H345.2c.05-.41.08-.88.11-1.41l.06-1.25-.29.18-.22.09-.45.13-.5.15-.35.15a1.34,1.34,0,0,0-.26.19.69.69,0,0,0-.15.21.7.7,0,0,0,0,.25.56.56,0,0,0,.12.36.72.72,0,0,0,.31.21,1.2,1.2,0,0,0,.44.07l.34,0a3,3,0,0,0,.48-.13c-.07.2-.15.48-.25.86a5.62,5.62,0,0,1-.56.07l-.4,0a2.83,2.83,0,0,1-1-.17,1.22,1.22,0,0,1-.6-.54,1.74,1.74,0,0,1-.19-.75,1.35,1.35,0,0,1,.3-.82,2.07,2.07,0,0,1,.37-.34,3.29,3.29,0,0,1,.67-.31,9.68,9.68,0,0,1,1.16-.31l.4-.1a2.33,2.33,0,0,0,.32-.11.71.71,0,0,0,.22-.15.46.46,0,0,0,.13-.18.43.43,0,0,0,0-.19.5.5,0,0,0-.12-.34.67.67,0,0,0-.33-.18,1.63,1.63,0,0,0-.45-.06A5.6,5.6,0,0,0,342.43,53.46Zm.88-1.89a2.06,2.06,0,0,1,.09-.66.72.72,0,0,1,.23-.37.57.57,0,0,1,.34-.1h.14l.14,0,.12.06.2.12.27.17a.7.7,0,0,0,.17.09.29.29,0,0,0,.16,0,.25.25,0,0,0,.12,0l.09-.08a.69.69,0,0,0,.05-.13c0-.05,0-.12,0-.21h.65a2.36,2.36,0,0,1-.07.58.93.93,0,0,1-.22.39.53.53,0,0,1-.41.16l-.19,0-.19-.08-.35-.22-.33-.2-.16,0a.27.27,0,0,0-.15,0,.29.29,0,0,0-.08.14,1.47,1.47,0,0,0,0,.27h-.62Z"/><path d="M350.63,52.22a3.78,3.78,0,0,1,1.11.17,2.38,2.38,0,0,1,.89.52,2,2,0,0,1,.56.82,3,3,0,0,1,.19,1,3.15,3.15,0,0,1-.2,1.1,2.55,2.55,0,0,1-.57.92,2.39,2.39,0,0,1-.92.59,3.62,3.62,0,0,1-1.19.19,3.68,3.68,0,0,1-1.11-.17,2.46,2.46,0,0,1-.89-.52,2.28,2.28,0,0,1-.57-.85,2.82,2.82,0,0,1-.19-1,3.3,3.3,0,0,1,.17-1.05,2.6,2.6,0,0,1,.55-.9,2.46,2.46,0,0,1,1-.6A3.33,3.33,0,0,1,350.63,52.22Zm0,1a1.39,1.39,0,0,0-.78.22,1.24,1.24,0,0,0-.51.63,2.51,2.51,0,0,0-.17.92,2.13,2.13,0,0,0,.14.78,1.15,1.15,0,0,0,.45.55,1.31,1.31,0,0,0,.74.21,1.45,1.45,0,0,0,.78-.21,1.39,1.39,0,0,0,.5-.65,2.52,2.52,0,0,0,.16-.93,2.06,2.06,0,0,0-.13-.76,1.11,1.11,0,0,0-.43-.55A1.32,1.32,0,0,0,350.63,53.25Z"/><path d="M356.91,57.45c.06-.71.11-1.29.13-1.74s0-1.23.09-2.32.05-1.84.05-2.25v-.55h2.09l1,0a5.57,5.57,0,0,1,.84,0,2.36,2.36,0,0,1,.51.14A1.25,1.25,0,0,1,362,51a1.35,1.35,0,0,1,.26.32,1.46,1.46,0,0,1,.16.41,1.65,1.65,0,0,1,.05.44,2.35,2.35,0,0,1-.06.54,2.13,2.13,0,0,1-.2.46,1.79,1.79,0,0,1-.63.57,3.69,3.69,0,0,1-.41.17,1.92,1.92,0,0,1,.37.1,1.66,1.66,0,0,1,.31.14,2.21,2.21,0,0,1,.3.25,1.5,1.5,0,0,1,.23.33,1.42,1.42,0,0,1,.13.38,2,2,0,0,1,.05.43,1.84,1.84,0,0,1-.21.88,1.68,1.68,0,0,1-.57.64,2.3,2.3,0,0,1-.83.31,14.73,14.73,0,0,1-1.93.08h-2.12Zm1.52-1h1.14a3.75,3.75,0,0,0,.54,0,1.56,1.56,0,0,0,.37-.1.82.82,0,0,0,.28-.15.85.85,0,0,0,.17-.2,1,1,0,0,0,.13-.29,1.15,1.15,0,0,0,0-.33A1.07,1.07,0,0,0,361,55a.76.76,0,0,0-.24-.3.93.93,0,0,0-.37-.19,2.5,2.5,0,0,0-.64-.06H358.5Zm.12-3h.81a5.69,5.69,0,0,0,.69,0,2,2,0,0,0,.38-.1.83.83,0,0,0,.33-.22,1.05,1.05,0,0,0,.19-.34,1,1,0,0,0,.07-.37A1,1,0,0,0,361,52a.71.71,0,0,0-.21-.27,1.07,1.07,0,0,0-.34-.16,2.83,2.83,0,0,0-.58,0h-1.2Z"/><path d="M363.52,57.45c0-.13,0-.23,0-.31l0-.73c.42-.38.8-.74,1.15-1.09s.7-.72,1.06-1.12a10.93,10.93,0,0,0,.82-1,3.46,3.46,0,0,0,.3-.44.92.92,0,0,0,.1-.25.76.76,0,0,0,0-.21.63.63,0,0,0-.17-.45,1,1,0,0,0-.45-.27,2,2,0,0,0-.67-.1,5.4,5.4,0,0,0-.77.06c-.27,0-.62.12-1.06.23l.1-.51c0-.12.05-.32.09-.61a12.52,12.52,0,0,1,2.23-.21,4.76,4.76,0,0,1,.94.09,2.64,2.64,0,0,1,.81.32,1.4,1.4,0,0,1,.51.52,1.22,1.22,0,0,1,.17.61,2.33,2.33,0,0,1,0,.38,1.79,1.79,0,0,1-.11.35,4.27,4.27,0,0,1-.34.62,8.12,8.12,0,0,1-.66.85q-.44.52-1,1.08c-.35.37-.75.75-1.17,1.16h2.39c.18,0,.39,0,.63,0,0,.11,0,.24,0,.41s0,.38,0,.66h-4.89Z"/><path d="M369.91,57.45c.06-.71.11-1.29.13-1.74s0-1.23.09-2.32.06-1.84.06-2.25c0-.12,0-.31,0-.55h2.09l1,0a5.83,5.83,0,0,1,.85,0,2.44,2.44,0,0,1,.5.14A1.25,1.25,0,0,1,375,51a1.35,1.35,0,0,1,.26.32,1.46,1.46,0,0,1,.16.41,1.65,1.65,0,0,1,.05.44,2.35,2.35,0,0,1-.06.54,1.73,1.73,0,0,1-.2.46,1.22,1.22,0,0,1-.3.34,1.94,1.94,0,0,1-.32.23l-.42.17a2,2,0,0,1,.38.1,1.94,1.94,0,0,1,.3.14,2.21,2.21,0,0,1,.3.25,1.23,1.23,0,0,1,.23.33,1.42,1.42,0,0,1,.13.38,2,2,0,0,1,.05.43,1.84,1.84,0,0,1-.21.88,1.68,1.68,0,0,1-.57.64,2.3,2.3,0,0,1-.83.31,14.73,14.73,0,0,1-1.93.08h-2.12Zm1.52-1h1.14a3.75,3.75,0,0,0,.54,0,1.56,1.56,0,0,0,.37-.1.82.82,0,0,0,.28-.15.85.85,0,0,0,.17-.2,1,1,0,0,0,.13-.29,1.15,1.15,0,0,0,0-.33A.91.91,0,0,0,374,55a.76.76,0,0,0-.24-.3.87.87,0,0,0-.37-.19,2.5,2.5,0,0,0-.64-.06h-1.26Zm.12-3h.81a5.69,5.69,0,0,0,.69,0,2,2,0,0,0,.38-.1.83.83,0,0,0,.33-.22,1.32,1.32,0,0,0,.2-.34,1.19,1.19,0,0,0,.06-.37A.86.86,0,0,0,374,52a.56.56,0,0,0-.21-.27,1,1,0,0,0-.34-.16,2.83,2.83,0,0,0-.58,0h-1.2Z"/><path d="M384.06,54.12h1.25a4.1,4.1,0,0,1-.57,2.11l.61.66q.3.3.54.57h-1.62l-.57-.6-.33.24a2.63,2.63,0,0,1-.34.18,1.92,1.92,0,0,1-.42.16,2.21,2.21,0,0,1-.46.1,3.12,3.12,0,0,1-.54,0,3.54,3.54,0,0,1-1.33-.24,1.89,1.89,0,0,1-.9-.73,1.93,1.93,0,0,1-.31-1.06,1.9,1.9,0,0,1,.15-.75,2.08,2.08,0,0,1,.5-.69,5.27,5.27,0,0,1,1.11-.74,3.72,3.72,0,0,1-.37-.7,1.56,1.56,0,0,1-.11-.58,1.51,1.51,0,0,1,.15-.65,1.45,1.45,0,0,1,.45-.54,1.86,1.86,0,0,1,.66-.33,3.21,3.21,0,0,1,.78-.09,5.83,5.83,0,0,1,1.45.21l0,1.12a3.27,3.27,0,0,0-.58-.23,1.8,1.8,0,0,0-.46,0,1.32,1.32,0,0,0-.53.1.8.8,0,0,0-.37.3.72.72,0,0,0-.13.42,1.13,1.13,0,0,0,0,.25,1.44,1.44,0,0,0,.12.32,4.88,4.88,0,0,0,.37.58c.2.26.4.51.61.75l.54.57c.14.14.28.28.4.42a1.68,1.68,0,0,0,.1-.29,2.93,2.93,0,0,0,.06-.33A3.58,3.58,0,0,0,384.06,54.12ZM383,56l-.65-.71-.48-.52-.44-.53c-.23.15-.41.26-.52.35a1.58,1.58,0,0,0-.28.3.84.84,0,0,0-.15.3,1,1,0,0,0-.05.3.94.94,0,0,0,.17.54,1,1,0,0,0,.47.38,2.07,2.07,0,0,0,1.1.08,2.89,2.89,0,0,0,.35-.11,1.81,1.81,0,0,0,.25-.16A2.28,2.28,0,0,0,383,56Z"/><path d="M389.26,57.45c.06-.71.11-1.29.13-1.74s.05-1.23.09-2.32.06-1.84.06-2.25c0-.12,0-.31,0-.55h2.09l1,0a5.83,5.83,0,0,1,.85,0,2.27,2.27,0,0,1,.5.14,1.25,1.25,0,0,1,.37.24,1.35,1.35,0,0,1,.26.32,1.46,1.46,0,0,1,.16.41,1.67,1.67,0,0,1,.06.44,2.35,2.35,0,0,1-.07.54,1.73,1.73,0,0,1-.2.46,1.22,1.22,0,0,1-.3.34,1.94,1.94,0,0,1-.32.23l-.42.17a2,2,0,0,1,.38.1,1.94,1.94,0,0,1,.3.14,1.73,1.73,0,0,1,.3.25,1.23,1.23,0,0,1,.23.33,1.42,1.42,0,0,1,.13.38,2,2,0,0,1,.05.43,1.84,1.84,0,0,1-.21.88,1.68,1.68,0,0,1-.57.64,2.32,2.32,0,0,1-.82.31,15,15,0,0,1-1.94.08h-2.12Zm1.52-1h1.14a3.75,3.75,0,0,0,.54,0,1.56,1.56,0,0,0,.37-.1.82.82,0,0,0,.28-.15,1.2,1.2,0,0,0,.18-.2,1.26,1.26,0,0,0,.12-.29,1.15,1.15,0,0,0,0-.33.91.91,0,0,0-.08-.41.76.76,0,0,0-.24-.3.87.87,0,0,0-.37-.19,2.5,2.5,0,0,0-.64-.06h-1.26Zm.12-3h.81a5.59,5.59,0,0,0,.69,0,2,2,0,0,0,.38-.1.83.83,0,0,0,.33-.22,1.32,1.32,0,0,0,.2-.34,1.19,1.19,0,0,0,.06-.37.86.86,0,0,0-.07-.36.56.56,0,0,0-.21-.27,1,1,0,0,0-.34-.16,2.78,2.78,0,0,0-.57,0H391Z"/><path d="M395.87,57.45c0-.13,0-.23,0-.31l0-.73c.42-.38.81-.74,1.15-1.09s.7-.72,1.07-1.12a12.44,12.44,0,0,0,.81-1,3.85,3.85,0,0,0,.31-.44,1.43,1.43,0,0,0,.1-.25,1.49,1.49,0,0,0,0-.21.62.62,0,0,0-.16-.45,1.1,1.1,0,0,0-.46-.27,2,2,0,0,0-.67-.1,5.27,5.27,0,0,0-.76.06,10.59,10.59,0,0,0-1.06.23l.09-.51c0-.12,0-.32.09-.61a12.61,12.61,0,0,1,2.23-.21,4.76,4.76,0,0,1,.94.09,2.64,2.64,0,0,1,.81.32,1.52,1.52,0,0,1,.52.52,1.32,1.32,0,0,1,.16.61,1.58,1.58,0,0,1,0,.38,1.3,1.3,0,0,1-.11.35,4.27,4.27,0,0,1-.34.62,9.33,9.33,0,0,1-.65.85c-.3.35-.62.71-1,1.08s-.74.75-1.17,1.16h2.4c.17,0,.38,0,.62,0a3.58,3.58,0,0,1,0,.41c0,.16,0,.38-.05.66h-4.89Z"/><path d="M407.86,56.19c-.07.39-.14.79-.19,1.2-.38.07-.73.11-1.05.14s-.59,0-.82,0a4.92,4.92,0,0,1-1.44-.21,3.44,3.44,0,0,1-1.23-.67,2.55,2.55,0,0,1-.8-1.1,4,4,0,0,1-.25-1.42,3.92,3.92,0,0,1,.3-1.54,3.2,3.2,0,0,1,.85-1.19,3.54,3.54,0,0,1,1.32-.73,5.17,5.17,0,0,1,1.58-.24,9.08,9.08,0,0,1,1.78.19q0,.45,0,.63l0,.54c-.38-.1-.69-.17-.94-.21a4.51,4.51,0,0,0-.72,0,3.22,3.22,0,0,0-1,.16,2.39,2.39,0,0,0-.88.52,2.47,2.47,0,0,0-.58.86,2.72,2.72,0,0,0-.2,1,2.58,2.58,0,0,0,.25,1.17,1.85,1.85,0,0,0,.8.84,2.66,2.66,0,0,0,1.38.32A6.79,6.79,0,0,0,407.86,56.19Z"/><path class="cls-1" d="M84.23,43.07c0-.6.07-1.08.07-1.45l.14-3.48q3-2.67,5.45-5.16c1.64-1.65,3.33-3.43,5-5.33s3-3.42,3.89-4.58A16.66,16.66,0,0,0,100.25,21a6.4,6.4,0,0,0,.47-1.19,4.19,4.19,0,0,0,.12-1,3,3,0,0,0-.78-2.13,5.32,5.32,0,0,0-2.16-1.29,10,10,0,0,0-3.18-.46,25.35,25.35,0,0,0-3.63.29c-1.3.2-3,.55-5,1.07l.46-2.41c.09-.57.24-1.53.43-2.88a58.84,58.84,0,0,1,10.58-1,21.7,21.7,0,0,1,4.46.44,11.22,11.22,0,0,1,3.82,1.5,6.94,6.94,0,0,1,2.46,2.45,6,6,0,0,1,.77,2.92,9,9,0,0,1-.18,1.8,7.87,7.87,0,0,1-.51,1.64,20,20,0,0,1-1.63,3,46.16,46.16,0,0,1-3.1,4q-2.12,2.51-4.6,5.12t-5.55,5.51h2.17l5.32,0c1.76,0,3.06,0,3.89-.06s1.82-.12,3-.23c0,.49-.09,1.13-.16,1.92s-.15,1.83-.25,3.13Q102,43,96.17,43,89,43,84.23,43.07Z"/><path class="cls-2" d="M126.87,23.31a16.61,16.61,0,0,1,2.91-.31,12.14,12.14,0,0,1,4.69.92A7,7,0,0,1,138,27.09a9.91,9.91,0,0,1,1.27,5,12.12,12.12,0,0,1-.85,4.45,10.94,10.94,0,0,1-2.63,3.91,10.32,10.32,0,0,1-4.29,2.47,18.43,18.43,0,0,1-9.94.15,11.57,11.57,0,0,1-4-2,8.36,8.36,0,0,1-2.67-3.47,11.09,11.09,0,0,1-.87-4.3,20.47,20.47,0,0,1,.38-3.77,22.71,22.71,0,0,1,1.74-5.09,55.26,55.26,0,0,1,3.61-6.59q2.25-3.57,5.11-7.29h8.68c-2.31,2.71-3.85,4.58-4.63,5.59-1.1,1.43-2.13,2.91-3.1,4.42a46.87,46.87,0,0,0-2.43,4.28,33.22,33.22,0,0,0-1.64,3.86,13.76,13.76,0,0,0-.57,2.16,12.1,12.1,0,0,0-.19,2.12,5.74,5.74,0,0,0,1.51,4.18,5.24,5.24,0,0,0,3.91,1.56,5.91,5.91,0,0,0,3.11-.81,5,5,0,0,0,2-2.19,7,7,0,0,0,.63-2.94,5.53,5.53,0,0,0-.61-2.68,3.73,3.73,0,0,0-2-1.69,8.29,8.29,0,0,0-3-.56,11.34,11.34,0,0,0-2.32.29C125.59,25.57,126.54,24,126.87,23.31Z"/><path class="cls-3" d="M156.64,23.31a16.61,16.61,0,0,1,2.91-.31,12.23,12.23,0,0,1,4.7.92,7.07,7.07,0,0,1,3.48,3.17,10,10,0,0,1,1.26,5,12.12,12.12,0,0,1-.85,4.45,10.94,10.94,0,0,1-2.63,3.91,10.32,10.32,0,0,1-4.29,2.47,18.43,18.43,0,0,1-9.94.15,11.57,11.57,0,0,1-4-2,8.36,8.36,0,0,1-2.67-3.47,11.09,11.09,0,0,1-.87-4.3,21.38,21.38,0,0,1,.38-3.77,22.71,22.71,0,0,1,1.74-5.09,55.26,55.26,0,0,1,3.61-6.59q2.25-3.57,5.11-7.29h8.68c-2.31,2.71-3.85,4.58-4.63,5.59-1.1,1.43-2.13,2.91-3.1,4.42a46.87,46.87,0,0,0-2.43,4.28,33.22,33.22,0,0,0-1.64,3.86,13.76,13.76,0,0,0-.57,2.16,12.1,12.1,0,0,0-.19,2.12,5.7,5.7,0,0,0,1.52,4.18,5.2,5.2,0,0,0,3.9,1.56,5.89,5.89,0,0,0,3.11-.81,4.9,4.9,0,0,0,2-2.19,7,7,0,0,0,.63-2.94,5.53,5.53,0,0,0-.61-2.68,3.73,3.73,0,0,0-2.05-1.69,8.29,8.29,0,0,0-3-.56,11.34,11.34,0,0,0-2.31.29C155.36,25.57,156.31,24,156.64,23.31Z"/><path class="cls-4" d="M187.06,10a12.2,12.2,0,0,1,6.44,1.62,10.43,10.43,0,0,1,4.16,5.17,21.38,21.38,0,0,1,1.48,8.29,31.52,31.52,0,0,1-.9,7.46,19.09,19.09,0,0,1-2.51,6.11,10.58,10.58,0,0,1-4.37,3.7,13.7,13.7,0,0,1-6,1.33A12.22,12.22,0,0,1,180,42.47a10.23,10.23,0,0,1-3.9-3.32,13.34,13.34,0,0,1-2.1-4.79,24.72,24.72,0,0,1-.6-5.47,32.8,32.8,0,0,1,.91-7.65A19,19,0,0,1,176.89,15a10.58,10.58,0,0,1,4.42-3.76A13.78,13.78,0,0,1,187.06,10Zm-.18,4.93a4.6,4.6,0,0,0-1.78.36,5.29,5.29,0,0,0-1.7,1.18A7.17,7.17,0,0,0,182,18.36a16.33,16.33,0,0,0-1,2.66,24.89,24.89,0,0,0-.69,3.72,37.55,37.55,0,0,0-.25,4.4,17.55,17.55,0,0,0,.66,5.29,6.74,6.74,0,0,0,2,3.16,4.41,4.41,0,0,0,3,1.12,4.63,4.63,0,0,0,1.82-.37,5.15,5.15,0,0,0,1.8-1.39A9.64,9.64,0,0,0,191,34a21,21,0,0,0,1.06-4.32,34.08,34.08,0,0,0,.34-4.76,19.73,19.73,0,0,0-.64-5.46,7.19,7.19,0,0,0-1.9-3.33A4.21,4.21,0,0,0,186.88,14.9Z"/><path class="cls-5" d="M204.38,43.65l.72-9.45.51-10.93.32-9.95V10q6.1,0,12.71,0l4.74,0,7.13,0-.29,5.33-2.35-.13c-.64,0-1.53-.06-2.66-.07s-2.3,0-3.48,0c-2.57,0-4.22,0-5,0s-1.88,0-3.4.08l-.4,8.76q3.39.08,6.82.08,2.37,0,8-.15c-.13,1.49-.24,3.29-.34,5.38l-7.55-.08q-2.91,0-7.25.15l-.4,9.23,2.71,0,5.43,0,5.36-.1,3.57-.18c-.16,1.91-.28,3.71-.34,5.41q-6.42,0-11.57,0l-8.12,0Z"/><path class="cls-6" d="M229.5,46.18c.27-.19,6.05-6.66,7.32-8.48l6.71-8.58,2.11-2.86-3-5L235.26,10c1.61,0,3.16,0,4.64,0,1.19,0,2.55,0,4.08,0q1.34,2.91,3.05,6t2.64,5.13q1.53-2.07,4.34-5.46c1.87-2.26,3.34-4.17,4.4-5.71,1.35,0,2.71,0,4.09,0,.89,0,2.26,0,4.1,0q-2,2.58-5.58,7.1T254.17,26q3.41,5.67,11.29,17.7c-1.92,0-3.31,0-4.19,0-1.41,0-2.93,0-4.56,0q-1.36-2.41-3.68-5.88t-3.67-5.66Q248,34,245.22,37.43c-1.84,2.27-6.82,8.89-8.37,10.75-7.18,8.22-15.41,9.17-25.17,9.4A54.67,54.67,0,0,0,229.5,46.18Z"/><path d="M269,43.65l.45-5.85.61-13,.3-9.4c0-.85,0-1.72,0-2.59q0-1,0-2.88c2.11,0,3.82,0,5.13,0,1.06,0,2.52,0,4.4-.07s3.36-.07,4.46-.07a18.49,18.49,0,0,1,5,.49,8.06,8.06,0,0,1,3,1.7,7.74,7.74,0,0,1,1.95,2.79,10.43,10.43,0,0,1,.74,3.92,10.78,10.78,0,0,1-1.6,5.79,9.79,9.79,0,0,1-4.4,3.89,15,15,0,0,1-6.24,1.28,20.08,20.08,0,0,1-3.58-.34c-.36-1.72-.77-3.32-1.23-4.82a14.16,14.16,0,0,0,3,.32,9.35,9.35,0,0,0,3.55-.61,5,5,0,0,0,2.38-2,5.68,5.68,0,0,0,.89-3.15,4.74,4.74,0,0,0-.37-1.9,3.15,3.15,0,0,0-1.07-1.38,4.05,4.05,0,0,0-1.55-.71,12.52,12.52,0,0,0-2.43-.18c-.91,0-1.84,0-2.78.05s-1.76.05-2.48.05c-.2,3.22-.35,6.31-.45,9.25l-.29,9.43q-.15,5-.15,7.35c0,.59,0,1.45,0,2.57l-3.58,0Z"/><path d="M298.7,43.65q.75-7.35,1.12-16.91T300.19,10c2,0,3.63,0,5,0s2.83,0,4.21-.07,2.82-.07,4.35-.07a35.81,35.81,0,0,1,5.12.32,9.64,9.64,0,0,1,4,1.48,7.47,7.47,0,0,1,2.6,2.81,8.27,8.27,0,0,1,.85,3.85A10.71,10.71,0,0,1,326,21a9.2,9.2,0,0,1-1,2.34,8.48,8.48,0,0,1-1.49,1.93,9.23,9.23,0,0,1-1.72,1.31,10.09,10.09,0,0,1-1.93.82c-.73.23-1.7.51-2.92.84l1.68,3.26c.55,1,1.57,2.89,3.09,5.57l2.49,4.37c.13.23.53,1,1.18,2.25l-4,0-4.18,0-2.74-6.57c-.47-1-1.05-2.18-1.72-3.55l-3-6q-.45-.84-1.23-2.52a16.84,16.84,0,0,0,3,.29,10.51,10.51,0,0,0,3.88-.69,5.53,5.53,0,0,0,2.69-2.13,5.7,5.7,0,0,0,.94-3.15,4.56,4.56,0,0,0-.41-1.92,3.58,3.58,0,0,0-1.37-1.51,5.6,5.6,0,0,0-2.3-.79,21.47,21.47,0,0,0-2.66-.17l-2,0c-.86,0-1.91,0-3.16,0l-.44,10.14-.47,18.51-3.83,0Z"/><path d="M330.61,43.65l.72-9.45.51-10.93.32-9.95V10q6.1,0,12.71,0l4.74,0,7.13,0-.29,5.33-2.35-.13c-.64,0-1.53-.06-2.66-.07s-2.3,0-3.48,0c-2.57,0-4.23,0-5,0s-1.88,0-3.4.08l-.4,8.76q3.39.08,6.82.08,2.37,0,8-.15c-.13,1.49-.24,3.29-.34,5.38l-7.55-.08q-2.91,0-7.25.15l-.41,9.23,2.72,0,5.43,0,5.36-.1,3.57-.18c-.16,1.91-.28,3.71-.34,5.41q-6.42,0-11.57,0l-8.12,0Z"/><path d="M360.64,42.93q-.19-3.75-.52-6.12a21.49,21.49,0,0,0,8.79,2.2,8.9,8.9,0,0,0,2.95-.48,4.09,4.09,0,0,0,2-1.36,3.17,3.17,0,0,0,.66-2,3.52,3.52,0,0,0-.32-1.51,7.08,7.08,0,0,0-1.57-1.9q-1.41-1.35-5-4.46c-1.16-1-1.95-1.72-2.39-2.15A18.37,18.37,0,0,1,363,22.66a8.23,8.23,0,0,1-1.13-2.23,8,8,0,0,1,.95-6.73,8.52,8.52,0,0,1,3.87-3.18,16.13,16.13,0,0,1,6.5-1.15,41.55,41.55,0,0,1,8,.87c.08,1.71.25,3.67.49,5.87a19.76,19.76,0,0,0-7.09-1.48,6.64,6.64,0,0,0-3.95,1.1,2.94,2.94,0,0,0-1.43,3.38,3.3,3.3,0,0,0,.32.84A7,7,0,0,0,370.2,21a13.73,13.73,0,0,0,1.61,1.53c.71.58,1.31,1.06,1.81,1.42l3.05,2.76c.77.64,1.46,1.27,2.07,1.88a18.25,18.25,0,0,1,1.56,1.75,8.46,8.46,0,0,1,1,1.6,7.55,7.55,0,0,1,.56,1.57,7.68,7.68,0,0,1,.18,1.69,8.34,8.34,0,0,1-1,3.91,8,8,0,0,1-2.76,3,11.46,11.46,0,0,1-3.95,1.64,21.44,21.44,0,0,1-4.54.46,29.23,29.23,0,0,1-3.68-.27Q364.07,43.7,360.64,42.93Z"/><path d="M386.55,42.93q-.19-3.75-.52-6.12a21.49,21.49,0,0,0,8.79,2.2,8.9,8.9,0,0,0,2.95-.48,4.09,4.09,0,0,0,2-1.36,3.17,3.17,0,0,0,.66-2,3.52,3.52,0,0,0-.32-1.51,7.08,7.08,0,0,0-1.57-1.9q-1.41-1.35-5-4.46c-1.16-1-1.95-1.72-2.39-2.15a18.37,18.37,0,0,1-2.27-2.53,8.23,8.23,0,0,1-1.13-2.23,8,8,0,0,1,.95-6.73,8.52,8.52,0,0,1,3.87-3.18,16.13,16.13,0,0,1,6.5-1.15,41.55,41.55,0,0,1,7.95.87c.08,1.71.25,3.67.49,5.87a19.76,19.76,0,0,0-7.09-1.48,6.64,6.64,0,0,0-4,1.1A2.94,2.94,0,0,0,395,19.11a3.3,3.3,0,0,0,.32.84,7,7,0,0,0,.76,1.06,14.58,14.58,0,0,0,1.61,1.53c.71.58,1.31,1.06,1.81,1.42l3.05,2.76c.77.64,1.46,1.27,2.07,1.88a17,17,0,0,1,1.56,1.75,8.46,8.46,0,0,1,1,1.6,7.55,7.55,0,0,1,.56,1.57,7.68,7.68,0,0,1,.18,1.69,8.34,8.34,0,0,1-1,3.91,8,8,0,0,1-2.76,3,11.46,11.46,0,0,1-3.95,1.64,21.44,21.44,0,0,1-4.54.46,29.23,29.23,0,0,1-3.68-.27Q390,43.7,386.55,42.93Z"/><path class="cls-7" d="M61.41,39.61a89.13,89.13,0,0,1-8.26,9.59c-7.08,6.07-9.08,12.07-9.17,18,.11.18.29.2.56,0A144.32,144.32,0,0,1,57.87,51.05a14.16,14.16,0,0,0,3.18-5.49c.74-2.31,1.08-4.9,1.69-5.69l2.1,3c.6-.2-2-5.2,0-7.17l2.72,2.51a6.12,6.12,0,0,0,2.15-2l.87.87c.74-.94,1.46-1.87,2.15-2.77l.77.67c.38-.1.55-.31.41-.67l-1.23-6.81c-.24-.38-.48-.35-.72,0l-.25.92c-.18.22-.34.23-.46-.1A4.08,4.08,0,0,1,71,26.65,1.35,1.35,0,0,0,69.81,26c-.22,3.69-3.65,2.86-4.3,1.69a3.15,3.15,0,0,1,0-3c1.88-4.44,3.83-7.34,6-6.05a6,6,0,0,1,.47,2.2c0,.34.21.42.61.11l1.64-2.31a3.5,3.5,0,0,1,.92,1.85c.93-1,1.81-3.05,2.67-5.74a16.26,16.26,0,0,0,.26-4.41c-.11-.79-1-1.17-1.8-1.23l-8.4-.26A13.74,13.74,0,0,1,61.66,6.5a7.54,7.54,0,0,0-6.3-.56H53.2c.91-2.29-.46-3.26-2.4-4.51C48-.46,45.81-.29,44,.86c3.49,1,6.56,2.35,8.15,5.18.43,1.42-.07,2-.87,2.36L45,8.3l1.74,1.48a.94.94,0,0,1-.1,1.08,6.12,6.12,0,0,0-2.15,2.56,18,18,0,0,1,4-1.28,6.5,6.5,0,0,1,2,.46c-.7,1.63-2.6,3.3-1.75,4.92,2.31-1,4.12-1.05,4.46,2.05-.86,1-2.56,2.42-3,3.34l5.38.66c.31.25.38.5-.1.77l-2.26,1.18a.55.55,0,0,0,.05.77l5.95,1c-1.13,1-1.51,2.4,0,3.18C61.38,32.54,62,35.67,61.41,39.61Z"/><path class="cls-8" d="M54.18,36a17.49,17.49,0,0,1-8,14.25c-7.19,5.9-7.67,9-8.92,12.09a.48.48,0,0,1-.77,0c0-4,.65-6.55,1.64-8.15C41.62,47.05,47.87,42.64,54.18,36Z"/><path class="cls-9" d="M47.72,31.88A65.46,65.46,0,0,0,36.49,52.07c-4.37,8.29-11,11.84-17.63,15.31,6.46-5.46,12.05-11.15,14.43-17.75C36.13,40.51,40.63,34.09,47.72,31.88Z"/><path class="cls-10" d="M21.17,58c7.69-4.87,12.12-8.39,12.66-19.38-.63-5.08,6.34-11.71,7.07-12-5.53.76-11.57,7.33-12,14.14C28,47.22,24.87,52.75,21.17,58Z"/><path class="cls-11" d="M8.87,61.6c4.05-5.16,7.63-10.53,8.86-16.86.56-4.6-.13-9.45,3.9-13.33C26,28.16,31.3,24.2,37.11,19.83c-.71,8.57-10.76,11.48-12.35,17C23.35,41.76,19.22,55.09,8.87,61.6Z"/><path class="cls-12" d="M33,15.78c.54-2.37,2.24-2.76,4.41-2.36Z"/><path class="cls-13" d="M30.4,14.53c0,4-6.52,9.18-13.43,14.37a12.38,12.38,0,0,1-9.54,1A13.48,13.48,0,0,0,0,30.34c1.7-2.53,5.28-3.93,10.25-4.51a13.69,13.69,0,0,0,10-4.46A23.81,23.81,0,0,1,30.4,14.53Z"/><path class="cls-14" d="M6.36,19.83c4.75-.3,9.52-.74,15-5.3A10,10,0,0,1,28,11.83a13.45,13.45,0,0,0,8.5-2.76c-4-.29-7.94-.41-11.78-.31a8.38,8.38,0,0,0-4.41,2A25.39,25.39,0,0,1,6.36,19.83Z"/><path class="cls-15" d="M49.51,6.09l-9.12-4.2C37.32.51,34.2,1,31,3.07c-3.91,2-8.77,1.63-13.66,1.18,2.36,1.49,5.4,2.73,14,1.84a15.77,15.77,0,0,1,9.48-.61C43.81,7,46.68,7.39,49.51,6.09Z"/></g></g></svg>