<?xml version="1.0" encoding="utf-8"?>
<!-- Generator: Adobe Illustrator 16.0.0, SVG Export Plug-In . SVG Version: 6.00 Build 0)  -->
<!DOCTYPE svg PUBLIC "-//W3C//DTD SVG 1.1//EN" "http://www.w3.org/Graphics/SVG/1.1/DTD/svg11.dtd">
<svg version="1.1" id="Layer_1" xmlns:svg="http://www.w3.org/2000/svg"
	 xmlns="http://www.w3.org/2000/svg" xmlns:xlink="http://www.w3.org/1999/xlink" x="0px" y="0px" width="100px" height="100px"
	 viewBox="112.44 183.933 100 100" enable-background="new 112.44 183.933 100 100" xml:space="preserve">
<title>Google maps marker for residencelamontagne</title>
<g>
	<title>Layer 1</title>
	<g>
		<path id="svg_2_1_" fill="#E45340" d="M163.524,279.9c-2.18-10.695-6.021-19.596-10.674-27.846
			c-3.451-6.119-7.45-11.768-11.149-17.701c-1.235-1.98-2.301-4.074-3.487-6.13c-2.373-4.11-4.296-8.876-4.174-15.06
			c0.12-6.04,1.867-10.885,4.385-14.848c4.145-6.516,11.084-11.857,20.396-13.262c7.613-1.148,14.752,0.791,19.814,3.751
			c4.137,2.419,7.341,5.65,9.775,9.458c2.542,3.975,4.292,8.67,4.438,14.795c0.075,3.139-0.438,6.045-1.162,8.455
			c-0.732,2.439-1.911,4.479-2.959,6.657c-2.047,4.253-4.612,8.149-7.187,12.048C173.873,251.83,166.676,263.674,163.524,279.9z"/>
		<path fill="#FFFFFF" d="M163.541,283.933l-0.789-3.877c-1.924-9.445-5.289-18.221-10.588-27.615
			c-2.188-3.881-4.646-7.645-7.024-11.285c-1.358-2.08-2.763-4.23-4.106-6.387c-0.777-1.247-1.498-2.554-2.195-3.817
			c-0.422-0.768-0.859-1.562-1.307-2.335c-1.392-2.412-2.404-4.674-3.093-6.914c-0.856-2.786-1.245-5.584-1.186-8.555
			c0.058-2.943,0.505-5.777,1.329-8.421c0.742-2.382,1.812-4.681,3.18-6.833c2.234-3.515,5.088-6.467,8.48-8.776
			c3.711-2.525,7.903-4.155,12.462-4.842c1.512-0.228,3.059-0.344,4.598-0.344c5.52,0,11.105,1.489,15.731,4.194
			c4.059,2.373,7.438,5.641,10.041,9.713c1.406,2.2,2.455,4.417,3.204,6.777c0.841,2.65,1.286,5.405,1.358,8.423
			c0.068,2.858-0.346,5.867-1.196,8.7c-0.579,1.93-1.431,3.621-2.253,5.258c-0.248,0.494-0.506,1.006-0.75,1.514
			c-2.09,4.343-4.708,8.307-7.239,12.141c-7.651,11.586-14.779,23.318-17.902,39.398L163.541,283.933z M163.301,185.506
			c-1.461,0-2.928,0.11-4.363,0.326c-4.322,0.652-8.297,2.195-11.811,4.588c-3.215,2.188-5.92,4.986-8.039,8.319
			c-1.293,2.034-2.305,4.206-3.005,6.456c-0.779,2.502-1.202,5.188-1.258,7.984c-0.128,6.515,2.107,11.252,4.069,14.65
			c0.454,0.787,0.896,1.588,1.322,2.362c0.687,1.245,1.396,2.533,2.151,3.745c1.336,2.143,2.735,4.285,4.089,6.358
			c2.392,3.661,4.864,7.448,7.078,11.372c4.723,8.375,7.935,16.27,9.973,24.574c3.475-14.584,10.198-25.588,17.377-36.457
			c2.502-3.79,5.09-7.709,7.134-11.955c0.25-0.521,0.51-1.038,0.762-1.539c0.829-1.648,1.612-3.206,2.152-5.004
			c0.803-2.676,1.193-5.515,1.129-8.209c-0.068-2.867-0.488-5.479-1.284-7.984c-0.708-2.229-1.698-4.323-3.03-6.406
			c-2.468-3.859-5.668-6.956-9.509-9.202C173.85,186.92,168.545,185.506,163.301,185.506z"/>
	</g>
	<circle id="svg_4" fill="#811411" cx="163.364" cy="212.855" r="11.992"/>
</g>
</svg>
