<svg id="svg2985" xmlns="http://www.w3.org/2000/svg" viewBox="0 0 564.51 439.3"><defs><style>.cls-1{fill:#f79f1a;}.cls-2{fill:#ea001b;}.cls-3{fill:#ff5f01;}</style></defs><title>Artboard 1</title><g id="g3125"><g id="g3115"><g id="g3110"><path id="path2997" class="cls-1" d="M564.51,174.9c0,96.6-78.16,174.9-174.57,174.9S215.36,271.5,215.36,174.9,293.52,0,389.93,0,564.51,78.31,564.51,174.9Z"/><path id="path2995" class="cls-2" d="M349.15,174.9c0,96.6-78.16,174.9-174.57,174.9S0,271.5,0,174.9,78.16,0,174.57,0,349.15,78.31,349.15,174.9Z"/><path id="path2999" class="cls-3" d="M282.25,37.22a175.17,175.17,0,0,0,0,275.38,175.17,175.17,0,0,0,0-275.38Z"/></g><g id="g3043"><g id="text3045"><path id="path3057" class="cls-1" d="M564.18,267.71v-6.24h-1.63l-1.87,4.29-1.87-4.29h-1.63v6.24h1.15V263l1.76,4.06h1.19L563,263v4.72Zm-10.32,0v-5.18h2.09v-1.05h-5.32v1.05h2.09v5.18Z"/></g></g></g><g id="g3093"><g id="g3081"><path id="path3006" d="M38.83,436.33H28.93V390.1h9.71v5.63s8.53-6.88,13.6-6.8c9.85.17,15.73,8.55,15.73,8.55a18.31,18.31,0,0,1,15.54-8.55c15.92,0,18.26,14.57,18.26,14.57v32.63H92.25V407.39s0-8.74-10.29-8.74c-10.68,0-11.65,8.74-11.65,8.74v28.75H60.4V407.19s-1-9.13-9.91-9.13c-11.63,0-11.85,9.32-11.85,9.32Z"/><path id="path3008" d="M340.09,388.93c-5.07-.09-13.6,6.8-13.6,6.8v-5.62h-9.72v46.22h9.91l-.19-28.94s.22-9.3,11.85-9.3a9.71,9.71,0,0,1,5.16,1.33v0l3.23-9A17.79,17.79,0,0,0,340.09,388.93Z"/><path id="path3013" d="M479.64,388.93c-5.07-.09-13.6,6.8-13.6,6.8v-5.62h-9.72v46.22h9.91L466,407.39s.22-9.3,11.85-9.3a9.71,9.71,0,0,1,5.16,1.33v0l3.23-9a17.79,17.79,0,0,0-6.65-1.44Z"/><path id="path3015" d="M133.8,388.74c-14.83,0-22.67,13.32-22.71,24.46,0,11.41,8.93,24.57,23.13,24.57,8.28,0,15.09-6.11,15.09-6.11l0,4.71H159V390.09h-9.79v5.83s-6.39-7.18-15.45-7.18Zm1.9,9.42c8,0,14.43,6.93,14.43,15.46S143.66,429,135.7,429s-14.39-6.89-14.39-15.42S127.73,398.16,135.7,398.16Z"/><path id="path3020" d="M418.17,388.74c-14.83,0-22.67,13.32-22.71,24.46,0,11.41,8.93,24.57,23.13,24.57,8.28,0,15.09-6.11,15.09-6.11l0,4.71h9.75V390.09h-9.79v5.83s-6.39-7.18-15.45-7.18Zm1.9,9.42c8,0,14.43,6.93,14.43,15.46S428,429,420.07,429s-14.39-6.89-14.39-15.42S412.1,398.16,420.07,398.16Z"/><path id="path3022" d="M511.79,388.74c-14.83,0-22.67,13.32-22.71,24.46,0,11.41,8.93,24.57,23.13,24.57,8.28,0,15.09-6.11,15.09-6.11l0,4.71H537V371.82h-9.79v24.1s-6.39-7.18-15.45-7.18Zm1.9,9.42c8,0,14.43,6.93,14.43,15.46S521.65,429,513.69,429s-14.39-6.89-14.39-15.42S505.72,398.16,513.69,398.16Z"/><path id="path3024" d="M188.79,437.88c-10.1,0-19.42-6.22-19.42-6.22l4.27-6.6s8.82,4.08,15.15,4.08c4.11,0,11-1.33,11.07-5.44.09-4.34-11.56-5.63-11.56-5.63s-17.38-.24-17.38-14.57c0-9,8.68-14.76,19.81-14.76,6.43,0,18.45,5.63,18.45,5.63l-4.86,7.58s-9.28-3.71-14.18-3.88c-4.14-.15-9.13,1.83-9.13,5.44,0,9.8,28.94-.76,28.94,19,0,13-11.79,15.34-21.17,15.34Z"/><path id="path3026" d="M226,376.7v13.44h-8.62v9.72H226v23.24s-.76,15.72,16.14,15.72c4.67,0,13.82-3.46,13.82-3.46l-3.91-10.1s-3.64,3.1-7.75,3c-7.81-.2-7.6-5.2-7.6-5.2v-23.2h16.1v-9.72h-16.1V376.7Z"/><path id="path3034" d="M284.72,389.31c-15.9,0-23.84,13.09-23.77,24.46.07,11.69,7.23,24.84,24.72,24.84,7.49,0,18-6.57,18-6.57l-4.52-7.86s-7.18,5.09-13.48,5.09c-12.63,0-13.44-12.34-13.44-12.34H306S308.55,389.31,284.72,389.31Zm-1.44,9.08c.37,0,.78,0,1.18,0,11.9,0,11.81,11.24,11.81,11.24h-24S271.66,399,283.28,398.38Z"/><path id="path3037" d="M385.26,424.05l4.53,9.06s-7.18,4.67-15.25,4.67c-16.69,0-26-12.56-26-24.45,0-18.68,14.75-24.17,24.72-24.17,9.05,0,16.89,5.22,16.89,5.22l-5.08,9.06S382,398.64,373,398.64s-13.73,7.75-13.73,15.11c0,8.24,5.52,15.25,13.87,15.25,6.55,0,12.09-4.94,12.09-4.94Z"/></g><g id="g3064"><g id="text3066"><path id="path3078" d="M557.47,430a4.81,4.81,0,0,0-3.39,1.37,4.61,4.61,0,0,0,0,6.58,4.82,4.82,0,0,0,6.74,0,4.59,4.59,0,0,0,0-6.58A4.76,4.76,0,0,0,557.47,430Zm0,8.29a3.62,3.62,0,1,1,0-7.25,3.58,3.58,0,0,1,2.55,1.05,3.67,3.67,0,0,1,0,5.14A3.57,3.57,0,0,1,557.47,438.27Zm.27-5.81h-2v4.33h.92v-1.62h.42l1.31,1.62h1.11l-1.42-1.63a1.73,1.73,0,0,0,1-.43,1.19,1.19,0,0,0,.36-.88,1.24,1.24,0,0,0-.45-1A2,2,0,0,0,557.74,432.46Zm0,.81a1,1,0,0,1,.58.14.49.49,0,0,1,.22.43.5.5,0,0,1-.22.44,1,1,0,0,1-.58.15h-1.06v-1.15Z"/></g></g></g></g></svg>