<?xml version="1.0" encoding="utf-8"?>
<!-- Generator: Adobe Illustrator 16.0.0, SVG Export Plug-In . SVG Version: 6.00 Build 0)  -->
<!DOCTYPE svg PUBLIC "-//W3C//DTD SVG 1.1//EN" "http://www.w3.org/Graphics/SVG/1.1/DTD/svg11.dtd">
<svg version="1.1" id="Layer_1" xmlns="http://www.w3.org/2000/svg" xmlns:xlink="http://www.w3.org/1999/xlink" x="0px" y="0px"
	 width="15.898px" height="15.694px" viewBox="402.653 216.476 15.898 15.694"
	 enable-background="new 402.653 216.476 15.898 15.694" xml:space="preserve">
<title>mb-multibanco</title>
<path fill="#0D76CC" d="M405.917,216.476h10.128c0.71,0,1.292,0.632,1.292,1.406v0.667c0,0.95-1.253,0.947-1.253,0v-0.352
	c-0.001-0.235-0.187-0.425-0.415-0.424h-10.146c-0.228,0-0.412,0.19-0.413,0.424v0.36c0,0.946-1.194,0.934-1.194,0.02v-0.691
	c0.002-0.773,0.583-1.41,1.295-1.41H405.917z M410.56,232.165h6.567c1.5,0,1.514-1.638,1.361-2.448
	c-0.083-0.543-0.981-0.533-1.081,0v0.632c-0.005,0.289-0.231,0.521-0.51,0.524h-12.591c-0.279-0.004-0.504-0.236-0.51-0.524v-0.627
	c-0.1-0.534-0.997-0.543-1.081,0c-0.153,0.8-0.139,2.448,1.362,2.448h6.484L410.56,232.165z"/>
<path d="M414.62,223.679h1.041v-0.012c0.484-0.078,0.842-0.506,0.844-1.011l0,0c-0.003-0.566-0.448-1.023-0.996-1.023h-2.109v5.354
	h2.673c0.568,0,1.03-0.471,1.035-1.056l0,0c-0.005-0.585-0.467-1.057-1.035-1.057h-1.445c-0.317,0-0.576-0.266-0.578-0.594l0,0
	c-0.002-0.329,0.255-0.599,0.574-0.602c0.001,0,0.003,0,0.004,0H414.62z M417.078,224.204c0.713,0.322,1.18,1.043,1.195,1.846l0,0
	c0,1.134-0.963,2.061-2.14,2.061h-3.304c-0.297,0.009-0.546-0.228-0.562-0.534v-6.455c0.002-0.313,0.248-0.565,0.551-0.565h2.747
	c1.156,0,2.096,0.965,2.103,2.158l0,0c0,0.559-0.209,1.097-0.586,1.498L417.078,224.204z"/>
<path d="M411.746,227.467c0.028,0.376-0.245,0.705-0.61,0.734c-0.35,0.028-0.661-0.231-0.707-0.591l-0.542-5.13l-1.921,5.022l0,0
	v0.024l0,0v0.011l0,0v0.012l0,0v0.01l0,0c-0.034,0.067-0.078,0.127-0.13,0.179l0,0l-0.01,0.009c-0.035,0.032-0.073,0.06-0.115,0.083
	l0,0l-0.013,0.007h-0.063c-0.062,0.022-0.127,0.035-0.194,0.037h-0.048c-0.073-0.003-0.146-0.019-0.215-0.046h-0.071
	c-0.036-0.021-0.071-0.045-0.103-0.072l0,0l-0.021-0.02l0,0l-0.016-0.016l-0.016-0.018l0,0l-0.021-0.02l0,0
	c-0.025-0.033-0.049-0.067-0.069-0.104l0,0v-0.016l0,0v-0.013l0,0v-0.041l0,0v-0.009l-2.05-5.02l-0.542,5.129
	c-0.049,0.374-0.384,0.635-0.746,0.584c-0.345-0.049-0.594-0.365-0.57-0.723l0.638-6.046l0,0c0.059-0.515,0.448-0.923,0.946-0.992
	h0.031c0.054-0.01,0.109-0.018,0.164-0.02l0,0c0.068,0.003,0.134,0.013,0.2,0.028c0.353,0.081,0.644,0.337,0.776,0.684l1.643,4.269
	l1.638-4.269c0.132-0.347,0.423-0.604,0.776-0.684c0.065-0.017,0.132-0.028,0.2-0.032l0,0c0.055-0.005,0.111-0.005,0.167,0h0.034
	c0.498,0.068,0.887,0.477,0.946,0.992l0,0L411.746,227.467z"/>
</svg>
