<svg id="Layer_1" data-name="Layer 1" xmlns="http://www.w3.org/2000/svg" viewBox="0 0 124 146"><defs><style>.cls-1{fill:#1866ac;}.cls-2{fill:#373536;}</style></defs><title>mb-multibanco</title><path class="cls-1" d="M25.46,0h78.31c5.5,0,10,4.74,10,10.54v5c0,7.12-9.69,7.1-9.69,0V12.9a3.2,3.2,0,0,0-3.21-3.18H22.41a3.2,3.2,0,0,0-3.19,3.18v2.7c0,7.09-9.23,7-9.23.15V10.57C10,4.77,14.49,0,20,0Zm35.9,117.61h50.78c11.6,0,11.71-12.28,10.53-18.35-.64-4.07-7.59-4-8.36,0V104a4,4,0,0,1-3.95,3.93H13A4,4,0,0,1,9.06,104V99.3c-.77-4-7.71-4.07-8.36,0-1.18,6-1.07,18.35,10.53,18.35H61.37Z" transform="translate(0 -0.02)"/><path class="cls-2" d="M92.76,54h8.05v-.09a7.71,7.71,0,0,0,6.53-7.58h0a7.71,7.71,0,0,0-7.7-7.67H83.33V78.8H104a8,8,0,0,0,8-7.92h0a8,8,0,0,0-8-7.92H92.83a4.47,4.47,0,0,1-4.47-4.45h0A4.47,4.47,0,0,1,92.83,54Zm19,3.93A15.43,15.43,0,0,1,121,71.77h0c0,8.5-7.44,15.45-16.54,15.45H78.91a4.21,4.21,0,0,1-4.34-4V34.83a4.26,4.26,0,0,1,4.26-4.24h21.24a16.27,16.27,0,0,1,16.26,16.18h0A16.08,16.08,0,0,1,111.8,58Z" transform="translate(0 -0.02)"/><path class="cls-2" d="M28.7,132.48a1.37,1.37,0,0,1,2.74,0h0v7.34h0a6.14,6.14,0,0,1-6.13,6.12h0a6.14,6.14,0,0,1-6.14-6.11h0v-7.37a1.37,1.37,0,0,1,2.74,0v7.36h0a3.43,3.43,0,0,0,3.41,3.4h0a3.43,3.43,0,0,0,3.38-3.4h0Z" transform="translate(0 -0.02)"/><path class="cls-2" d="M41.62,143.25a1.36,1.36,0,1,1,0,2.73H37.85a5.14,5.14,0,0,1-5.13-5.12h0v-8.37a1.37,1.37,0,0,1,2.74,0v8.34h0a2.42,2.42,0,0,0,2.41,2.4h3.78Z" transform="translate(0 -0.02)"/><path class="cls-2" d="M70.53,82.39a5.12,5.12,0,0,1-10.18,1.07L56.16,45,41.3,82.65h0v.18h0v.08h0V83h0v.08h0a5.08,5.08,0,0,1-1,1.34h0l-.08.07a5,5,0,0,1-.89.62h0l-.1.05h-.49a5.13,5.13,0,0,1-1.5.28h-.37a5.13,5.13,0,0,1-1.67-.35h-.55a5.11,5.11,0,0,1-.79-.54h0l-.17-.15h0l-.13-.12-.12-.13h0L33.28,84h0a5.09,5.09,0,0,1-.54-.78h0V83.1h0V83h0V82.7h0v-.07L16.89,45l-4.2,38.45A5.12,5.12,0,0,1,2.51,82.4L7.45,37.08h0a8.5,8.5,0,0,1,7.31-7.44H15a8.72,8.72,0,0,1,1.27-.15h0a8.69,8.69,0,0,1,1.55.21,8.4,8.4,0,0,1,6,5.13l12.71,32,12.66-32a8.4,8.4,0,0,1,6-5.13,8.68,8.68,0,0,1,1.55-.24h0a8.69,8.69,0,0,1,1.29,0h.27a8.5,8.5,0,0,1,7.31,7.44h0Z" transform="translate(0 -0.02)"/><path class="cls-2" d="M18.64,144.45a1.37,1.37,0,0,1-2.72.32L14.75,135l-4.18,9.65a1.37,1.37,0,0,1-2.51,0h0L3.89,135l-1.17,9.81A1.37,1.37,0,0,1,0,144.45l1.36-11.4a2.19,2.19,0,0,1,1.2-1.69l.26-.12h.1a2.47,2.47,0,0,1,.4-.09h0a2.37,2.37,0,0,1,1.91.6,2.3,2.3,0,0,1,.43.57l.08.15,3.54,8.19,3.54-8.19a2.24,2.24,0,0,1,1.6-1.29,2.39,2.39,0,0,1,.4-.05h.46a2.31,2.31,0,0,1,1.7,1.09h0a2.12,2.12,0,0,1,.18.39,2,2,0,0,1,.07.27,1.41,1.41,0,0,1,0,.18h0Z" transform="translate(0 -0.02)"/><path class="cls-2" d="M47.59,144.61a1.37,1.37,0,0,1-2.74,0v-10.8H41a1.36,1.36,0,1,1,0-2.73H51.49a1.36,1.36,0,1,1,0,2.73h-3.9Z" transform="translate(0 -0.02)"/><path class="cls-2" d="M56.12,144.61a1.37,1.37,0,0,1-2.74,0V132.48a1.37,1.37,0,0,1,2.74,0Z" transform="translate(0 -0.02)"/><path class="cls-2" d="M84.18,144.44a1.37,1.37,0,0,1-2.72.33L81,140.92H76.24a1.36,1.36,0,1,1,0-2.73h4.4l-.12-1h0v-.09a5.12,5.12,0,0,0-.16-.69,4.54,4.54,0,0,0-.28-.72,3.1,3.1,0,0,0-2.77-1.84h0a3,3,0,0,0-.68.08,2.77,2.77,0,0,0-.61.23,3.81,3.81,0,0,0-1.9,3l-.86,7.57a1.37,1.37,0,1,1-2.72-.3l.86-7.57a6.54,6.54,0,0,1,3.38-5.17,5.51,5.51,0,0,1,1.21-.44,5.69,5.69,0,0,1,1.33-.16h0a5.76,5.76,0,0,1,5.21,3.35A7.15,7.15,0,0,1,83,135.6a7.41,7.41,0,0,1,.24,1.11,1.13,1.13,0,0,1,0,.13h0Z" transform="translate(0 -0.02)"/><path class="cls-2" d="M88.36,144.61a1.37,1.37,0,0,1-2.74,0V133.35h0a1.36,1.36,0,0,1,0-.23,1.94,1.94,0,0,1,.11-.44h0a2.16,2.16,0,0,1,.11-.24h0a1.92,1.92,0,0,1,1.07-.89h.66a1.93,1.93,0,0,1,1.45.74l7.28,9.25V132.6a1.37,1.37,0,0,1,2.74,0v11.21a1.92,1.92,0,0,1-1,1.68l-.17.08h-.11a1.92,1.92,0,0,1-1.47-.08l-.17-.09a1.92,1.92,0,0,1-.27-.2l-.17-.18V145h0l-7.28-9.25Z" transform="translate(0 -0.02)"/><path class="cls-2" d="M109.72,143.25a1.36,1.36,0,1,1,0,2.73h-4a5.39,5.39,0,0,1-5.39-5.37h0v-4.1h0a5.39,5.39,0,0,1,5.39-5.37h4a1.36,1.36,0,1,1,0,2.73h-4a2.67,2.67,0,0,0-2.66,2.66h0v4.1h0a2.67,2.67,0,0,0,2.67,2.66h4Z" transform="translate(0 -0.02)"/><path class="cls-2" d="M117.63,131.12h0a6.48,6.48,0,0,1,4.48,1.79,6,6,0,0,1,1.88,4.36h0v2.56h0a6,6,0,0,1-1.89,4.36,6.48,6.48,0,0,1-4.48,1.79h0a6.48,6.48,0,0,1-4.48-1.79,6,6,0,0,1-1.88-4.36h0v-2.54h0a6,6,0,0,1,1.89-4.36,6.48,6.48,0,0,1,4.48-1.79h0Zm0,2.72h0a3.73,3.73,0,0,0-2.59,1,3.33,3.33,0,0,0-1,2.41h0v2.58h0a3.33,3.33,0,0,0,1,2.41,3.74,3.74,0,0,0,2.59,1h0a3.73,3.73,0,0,0,2.59-1,3.33,3.33,0,0,0,1-2.41h0v-2.54h0a3.33,3.33,0,0,0-1-2.41,3.74,3.74,0,0,0-2.59-1.07Z" transform="translate(0 -0.02)"/><path class="cls-2" d="M57.27,138.46v-5.92h0a1.36,1.36,0,0,1,.11-.54,1.39,1.39,0,0,1,.31-.47h0a1.41,1.41,0,0,1,.9-.39h5.36a4.36,4.36,0,0,1,4.36,4.34h0a4.31,4.31,0,0,1-.64,2.34,4.5,4.5,0,0,1,.78.62l.08.09a4.41,4.41,0,0,1,1.22,3h0A4.44,4.44,0,0,1,65.29,146H58.6a1.37,1.37,0,0,1-1.37-1.36h0v-6.15ZM60,133.81v9.4h5.29A1.73,1.73,0,0,0,67,141.49h0a1.7,1.7,0,0,0-.45-1.15h-.05a1.71,1.71,0,0,0-1.21-.51H63.47a1.37,1.37,0,0,1-1.37-1.36h0a1.37,1.37,0,0,1,1.37-1.36h.62a1.64,1.64,0,0,0,1-.48h0a1.62,1.62,0,0,0,.48-1.14h0A1.65,1.65,0,0,0,64,133.81Z" transform="translate(0 -0.02)"/></svg>