<?xml version="1.0" encoding="utf-8"?>
<!-- Generator: Adobe Illustrator 16.0.0, SVG Export Plug-In . SVG Version: 6.00 Build 0)  -->
<!DOCTYPE svg PUBLIC "-//W3C//DTD SVG 1.1//EN" "http://www.w3.org/Graphics/SVG/1.1/DTD/svg11.dtd">
<svg version="1.1" id="Layer_1" xmlns="http://www.w3.org/2000/svg" xmlns:xlink="http://www.w3.org/1999/xlink" x="0px" y="0px"
	 width="425.201px" height="206.539px" viewBox="0 0 425.201 206.539" enable-background="new 0 0 425.201 206.539"
	 xml:space="preserve">
<path fill="#D60510" d="M16.543,180.146l-0.73,5.564c-0.332,2.74,1.827,5.148,4.634,5.148h180.842c2.807,0,4.966-2.408,4.65-5.148
	l-0.747-5.564c-0.448-4.334,2.707-8.287,7.025-8.744c4.351-0.473,8.189,2.699,8.636,7.018l0.699,5.414
	c1.41,12.092-5.449,22.705-17.673,22.705H17.855c-12.225,0-19.084-10.613-17.673-22.705l0.698-5.414
	c0.465-4.318,4.285-7.49,8.62-7.018C13.836,171.859,16.991,175.812,16.543,180.146"/>
<path d="M183.716,138.225c8.803,0.018,15.812-6.395,15.629-14.832c-0.183-8.637-8.039-14.217-16.809-14.232h-17.705
	c-3.92,0-7.143-3.256-7.143-7.342s3.206-7.357,7.143-7.357h11.825c7.973-0.316,14.118-5.148,14.5-12.689
	c0.398-8.072-6.544-14.135-15.031-14.135h-28.7l-0.117,70.588H183.716z M205.474,81.721c0,7.359-2.607,11.527-6.926,16.66
	l-0.432,0.516l0.598,0.365c8.554,5.215,14.516,13.086,14.965,24.148c0.664,16.477-13.305,30.113-29.88,30.08H140.1
	c-4.252,0-7.69-3.539-7.69-7.891V60.844c0-4.367,3.438-7.889,7.674-7.889l36.075,0.1C191.888,53.07,205.474,64.631,205.474,81.721"
	/>
<path d="M64.627,124.439l0.199,0.598l0.216-0.598c2.026-5.58,4.469-11.76,7.06-18.502c2.674-7.092,5.331-13.869,7.989-20.33
	c2.69-6.561,5.231-12.406,7.656-17.506c2.425-5.215,4.435-8.785,5.979-10.746c2.392-2.855,5.548-4.301,9.483-4.301h1.811
	c2.408,0,4.285,0.631,5.697,1.826c1.295,1.129,2.06,2.426,2.275,3.92l11.295,87.58c0,2.258-0.648,4.002-1.928,5.299
	c-1.278,1.211-3.105,1.811-5.497,1.811s-4.285-0.566-5.681-1.678c-1.545-1.113-2.425-2.574-2.641-4.385
	c-0.382-2.908-0.73-6.146-1.08-9.701c-0.498-3.537-2.258-18.818-2.757-22.672c-0.465-3.969-3.638-28.715-4.717-37.701l-0.1-0.764
	l-3.621,7.59c-1.229,2.607-2.558,5.746-4.02,9.4c-1.444,3.654-2.923,7.508-4.368,11.578c-1.578,3.951-8.57,23.932-8.57,23.932
	c-0.647,1.811-1.877,5.465-2.989,8.82c-1.13,3.338-2.159,6.361-2.442,6.943c-1.66,3.305-4.899,5.48-9.019,5.514
	c-4.169-0.018-7.407-2.209-9.052-5.514c-0.299-0.582-1.329-3.605-2.458-6.943c-1.13-3.355-2.325-7.01-3.007-8.82
	c0,0-6.992-19.98-8.554-23.932c-1.462-4.07-2.923-7.924-4.385-11.578s-2.79-6.793-3.986-9.4l-3.638-7.59l-0.083,0.764
	c-1.096,8.986-4.252,33.732-4.733,37.701c-0.498,3.854-2.259,19.135-2.74,22.672c-0.365,3.555-0.73,6.793-1.113,9.701
	c-0.216,1.811-1.096,3.271-2.624,4.385c-1.412,1.111-3.305,1.678-5.697,1.678c-2.392,0-4.202-0.6-5.48-1.811
	c-1.279-1.297-1.927-3.057-1.943-5.299l11.294-87.58c0.249-1.494,0.997-2.791,2.292-3.92c1.396-1.195,3.306-1.826,5.681-1.826h1.827
	c3.937,0,7.092,1.445,9.467,4.301c1.562,1.961,3.555,5.531,5.979,10.746c2.441,5.1,4.983,10.945,7.657,17.506
	c2.657,6.461,5.331,13.238,8.006,20.33C60.159,112.68,62.601,118.859,64.627,124.439"/>
<path fill="#D60510" d="M179.829,0c12.938,0,19.383,9.717,20.895,22.526l0.581,4.103c0.465,4.4-2.773,8.338-7.093,8.803
	c-4.334,0.465-8.221-2.725-8.67-7.125l-0.548-3.924c-0.581-4.866-2.641-8.62-7.59-8.62H44.896c-4.95,0-7.01,3.754-7.591,8.62
	l-0.531,3.924c-0.448,4.4-4.335,7.59-8.687,7.125c-4.335-0.465-7.558-4.402-7.093-8.803l0.582-4.103C23.104,9.717,29.531,0,42.47,0"
	/>
<path d="M289.533,92.303c-0.947,3.67-1.928,7.59-2.957,11.758c-1.029,4.152-2.061,8.139-3.072,11.941
	c-0.998,3.805-1.943,7.125-2.857,10c-0.896,2.873-1.66,4.832-2.26,5.895c-1.062,1.877-2.939,2.809-5.613,2.809
	c-0.748,0-1.711-0.15-2.924-0.465c-1.195-0.301-2.191-1.146-3.006-2.543c-0.598-1.062-1.346-3.121-2.258-6.195
	c-0.898-3.072-1.844-6.594-2.857-10.596c-0.996-4.004-1.992-8.238-3.006-12.705c-0.996-4.469-1.91-8.604-2.707-12.457
	c-0.799-3.82-1.479-7.109-2.01-9.799c-0.531-2.709-0.832-4.303-0.898-4.852c-0.066-0.332-0.1-0.564-0.1-0.697v-0.398
	c0-1.129,0.416-2.059,1.297-2.756c0.863-0.699,1.943-1.047,3.205-1.047c1.213,0,2.176,0.266,2.924,0.764
	c0.73,0.482,1.262,1.379,1.594,2.641c0,0.133,0.199,1.113,0.549,2.906c0.381,1.795,0.846,4.104,1.412,6.893
	c0.58,2.809,1.211,5.93,1.908,9.402c0.699,3.471,1.43,6.992,2.211,10.562c0.764,3.555,1.543,6.992,2.309,10.348
	c0.764,3.32,1.477,6.195,2.158,8.586c0.664-2.258,1.395-4.85,2.209-7.756c0.797-2.891,1.611-5.896,2.408-8.984
	c0.797-3.107,1.562-6.195,2.309-9.303c0.73-3.105,1.412-5.994,2.061-8.652c0.631-2.674,1.178-5.033,1.645-7.092
	c0.465-2.076,0.83-3.605,1.111-4.617c0.332-1.264,0.965-2.26,1.895-2.99c0.963-0.73,2.076-1.113,3.422-1.113
	c1.461,0,2.674,0.398,3.619,1.162c0.914,0.766,1.529,1.762,1.795,2.941c0.748,3.271,1.545,6.926,2.408,10.961
	c0.863,4.02,1.777,8.105,2.707,12.242c0.947,4.135,1.928,8.188,2.906,12.156c1.014,3.971,1.977,7.49,2.924,10.547
	c0.664-2.393,1.395-5.266,2.16-8.586c0.764-3.355,1.543-6.777,2.342-10.314c0.812-3.521,1.576-7.025,2.309-10.496
	c0.746-3.455,1.41-6.578,2.025-9.352c0.598-2.758,1.08-5.016,1.445-6.744c0.365-1.744,0.549-2.641,0.549-2.707
	c0.332-1.262,0.863-2.158,1.609-2.641c0.732-0.498,1.711-0.764,2.908-0.764c1.262,0,2.342,0.348,3.205,1.047
	c0.881,0.697,1.312,1.627,1.312,2.756v0.398c0,0.133-0.033,0.365-0.1,0.697c-0.051,0.549-0.383,2.143-0.965,4.852
	c-0.547,2.689-1.244,5.979-2.043,9.799c-0.812,3.854-1.709,7.973-2.723,12.406c-0.98,4.434-1.977,8.652-2.939,12.639
	c-0.98,4.004-1.91,7.525-2.824,10.564c-0.896,3.023-1.66,5.082-2.26,6.145c-0.797,1.396-1.809,2.293-3.055,2.658
	s-2.227,0.549-2.957,0.549c-0.283,0-0.664-0.033-1.213-0.1c-0.531-0.084-1.096-0.199-1.711-0.408
	c-0.598-0.191-1.195-0.506-1.793-0.938c-0.615-0.449-1.08-1.029-1.412-1.762c-0.598-1.262-1.328-3.371-2.158-6.295
	c-0.832-2.939-1.744-6.244-2.709-9.947c-0.963-3.705-1.926-7.574-2.855-11.609C291.208,99.609,290.33,95.822,289.533,92.303"/>
<path d="M342.017,116.201c-1.014,3.205-1.893,6.162-2.658,8.887c-0.779,2.732-1.494,4.982-2.158,6.709
	c-0.748,1.943-2.209,2.908-4.418,2.908c-1.545,0-2.658-0.383-3.371-1.146c-0.699-0.781-1.047-1.762-1.047-2.957
	c0-0.465,0.066-0.896,0.199-1.312c0.133-0.381,0.547-1.76,1.262-4.086c0.697-2.324,1.611-5.23,2.758-8.703
	c1.129-3.471,2.391-7.273,3.754-11.393c1.379-4.135,2.789-8.221,4.268-12.258c1.463-4.035,2.906-7.807,4.318-11.295
	c1.396-3.504,2.707-6.328,3.904-8.453c0.547-1.129,1.262-1.91,2.158-2.309c0.914-0.398,2.131-0.598,3.676-0.598
	c1.479,0,2.723,0.248,3.754,0.697c1.045,0.482,1.76,1.279,2.158,2.408c0.947,1.992,2.076,4.684,3.371,8.039
	c1.297,3.371,2.676,7.01,4.104,10.912c1.445,3.902,2.857,7.889,4.268,11.941c1.412,4.068,2.709,7.855,3.871,11.361
	c1.162,3.486,2.176,6.477,3.006,8.951s1.361,4.07,1.561,4.783c0.117,0.416,0.199,0.848,0.199,1.312c0,1.195-0.398,2.176-1.211,2.957
	c-0.799,0.764-1.977,1.146-3.506,1.146c-1.145,0-1.992-0.25-2.574-0.766c-0.547-0.48-1.014-1.211-1.346-2.143
	c-0.664-1.727-1.461-3.977-2.357-6.709c-0.896-2.725-1.861-5.682-2.857-8.887H342.017z M364.294,107.498
	c-1.412-4.334-2.74-8.32-4.02-11.941c-1.279-3.637-2.574-7.092-3.92-10.363c-0.332-0.73-0.682-1.562-1.047-2.559
	c-0.365-0.947-0.58-1.527-0.646-1.727c-0.066,0.049-0.299,0.613-0.648,1.645c-0.383,1.029-0.73,1.91-1.062,2.641
	c-1.334,3.271-2.629,6.727-3.875,10.363c-1.229,3.621-2.557,7.607-3.953,11.941H364.294z"/>
<path d="M398.31,109.492c-0.332-0.316-0.648-0.699-0.947-1.098c-0.314-0.381-0.631-0.863-0.963-1.395
	c-0.947-1.328-1.943-2.939-3.057-4.85c-1.111-1.893-2.209-3.92-3.32-6.045c-1.098-2.143-2.16-4.303-3.189-6.461
	c-1.047-2.16-1.994-4.17-2.807-6.029c-0.848-1.877-1.562-3.504-2.16-4.85c-0.615-1.379-0.996-2.342-1.113-2.873
	c-0.133-0.332-0.215-0.582-0.248-0.748c-0.018-0.166-0.051-0.416-0.051-0.748c0-1.195,0.416-2.209,1.246-2.988
	c0.848-0.814,1.994-1.213,3.471-1.213c1.33,0,2.275,0.332,2.857,0.996c0.564,0.682,0.996,1.346,1.246,2.01
	c0.133,0.35,0.465,1.062,0.963,2.191c0.498,1.146,1.113,2.543,1.844,4.203s1.578,3.504,2.508,5.498
	c0.963,2.01,1.895,3.969,2.873,5.912c0.965,1.928,1.91,3.771,2.807,5.549c0.898,1.76,1.762,3.205,2.559,4.352
	c1.279-1.943,2.641-4.369,4.119-7.309c1.461-2.939,2.873-5.83,4.203-8.688c1.344-2.873,2.49-5.414,3.471-7.607
	c0.963-2.209,1.545-3.57,1.76-4.102c0.266-0.664,0.682-1.328,1.246-2.01c0.564-0.664,1.527-0.996,2.857-0.996
	c1.479,0,2.623,0.398,3.471,1.213c0.83,0.779,1.246,1.793,1.246,2.988c0,0.332-0.018,0.582-0.051,0.748s-0.115,0.416-0.232,0.748
	c-0.215,0.531-0.598,1.494-1.162,2.906c-0.564,1.395-1.279,3.039-2.125,4.898c-0.832,1.861-1.762,3.887-2.791,6.047
	c-1.047,2.176-2.109,4.318-3.205,6.461c-1.113,2.125-2.209,4.168-3.322,6.096c-1.096,1.926-2.127,3.57-3.057,4.898
	c-0.598,0.863-1.246,1.645-1.91,2.293v20.711c0,1.328-0.414,2.408-1.262,3.256c-0.83,0.814-1.91,1.246-3.256,1.246
	s-2.424-0.432-3.256-1.246c-0.846-0.848-1.262-1.928-1.262-3.256V109.492z"/>
</svg>
