<?xml version="1.0"?>
<svg xmlns="http://www.w3.org/2000/svg" xmlns:xlink="http://www.w3.org/1999/xlink" version="1.1" id="Layer_1" x="0px" y="0px" viewBox="0 0 512 512" style="enable-background:new 0 0 512 512;" xml:space="preserve" width="512px" height="512px" class=""><g><g>
	<g>
		<g>
			<path d="M438.251,0H320H192H73.749C33.088,0,0,33.088,0,73.749v364.501C0,478.912,33.088,512,73.749,512H192     c11.797,0,21.333-9.557,21.333-21.333s-9.536-21.333-21.333-21.333H73.749c-17.152,0-31.083-13.952-31.083-31.083V73.749     c0-17.131,13.931-31.083,31.083-31.083h96.917v106.667c0,7.872,4.331,15.104,11.264,18.816c6.933,3.712,15.36,3.285,21.909-1.067     L256,132.309l52.16,34.773c3.563,2.389,7.701,3.584,11.84,3.584c3.456,0,6.912-0.832,10.069-2.517     c6.933-3.712,11.264-10.944,11.264-18.816V42.667h96.917c17.152,0,31.083,13.952,31.083,31.083v75.584     c0,11.776,9.536,21.333,21.333,21.333S512,161.109,512,149.333V73.749C512,33.088,478.912,0,438.251,0z" data-original="#000000" class="active-path" data-old_color="#000000" fill="#FFFFFF"/>
			<path d="M362.667,213.333c-82.325,0-149.333,66.987-149.333,149.333S280.341,512,362.667,512S512,445.013,512,362.667     S444.992,213.333,362.667,213.333z M362.667,448c-11.776,0-21.333-9.557-21.333-21.333s9.557-21.333,21.333-21.333     S384,414.891,384,426.667S374.443,448,362.667,448z M384,362.667c0,11.776-9.536,21.333-21.333,21.333     s-21.333-9.557-21.333-21.333v-64c0-11.776,9.536-21.333,21.333-21.333S384,286.891,384,298.667V362.667z" data-original="#000000" class="active-path" data-old_color="#000000" fill="#FFFFFF"/>
		</g>
	</g>
</g></g> </svg>
