<?xml version="1.0" encoding="utf-8"?>
<!-- Generator: Adobe Illustrator 16.0.0, SVG Export Plug-In . SVG Version: 6.00 Build 0)  -->
<!DOCTYPE svg PUBLIC "-//W3C//DTD SVG 1.1//EN" "http://www.w3.org/Graphics/SVG/1.1/DTD/svg11.dtd">
<svg version="1.1" id="Capa_1" xmlns="http://www.w3.org/2000/svg" xmlns:xlink="http://www.w3.org/1999/xlink" x="0px" y="0px"
	 width="512px" height="512px" viewBox="0 0 512 512" enable-background="new 0 0 512 512" xml:space="preserve">
<g>
	<g>
		<g>
			<path fill="#FFCBBE" d="M396.58,410.94v71.8c0,12.02-9.74,21.76-21.75,21.76h-52.881c-8.86,0-16.84-5.37-20.16-13.59l-4.74-11.69
				l-27.66-68.279H396.58z"/>
			<path fill="#FFCBBE" d="M242.61,410.94l-27.66,68.279l-4.74,11.69c-3.319,8.22-11.3,13.59-20.16,13.59h-52.88
				c-12.01,0-21.75-9.74-21.75-21.76v-71.8H242.61z"/>
			<g>
				<path fill="#EAAC9D" d="M167.467,504.504h-30.3c-12.011,0-21.75-9.74-21.75-21.76v-71.8h30.29v71.8
					C145.707,494.764,155.448,504.504,167.467,504.504L167.467,504.504z"/>
				<g>
					<path fill="#EAAC9D" d="M115.42,410.94H242.61l-27.66,68.279c-10.64-0.229-21.29-0.56-31.94-0.979
						c-25.149-0.99-48.4-9.4-67.59-23.11L115.42,410.94L115.42,410.94z"/>
					<path fill="#EAAC9D" d="M396.58,410.94v44.19c-19.19,13.71-42.44,22.12-67.591,23.11c-10.65,0.42-21.3,0.75-31.94,0.979
						l-27.66-68.279L396.58,410.94L396.58,410.94z"/>
				</g>
				<path fill="#EAAC9D" d="M346.69,504.5h-24.74c-8.86,0-16.84-5.37-20.16-13.59l-4.74-11.69l-27.66-68.279h24.74l27.66,68.279
					l4.74,11.69C329.851,499.13,337.829,504.5,346.69,504.5z"/>
			</g>
			<g>
				<path fill="#FFCBBE" d="M449.802,296.418c-0.068,15.8-0.423,31.61-1.04,47.411c-2.569,64.958-54.812,117.02-119.771,119.566
					c-48.656,1.919-97.323,1.919-145.98,0c-64.958-2.548-117.201-54.608-119.771-119.566c-0.617-15.801-0.971-31.611-1.04-47.411
					c-0.446-95.896,74.303-174.747,168.942-180.448v34.125c0,7.837,6.352,14.2,14.189,14.2h21.341c7.837,0,14.189-6.363,14.189-14.2
					V115.97C375.499,121.671,450.247,200.521,449.802,296.418L449.802,296.418z"/>
			</g>
			<g>
				<path fill="#EAAC9D" d="M212.314,118.107c-41.505,28.686-70.671,98.055-70.454,178.722c0.034,16.862,0.264,33.714,0.651,50.575
					c1.211,51.97,19.981,96.204,46.52,116.221c-2.011-0.069-4.01-0.149-6.021-0.229c-64.947-2.548-117.201-54.608-119.772-119.566
					c-0.617-15.801-0.971-31.611-1.04-47.412C61.786,206.977,126.78,132.364,212.314,118.107z"/>
			</g>
			<g>
				<path fill="#EAAC9D" d="M89.468,310.687c0,0-24.826-37.728-28.359-100.026c-0.953-16.796,13.567-30.285,30.244-28.069
					c24.371,3.239,60.706,12.536,98.564,38.206c0,0-50.415-4.633-50.415,50.415"/>
				<path fill="#FFCBBE" d="M422.532,310.687c0,0,24.826-37.728,28.358-100.026c0.953-16.796-13.566-30.285-30.244-28.069
					c-24.371,3.239-60.706,12.536-98.564,38.206"/>
			</g>
			<path fill="#FFDDCE" d="M281.732,302.709c-17.154-0.562-34.309-0.562-51.464,0c-25.093,0.822-45.057,21.164-45.684,46.264
				c-0.158,6.333-0.158,12.666,0,18.999c0.627,25.1,20.591,45.441,45.684,46.265c17.154,0.562,34.309,0.562,51.464,0
				c25.093-0.823,45.056-21.165,45.683-46.265c0.158-6.333,0.158-12.666,0-18.999C326.788,323.873,306.825,303.531,281.732,302.709z
				"/>
		</g>
		<circle fill="#FFD064" cx="171.742" cy="81.635" r="74.135"/>
	</g>
	<g>
		<path d="M447.467,183.984c-7.508-6.961-17.64-10.183-27.808-8.828c-1.771,0.235-3.616,0.507-5.517,0.81
			c-33.062-39.84-81.217-64.363-132.832-67.471c-2.079-0.125-4.087,0.61-5.593,2.026c-1.505,1.417-2.357,3.393-2.357,5.46v34.11
			c0,3.694-3.002,6.7-6.69,6.7h-21.34c-3.689,0-6.69-3.006-6.69-6.7v-21.752c9.276-13.246,14.74-29.346,14.74-46.708
			C253.38,36.619,216.757,0,171.74,0c-45.012,0-81.631,36.619-81.631,81.631c0,4.084,0.301,8.148,0.895,12.079
			c0.616,4.096,4.433,6.912,8.534,6.297c4.097-0.618,6.915-4.439,6.298-8.535c-0.481-3.192-0.727-6.503-0.727-9.841
			C105.109,44.89,134.999,15,171.74,15c36.745,0,66.641,29.89,66.641,66.631c0,36.746-29.896,66.64-66.641,66.64
			c-23.371,0-44.627-11.914-56.855-31.869c-2.165-3.531-6.781-4.641-10.313-2.476c-3.531,2.164-4.64,6.782-2.476,10.313
			c6.124,9.992,14.097,18.336,23.34,24.711c-10.077,8.029-19.302,17.075-27.553,27.019c-1.909-0.305-3.763-0.578-5.541-0.814
			c-10.164-1.352-20.302,1.867-27.809,8.828c-7.517,6.969-11.494,16.847-10.913,27.101c0.889,15.673,3.077,29.816,5.879,42.269
			c-3.242,14.075-4.868,28.559-4.8,43.091c0.069,15.716,0.421,31.758,1.046,47.685c1.317,33.296,15.057,64.617,38.687,88.193
			c4.255,4.246,8.765,8.166,13.489,11.756v38.662c0,16.134,13.121,29.26,29.25,29.26h52.88c11.986,0,22.63-7.176,27.11-18.273
			l8.776-21.661c10.013,0.161,20.036,0.263,30.063,0.263c10.024,0,20.048-0.102,30.063-0.263l8.772,21.654
			c4.484,11.105,15.127,18.281,27.113,18.281h52.881c16.129,0,29.25-13.126,29.25-29.26v-38.626
			c10.753-7.282,17.7-16.26,23.257-22.386c2.671-3.348-2.679-1.979-5.748-4.762c-3.068-2.783-7.812-2.553-10.594,0.517
			c-21.346,23.528-50.572,37.171-82.302,38.415c-48.234,1.904-97.15,1.904-145.393,0c-29.539-1.16-57.339-13.304-78.278-34.195
			c-20.945-20.898-33.124-48.659-34.291-78.165c-0.618-15.751-0.966-31.616-1.034-47.162c-0.014-2.949,0.063-5.896,0.199-8.837
			c6.614,16.923,12.788,26.484,13.304,27.269c1.44,2.188,3.828,3.375,6.267,3.375c1.411,0,2.84-0.398,4.107-1.23
			c3.46-2.269,4.428-6.916,2.164-10.379c-0.236-0.363-23.779-37.03-27.144-96.336c-0.327-5.774,1.907-11.333,6.135-15.252
			c4.219-3.911,9.916-5.719,15.633-4.958c23.154,3.077,58.491,11.99,95.345,36.979c3.428,2.325,8.091,1.429,10.417-1.999
			c2.324-3.428,1.431-8.092-1.999-10.417c-28.767-19.506-56.71-29.82-79.335-35.24c7.583-8.308,15.962-15.836,25.01-22.52
			c9.91,4.193,20.724,6.441,31.939,6.441c19.694,0,37.782-7.01,51.899-18.666v5.485c0,11.965,9.729,21.7,21.69,21.7h21.34
			c11.96,0,21.69-9.735,21.69-21.7v-25.958c41.73,4.477,80.495,24.187,108.844,55.218c-22.624,5.42-50.565,15.735-79.331,35.239
			c-3.429,2.325-4.323,6.988-1.999,10.417c2.326,3.428,6.99,4.324,10.417,1.999c36.854-24.988,72.189-33.901,95.345-36.979
			c5.717-0.76,11.416,1.048,15.633,4.958c4.228,3.918,6.463,9.478,6.136,15.251c-3.364,59.307-26.906,95.974-27.145,96.337
			c-2.268,3.459-1.307,8.104,2.149,10.377c1.271,0.836,2.701,1.236,4.115,1.236c2.438,0,4.831-1.188,6.272-3.378
			c0.516-0.783,6.689-10.345,13.304-27.267c0.137,2.941,0.213,5.887,0.199,8.838c-0.067,15.543-0.416,31.41-1.034,47.16
			c-0.708,18.03-5.414,35.193-13.989,51.009c-1.974,3.643-4.114,9.944-16.28,22.935c1.136,0.616,5.189,16.2,11.109,10.078
			c11.614-12.012,17.001-23.357,18.359-25.863c9.679-17.854,14.991-37.225,15.79-57.57c0.625-15.924,0.978-31.966,1.046-47.679
			c0.068-14.536-1.558-29.021-4.8-43.094c2.802-12.451,4.99-26.595,5.879-42.268C458.961,200.832,454.984,190.955,447.467,183.984z
			 M329.284,470.888c21.369-0.838,41.73-6.666,59.796-16.874v28.727c0,7.862-6.394,14.26-14.25,14.26h-52.881
			c-5.839,0-11.021-3.493-13.208-8.906l-6.627-16.357C311.189,471.513,320.251,471.245,329.284,470.888L329.284,470.888z
			 M209.886,471.736l-6.631,16.365c-2.184,5.405-7.365,8.898-13.205,8.898h-52.88c-7.857,0-14.25-6.397-14.25-14.26v-28.796
			c18.14,10.239,38.566,16.109,59.793,16.943C191.749,471.245,200.813,471.513,209.886,471.736L209.886,471.736z"/>
		<path d="M406.521,265.814c1.271,0.836,2.701,1.236,4.116,1.236c2.438,0,4.831-1.188,6.272-3.379
			c0.368-0.561,9.051-13.983,10.279-35.646c0.271-4.799-1.592-9.423-5.11-12.687c-3.519-3.261-8.267-4.771-13.025-4.137
			c-8.452,1.124-21.333,4.366-34.701,13.43c-3.429,2.325-4.323,6.988-1.999,10.417c2.326,3.428,6.99,4.324,10.417,1.999
			c10.945-7.421,21.409-10.065,28.26-10.976c0.326-0.04,0.612,0.046,0.851,0.267c0.241,0.223,0.354,0.505,0.334,0.839
			c-0.981,17.304-7.708,28.049-7.854,28.28C402.107,258.915,403.071,263.544,406.521,265.814z"/>
		<path d="M100.971,226.071c6.851,0.911,17.313,3.554,28.26,10.976c3.428,2.325,8.092,1.429,10.417-1.999
			c2.324-3.428,1.431-8.092-1.999-10.417c-13.368-9.064-26.249-12.306-34.702-13.43c-4.764-0.634-9.508,0.875-13.023,4.137
			c-3.521,3.264-5.384,7.888-5.111,12.688c1.229,21.662,9.911,35.083,10.28,35.645c1.44,2.19,3.833,3.378,6.271,3.378
			c1.415,0,2.847-0.4,4.116-1.236c3.46-2.276,4.419-6.926,2.144-10.388c-0.068-0.104-6.85-10.852-7.836-28.249
			c-0.02-0.334,0.094-0.617,0.334-0.84C100.358,226.118,100.647,226.029,100.971,226.071z"/>
		<path d="M281.978,295.211c-17.237-0.564-34.717-0.564-51.955,0c-28.956,0.95-52.207,24.481-52.936,53.574
			c-0.16,6.428-0.16,12.946,0,19.375c0.729,29.091,23.979,52.623,52.936,53.573c8.619,0.283,17.298,0.424,25.979,0.424
			c8.68,0,17.357-0.141,25.978-0.424c28.957-0.95,52.208-24.481,52.936-53.573c0.16-6.429,0.16-12.946,0-19.375
			C334.186,319.693,310.935,296.161,281.978,295.211z M319.916,367.785c-0.527,21.155-17.409,38.267-38.431,38.956
			c-16.91,0.555-34.062,0.555-50.972,0c-21.021-0.689-37.902-17.8-38.432-38.956c-0.153-6.18-0.153-12.445,0-18.625
			c0.528-21.155,17.409-38.268,38.432-38.957c8.455-0.276,16.971-0.416,25.485-0.416c8.514,0,17.03,0.14,25.485,0.416
			c21.021,0.689,37.901,17.801,38.431,38.957C320.071,355.339,320.071,361.605,319.916,367.785z"/>
		<path d="M237.156,343.769c-4.143,0-7.5,3.358-7.5,7.5v15.943c0,4.142,3.357,7.5,7.5,7.5c4.144,0,7.5-3.358,7.5-7.5v-15.943
			C244.656,347.127,241.3,343.769,237.156,343.769z"/>
		<path d="M274.843,343.769c-4.143,0-7.5,3.358-7.5,7.5v15.943c0,4.142,3.357,7.5,7.5,7.5c4.144,0,7.5-3.358,7.5-7.5v-15.943
			C282.343,347.127,278.986,343.769,274.843,343.769z"/>
		<path d="M152.109,347.397c7.021,0,12.731-9.481,12.731-21.137s-5.712-21.136-12.731-21.136c-7.021,0-12.731,9.48-12.731,21.136
			S145.088,347.397,152.109,347.397z"/>
		<path d="M359.892,305.125c-7.021,0-12.732,9.48-12.732,21.136s5.712,21.137,12.732,21.137c7.02,0,12.731-9.481,12.731-21.137
			S366.911,305.125,359.892,305.125z"/>
	</g>
</g>
<text transform="matrix(0.8854 0 0 1 122.179 123.4404)" font-family="'MontserratAlternates-Medium'" font-size="124.4428">€</text>
</svg>
