<?xml version="1.0" encoding="utf-8"?>
<!-- Generator: Adobe Illustrator 16.0.0, SVG Export Plug-In . SVG Version: 6.00 Build 0)  -->
<!DOCTYPE svg PUBLIC "-//W3C//DTD SVG 1.1//EN" "http://www.w3.org/Graphics/SVG/1.1/DTD/svg11.dtd">
<svg version="1.1" id="Layer_1" xmlns="http://www.w3.org/2000/svg" xmlns:xlink="http://www.w3.org/1999/xlink" x="0px" y="0px"
	 width="511px" height="511px" viewBox="0 0 511 511" enable-background="new 0 0 511 511" xml:space="preserve">
<path d="M422.432,247.046c-2.627,0-5.2,1.057-7.068,2.924c-1.855,1.856-2.916,4.421-2.916,7.057c0,2.628,1.061,5.2,2.916,7.057
	c1.868,1.859,4.434,2.928,7.068,2.928c2.624,0,5.189-1.068,7.057-2.928c1.855-1.856,2.924-4.429,2.924-7.057
	c0-2.624-1.068-5.201-2.924-7.057C427.621,248.103,425.056,247.046,422.432,247.046z"/>
<path d="M42.187,238.629c1.856-1.856,2.924-4.429,2.924-7.057c0-2.624-1.068-5.201-2.924-7.057
	c-1.867-1.856-4.433-2.924-7.057-2.924c-2.635,0-5.201,1.068-7.068,2.924c-1.856,1.855-2.917,4.433-2.917,7.057
	c0,2.627,1.061,5.201,2.917,7.057c1.867,1.859,4.433,2.928,7.068,2.928C37.754,241.557,40.32,240.488,42.187,238.629z"/>
<path d="M496.124,303.837V150.27c1.517,0.854,3.2,1.291,4.893,1.291c2.558,0,5.111-0.975,7.061-2.924
	c3.898-3.898,3.898-10.218,0-14.117L493.2,119.643c-3.899-3.895-10.219-3.895-14.117,0l-14.877,14.877
	c-3.899,3.899-3.899,10.219,0,14.117c3.239,3.24,8.147,3.778,11.953,1.633v153.567c-3.806-2.147-8.714-1.61-11.953,1.63
	c-3.899,3.898-3.899,10.223,0,14.117l14.877,14.877c1.949,1.949,4.503,2.924,7.057,2.924c2.558,0,5.11-0.975,7.061-2.924
	l14.877-14.877c3.895-3.895,3.895-10.219,0-14.117C504.837,302.23,499.929,301.693,496.124,303.837z"/>
<path d="M450.923,368.426l-19.977-6.593c-5.235-1.731-10.881,1.115-12.608,6.351c-1.543,4.671,0.562,9.661,4.753,11.91l-145.696,80
	c-0.027-4.265-2.803-8.194-7.099-9.489c-5.278-1.595-10.851,1.396-12.44,6.671l-6.078,20.145
	c-1.591,5.278,1.396,10.846,6.674,12.437l20.141,6.078c0.963,0.292,1.934,0.429,2.889,0.429c4.289,0,8.25-2.784,9.553-7.1
	c1.348-4.476-0.602-9.154-4.441-11.442l144.647-79.427c0.206,3.992,2.807,7.638,6.834,8.967c1.037,0.343,2.094,0.507,3.131,0.507
	c4.19,0,8.093-2.659,9.478-6.857l6.592-19.978c0.831-2.514,0.628-5.255-0.561-7.617C455.52,371.049,453.438,369.256,450.923,368.426
	z"/>
<path d="M199.918,457.275c-1.595-5.279-7.166-8.266-12.441-6.675c-4.296,1.299-7.072,5.229-7.099,9.493l-145.692-80
	c4.187-2.249,6.292-7.239,4.749-11.91c-1.727-5.235-7.376-8.078-12.604-6.351l-19.98,6.593c-0.055,0.02-0.09,0.043-0.133,0.066
	c-2.257,0.779-4.246,2.358-5.489,4.615c-1.38,2.516-1.556,5.357-0.737,7.883c0.004,0.016,0.004,0.027,0.008,0.043l6.593,19.978
	c1.388,4.198,5.286,6.857,9.478,6.857c1.037,0,2.093-0.164,3.13-0.507c4.027-1.329,6.628-4.975,6.834-8.967l144.647,79.427
	c-3.84,2.292-5.79,6.967-4.441,11.442c1.302,4.315,5.267,7.1,9.552,7.1c0.955,0,1.926-0.137,2.889-0.429l19.848-5.988
	c0.012-0.004,0.023-0.008,0.035-0.012l0.257-0.078c0.023-0.004,0.039-0.02,0.059-0.027c2.394-0.737,4.515-2.354,5.816-4.722
	c1.357-2.468,1.552-5.259,0.78-7.754L199.918,457.275z"/>
<path d="M432.412,127.054h-0.004v-9.754c0-3.641-1.984-6.994-5.177-8.749L233.579,2.216c-2.99-1.641-6.616-1.641-9.61,0
	L30.32,108.551c-3.193,1.754-5.178,5.107-5.178,8.749v8.035v67.47v78.526v54.003v4.637c0,3.642,1.984,6.994,5.178,8.749
	l193.648,106.334c1.497,0.823,3.154,1.232,4.807,1.232s3.306-0.409,4.803-1.232l193.653-106.334
	c3.192-1.755,5.177-5.107,5.177-8.749v-2.917h0.004V127.054z M304.592,63.986l24.102,13.598l-172.499,94.811l-19.521-10.721
	l-8.125-4.585l172.721-94.932L304.592,63.986z M145.883,189.794v44.542l-27.864-15.528v-44.604l8.94,4.913L145.883,189.794z
	 M228.775,22.353l51.758,28.421l-172.83,94.994l-51.84-28.468L228.775,22.353z M218.791,419.436L45.107,324.062V271.33v-78.526
	v-58.635l52.947,29.076v61.427c0,3.622,1.961,6.959,5.123,8.721l47.828,26.655c1.513,0.842,3.186,1.263,4.858,1.263
	c1.75,0,3.497-0.46,5.057-1.376c3.052-1.794,4.928-5.068,4.928-8.604v-50.861l52.943,29.072V419.436z M228.775,212.247
	l-51.844-28.468l172.83-94.994l51.926,28.514L228.775,212.247z M412.443,324.062l-173.688,95.373V229.541l173.688-95.372v85.922
	c0,0.026,0.004,0.051,0.004,0.077v75.709c0,0.026-0.004,0.051-0.004,0.077V324.062z"/>
</svg>
