<svg id="Layer_1" data-name="Layer 1" xmlns="http://www.w3.org/2000/svg" xmlns:xlink="http://www.w3.org/1999/xlink" viewBox="0 0 166.05 53.85"><defs><style>.cls-1{fill-rule:evenodd;fill:url(#linear-gradient);}</style><linearGradient id="linear-gradient" y1="26.93" x2="166.05" y2="26.93" gradientUnits="userSpaceOnUse"><stop offset="0" stop-color="#1a1f5d"/><stop offset="1" stop-color="#132c94"/></linearGradient></defs><title>Artboard 1</title><path class="cls-1" d="M50.25,52.4,65.8,1.13H79.67L64.12,52.4ZM44,1.14,31.56,22.87c-3.18,5.69-5,8.57-5.93,12.16h-.19c.22-4.56-.42-10.16-.47-13.32L23.59,1.14H.24L0,2.52c6,0,9.56,3,10.54,9.18l4.55,40.7H29.46L58.52,1.14ZM151.93,52.4H166L161.42,1.22H142.93L115.62,52.4h15.06l3.54-7.64h17.32l.38,7.62Zm-1.59-30.24L151,35.29H138.88L144,24.06c1.59-3.76,5.22-11.4,6.07-13.95h.2a117.9,117.9,0,0,0,0,12ZM94.23,53.85c8.61,0,16.84-2.32,21-12.7,2.44-6,.12-12.48-9.63-18.63l-3.18-2c-4.22-2.62-6.13-4.57-4.69-7.44.77-1.52,3-2.65,5.92-2.65,3.67,0,6.88,1.58,10.75,4.71L122,6.21A31.07,31.07,0,0,0,104,0C93.48,0,87.1,4.41,84.68,10.24c-3.78,9.1-.31,14.32,7.73,19.81l2.68,1.74c5.42,3.07,7.79,4.86,5.86,8.2-1.33,2.29-3.66,2.92-6.08,2.92-7.53,0-10.8-2.69-15-5L73.3,48a38.8,38.8,0,0,0,20.94,5.88Z"/></svg>