<?xml version="1.0" encoding="iso-8859-1"?>
<!-- Generator: Adobe Illustrator 19.0.0, SVG Export Plug-In . SVG Version: 6.00 Build 0)  -->
<svg version="1.1" id="Capa_1" xmlns="http://www.w3.org/2000/svg" xmlns:xlink="http://www.w3.org/1999/xlink" x="0px" y="0px"
	 viewBox="0 0 472.034 472.034" style="enable-background:new 0 0 472.034 472.034;" xml:space="preserve">
<path style="fill:#804D35;" d="M60.978,136.034h352l0,0v320c0,8.837-7.163,16-16,16h-328c-17.673,0-32-14.327-32-32v-280
	C36.978,146.78,47.723,136.034,60.978,136.034z"/>
<path style="fill:#533222;" d="M308.978,288.034h104l0,0v96l0,0h-104c-26.51,0-48-21.49-48-48S282.468,288.034,308.978,288.034z"/>
<circle style="fill:#B9B9B9;" cx="308.978" cy="334.698" r="16"/>
<path style="fill:#804D35;" d="M68.978,136.034h336l0,0v64l0,0h-336c-17.673,0-32-14.327-32-32S51.304,136.034,68.978,136.034z"/>
<path style="fill:#744630;" d="M36.978,160.034v16h368v-40h-344C47.723,136.034,36.978,146.78,36.978,160.034z"/>
<g>
	<path style="fill:#533222;" d="M132.978,224.034h32v16h-32V224.034z"/>
	<path style="fill:#533222;" d="M84.978,224.034h32v16h-32V224.034z"/>
	<path style="fill:#533222;" d="M180.978,224.034h32v16h-32V224.034z"/>
	<path style="fill:#533222;" d="M36.978,227.298v5.208l4.8,2.64c5.889,3.214,12.491,4.895,19.2,4.888h8v-16h-8
		c-4.016,0.004-7.969-1-11.496-2.92l-7.016-3.848L36.978,227.298z"/>
	<path style="fill:#533222;" d="M228.978,224.034h32v16h-32V224.034z"/>
	<path style="fill:#533222;" d="M324.978,224.034h32v16h-32V224.034z"/>
	<path style="fill:#533222;" d="M372.978,224.034h32v16h-32V224.034z"/>
	<path style="fill:#533222;" d="M276.978,224.034h32v16h-32V224.034z"/>
	<path style="fill:#533222;" d="M132.978,432.034h32v16h-32V432.034z"/>
	<path style="fill:#533222;" d="M84.978,432.034h32v16h-32V432.034z"/>
	<path style="fill:#533222;" d="M180.978,432.034h32v16h-32V432.034z"/>
	<path style="fill:#533222;" d="M68.978,448.034v-16h-8c-4.016,0.004-7.969-1-11.496-2.92l-7.016-3.848l-5.488,10.032v4.736
		c0,0.168,0.048,0.328,0.048,0.504l4.8,2.608c5.875,3.206,12.46,4.886,19.152,4.888H68.978z"/>
	<path style="fill:#533222;" d="M228.978,432.034h32v16h-32V432.034z"/>
	<path style="fill:#533222;" d="M372.978,432.034h32v16h-32V432.034z"/>
	<path style="fill:#533222;" d="M276.978,432.034h32v16h-32V432.034z"/>
	<path style="fill:#533222;" d="M324.978,432.034h32v16h-32V432.034z"/>
</g>
<path style="fill:#744630;" d="M68.978,136.034c-17.673,0-32,14.327-32,32s14.327,32,32,32h336v-64H68.978z"/>
<path style="fill:#6F9935;" d="M356.978,176.034h-184c-4.418,0.002-8.001-3.579-8.003-7.997c0-1.018,0.193-2.026,0.571-2.971l64-160
	c1.537-3.849,5.758-5.887,9.728-4.696l160,48c4.231,1.271,6.631,5.732,5.36,9.964c-0.039,0.131-0.082,0.26-0.128,0.388l-40,112
	C363.37,173.905,360.357,176.032,356.978,176.034L356.978,176.034z"/>
<path id="SVGCleanerId_0" style="fill:#AAC16B;" d="M216.978,168.034l60-160l111.472,37.584l46.632,15.72l-38.104,106.696H216.978z"
	/>
<path style="fill:#EAEAE8;" d="M260.978,176.034h-184c-3.379-0.003-6.393-2.129-7.528-5.312l-40-112
	c-1.486-4.161,0.683-8.739,4.844-10.224c0.128-0.046,0.258-0.088,0.388-0.128l160-48c3.97-1.191,8.191,0.847,9.728,4.696l64,160
	c1.639,4.103-0.358,8.758-4.461,10.397C263.003,175.841,261.995,176.035,260.978,176.034L260.978,176.034z"/>
<path style="fill:#79A73A;" d="M396.978,176.034h-180c-4.418,0.004-8.004-3.574-8.008-7.992c-0.001-0.965,0.172-1.921,0.512-2.824
	l60-160c1.503-4.051,5.952-6.176,10.048-4.8l158.104,53.344c4.181,1.428,6.413,5.975,4.984,10.157
	c-0.013,0.039-0.027,0.077-0.04,0.115l-38.072,106.688C403.37,173.905,400.357,176.032,396.978,176.034L396.978,176.034z"/>
<g>
	<path id="SVGCleanerId_0_1_" style="fill:#AAC16B;" d="M216.978,168.034l60-160l111.472,37.584l46.632,15.72l-38.104,106.696
		H216.978z"/>
</g>
<g>
	<path style="fill:#787D82;" d="M116.978,168.034h40L96.514,29.818l-31.088,9.328L116.978,168.034z"/>
	<path style="fill:#787D82;" d="M164.178,85.402c-1.561-0.002-3.088-0.461-4.392-1.32c-11.069-7.291-14.131-22.176-6.84-33.245
		s22.176-14.131,33.245-6.84c10.243,6.748,13.75,20.133,8.131,31.037c-2.028,3.926-6.854,5.464-10.78,3.436
		c-3.926-2.028-5.464-6.854-3.436-10.78c0.58-1.131,0.88-2.385,0.872-3.656c-0.001-4.418-3.583-7.999-8.001-7.999
		c-4.418,0.001-7.999,3.583-7.999,8.001c0,2.694,1.357,5.206,3.608,6.685c3.689,2.431,4.709,7.393,2.278,11.082
		c-1.483,2.25-3.999,3.603-6.694,3.598L164.178,85.402z"/>
	<path style="fill:#787D82;" d="M180.978,112.034c-13.255,0-24-10.745-24-24s10.745-24,24-24s24,10.745,24,24
		S194.232,112.034,180.978,112.034z M180.978,80.034c-4.418,0-8,3.582-8,8s3.582,8,8,8s8-3.582,8-8S185.396,80.034,180.978,80.034z"
		/>
</g>
<g>
	<path style="fill:#79A73A;" d="M384.346,55.674l4.104-10.04l46.632,15.72l-21.248,59.48c-25.717-8.924-39.33-37.005-30.407-62.722
		C383.711,57.292,384.018,56.479,384.346,55.674z"/>
	<path style="fill:#79A73A;" d="M413.826,128.834c-0.959-0.003-1.91-0.176-2.808-0.512c-29.844-10.492-45.533-43.191-35.041-73.035
		c0.312-0.887,0.645-1.766,1.001-2.637l4.096-10.048c1.596-3.911,5.957-5.908,9.96-4.56l46.632,15.72
		c4.176,1.444,6.39,6,4.946,10.175c-0.011,0.032-0.023,0.065-0.034,0.097l-21.248,59.504c-0.771,2.155-2.428,3.876-4.552,4.728
		C415.838,128.639,414.836,128.832,413.826,128.834L413.826,128.834z"/>
	<path style="fill:#79A73A;" d="M320.418,35.394l2.96-10.456l-46.48-16.224l-19.768,60c25.771,8.753,53.758-5.043,62.51-30.814
		C319.921,37.073,320.181,36.237,320.418,35.394L320.418,35.394z"/>
	<path style="fill:#79A73A;" d="M273.066,79.386c-6.29-0.009-12.535-1.05-18.488-3.08c-4.174-1.399-6.433-5.907-5.056-10.088
		l19.768-60c0.678-2.037,2.141-3.718,4.064-4.672c1.923-0.957,4.151-1.092,6.176-0.376l46.464,16.224
		c3.991,1.393,6.209,5.651,5.064,9.72l-2.936,10.44C321.162,62.223,298.697,79.292,273.066,79.386L273.066,79.386z"/>
</g>
<path style="fill:#533222;" d="M38.106,160.034c-1.504,5.227-1.504,10.773,0,16h366.872v-16H38.106z"/>
<path style="fill:#744630;" d="M38.13,160.034c-0.73,2.605-1.117,5.295-1.152,8c0.193,17.865,14.831,32.191,32.696,32h343.304v-40
	H38.13z"/>
<path style="fill:#79A73A;" d="M287.082,168.194c-5.745-13.612,0.632-29.304,14.244-35.049c13.612-5.745,29.304,0.632,35.049,14.244
	c2.784,6.596,2.808,14.032,0.067,20.646"/>
<path style="fill:#533222;" d="M38.13,160.034c-1.536,5.223-1.536,10.777,0,16h374.848v-16H38.13z"/>
<g>
</g>
<g>
</g>
<g>
</g>
<g>
</g>
<g>
</g>
<g>
</g>
<g>
</g>
<g>
</g>
<g>
</g>
<g>
</g>
<g>
</g>
<g>
</g>
<g>
</g>
<g>
</g>
<g>
</g>
</svg>
