<svg class="icone-servicehome" width="100%" height="100%"  viewBox="0 0 413 353" fill="white" xmlns="http://www.w3.org/2000/svg">
                    <path fill-rule="evenodd" clip-rule="evenodd" d="M142.9 56.6391C142.672 54.7379 141.872 52.9507 140.606 51.5143C139.34 50.078 137.667 49.0603 135.809 48.5962L122.266 44.7866V39.5326C124.938 37.3416 127.263 34.364 127.719 31.0625H132.028C132.97 31.0625 133.873 30.6885 134.538 30.0227C135.204 29.357 135.578 28.454 135.578 27.5125V23.5188C135.576 22.8512 135.386 22.1978 135.028 21.6338C134.671 21.0699 134.162 20.6185 133.559 20.3315C133.642 19.659 133.687 18.9823 133.692 18.3047C133.692 11.4676 131.197 0 114.5 0C97.8028 0 95.3078 11.4676 95.3078 18.3047C95.313 18.9823 95.3571 19.659 95.4398 20.3315C94.8373 20.6186 94.3281 21.0701 93.9711 21.6341C93.6141 22.198 93.4237 22.8513 93.4219 23.5188V27.5125C93.4219 28.454 93.7959 29.357 94.4616 30.0227C95.1274 30.6885 96.0304 31.0625 96.9719 31.0625H101.284C101.74 34.3551 104.057 37.3271 106.737 39.5159V44.7866L93.2255 48.5906C91.3616 49.0511 89.6818 50.0675 88.4092 51.5051C87.1365 52.9426 86.3311 54.7332 86.1 56.6391L84.5546 69.7608C84.5202 70.053 84.6033 70.3468 84.7856 70.5778C84.9678 70.8087 85.2343 70.9578 85.5265 70.9922C85.5695 70.9975 85.6129 71.0001 85.6562 71C85.9278 70.9997 86.1898 70.8998 86.3926 70.7193C86.5954 70.5387 86.725 70.2901 86.7567 70.0204L88.3021 56.8987C88.4805 55.4346 89.1014 54.0597 90.0818 52.9577C91.0623 51.8558 92.3556 51.0792 93.7891 50.7317L100.597 48.8181L106.921 58.3032C107.007 58.4325 107.12 58.5421 107.251 58.6251C107.383 58.708 107.53 58.7624 107.684 58.7847C107.737 58.7931 107.79 58.7972 107.844 58.7969C108.103 58.7971 108.354 58.7064 108.554 58.5406L113.391 54.5091V62.0995C113.391 62.3937 113.508 62.6759 113.716 62.8839C113.924 63.092 114.206 63.2089 114.5 63.2089C114.794 63.2089 115.076 63.092 115.284 62.8839C115.492 62.6759 115.609 62.3937 115.609 62.0995V54.5091L120.446 58.5406C120.646 58.7064 120.897 58.7971 121.156 58.7969C121.21 58.7972 121.263 58.7931 121.316 58.7847C121.47 58.7624 121.617 58.708 121.749 58.6251C121.88 58.5421 121.993 58.4325 122.079 58.3032L128.403 48.8125L135.245 50.7417C136.671 51.0932 137.957 51.8706 138.93 52.9705C139.903 54.0703 140.519 55.4405 140.695 56.8987L142.239 70.0204C142.271 70.2909 142.401 70.5401 142.605 70.7208C142.808 70.9014 143.071 71.0008 143.344 71C143.388 71.0002 143.431 70.9976 143.475 70.9922C143.767 70.9578 144.033 70.8087 144.216 70.5778C144.398 70.3468 144.481 70.053 144.446 69.7608L142.9 56.6391ZM101.268 19.9688H100.894C101.188 10.1475 105.423 5.54688 114.177 5.54688C122.451 5.54688 126.685 9.65822 127.379 18.399C127.104 17.2382 126.445 16.2048 125.507 15.4675C124.569 14.7302 123.41 14.3327 122.217 14.3398C120.682 14.3864 119.175 14.7617 117.797 15.4403C116.773 15.9629 115.65 16.2617 114.502 16.3167C113.354 16.2617 112.231 15.9629 111.207 15.4403C109.83 14.7617 108.323 14.3864 106.788 14.3398C102.99 14.3398 101.591 17.5758 101.268 19.9688ZM133.359 27.5125C133.359 27.8656 133.219 28.2042 132.969 28.4538C132.72 28.7035 132.381 28.8438 132.028 28.8438H127.812V22.1875H132.028C132.381 22.1875 132.72 22.3278 132.969 22.5774C133.219 22.8271 133.359 23.1657 133.359 23.5188V27.5125ZM114.5 2.21875C128.528 2.21875 131.473 10.9651 131.473 18.3047C131.47 18.8608 131.436 19.4163 131.371 19.9688H129.678C129.366 8.78625 124.294 3.32813 114.177 3.32813C104.061 3.32813 98.9909 8.78625 98.6759 19.9688H97.6297C97.5654 19.4163 97.5313 18.8608 97.5277 18.3047C97.5266 10.9651 100.472 2.21875 114.5 2.21875ZM95.6406 27.5125V23.5188C95.6406 23.1657 95.7809 22.8271 96.0305 22.5774C96.2802 22.3278 96.6188 22.1875 96.9719 22.1875H101.188V28.8438H96.9719C96.6188 28.8438 96.2802 28.7035 96.0305 28.4538C95.7809 28.2042 95.6406 27.8656 95.6406 27.5125ZM103.406 29.9032V21.0781C103.406 20.8929 103.469 16.5552 106.785 16.5552C108.021 16.6066 109.231 16.9217 110.335 17.4793C111.63 18.1248 113.049 18.4838 114.496 18.5321C115.942 18.4838 117.361 18.1248 118.656 17.4793C119.76 16.9217 120.97 16.6066 122.206 16.5552C125.531 16.5585 125.594 20.8962 125.594 21.0781V29.1843L120.36 31.1468C119.854 30.5566 119.156 30.1633 118.39 30.0358C117.623 29.9084 116.835 30.055 116.166 30.4499C115.496 30.8448 114.987 31.4628 114.728 32.1956C114.468 32.9283 114.475 33.7291 114.747 34.4574C115.018 35.1856 115.538 35.795 116.214 36.1786C116.89 36.5622 117.68 36.6956 118.444 36.5553C119.209 36.415 119.9 36.01 120.396 35.4114C120.891 34.8127 121.161 34.0586 121.156 33.2813C121.156 33.2696 121.155 33.2587 121.153 33.2476C121.151 33.2387 121.15 33.2297 121.15 33.2202L125.33 31.6527C123.92 36.7836 116.822 41.0469 114.526 41.0469C111.96 41.0469 103.406 35.7796 103.406 29.9054V29.9032ZM118.938 33.2813C118.938 33.5007 118.872 33.7152 118.751 33.8976C118.629 34.08 118.455 34.2222 118.253 34.3062C118.05 34.3901 117.827 34.4121 117.612 34.3693C117.396 34.3265 117.199 34.2208 117.044 34.0657C116.889 33.9106 116.783 33.7129 116.74 33.4977C116.697 33.2825 116.719 33.0594 116.803 32.8567C116.887 32.654 117.029 32.4807 117.212 32.3588C117.394 32.2369 117.609 32.1719 117.828 32.1719C118.122 32.1719 118.405 32.2888 118.613 32.4968C118.821 32.7049 118.938 32.987 118.938 33.2813ZM114.526 43.2656C116.514 43.0217 118.411 42.2888 120.047 41.1323V45.0251L114.5 50.572L108.953 45.0251V41.1146C110.604 42.2807 112.519 43.0197 114.526 43.2656ZM108.082 56.0456L102.843 48.1857L107.631 46.84L112.857 52.0663L108.082 56.0456ZM120.918 56.0456L116.147 52.0663L121.374 46.84L126.162 48.1857L120.918 56.0456ZM0.5 59.5H2H48.3376C49.166 59.5 49.8376 60.1716 49.8376 61C49.8376 61.8284 49.166 62.5 48.3376 62.5H3.5V349.5H409.5V62.5H169.383C168.554 62.5 167.883 61.8284 167.883 61C167.883 60.1716 168.554 59.5 169.383 59.5H411H412.5V61V351V352.5H411H2H0.5V351V61V59.5ZM113.716 65.7781C113.924 65.57 114.206 65.4531 114.5 65.4531C114.794 65.4531 115.076 65.57 115.284 65.7781C115.492 65.9861 115.609 66.2683 115.609 66.5625V69.8906C115.609 70.1849 115.492 70.467 115.284 70.6751C115.076 70.8831 114.794 71 114.5 71C114.206 71 113.924 70.8831 113.716 70.6751C113.508 70.467 113.391 70.1849 113.391 69.8906V66.5625C113.391 66.2683 113.508 65.9861 113.716 65.7781Z"/>
                </svg>