 <svg class="icone-servicehome" width="100%" height="100%" viewBox="0 0 413 353" fill="white" xmlns="http://www.w3.org/2000/svg">
                    <path fill-rule="evenodd" clip-rule="evenodd" d="M135.717 1.52588e-05H142.817C143.471 1.52588e-05 144 0.528965 144 1.18335V18.9333V30.7667C144 31.4211 143.471 31.95 142.817 31.95H135.717H126.25H116.783H107.317C106.662 31.95 106.133 31.4211 106.133 30.7667V21.3C106.133 20.8918 106.344 20.5131 106.688 20.2966L116.155 14.3799C116.521 14.1503 116.981 14.1408 117.356 14.3479C117.734 14.5574 117.967 14.9538 117.967 15.3833V19.1653L125.622 14.3799C125.987 14.1503 126.449 14.1408 126.823 14.3479C127.2 14.5574 127.433 14.9538 127.433 15.3833V19.1653L134.533 14.7278V1.18335C134.533 0.528965 135.062 1.52588e-05 135.717 1.52588e-05ZM115.6 29.5834V21.3V17.5193L108.5 21.9568V29.5834H115.6ZM125.067 29.5834V21.3V17.5193L117.967 21.9568V29.5834H125.067ZM134.533 29.5834V18.9333V17.5193L127.433 21.9568V29.5834H134.533ZM136.9 29.5834H141.633V20.1167H136.9V29.5834ZM136.9 17.75H141.633V2.36668H136.9V15.3833V17.75ZM109.337 38.2134L103.42 32.2967C103.199 32.0743 102.898 31.95 102.583 31.95H96.6667V26.0333C96.6667 25.379 96.1377 24.85 95.4833 24.85H74.1833C73.529 24.85 73 25.379 73 26.0333V41.4167V49.7C73 50.3544 73.529 50.8834 74.1833 50.8834H77.9014C78.4303 52.9199 80.2669 54.4334 82.4667 54.4334C84.6665 54.4334 86.503 52.9199 87.032 50.8834H96.8347C97.3637 52.9199 99.2002 54.4334 101.4 54.4334C103.6 54.4334 105.436 52.9199 105.965 50.8834H108.5C109.154 50.8834 109.683 50.3544 109.683 49.7V39.05C109.683 38.7352 109.559 38.4347 109.337 38.2134ZM75.3667 27.2167H94.3V33.1334V40.2333H75.3667V27.2167ZM82.4667 52.0667C81.1615 52.0667 80.1 51.0052 80.1 49.7C80.1 48.3948 81.1615 47.3334 82.4667 47.3334C83.7719 47.3334 84.8333 48.3948 84.8333 49.7C84.8333 51.0052 83.7719 52.0667 82.4667 52.0667ZM101.4 52.0667C100.095 52.0667 99.0333 51.0052 99.0333 49.7C99.0333 48.3948 100.095 47.3334 101.4 47.3334C102.705 47.3334 103.767 48.3948 103.767 49.7C103.767 51.0052 102.705 52.0667 101.4 52.0667ZM107.317 48.5167H105.983C105.951 48.3908 105.905 48.2708 105.858 48.1503C105.845 48.1167 105.832 48.0831 105.82 48.0493C105.808 48.0175 105.798 47.9853 105.787 47.9531C105.773 47.9086 105.759 47.8642 105.74 47.8209C105.627 47.5606 105.493 47.3109 105.337 47.0778C105.317 47.0472 105.293 47.0191 105.27 46.9909C105.253 46.9709 105.237 46.9509 105.221 46.9298C105.092 46.7512 104.955 46.5807 104.802 46.4222C104.754 46.3729 104.704 46.328 104.653 46.283L104.653 46.2826C104.63 46.2619 104.606 46.2411 104.583 46.2198C104.447 46.0956 104.309 45.9773 104.158 45.8696C104.071 45.8057 103.981 45.7477 103.889 45.6909C103.736 45.5962 103.579 45.511 103.414 45.4329L103.396 45.4245C103.305 45.3812 103.215 45.3382 103.119 45.3004C102.938 45.2294 102.75 45.1749 102.56 45.1264C102.545 45.1227 102.531 45.1189 102.517 45.115L102.465 45.1003L102.464 45.1002C102.405 45.0835 102.347 45.067 102.286 45.0554C101.999 45.001 101.704 44.9667 101.4 44.9667C101.096 44.9667 100.801 45.001 100.513 45.0566C100.455 45.0676 100.399 45.0834 100.343 45.0993L100.343 45.0993C100.309 45.1092 100.274 45.119 100.239 45.1276C100.047 45.1761 99.8605 45.2306 99.6794 45.3016C99.5909 45.337 99.5061 45.377 99.4201 45.4175L99.3848 45.4341C99.2215 45.5122 99.0629 45.5962 98.9103 45.6921C98.818 45.75 98.728 45.8069 98.6405 45.8708C98.4914 45.9784 98.3517 46.0968 98.2157 46.221C98.1924 46.2424 98.1689 46.2633 98.1454 46.2842C98.0948 46.3292 98.0444 46.3741 97.9967 46.4234C97.8441 46.5819 97.7068 46.7523 97.5778 46.931C97.5695 46.9426 97.5608 46.9539 97.5519 46.965C97.5429 46.9762 97.5337 46.9873 97.5245 46.9984L97.5244 46.9986C97.5027 47.0247 97.4811 47.0508 97.4619 47.0789C97.3057 47.3132 97.1708 47.5617 97.0583 47.8221C97.0397 47.8649 97.0255 47.9097 97.0113 47.9546L97.0112 47.9547L97.0112 47.9549C97.001 47.9869 96.9909 48.019 96.9791 48.0504C96.9672 48.0819 96.9551 48.1133 96.943 48.1446L96.9429 48.1449C96.8958 48.2669 96.8487 48.389 96.8158 48.5179H87.0485C87.0161 48.392 86.97 48.2719 86.9237 48.1514L86.9233 48.1504C86.9105 48.1172 86.8977 48.0839 86.8852 48.0504C86.8733 48.0187 86.8631 47.9865 86.8528 47.9543L86.8528 47.9542C86.8386 47.9098 86.8245 47.8653 86.806 47.8221C86.6924 47.5617 86.5586 47.312 86.4024 47.0789C86.3823 47.0484 86.3589 47.0203 86.3354 46.992C86.3188 46.9721 86.3021 46.9521 86.2865 46.931C86.1575 46.7523 86.0202 46.5819 85.8676 46.4234C85.8199 46.3741 85.7695 46.3292 85.7189 46.2843C85.6954 46.2634 85.6719 46.2424 85.6487 46.221C85.5126 46.0968 85.3741 45.9784 85.2238 45.8708C85.1363 45.8069 85.0463 45.7489 84.954 45.6921C84.8014 45.5974 84.644 45.5122 84.4795 45.4341L84.4618 45.4257C84.3708 45.3824 84.2804 45.3394 84.1849 45.3016C84.0038 45.2306 83.8157 45.1761 83.6252 45.1276C83.5929 45.1193 83.5612 45.1104 83.5296 45.1014C83.4709 45.0847 83.4126 45.0682 83.3518 45.0566C83.0654 45.001 82.7708 44.9667 82.4667 44.9667C82.1626 44.9667 81.8679 45.001 81.5792 45.0566C81.5216 45.0676 81.4658 45.0834 81.4102 45.0993L81.41 45.0993L81.4098 45.0993C81.3896 45.1051 81.3694 45.1108 81.3492 45.1163C81.3348 45.1203 81.3203 45.124 81.3058 45.1276C81.1141 45.1761 80.9272 45.2306 80.7461 45.3016C80.6455 45.3418 80.5497 45.388 80.4515 45.4341C80.2882 45.5122 80.1296 45.5962 79.9769 45.6921C79.8846 45.75 79.7947 45.8069 79.7071 45.8708C79.558 45.9784 79.4184 46.0968 79.2823 46.221C79.259 46.2424 79.2355 46.2634 79.212 46.2843C79.1615 46.3292 79.1111 46.3741 79.0634 46.4234C78.9108 46.5819 78.7735 46.7523 78.6445 46.931C78.632 46.9484 78.6187 46.965 78.6051 46.9815L78.5911 46.9985L78.5911 46.9985L78.591 46.9985C78.5694 47.0246 78.5478 47.0507 78.5285 47.0789C78.3723 47.3132 78.2374 47.5617 78.125 47.8221C78.1064 47.8649 78.0922 47.9097 78.0779 47.9547L78.0779 47.9548C78.0677 47.9869 78.0575 48.019 78.0457 48.0504C78.0324 48.0866 78.0187 48.1226 78.0049 48.1586C77.9602 48.276 77.9153 48.3936 77.8836 48.5167H75.3667V42.6H95.4833C96.1377 42.6 96.6667 42.0711 96.6667 41.4167V34.3167H102.093L107.317 39.5399V48.5167ZM140.82 59.4495C141.333 58.6933 141.633 57.781 141.633 56.8C141.633 54.1896 139.51 52.0667 136.9 52.0667C134.29 52.0667 132.167 54.1896 132.167 56.8C132.167 57.781 132.467 58.6933 132.98 59.4495C131.624 59.9252 130.557 60.9902 130.083 62.3463C129.748 62.1191 129.375 61.9522 128.986 61.8162C129.499 61.06 129.8 60.1477 129.8 59.1667C129.8 56.5563 127.677 54.4333 125.067 54.4333C122.456 54.4333 120.333 56.5563 120.333 59.1667C120.333 60.1477 120.634 61.06 121.146 61.8162C120.758 61.9522 120.384 62.1191 120.049 62.3463C119.574 60.9902 118.509 59.924 117.153 59.4495C117.666 58.6933 117.967 57.781 117.967 56.8C117.967 54.1896 115.844 52.0667 113.233 52.0667C110.623 52.0667 108.5 54.1896 108.5 56.8C108.5 57.781 108.801 58.6933 109.313 59.4495C107.468 60.0968 106.133 61.8363 106.133 63.9V67.45C106.133 68.1044 106.662 68.6334 107.317 68.6334H117.967V69.8167C117.967 70.4711 118.496 71 119.15 71H130.983C131.638 71 132.167 70.4711 132.167 69.8167V68.6334H142.817C143.471 68.6334 144 68.1044 144 67.45V63.9C144 61.8363 142.665 60.0968 140.82 59.4495ZM113.233 54.4333C114.539 54.4333 115.6 55.4948 115.6 56.8C115.6 58.1052 114.539 59.1667 113.233 59.1667C111.928 59.1667 110.867 58.1052 110.867 56.8C110.867 55.4948 111.928 54.4333 113.233 54.4333ZM108.5 66.2667V63.9C108.5 62.5948 109.561 61.5334 110.867 61.5334H115.6C116.905 61.5334 117.967 62.5948 117.967 63.9V66.2667H108.5ZM125.067 56.8C126.372 56.8 127.433 57.8615 127.433 59.1667C127.433 60.4719 126.372 61.5334 125.067 61.5334C123.761 61.5334 122.7 60.4719 122.7 59.1667C122.7 57.8615 123.761 56.8 125.067 56.8ZM129.8 67.45V68.6334H120.333V67.45V66.2667C120.333 64.9615 121.395 63.9 122.7 63.9H127.433C128.739 63.9 129.8 64.9615 129.8 66.2667V67.45ZM136.9 54.4333C138.205 54.4333 139.267 55.4948 139.267 56.8C139.267 58.1052 138.205 59.1667 136.9 59.1667C135.595 59.1667 134.533 58.1052 134.533 56.8C134.533 55.4948 135.595 54.4333 136.9 54.4333ZM141.633 66.2667H132.167V63.9C132.167 62.5948 133.228 61.5334 134.533 61.5334H139.267C140.572 61.5334 141.633 62.5948 141.633 63.9V66.2667ZM122.7 23.6667H120.333V27.2167H122.7V23.6667ZM129.8 23.6667H132.167V27.2167H129.8V23.6667ZM113.233 23.6667H110.867V27.2167H113.233V23.6667ZM136.091 41.07C136.269 40.3422 136.421 39.592 136.539 38.8441L138.876 39.2204C138.746 40.0298 138.583 40.8416 138.39 41.632L136.091 41.07ZM136.9 34.3167C136.9 35.0787 136.87 35.842 136.81 36.5863L139.17 36.7756C139.235 35.9686 139.267 35.1403 139.267 34.3167H136.9ZM132.567 49.403C132.97 48.7628 133.35 48.1001 133.697 47.4327L135.795 48.5261C135.42 49.2503 135.007 49.9674 134.57 50.6621L132.567 49.403ZM135.465 43.2532C135.227 43.9691 134.957 44.6839 134.664 45.3785L136.843 46.3003C137.162 45.5489 137.454 44.7738 137.711 43.9975L135.465 43.2532ZM86.5302 13.9622C87.0994 13.3824 87.7017 12.8144 88.3194 12.2759L89.8743 14.0604C89.3016 14.5586 88.7454 15.0828 88.22 15.6189L86.5302 13.9622ZM118.306 6.32966L117.553 8.57326C118.265 8.81111 118.977 9.08446 119.673 9.38266L120.607 7.2077C119.851 6.88465 119.077 6.58881 118.306 6.32966ZM90.2388 10.7352C90.9003 10.2477 91.5854 9.78262 92.2765 9.35307L93.5237 11.3636C92.8871 11.7588 92.2552 12.1883 91.6458 12.6392L90.2388 10.7352ZM82.0383 19.7972C81.6265 20.487 81.2313 21.216 80.8644 21.9615L82.9885 23.0064C83.327 22.3188 83.6914 21.6467 84.0701 21.0101L82.0383 19.7972ZM83.3778 17.7347C83.8453 17.0744 84.3505 16.4188 84.8795 15.7857L86.6959 17.3016C86.2084 17.8861 85.7421 18.4908 85.3102 19.1026L83.3778 17.7347ZM108.634 4.73335L108.624 7.10002C109.385 7.10357 110.148 7.1367 110.894 7.19942L111.093 4.84222C110.286 4.77358 109.459 4.7369 108.634 4.73335ZM113.148 7.47866L113.534 5.14395C114.347 5.27766 115.157 5.4457 115.944 5.64213L115.372 7.93898C114.647 7.75675 113.9 7.60291 113.148 7.47866ZM122.828 8.26681L121.723 10.3613C122.386 10.7104 123.048 11.0938 123.689 11.5009L124.955 9.50221C124.262 9.06083 123.546 8.64666 122.828 8.26681ZM103.734 5.09902C104.533 4.97596 105.356 4.88129 106.176 4.81857L106.355 7.17814C105.597 7.23612 104.838 7.32251 104.097 7.43847L103.734 5.09902ZM96.643 7.10117C95.8916 7.41594 95.1413 7.7662 94.4136 8.14132L95.4975 10.2441C96.1697 9.89739 96.8631 9.57552 97.5554 9.2856L96.643 7.10117ZM98.9493 6.24444C99.7303 5.99002 100.528 5.764 101.32 5.57585L101.867 7.87625C101.138 8.0502 100.404 8.25847 99.6842 8.49277L98.9493 6.24444ZM97.6962 62.0907L96.8619 64.3047C97.6275 64.5935 98.4145 64.855 99.2002 65.0786L99.8522 62.8043C99.1292 62.596 98.4038 62.3558 97.6962 62.0907ZM92.4149 62.2055L93.5936 60.1536C94.2491 60.5299 94.9272 60.8825 95.6076 61.2032L94.597 63.3438C93.861 62.9959 93.1273 62.6137 92.4149 62.2055ZM102.059 63.3415L101.592 65.662C102.396 65.8241 103.213 65.9555 104.021 66.0525L104.303 63.7024C103.557 63.6137 102.803 63.4918 102.059 63.3415ZM85.1481 56.4202L86.884 54.812C87.2899 55.2487 87.7088 55.6747 88.1407 56.0853L86.5089 57.7999C86.0415 57.3538 85.5859 56.8935 85.1481 56.4202ZM89.8483 57.5846L88.3597 59.4247C88.9998 59.943 89.6625 60.4376 90.3311 60.8956L91.6694 58.9454C91.0541 58.5206 90.44 58.0638 89.8483 57.5846ZM2 59.5H0.5V61V351V352.5H2H411H412.5V351V61V59.5H411H169.383C168.554 59.5 167.883 60.1716 167.883 61C167.883 61.8284 168.554 62.5 169.383 62.5H409.5V349.5H3.5V62.5H48.3376C49.166 62.5 49.8376 61.8284 49.8376 61C49.8376 60.1716 49.166 59.5 48.3376 59.5H2Z"/>
</svg>