  <svg class="icone-servicehome" width="100%" height="100%" viewBox="0 0 413 353" fill="white" xmlns="http://www.w3.org/2000/svg">
                    <path fill-rule="evenodd" clip-rule="evenodd" d="M137.572 0H142.106C143.853 0 145.274 1.42111 145.274 3.16796V58.4577C145.274 60.2045 143.853 61.6256 142.106 61.6256H116.717L117.983 69.8009C118.03 70.101 117.942 70.4063 117.745 70.6368C117.547 70.8673 117.259 71 116.955 71H105.156C104.582 71 104.116 70.5345 104.116 69.96C104.116 69.3854 104.582 68.9199 105.156 68.9199H115.742L112.872 50.3853C112.695 49.2382 111.956 48.2721 110.895 47.8008L105.246 45.2902L102.581 47.2239C101.883 47.7302 101.052 47.9952 100.207 47.9952C99.8916 47.9952 99.5739 47.9581 99.2605 47.8828C98.2748 47.6459 97.423 47.0521 96.8606 46.2242C96.2982 47.0521 95.4465 47.646 94.4608 47.8828C94.1474 47.9581 93.8295 47.9952 93.5139 47.9952C92.669 47.9952 91.8381 47.7302 91.1401 47.2239L88.4751 45.2901L82.8262 47.8006C81.7655 48.272 81.0264 49.2382 80.8489 50.3852L77.9793 68.9199H101.135C101.709 68.9199 102.175 69.3854 102.175 69.96C102.175 70.5345 101.709 71 101.135 71H76.766C76.4623 71 76.1738 70.8673 75.9762 70.6368C75.7786 70.4063 75.6915 70.101 75.738 69.8009L78.7931 50.0669C79.0794 48.2175 80.2713 46.6596 81.9813 45.8998L87.1238 43.6145C87.0977 43.4699 87.0872 43.3211 87.0933 43.1706C87.1207 42.4913 87.4841 41.8746 88.065 41.5211L90.0496 40.3136C90.6592 39.9428 91.4289 39.9209 92.0586 40.2576L92.3897 40.4346L92.8554 37.2399C92.0759 36.8505 91.3605 36.3513 90.7295 35.7625H88.5993C85.4762 35.7625 82.9355 33.2216 82.9355 30.0986V26.9439C82.9355 26.3694 83.401 25.9039 83.9755 25.9039C84.55 25.9039 85.0156 26.3694 85.0156 26.9439V30.0986C85.0156 32.0747 86.6232 33.6824 88.5993 33.6824H89.0725C88.3062 32.3595 87.8672 30.8244 87.8672 29.1886V22.4593C87.8672 21.8902 88.1045 21.3397 88.5183 20.949C88.9297 20.5606 89.489 20.3552 90.0523 20.3886C92.5925 20.5338 94.4021 20.1367 95.5861 19.1737C96.3384 18.5614 97.432 18.5662 98.1866 19.1858C99.7368 20.4592 101.458 20.918 103.449 20.5875C104.046 20.489 104.656 20.657 105.12 21.0501C105.586 21.4455 105.854 22.0228 105.854 22.634V29.1885C105.854 30.8243 105.415 32.3594 104.649 33.6823H105.122C107.098 33.6823 108.706 32.0745 108.706 30.0985V19.8928C108.706 17.2326 107.51 14.755 105.425 13.0951C105.065 12.809 104.565 12.7882 104.179 13.0431L102.932 13.8684C102.1 14.4187 101.047 14.5336 100.116 14.1767C99.1849 13.8195 98.4794 13.03 98.2286 12.0646L98.2155 12.0141C98.0918 11.5379 97.6677 11.2061 97.1842 11.2061H93.7024C88.9125 11.2061 85.0156 15.103 85.0156 19.8929V22.9225C85.0156 23.497 84.55 23.9625 83.9755 23.9625C83.401 23.9625 82.9355 23.497 82.9355 22.9225V19.893C82.9355 13.9561 87.7656 9.12613 93.7024 9.12613H97.1842L97.2072 9.12627V3.16796C97.2072 1.42111 98.6284 0 100.375 0H133.551C134.125 0 134.591 0.465521 134.591 1.04004C134.591 1.61456 134.125 2.08008 133.551 2.08008H100.376C99.7758 2.08008 99.2877 2.5682 99.2877 3.16796V9.93681C99.7346 10.3405 100.069 10.8742 100.229 11.4901L100.242 11.5406C100.326 11.8632 100.552 12.1159 100.861 12.2346C101.172 12.3536 101.508 12.3166 101.784 12.1335L103.032 11.3083C104.172 10.5549 105.654 10.6187 106.72 11.4676C109.304 13.5245 110.786 16.5954 110.786 19.8928V30.0985C110.786 33.2216 108.245 35.7624 105.122 35.7624H102.992C102.361 36.3512 101.646 36.8504 100.866 37.2398L101.332 40.4345L101.663 40.2576C102.292 39.9211 103.062 39.9426 103.672 40.3133L105.656 41.521C106.237 41.8745 106.601 42.4913 106.628 43.1705C106.634 43.3211 106.623 43.4697 106.597 43.6145L111.74 45.8998C113.45 46.6598 114.642 48.2176 114.928 50.0671L116.395 59.5456H142.106C142.706 59.5456 143.194 59.0574 143.194 58.4577V3.16796C143.194 2.5682 142.706 2.08008 142.106 2.08008H137.572C136.997 2.08008 136.532 1.61456 136.532 1.04004C136.532 0.465521 136.997 0 137.572 0ZM89.9473 22.4658V29.1885C89.9473 33.0006 93.0484 36.1018 96.8605 36.1018C100.673 36.1018 103.774 33.0004 103.774 29.1885V22.6422C101.204 23.0643 98.8847 22.4454 96.8788 20.8033C95.277 22.0953 93.0092 22.6396 89.9473 22.4658ZM96.8606 38.1819C96.1707 38.1819 95.4989 38.1037 94.8532 37.956L94.34 41.4772L96.8606 42.8248L99.3814 41.4772L98.868 37.956C98.2224 38.1038 97.5505 38.1819 96.8606 38.1819ZM93.9747 45.8605C94.5343 45.7259 95.0048 45.3549 95.266 44.8423L95.471 44.4405L92.7386 42.9797L92.7153 42.9676C92.707 42.9631 92.6987 42.9586 92.6905 42.9539L91.1049 42.1062L89.2144 43.2565L92.3617 45.5403C92.8275 45.8783 93.4156 45.995 93.9747 45.8605ZM99.7464 45.8605C100.306 45.9944 100.894 45.8782 101.359 45.5403L104.507 43.2565L102.616 42.1062L101.031 42.9539C101.015 42.9629 100.999 42.9715 100.983 42.9797L98.2501 44.4405L98.4551 44.8423C98.7163 45.3549 99.187 45.7259 99.7464 45.8605ZM96.8607 49.028C97.4352 49.028 97.9007 49.4935 97.9007 50.0681V52.1179C97.9007 52.6924 97.4352 53.1579 96.8607 53.1579C96.2861 53.1579 95.8206 52.6924 95.8206 52.1179V50.0681C95.8206 49.4935 96.2861 49.028 96.8607 49.028ZM97.9007 56.7852C97.9007 56.2107 97.4352 55.7452 96.8607 55.7452C96.2861 55.7452 95.8206 56.2107 95.8206 56.7852V58.8352C95.8206 59.4097 96.2861 59.8752 96.8607 59.8752C97.4352 59.8752 97.9007 59.4097 97.9007 58.8352V56.7852ZM95.8206 63.5025C95.8206 62.928 96.2861 62.4625 96.8607 62.4625C97.435 62.4625 97.9007 62.928 97.9007 63.5025V65.5525C97.9007 66.1271 97.4352 66.5926 96.8607 66.5926C96.2861 66.5926 95.8206 66.1271 95.8206 65.5525V63.5025ZM128.615 5.73062H113.867C112.735 5.73062 111.814 6.6514 111.814 7.78324V10.4611C111.814 11.593 112.735 12.5137 113.867 12.5137H128.615C129.746 12.5137 130.667 11.593 130.667 10.4611V7.78324C130.667 6.6514 129.746 5.73062 128.615 5.73062ZM128.587 10.4335H113.895V7.81069H128.587V10.4335ZM118.054 40.6536C118.054 41.2281 117.588 41.6936 117.014 41.6936C116.439 41.6936 115.974 41.2281 115.974 40.6536V40.125H114.828C113.695 40.125 112.774 39.2035 112.774 38.0709V29.9867C112.774 28.8541 113.695 27.9326 114.828 27.9326H115.974V25.3762C115.974 24.8017 116.439 24.3362 117.014 24.3362C117.588 24.3362 118.054 24.8017 118.054 25.3762V27.9326H119.2C120.333 27.9326 121.254 28.8541 121.254 29.9867V38.0709C121.254 39.2035 120.333 40.125 119.2 40.125H118.054V40.6536ZM119.174 30.013H114.854V38.045H119.174V30.013ZM126.882 33.0823C127.457 33.0823 127.922 32.6168 127.922 32.0422V31.5136H129.069C130.201 31.5136 131.123 30.5922 131.123 29.4596V24.5522C131.123 23.4196 130.201 22.4982 129.069 22.4982H127.922V19.9417C127.922 19.3672 127.457 18.9017 126.882 18.9017C126.308 18.9017 125.842 19.3672 125.842 19.9417V22.4982H124.696C123.563 22.4982 122.642 23.4196 122.642 24.5522V29.4596C122.642 30.5922 123.564 31.5136 124.696 31.5136H125.842V32.0422C125.842 32.6168 126.308 33.0823 126.882 33.0823ZM124.722 24.5785H129.043V29.4337H124.722V24.5785ZM132.511 18.059C132.511 16.9265 133.432 16.005 134.565 16.005H135.711V14.7762C135.711 14.2017 136.176 13.7362 136.751 13.7362C137.325 13.7362 137.791 14.2017 137.791 14.7762V16.005H138.937C140.07 16.005 140.991 16.9263 140.991 18.059V22.9663C140.991 24.0988 140.07 25.0203 138.937 25.0203H137.791V25.5489C137.791 26.1235 137.325 26.589 136.751 26.589C136.176 26.589 135.711 26.1235 135.711 25.5489V25.0203H134.565C133.432 25.0203 132.511 24.099 132.511 22.9663V18.059ZM134.591 18.0851V22.9404H138.911V18.0851H134.591ZM137.492 44.0573H120.214C119.64 44.0573 119.174 44.5228 119.174 45.0973C119.174 45.6718 119.64 46.1374 120.214 46.1374H137.492C138.066 46.1374 138.532 45.6718 138.532 45.0973C138.532 44.5228 138.066 44.0573 137.492 44.0573ZM120.214 48.5011H137.492C138.066 48.5011 138.532 48.9666 138.532 49.5411C138.532 50.1156 138.066 50.5811 137.492 50.5811H120.214C119.64 50.5811 119.174 50.1156 119.174 49.5411C119.174 48.9666 119.64 48.5011 120.214 48.5011ZM137.492 52.9449H120.214C119.64 52.9449 119.174 53.4104 119.174 53.985C119.174 54.5595 119.64 55.025 120.214 55.025H137.492C138.066 55.025 138.532 54.5595 138.532 53.985C138.532 53.4104 138.066 52.9449 137.492 52.9449ZM2 59.5H0.5V61V351V352.5H2H411H412.5V351V61V59.5H411H169.383C168.554 59.5 167.883 60.1716 167.883 61C167.883 61.8284 168.554 62.5 169.383 62.5H409.5V349.5H3.5V62.5H48.3376C49.166 62.5 49.8376 61.8284 49.8376 61C49.8376 60.1716 49.166 59.5 48.3376 59.5H2Z" />
                </svg>