<svg class="icone-servicehome" width="100%" height="100%"  viewBox="0 0 413 334" fill="white" style="z-index: 3;" xmlns="http://www.w3.org/2000/svg">
                    <path fill-rule="evenodd" clip-rule="evenodd" d="M137.45 9.4667H120.931C122.379 6.94093 123.176 4.0942 123.25 1.18336C123.25 0.756956 123.02 0.363569 122.649 0.153624C122.278 -0.0563217 121.823 -0.0503538 121.457 0.169245L116.223 3.31336L112.127 0.236695C111.768 -0.0322328 111.288 -0.0754907 110.887 0.124957C110.487 0.325404 110.233 0.735149 110.233 1.18336C110.233 5.21616 108.393 7.25386 106.19 9.4667H86.3655C85.4002 9.46837 84.4767 9.86115 83.806 10.5554L70.9277 24.85C70.3346 25.4959 70.0038 26.3398 70 27.2167V67.45C70 69.4107 71.5894 71 73.55 71H123.25C124.132 70.9975 124.98 70.6643 125.629 70.0664L139.955 57.155C140.627 56.4886 141.003 55.5807 141 54.6345V13.0167C141 11.0561 139.411 9.4667 137.45 9.4667ZM124.771 24.0217C124.297 23.7901 123.777 23.6687 123.25 23.6667H107.173L119.007 11.8334H136.96L124.771 24.0217ZM93.6667 26.0334H103.133V41.3209L99.1396 38.1259C98.7073 37.7797 98.0927 37.7797 97.6604 38.1259L93.6667 41.3209V26.0334ZM112.421 3.41513L115.44 5.68003C115.825 5.96879 116.347 5.99545 116.759 5.74748L120.647 3.41395C120.316 5.79514 119.281 8.02336 117.677 9.81341L103.827 23.6667H95.3399L107.52 11.4866L107.534 11.4724C109.547 9.45616 111.781 7.21769 112.421 3.41513ZM85.5218 12.1884C85.744 11.9616 86.048 11.8337 86.3655 11.8334H103.827L91.9934 23.6667H75.1653L85.5218 12.1884ZM73.55 68.6334C72.8965 68.6334 72.3667 68.1036 72.3667 67.45V27.2167C72.3656 26.9067 72.4872 26.6089 72.7051 26.3884L72.7217 26.3694C72.9432 26.1534 73.2406 26.0328 73.55 26.0334H91.3V43.7834C91.2998 44.2384 91.5606 44.6532 91.9707 44.8504C92.3809 45.0475 92.8677 44.992 93.2229 44.7076L98.4 40.5659L103.577 44.7076C103.932 44.992 104.419 45.0475 104.829 44.8504C105.239 44.6532 105.5 44.2384 105.5 43.7834V26.0334H123.25C123.904 26.0334 124.433 26.5632 124.433 27.2167V67.45C124.433 68.1036 123.904 68.6334 123.25 68.6334H73.55ZM138.326 55.4368L126.8 65.8443V27.2167C126.798 26.6895 126.677 26.1697 126.445 25.6961L138.633 13.5066L138.633 54.6345C138.637 54.9314 138.527 55.2183 138.326 55.4368ZM0.5 40.5H2H48.3376C49.166 40.5 49.8376 41.1716 49.8376 42C49.8376 42.8284 49.166 43.5 48.3376 43.5H3.5V330.5H409.5V43.5H169.383C168.554 43.5 167.883 42.8284 167.883 42C167.883 41.1716 168.554 40.5 169.383 40.5H411H412.5V42V332V333.5H411H2H0.5V332V42V40.5ZM116.15 63.9H120.883C121.537 63.9 122.067 64.4298 122.067 65.0834C122.067 65.7369 121.537 66.2667 120.883 66.2667H116.15C115.496 66.2667 114.967 65.7369 114.967 65.0834C114.967 64.4298 115.496 63.9 116.15 63.9ZM119.353 57.1468C118.891 56.6848 118.142 56.6848 117.68 57.1468L115.313 59.5134C114.865 59.9778 114.871 60.7158 115.328 61.1723C115.784 61.6287 116.522 61.6351 116.987 61.1867L117.333 60.84V61.5334C117.333 62.1869 117.863 62.7167 118.517 62.7167C119.17 62.7167 119.7 62.1869 119.7 61.5334V60.84L120.047 61.1867C120.511 61.6351 121.249 61.6287 121.706 61.1723C122.162 60.7158 122.168 59.9778 121.72 59.5134L119.353 57.1468ZM77.1 56.8H96.0333C97.3404 56.8 98.4 57.8596 98.4 59.1667V63.9C98.4 65.2071 97.3404 66.2667 96.0333 66.2667H77.1C75.7929 66.2667 74.7333 65.2071 74.7333 63.9V59.1667C74.7333 57.8596 75.7929 56.8 77.1 56.8ZM77.1 63.9H96.0333V59.1667H77.1V63.9Z"/>
</svg> 