<svg width="413" height="334" viewBox="0 0 413 334" fill="none" xmlns="http://www.w3.org/2000/svg">
<path fill-rule="evenodd" clip-rule="evenodd" d="M138.064 68.7096C138.193 68.35 138.275 67.9676 138.275 67.5644C138.275 67.1613 138.193 66.7789 138.064 66.4193H140.565V64.1289H138.275V58.403C138.275 57.7698 137.763 57.2579 137.13 57.2579H133.694V51.532C133.694 50.8987 133.182 50.3868 132.549 50.3868H131.404V35.4995C131.404 34.8663 130.892 34.3544 130.259 34.3544H86.7421C86.1088 34.3544 85.5969 34.8663 85.5969 35.4995V68.7096H81.0162V26.6737L108.5 9.36893L135.985 26.6748V54.9675H138.275V28.1166L138.81 28.4533C138.999 28.5712 139.209 28.6285 139.419 28.6285C139.769 28.6285 140.112 28.4682 140.336 28.1704L143.772 23.5897C143.964 23.3343 144.04 23.0103 143.983 22.6965C143.925 22.3827 143.739 22.1067 143.469 21.9361L109.114 0.177758C108.741 -0.0592933 108.262 -0.0592933 107.889 0.177758L73.5337 21.9361C73.2645 22.1067 73.0779 22.3827 73.0206 22.6965C72.9611 23.0103 73.0366 23.3343 73.229 23.5897L76.6646 28.1704C77.0219 28.648 77.6861 28.7705 78.1911 28.4533L78.7259 28.1166V68.7096H73V71H144.001V68.7096H138.064ZM77.8636 25.9522L75.8045 23.2072L108.5 2.50017L141.196 23.2072L139.137 25.9522L109.111 7.04537C108.924 6.92857 108.712 6.87016 108.5 6.87016C108.289 6.87016 108.077 6.92857 107.89 7.04537L77.8636 25.9522ZM135.985 67.5644C135.985 68.1966 135.472 68.7096 134.839 68.7096C134.207 68.7096 133.694 68.1966 133.694 67.5644C133.694 66.9323 134.207 66.4193 134.839 66.4193C135.472 66.4193 135.985 66.9323 135.985 67.5644ZM122.243 67.5644C122.243 66.9323 122.756 66.4193 123.388 66.4193C124.02 66.4193 124.533 66.9323 124.533 67.5644C124.533 68.1966 124.02 68.7096 123.388 68.7096C122.756 68.7096 122.243 68.1966 122.243 67.5644ZM119.952 59.5482H122.243V61.8386H124.533V59.5482H126.823V64.1289H119.952V59.5482ZM126.613 66.4193H131.616C131.486 66.7789 131.404 67.1613 131.404 67.5644C131.404 67.9676 131.486 68.35 131.615 68.7096H126.611C126.741 68.35 126.823 67.9676 126.823 67.5644C126.823 67.1613 126.741 66.7789 126.613 66.4193ZM131.404 59.5482V61.8386H133.694V59.5482H135.985V64.1289H129.114V59.5482H131.404ZM124.533 57.2579V52.6772H126.823V54.9675H129.114V52.6772H131.404V57.2579H124.533ZM123.388 50.3868C122.754 50.3868 122.243 50.8987 122.243 51.532V57.2579H119.952V49.2416C119.952 48.6084 119.44 48.0965 118.807 48.0965H114.226V50.3868H117.662V65.2741C117.662 65.9074 118.174 66.4193 118.807 66.4193H120.163C120.035 66.7789 119.952 67.1613 119.952 67.5644C119.952 67.9676 120.035 68.35 120.163 68.7096H115.371V62.9837C115.371 62.3505 114.86 61.8386 114.226 61.8386H106.21V56.1127C106.21 55.4794 105.698 54.9675 105.065 54.9675H97.0487V49.2416C97.0487 48.6084 96.5368 48.0965 95.9035 48.0965H87.8873V45.8061H129.114V50.3868H123.388ZM87.8873 61.8386V57.2579H90.1776V59.5482H92.468V57.2579H94.7583V61.8386H87.8873ZM92.468 52.6772V50.3868H94.7583V54.9675H87.8873V50.3868H90.1776V52.6772H92.468ZM101.629 59.5482V57.2579H103.92V61.8386H97.0487V57.2579H99.339V59.5482H101.629ZM97.0487 64.1289H99.339V66.4193H101.629V64.1289H103.92V68.7096H97.0487V64.1289ZM106.21 64.1289H108.5V66.4193H110.791V64.1289H113.081V68.7096H106.21V64.1289ZM129.114 43.5158H87.8873V41.2254H129.114V43.5158ZM129.114 36.6447V38.9351H87.8873V36.6447H129.114ZM87.8873 64.1289H90.1776V66.4193H92.468V64.1289H94.7583V68.7096H87.8873V64.1289ZM0.5 40.5H2H48.3376C49.166 40.5 49.8376 41.1715 49.8376 42C49.8376 42.8284 49.166 43.5 48.3376 43.5H3.5V330.5H409.5V43.5H169.383C168.554 43.5 167.883 42.8284 167.883 42C167.883 41.1715 168.554 40.5 169.383 40.5H411H412.5V42V332V333.5H411H2H0.5V332V42V40.5ZM93.6138 24.0476C93.6138 23.4143 94.1257 22.9024 94.7589 22.9024H122.243C122.876 22.9024 123.388 23.4143 123.388 24.0476V30.9187C123.388 31.5519 122.876 32.0638 122.243 32.0638H94.7589C94.1257 32.0638 93.6138 31.5519 93.6138 30.9187V24.0476ZM95.9041 29.7735H121.098V25.1928H95.9041V29.7735Z" fill="white"/>
</svg>
