<svg width="89" height="70" viewBox="0 0 89 70" fill="none" xmlns="http://www.w3.org/2000/svg">
<path d="M48.2275 16.0535V70H88.3978V31.9991H70.6348V20.1997L74.6021 16.4458H88.3978V0H65.1984L48.2275 16.0535ZM83.1336 4.97858V11.4662H72.4221L65.3706 18.1375V36.9797H83.1336V65.0204H53.4917V18.1167L67.3784 4.97961H83.1336V4.97858Z" fill="white" fill-opacity="0.91"/>
<path d="M0.59375 16.0535V70H40.7651V52.0846H35.5009V65.0204H5.85791V18.1167L19.7457 4.97858H35.5009V11.4662H24.7894L17.7368 18.1375V36.9787H35.5009V45.4455H40.7651V31.9991H23.001V20.1997L26.9694 16.4458H40.7651V0H17.5646L0.59375 16.0535Z" fill="white" fill-opacity="0.91"/>
</svg>
