<svg width="71" height="71" viewBox="0 0 71 71" fill="none" xmlns="http://www.w3.org/2000/svg">
<g clip-path="url(#clip0_1400_5930)">
<path d="M67.1063 0H62.572C61.9975 0 61.532 0.465521 61.532 1.04004C61.532 1.61456 61.9975 2.08008 62.572 2.08008H67.1063C67.706 2.08008 68.1942 2.5682 68.1942 3.16796V58.4577C68.1942 59.0574 67.706 59.5456 67.1063 59.5456H41.3956L39.9281 50.0671C39.6419 48.2176 38.45 46.6598 36.7399 45.8998L31.5974 43.6145C31.6235 43.4697 31.6342 43.3211 31.6281 43.1705C31.6006 42.4913 31.2374 41.8745 30.6564 41.521L28.6717 40.3133C28.0621 39.9426 27.2925 39.9211 26.6626 40.2576L26.3318 40.4345L25.8661 37.2398C26.6457 36.8504 27.3611 36.3512 27.992 35.7624H30.1222C33.2453 35.7624 35.7861 33.2216 35.7861 30.0985V19.8928C35.7861 16.5954 34.3042 13.5245 31.7204 11.4676C30.6538 10.6187 29.1718 10.5549 28.0323 11.3083L26.7845 12.1335C26.508 12.3166 26.1716 12.3536 25.8615 12.2346C25.5516 12.1159 25.326 11.8632 25.2421 11.5406L25.2289 11.4901C25.069 10.8742 24.7347 10.3405 24.2877 9.93681V3.16796C24.2877 2.5682 24.7759 2.08008 25.3758 2.08008H58.5508C59.1253 2.08008 59.5908 1.61456 59.5908 1.04004C59.5908 0.465521 59.1253 0 58.5508 0H25.3754C23.6285 0 22.2073 1.42111 22.2073 3.16796V9.12627C22.1996 9.12627 22.1919 9.12613 22.1842 9.12613H18.7025C12.7656 9.12613 7.93556 13.9561 7.93556 19.893V22.9225C7.93556 23.497 8.40108 23.9625 8.9756 23.9625C9.55012 23.9625 10.0156 23.497 10.0156 22.9225V19.8929C10.0156 15.103 13.9126 11.2061 18.7025 11.2061H22.1842C22.6678 11.2061 23.0918 11.5379 23.2155 12.0141L23.2287 12.0646C23.4794 13.03 24.185 13.8195 25.1163 14.1767C26.0472 14.5336 27.1 14.4187 27.9318 13.8684L29.1795 13.0431C29.565 12.7882 30.0652 12.809 30.4247 13.0951C32.5099 14.755 33.7058 17.2326 33.7058 19.8928V30.0985C33.7058 32.0745 32.098 33.6823 30.122 33.6823H29.6487C30.415 32.3594 30.854 30.8243 30.854 29.1885V22.634C30.854 22.0228 30.5865 21.4455 30.1203 21.0501C29.6564 20.657 29.0466 20.489 28.4493 20.5875C26.4584 20.918 24.7369 20.4592 23.1867 19.1858C22.432 18.5662 21.3385 18.5614 20.5862 19.1737C19.4022 20.1367 17.5925 20.5338 15.0523 20.3886C14.4891 20.3552 13.9298 20.5606 13.5184 20.949C13.1046 21.3397 12.8673 21.8902 12.8673 22.4593V29.1886C12.8673 30.8244 13.3063 32.3595 14.0726 33.6824H13.5993C11.6233 33.6824 10.0156 32.0747 10.0156 30.0986V26.9439C10.0156 26.3694 9.55012 25.9039 8.9756 25.9039C8.40108 25.9039 7.93556 26.3694 7.93556 26.9439V30.0986C7.93556 33.2216 10.4763 35.7625 13.5993 35.7625H15.7296C16.3606 36.3513 17.076 36.8505 17.8555 37.2399L17.3898 40.4346L17.0586 40.2576C16.4289 39.9209 15.6593 39.9428 15.0497 40.3136L13.065 41.5211C12.4841 41.8746 12.1208 42.4913 12.0934 43.1706C12.0873 43.3211 12.0978 43.4699 12.1239 43.6145L6.98136 45.8998C5.2714 46.6596 4.07951 48.2175 3.79315 50.0669L0.738074 69.8009C0.691619 70.101 0.778705 70.4063 0.976313 70.6368C1.17392 70.8673 1.46236 71 1.76605 71H26.135C26.7095 71 27.175 70.5345 27.175 69.96C27.175 69.3854 26.7095 68.9199 26.135 68.9199H2.97943L5.84897 50.3852C6.02646 49.2382 6.76559 48.272 7.82629 47.8006L13.4752 45.2901L16.1402 47.2239C16.8382 47.7302 17.6691 47.9952 18.514 47.9952C18.8296 47.9952 19.1475 47.9581 19.4609 47.8828C20.4465 47.646 21.2983 47.0521 21.8607 46.2242C22.423 47.0521 23.2749 47.6459 24.2606 47.8828C24.574 47.9581 24.8917 47.9952 25.2074 47.9952C26.0522 47.9952 26.8834 47.7302 27.5811 47.2239L30.2461 45.2902L35.8951 47.8008C36.9557 48.2721 37.695 49.2382 37.8725 50.3853L40.742 68.9199H30.1565C29.582 68.9199 29.1164 69.3854 29.1164 69.96C29.1164 70.5345 29.582 71 30.1565 71H41.9554C42.2589 71 42.5475 70.8673 42.745 70.6368C42.9424 70.4063 43.0297 70.101 42.9832 69.8009L41.7176 61.6256H67.1063C68.8531 61.6256 70.2743 60.2045 70.2743 58.4577V3.16796C70.2743 1.42111 68.8531 0 67.1063 0ZM14.9474 29.1885V22.4658C18.0092 22.6396 20.2771 22.0953 21.8789 20.8033C23.8848 22.4454 26.2038 23.0643 28.7739 22.6422V29.1885C28.7739 33.0004 25.6727 36.1018 21.8606 36.1018C18.0485 36.1018 14.9474 33.0006 14.9474 29.1885ZM19.8533 37.956C20.499 38.1037 21.1708 38.1819 21.8607 38.1819C22.5506 38.1819 23.2225 38.1038 23.8681 37.956L24.3815 41.4772L21.8607 42.8248L19.3401 41.4772L19.8533 37.956ZM20.2661 44.8423C20.0049 45.3549 19.5344 45.7259 18.9748 45.8605C18.4157 45.995 17.8276 45.8783 17.3618 45.5403L14.2145 43.2565L16.105 42.1062L17.6906 42.9539C17.7064 42.9629 17.7223 42.9714 17.7387 42.9797L20.4711 44.4405L20.2661 44.8423ZM26.3594 45.5403C25.894 45.8782 25.3057 45.9944 24.7465 45.8605C24.1871 45.7259 23.7164 45.3549 23.4552 44.8423L23.2502 44.4405L25.9826 42.9797C25.9988 42.9715 26.0149 42.9629 26.0307 42.9539L27.6163 42.1062L29.5068 43.2565L26.3594 45.5403Z" fill="#99C481"/>
<path d="M22.9009 50.0681C22.9009 49.4935 22.4354 49.028 21.8608 49.028C21.2863 49.028 20.8208 49.4935 20.8208 50.0681V52.1179C20.8208 52.6924 21.2863 53.1579 21.8608 53.1579C22.4354 53.1579 22.9009 52.6924 22.9009 52.1179V50.0681Z" fill="#99C481"/>
<path d="M22.9009 56.7852C22.9009 56.2107 22.4354 55.7451 21.8608 55.7451C21.2863 55.7451 20.8208 56.2107 20.8208 56.7852V58.8352C20.8208 59.4097 21.2863 59.8752 21.8608 59.8752C22.4354 59.8752 22.9009 59.4097 22.9009 58.8352V56.7852Z" fill="#99C481"/>
<path d="M21.8608 62.4625C21.2863 62.4625 20.8208 62.928 20.8208 63.5025V65.5525C20.8208 66.1271 21.2863 66.5926 21.8608 66.5926C22.4354 66.5926 22.9009 66.1271 22.9009 65.5525V63.5025C22.9009 62.928 22.4352 62.4625 21.8608 62.4625Z" fill="#99C481"/>
<path d="M53.6147 5.73062H38.8671C37.7352 5.73062 36.8145 6.6514 36.8145 7.78324V10.4611C36.8145 11.593 37.7352 12.5138 38.8671 12.5138H53.6147C54.7464 12.5138 55.6672 11.593 55.6672 10.4611V7.78324C55.6672 6.6514 54.7464 5.73062 53.6147 5.73062ZM53.5871 10.4335H38.8947V7.8107H53.5871V10.4335Z" fill="#99C481"/>
<path d="M42.0139 41.6936C42.5884 41.6936 43.0539 41.2281 43.0539 40.6536V40.125H44.2002C45.3327 40.125 46.2542 39.2035 46.2542 38.071V29.9867C46.2542 28.8541 45.3327 27.9327 44.2002 27.9327H43.0539V25.3762C43.0539 24.8017 42.5884 24.3362 42.0139 24.3362C41.4393 24.3362 40.9738 24.8017 40.9738 25.3762V27.9327H39.8277C38.695 27.9327 37.7737 28.8541 37.7737 29.9867V38.071C37.7737 39.2035 38.6952 40.125 39.8277 40.125H40.9738V40.6536C40.9738 41.2281 41.4393 41.6936 42.0139 41.6936ZM39.8538 30.013H44.1739V38.045H39.8538V30.013Z" fill="#99C481"/>
<path d="M51.8824 33.0823C52.4569 33.0823 52.9224 32.6168 52.9224 32.0423V31.5136H54.0686C55.2012 31.5136 56.1226 30.5922 56.1226 29.4596V24.5522C56.1226 23.4196 55.2011 22.4982 54.0686 22.4982H52.9224V19.9417C52.9224 19.3672 52.4569 18.9017 51.8824 18.9017C51.3079 18.9017 50.8424 19.3672 50.8424 19.9417V22.4982H49.6961C48.5634 22.4982 47.6421 23.4196 47.6421 24.5522V29.4596C47.6421 30.5922 48.5636 31.5136 49.6961 31.5136H50.8424V32.0423C50.8424 32.6168 51.3079 33.0823 51.8824 33.0823ZM49.7222 24.5785H54.0425V29.4337H49.7222V24.5785Z" fill="#99C481"/>
<path d="M59.5648 16.005C58.4322 16.005 57.5107 16.9265 57.5107 18.059V22.9663C57.5107 24.099 58.4322 25.0203 59.5648 25.0203H60.711V25.5489C60.711 26.1235 61.1765 26.589 61.7511 26.589C62.3256 26.589 62.7911 26.1235 62.7911 25.5489V25.0203H63.9374C65.0699 25.0203 65.9914 24.0988 65.9914 22.9663V18.059C65.9914 16.9263 65.0699 16.005 63.9374 16.005H62.7911V14.7762C62.7911 14.2017 62.3256 13.7362 61.7511 13.7362C61.1765 13.7362 60.711 14.2017 60.711 14.7762V16.005H59.5648ZM63.9111 22.9404H59.591V18.0851H63.9111V22.9404Z" fill="#99C481"/>
<path d="M62.4919 44.0573H45.2141C44.6396 44.0573 44.1741 44.5228 44.1741 45.0973C44.1741 45.6718 44.6396 46.1374 45.2141 46.1374H62.4919C63.0665 46.1374 63.532 45.6718 63.532 45.0973C63.532 44.5228 63.0663 44.0573 62.4919 44.0573Z" fill="#99C481"/>
<path d="M62.4919 48.5011H45.2141C44.6396 48.5011 44.1741 48.9666 44.1741 49.5411C44.1741 50.1156 44.6396 50.5811 45.2141 50.5811H62.4919C63.0665 50.5811 63.532 50.1156 63.532 49.5411C63.532 48.9666 63.0663 48.5011 62.4919 48.5011Z" fill="#99C481"/>
<path d="M62.4919 52.9449H45.2141C44.6396 52.9449 44.1741 53.4104 44.1741 53.985C44.1741 54.5595 44.6396 55.025 45.2141 55.025H62.4919C63.0665 55.025 63.532 54.5595 63.532 53.985C63.532 53.4104 63.0663 52.9449 62.4919 52.9449Z" fill="#99C481"/>
</g>
<defs>
<clipPath id="clip0_1400_5930">
<rect width="71" height="71" fill="white"/>
</clipPath>
</defs>
</svg>
