<svg width="65" height="76" viewBox="0 0 65 76" fill="none" xmlns="http://www.w3.org/2000/svg">
<path d="M59.6181 35.3662C57.5954 35.3662 55.6649 37.1657 55.328 39.3653L53.5493 50.9801L45.9522 53.9251L48.9613 49.8495C50.3645 47.9491 50.1319 45.1508 48.4179 43.5654C46.7964 42.0655 44.387 42.2359 42.8798 43.8744L39.7038 47.3267C36.7182 50.4586 35.3544 54.8842 35.125 59.3439V70.7767C35.125 72.5572 36.4338 74.0004 38.0482 74.0004H46.2302C48.0288 74.0004 49.4009 72.226 49.1167 70.2672L48.9502 69.1195C48.718 67.5193 49.3727 65.9208 50.6143 65.0541C53.6105 62.9626 56.5377 60.8097 58.5814 59.2834C60.3555 57.9584 61.5115 55.8423 61.7456 53.4936C62.126 49.6779 62.7206 43.7144 63.1228 39.6789C63.3595 37.3067 61.7823 35.3662 59.6181 35.3662Z" stroke="#74B14E" stroke-width="2.5" stroke-miterlimit="10" stroke-linecap="round" stroke-linejoin="round"/>
<path d="M15.1095 30.7443L11.9985 32.5167C10.7554 33.2249 9.30252 32.0811 9.53989 30.581L10.134 26.8267L7.61707 24.168C6.61136 23.1056 7.16638 21.2546 8.5562 21.0358L12.0346 20.4881L13.5901 17.0724C14.2117 15.7076 16.0075 15.7076 16.6291 17.0724L18.1847 20.4881L21.663 21.0358C23.0528 21.2546 23.6079 23.1056 22.6022 24.168L20.0852 26.8267L20.6793 30.581C20.9167 32.0811 19.4639 33.2251 18.2208 32.5167L15.1095 30.7443Z" stroke="#74B14E" stroke-width="2.5" stroke-miterlimit="10" stroke-linecap="round" stroke-linejoin="round"/>
<path d="M49.5355 30.7443L46.4242 32.5167C45.1811 33.2249 43.7283 32.0811 43.9657 30.581L44.5598 26.8267L42.0429 24.168C41.0371 23.1056 41.5922 21.2546 42.982 21.0358L46.4603 20.4881L48.0159 17.0724C48.6375 15.7076 50.4333 15.7076 51.0549 17.0724L52.6104 20.4881L56.0888 21.0358C57.4786 21.2546 58.0337 23.1056 57.0279 24.168L54.511 26.8267L55.1051 30.581C55.3425 32.0811 53.8896 33.2251 52.6465 32.5167L49.5355 30.7443Z" stroke="#74B14E" stroke-width="2.5" stroke-miterlimit="10" stroke-linecap="round" stroke-linejoin="round"/>
<path d="M32.3235 16.6955L29.368 18.4679C28.187 19.1761 26.8068 18.0322 27.0323 16.5322L27.5968 12.7779L25.2057 10.1191C24.2502 9.0568 24.7775 7.20582 26.0978 6.98695L29.4023 6.43926L30.88 3.02359C31.4706 1.6588 33.1766 1.6588 33.7671 3.02359L35.2449 6.43926L38.5493 6.98695C39.8696 7.20582 40.3969 9.0568 39.4415 10.1191L37.0504 12.7779L37.6148 16.5322C37.8403 18.0322 36.4601 19.1762 35.2792 18.4679L32.3235 16.6955Z" stroke="#74B14E" stroke-width="2.5" stroke-miterlimit="10" stroke-linecap="round" stroke-linejoin="round"/>
<path d="M34.5414 42.3903H36.4091C37.7093 42.3903 38.6422 40.9757 38.2298 39.605C37.6394 37.6424 36.4429 36.0519 34.9261 35.1907C36.8002 34.134 38.0852 31.9732 38.0852 29.4775C38.0852 25.9405 35.5058 23.0732 32.3239 23.0732C29.142 23.0732 26.5626 25.9405 26.5626 29.4775C26.5626 31.9732 27.8477 34.1339 29.7217 35.1907C28.2049 36.0519 27.0086 37.6424 26.418 39.605C26.0056 40.9757 26.9384 42.3903 28.2387 42.3903H30.1067" stroke="#74B14E" stroke-width="2.5" stroke-miterlimit="10" stroke-linecap="round" stroke-linejoin="round"/>
<path d="M2.52958 49.7799L2.89973 53.4931C3.13387 55.8418 4.28997 57.9584 6.06405 59.2834C8.10779 60.8097 11.0349 62.9626 14.0312 65.0541C15.2728 65.9208 15.9274 67.5193 15.6953 69.1195L15.5287 70.2672C15.2446 72.226 16.6166 74.0004 18.4153 74.0004H26.5972C28.2117 74.0004 29.5204 72.557 29.5204 70.7767V59.3439C29.291 54.8842 27.9272 50.4585 24.9416 47.3267L21.7656 43.8744C20.2584 42.2361 17.849 42.0656 16.2275 43.5654C14.5135 45.1508 14.281 47.9489 15.6841 49.8495L18.6932 53.9251L11.0961 50.9801L9.31743 39.3653C8.98055 37.1659 7.05007 35.3662 5.02739 35.3662C2.86316 35.3662 1.286 37.3073 1.52251 39.6796L2.02617 44.7314" stroke="#74B14E" stroke-width="2.5" stroke-miterlimit="10" stroke-linecap="round" stroke-linejoin="round"/>
</svg>
