<svg width="74" height="50" viewBox="0 0 74 50" fill="none" xmlns="http://www.w3.org/2000/svg">
<path d="M2.31151 24.9291L8.12497 27.4444C8.89317 27.7766 9.73074 27.6011 10.3298 27.0505L14.9336 30.2347L15.7231 30.8435C14.7216 32.5819 14.9782 34.9575 16.501 36.3736C17.3377 37.1517 18.401 37.4838 19.4417 37.3594C19.5029 38.5592 20.0004 39.6278 20.81 40.3805C21.6057 41.1205 22.6444 41.4994 23.7506 41.367C23.8121 42.5664 24.3093 43.6347 25.119 44.3875C25.9221 45.1344 26.9628 45.5053 28.0614 45.3739C28.1188 46.5037 28.5809 47.6067 29.428 48.3945C31.0644 49.9165 33.5261 49.6958 34.9136 47.9012L35.8374 46.712L37.3942 47.972C40.0857 50.1509 43.8899 48.3659 44.2408 44.7442C47.0158 45.8501 49.9624 43.7172 50.0051 40.4416C52.6209 40.9809 54.942 38.8973 55.0877 36.1336C58.4806 37.1275 61.5495 33.3672 60.0513 29.6903L64.2114 26.7599C64.8071 27.5338 65.797 27.8261 66.6796 27.4442L72.493 24.9291C73.612 24.445 74.1635 23.0527 73.722 21.8252L71.0649 14.4386C70.8484 13.8365 70.2276 13.5411 69.6788 13.7786C69.1298 14.0161 68.8604 14.6968 69.0769 15.2988L71.7338 22.6852C71.7429 22.7103 71.7317 22.7389 71.7087 22.7489L65.8953 25.2641C65.8722 25.2739 65.8464 25.2617 65.8373 25.2366C65.6337 24.6707 59.1085 6.53006 58.5315 4.926C58.5293 4.92038 58.5246 4.90725 58.532 4.88866C58.5395 4.87007 58.5516 4.86491 58.5565 4.86257L64.3702 2.34726C64.3751 2.34492 64.387 2.33976 64.4044 2.34789C64.4212 2.35601 64.4259 2.36914 64.428 2.37476L67.2448 10.2051C67.4615 10.8072 68.082 11.1026 68.6308 10.8651C69.1799 10.6276 69.4493 9.94693 69.2328 9.3449L66.416 1.51476C65.9748 0.287577 64.7051 -0.317109 63.5861 0.167109L57.7724 2.68242C56.7337 3.13179 56.1853 4.35429 56.464 5.51319L53.3474 6.77475C52.3777 7.16741 51.3248 7.28131 50.303 7.10366L47.1527 6.556C46.57 6.45491 46.0224 6.891 45.9302 7.52991C45.8379 8.16912 46.2354 8.76959 46.8182 8.87084L49.9685 9.4185C51.3509 9.65865 52.775 9.50475 54.0876 8.97334L57.2323 7.70022C57.5737 8.64928 62.9603 23.6239 63.3137 24.6066L58.7285 27.8364L58.6507 27.7735C58.6504 27.7731 58.65 27.7728 58.6497 27.7727C58.1585 27.375 50.1858 20.9222 49.8116 20.6193C49.5826 20.4338 49.2979 20.3505 48.9705 20.4114C44.544 21.2369 40.5781 19.5107 37.6604 16.1696C36.7526 15.13 35.2715 15.0743 34.288 16.0427C31.4576 18.8307 27.5022 21.5493 24.7348 18.6647C24.4598 18.3783 24.4578 17.8493 24.8754 17.5536C28.4006 15.0666 32.0526 11.5746 34.9914 8.31397C35.7228 7.50225 36.7748 7.12491 37.8073 7.30444L41.8633 8.00959C42.4473 8.111 42.9935 7.67475 43.0858 7.03569C43.1781 6.39647 42.7806 5.79601 42.1978 5.69476L38.1418 4.9896C36.4316 4.69241 34.686 5.31929 33.4717 6.66647C33.1318 7.0435 32.7297 7.48131 32.2764 7.96147C30.9081 7.42944 29.482 7.11163 28.0314 7.02225C23.7852 6.76069 23.4169 6.71131 22.4527 6.77928C21.6959 6.83225 20.926 6.69116 20.2257 6.36991L18.3426 5.50569C18.6144 4.35351 18.0669 3.1296 17.0323 2.6821L11.2188 0.167109C10.0995 -0.317265 8.83005 0.287421 8.38868 1.51476L1.08271 21.8252C0.640344 23.0552 1.18956 24.4438 2.31151 24.9291ZM20.3584 34.3624C19.7322 35.1724 18.622 35.2728 17.8831 34.5859C17.1394 33.8944 17.0551 32.6788 17.6778 31.8733L20.3208 28.4711C20.9321 27.68 22.0454 27.5497 22.796 28.2475C23.5363 28.9358 23.6278 30.1502 22.9998 30.9622C22.9995 30.9625 22.9993 30.9628 22.9991 30.9631L20.3584 34.3624ZM24.6672 38.3695C24.0396 39.1813 22.9328 39.2816 22.1921 38.593C21.4484 37.9014 21.3641 36.6858 21.9868 35.8803L24.6298 32.4781C25.2861 31.6288 26.5027 31.5545 27.2351 32.3886C27.2399 32.3941 27.2441 32.4002 27.2489 32.4058C27.8521 33.1094 27.8915 34.2156 27.3088 34.9694L24.6672 38.3695ZM28.9762 42.3764C28.3464 43.1912 27.2384 43.2855 26.5011 42.5998C25.7574 41.9084 25.6729 40.6928 26.2957 39.8873L28.9387 36.485C29.5666 35.6731 30.681 35.5794 31.414 36.2616C32.1526 36.9486 32.2439 38.1663 31.6177 38.9762C31.6175 38.9766 31.6173 38.9769 31.617 38.9772L28.9762 42.3764ZM35.9411 42.9627C35.9367 42.9686 35.9328 42.9752 35.9283 42.9809C35.502 43.5297 34.3274 45.0417 33.2852 46.3833C32.659 47.1934 31.5488 47.2936 30.8101 46.6069C30.0714 45.92 29.98 44.7023 30.6046 43.8944L33.2477 40.492C33.8774 39.6773 34.9864 39.5834 35.7228 40.2686C36.4474 40.942 36.5584 42.1439 35.9411 42.9627ZM17.5747 7.69444L19.4007 8.5324C20.4028 8.99225 21.5055 9.1949 22.5893 9.1185C23.4065 9.06084 23.6793 9.10178 27.9111 9.36256C28.78 9.41615 29.6391 9.56365 30.4781 9.80303C28.3874 11.8736 26.0395 13.9491 23.6877 15.6054C22.18 16.6669 21.9566 19.0032 23.2626 20.3644C25.0476 22.2246 29.0395 24.363 35.7159 17.7869C35.8355 17.6691 36.0116 17.6707 36.1166 17.7911C39.3507 21.4933 43.9348 23.5613 48.8852 22.7983C49.4461 23.2307 48.36 22.3578 57.3803 29.6589C58.3457 30.4402 58.6158 31.9767 57.86 33.0372C57.1421 34.0445 55.8449 34.2397 54.9076 33.4808C53.6414 32.4558 54.5762 33.2359 50.1248 29.4742C49.6569 29.0791 48.9863 29.1745 48.626 29.6872C48.266 30.1999 48.3529 30.9356 48.8202 31.3308L52.5134 34.4517C53.1497 35.3711 53.0739 36.6997 52.3207 37.5238C51.5801 38.3342 50.3611 38.4108 49.4851 37.702C48.6381 37.0166 49.3418 37.6039 45.4572 34.3239C44.9896 33.9289 44.3186 34.0249 43.9587 34.5377C43.5987 35.0505 43.6859 35.7863 44.1535 36.1811L47.4283 38.9462C48.0467 39.8236 48.0164 41.0855 47.3411 41.9252C46.6145 42.8286 45.3271 42.9544 44.4099 42.2119C42.9361 41.0191 43.6758 41.635 40.8375 39.2258C40.3708 38.8297 39.6997 38.9234 39.3384 39.4353C38.9773 39.9472 39.0628 40.6831 39.5295 41.0792L41.7997 43.0062C42.3162 43.9076 42.215 45.0883 41.5359 45.8673C40.7946 46.7178 39.5596 46.812 38.6628 46.0862L37.2265 44.9237L37.5564 44.4989C38.2144 43.6483 38.554 42.5466 38.4671 41.3873C38.3788 40.2131 37.87 39.1928 37.1048 38.4809C36.3088 37.7408 35.2692 37.3616 34.1634 37.4931C34.1052 36.3609 33.6318 35.2517 32.7958 34.4739C32.0028 33.7366 30.9961 33.3822 29.9585 33.4752C29.9239 33.4783 29.8893 33.4819 29.855 33.4861C29.853 33.4486 29.8518 33.4111 29.849 33.3734C29.781 32.4674 29.459 31.6281 28.9298 30.9511C28.9265 30.9469 28.9235 30.9427 28.9202 30.9385C28.0782 29.8702 26.8248 29.3305 25.5473 29.4811C25.4871 28.3044 25.0007 27.2253 24.1778 26.46C22.5402 24.9374 20.0787 25.1596 18.6921 26.9533L17.0817 29.0263L16.1404 28.3006C16.1259 28.2894 16.1111 28.2785 16.096 28.2681L11.3538 24.988C14.939 15.0213 13.5961 18.7546 17.5747 7.69444ZM3.07059 22.6855L10.3764 2.37507C10.3834 2.3557 10.4002 2.34398 10.418 2.34398C10.4234 2.34398 10.429 2.34507 10.4344 2.34742L16.2479 4.86272C16.2708 4.87257 16.2821 4.90116 16.2731 4.92616C15.9216 5.90335 9.19705 24.5975 8.96711 25.2367C8.9577 25.2622 8.93263 25.2742 8.90926 25.2642L3.0958 22.7489C3.07272 22.7389 3.06133 22.7107 3.07059 22.6855Z" fill="#74B14E"/>
</svg>
