<svg width="71" height="71" viewBox="0 0 71 71" fill="none" xmlns="http://www.w3.org/2000/svg">
<g clip-path="url(#clip0_1400_5943)">
<path d="M67.8204 59.4495C68.3327 58.6933 68.6333 57.781 68.6333 56.8C68.6333 54.1896 66.5104 52.0667 63.9 52.0667C61.2895 52.0667 59.1666 54.1896 59.1666 56.8C59.1666 57.781 59.4672 58.6933 59.9796 59.4495C58.6235 59.9252 57.5573 60.9902 57.0828 62.3463C56.7479 62.1191 56.3752 61.9522 55.9858 61.8162C56.4994 61.06 56.8 60.1477 56.8 59.1667C56.8 56.5562 54.6771 54.4333 52.0666 54.4333C49.4562 54.4333 47.3333 56.5562 47.3333 59.1667C47.3333 60.1477 47.6339 61.06 48.1463 61.8162C47.7581 61.9522 47.3842 62.1191 47.0493 62.3463C46.5736 60.9902 45.5086 59.924 44.1525 59.4495C44.6661 58.6933 44.9666 57.781 44.9666 56.8C44.9666 54.1896 42.8437 52.0667 40.2333 52.0667C37.6229 52.0667 35.5 54.1896 35.5 56.8C35.5 57.781 35.8005 58.6933 36.3129 59.4495C34.4681 60.0968 33.1333 61.8363 33.1333 63.9V67.45C33.1333 68.1044 33.6623 68.6333 34.3166 68.6333H44.9666V69.8167C44.9666 70.4711 45.4956 71 46.15 71H57.9833C58.6377 71 59.1666 70.4711 59.1666 69.8167V68.6333H69.8166C70.471 68.6333 71 68.1044 71 67.45V63.9C71 61.8363 69.6652 60.0968 67.8204 59.4495ZM40.2333 54.4333C41.5385 54.4333 42.6 55.4948 42.6 56.8C42.6 58.1052 41.5385 59.1667 40.2333 59.1667C38.9281 59.1667 37.8666 58.1052 37.8666 56.8C37.8666 55.4948 38.9281 54.4333 40.2333 54.4333ZM44.9666 66.2667H35.5V63.9C35.5 62.5948 36.5614 61.5333 37.8666 61.5333H42.6C43.9052 61.5333 44.9666 62.5948 44.9666 63.9V66.2667ZM52.0666 56.8C53.3719 56.8 54.4333 57.8615 54.4333 59.1667C54.4333 60.4719 53.3719 61.5333 52.0666 61.5333C50.7614 61.5333 49.7 60.4719 49.7 59.1667C49.7 57.8615 50.7614 56.8 52.0666 56.8ZM56.8 67.45V68.6333H47.3333V67.45V66.2667C47.3333 64.9615 48.3948 63.9 49.7 63.9H54.4333C55.7385 63.9 56.8 64.9615 56.8 66.2667V67.45ZM63.9 54.4333C65.2052 54.4333 66.2666 55.4948 66.2666 56.8C66.2666 58.1052 65.2052 59.1667 63.9 59.1667C62.5948 59.1667 61.5333 58.1052 61.5333 56.8C61.5333 55.4948 62.5948 54.4333 63.9 54.4333ZM68.6333 66.2667H59.1666V63.9C59.1666 62.5948 60.2281 61.5333 61.5333 61.5333H66.2666C67.5719 61.5333 68.6333 62.5948 68.6333 63.9V66.2667Z" fill="#99C481"/>
<path d="M36.3366 38.2134L30.42 32.2967C30.1987 32.0743 29.8981 31.95 29.5833 31.95H23.6667V26.0333C23.6667 25.379 23.1377 24.85 22.4833 24.85H1.18333C0.52895 24.85 0 25.379 0 26.0333V41.4167V49.7C0 50.3544 0.52895 50.8833 1.18333 50.8833H4.90137C5.43032 52.9199 7.26685 54.4333 9.46667 54.4333C11.6665 54.4333 13.503 52.9199 14.032 50.8833H23.8347C24.3637 52.9199 26.2002 54.4333 28.4 54.4333C30.5998 54.4333 32.4364 52.9199 32.9653 50.8833H35.5C36.1544 50.8833 36.6833 50.3544 36.6833 49.7V39.05C36.6833 38.7352 36.5591 38.4347 36.3366 38.2134ZM2.36667 27.2167H21.3V33.1333V40.2333H2.36667V27.2167ZM9.46667 52.0667C8.16145 52.0667 7.1 51.0052 7.1 49.7C7.1 48.3948 8.16145 47.3333 9.46667 47.3333C10.7719 47.3333 11.8333 48.3948 11.8333 49.7C11.8333 51.0052 10.7719 52.0667 9.46667 52.0667ZM28.4 52.0667C27.0948 52.0667 26.0333 51.0052 26.0333 49.7C26.0333 48.3948 27.0948 47.3333 28.4 47.3333C29.7052 47.3333 30.7667 48.3948 30.7667 49.7C30.7667 51.0052 29.7052 52.0667 28.4 52.0667ZM34.3167 48.5167H32.9831C32.9416 48.3557 32.8777 48.2043 32.8198 48.0493C32.7914 47.9735 32.7724 47.8954 32.7405 47.8209C32.6269 47.5605 32.4932 47.3109 32.337 47.0777C32.3026 47.0257 32.2589 46.9807 32.221 46.9298C32.092 46.7511 31.9547 46.5807 31.8021 46.4222C31.7323 46.35 31.6565 46.2873 31.5832 46.2198C31.4471 46.0956 31.3086 45.9772 31.1584 45.8696C31.0708 45.8057 30.9809 45.7477 30.8886 45.6909C30.7359 45.5962 30.5785 45.511 30.414 45.4329C30.317 45.3868 30.2212 45.3406 30.1194 45.3004C29.9383 45.2294 29.7502 45.1749 29.5597 45.1264C29.4674 45.1028 29.3798 45.0732 29.2863 45.0554C28.9988 45.001 28.7041 44.9667 28.4 44.9667C28.0959 44.9667 27.8012 45.001 27.5125 45.0566C27.419 45.0744 27.3303 45.1051 27.2392 45.1276C27.0475 45.1761 26.8605 45.2306 26.6794 45.3016C26.5789 45.3418 26.483 45.3879 26.3848 45.4341C26.2215 45.5122 26.0629 45.5962 25.9103 45.6921C25.818 45.75 25.728 45.8068 25.6405 45.8707C25.4914 45.9784 25.3517 46.0968 25.2157 46.221C25.1423 46.2885 25.0666 46.3512 24.9967 46.4234C24.8441 46.5819 24.7068 46.7523 24.5778 46.931C24.5412 46.9819 24.4974 47.0269 24.4619 47.0789C24.3057 47.3132 24.1708 47.5617 24.0584 47.8221C24.0264 47.8954 24.0075 47.9747 23.9791 48.0504C23.9211 48.2043 23.8572 48.3557 23.8158 48.5179H14.0485C14.0071 48.3569 13.9432 48.2055 13.8852 48.0504C13.8568 47.9747 13.8379 47.8966 13.806 47.8221C13.6924 47.5617 13.5586 47.312 13.4024 47.0789C13.3681 47.0269 13.3243 46.9819 13.2865 46.931C13.1575 46.7523 13.0202 46.5819 12.8676 46.4234C12.7978 46.3512 12.722 46.2885 12.6487 46.221C12.5126 46.0968 12.3741 45.9784 12.2238 45.8707C12.1363 45.8068 12.0463 45.7489 11.954 45.6921C11.8014 45.5974 11.644 45.5122 11.4795 45.4341C11.3825 45.3879 11.2866 45.3418 11.1849 45.3016C11.0038 45.2306 10.8157 45.1761 10.6252 45.1276C10.5329 45.1039 10.4453 45.0744 10.3518 45.0566C10.0654 45.001 9.77078 44.9667 9.46667 44.9667C9.16255 44.9667 8.8679 45.001 8.57917 45.0566C8.48568 45.0744 8.39693 45.1051 8.30582 45.1276C8.11412 45.1761 7.92715 45.2306 7.7461 45.3016C7.64552 45.3418 7.54967 45.3879 7.45145 45.4341C7.28815 45.5122 7.12958 45.5962 6.97693 45.6921C6.88463 45.75 6.7947 45.8068 6.70713 45.8707C6.55803 45.9784 6.4184 46.0968 6.28232 46.221C6.20895 46.2885 6.13322 46.3512 6.0634 46.4234C5.91075 46.5819 5.77348 46.7523 5.6445 46.931C5.60782 46.9819 5.56403 47.0269 5.52853 47.0789C5.37233 47.3132 5.23743 47.5617 5.12502 47.8221C5.09307 47.8954 5.07413 47.9747 5.04573 48.0504C4.98893 48.2043 4.92503 48.3557 4.88362 48.5167H2.36667V42.6H22.4833C23.1377 42.6 23.6667 42.0711 23.6667 41.4167V34.3167H29.0934L34.3167 39.5399V48.5167Z" fill="#99C481"/>
<path d="M69.8166 1.52588e-05H62.7166C62.0623 1.52588e-05 61.5333 0.528965 61.5333 1.18335V14.7278L54.4333 19.1653V15.3833C54.4333 14.9538 54.2002 14.5574 53.8227 14.3479C53.4488 14.1408 52.9873 14.1503 52.6216 14.3799L44.9666 19.1653V15.3833C44.9666 14.9538 44.7335 14.5574 44.356 14.3479C43.9809 14.1408 43.5206 14.1503 43.155 14.3799L33.6883 20.2966C33.3439 20.5131 33.1333 20.8918 33.1333 21.3V30.7667C33.1333 31.4211 33.6623 31.95 34.3166 31.95H43.7833H53.25H62.7166H69.8166C70.471 31.95 71 31.4211 71 30.7667V18.9333V1.18335C71 0.528965 70.471 1.52588e-05 69.8166 1.52588e-05ZM42.6 21.3V29.5834H35.5V21.9568L42.6 17.5193V21.3ZM52.0666 21.3V29.5834H44.9666V21.9568L52.0666 17.5193V21.3ZM61.5333 18.9333V29.5834H54.4333V21.9568L61.5333 17.5193V18.9333ZM68.6333 29.5834H63.9V20.1167H68.6333V29.5834ZM68.6333 17.75H63.9V15.3833V2.36668H68.6333V17.75Z" fill="#99C481"/>
<path d="M49.7002 23.6667H47.3335V27.2167H49.7002V23.6667Z" fill="#99C481"/>
<path d="M59.1665 23.6667H56.7998V27.2167H59.1665V23.6667Z" fill="#99C481"/>
<path d="M40.2334 23.6667H37.8667V27.2167H40.2334V23.6667Z" fill="#99C481"/>
<path d="M63.5393 38.8441C63.421 39.592 63.2695 40.3422 63.0908 41.07L65.39 41.632C65.5829 40.8416 65.7462 40.0298 65.8764 39.2204L63.5393 38.8441Z" fill="#99C481"/>
<path d="M63.9 34.3167C63.9 35.0787 63.8704 35.842 63.8101 36.5863L66.1696 36.7756C66.2347 35.9686 66.2667 35.1403 66.2667 34.3167H63.9Z" fill="#99C481"/>
<path d="M60.6965 47.4327C60.3498 48.1001 59.9699 48.7628 59.5664 49.403L61.5698 50.6621C62.0064 49.9674 62.4194 49.2503 62.7945 48.5261L60.6965 47.4327Z" fill="#99C481"/>
<path d="M62.4647 43.2532C62.2268 43.9691 61.957 44.6839 61.6636 45.3785L63.8433 46.3003C64.1616 45.5489 64.4539 44.7738 64.7107 43.9975L62.4647 43.2532Z" fill="#99C481"/>
<path d="M15.3195 12.2759C14.7018 12.8144 14.0995 13.3824 13.5303 13.9622L15.2201 15.6189C15.7455 15.0828 16.3016 14.5586 16.8744 14.0604L15.3195 12.2759Z" fill="#99C481"/>
<path d="M45.3065 6.32967L44.5527 8.57327C45.2651 8.81112 45.9775 9.08447 46.6733 9.38267L47.6069 7.2077C46.8508 6.88465 46.0769 6.58882 45.3065 6.32967Z" fill="#99C481"/>
<path d="M19.2765 9.35307C18.5854 9.78262 17.9003 10.2477 17.2388 10.7352L18.6458 12.6392C19.2552 12.1883 19.8871 11.7588 20.5237 11.3636L19.2765 9.35307Z" fill="#99C481"/>
<path d="M9.03812 19.7971C8.62632 20.487 8.23109 21.216 7.86426 21.9615L9.98834 23.0063C10.3268 22.3188 10.6912 21.6467 11.0699 21.0101L9.03812 19.7971Z" fill="#99C481"/>
<path d="M11.8796 15.7857C11.3506 16.4188 10.8453 17.0744 10.3779 17.7347L12.3103 19.1026C12.7422 18.4908 13.2085 17.8861 13.696 17.3016L11.8796 15.7857Z" fill="#99C481"/>
<path d="M35.6335 4.73335L35.624 7.10002C36.3849 7.10357 37.1482 7.1367 37.8937 7.19942L38.0925 4.84222C37.2854 4.77359 36.4583 4.7369 35.6335 4.73335Z" fill="#99C481"/>
<path d="M40.5337 5.14395L40.1479 7.47867C40.8994 7.60292 41.6472 7.75675 42.3714 7.93898L42.9442 5.64213C42.1572 5.4457 41.3467 5.27767 40.5337 5.14395Z" fill="#99C481"/>
<path d="M49.8279 8.2668L48.7227 10.3613C49.3865 10.7104 50.048 11.0938 50.6894 11.5008L51.9555 9.5022C51.2621 9.06082 50.5462 8.64665 49.8279 8.2668Z" fill="#99C481"/>
<path d="M33.1758 4.81857C32.3557 4.88129 31.5333 4.97596 30.7334 5.09902L31.0967 7.43847C31.8374 7.32251 32.5971 7.23612 33.3545 7.17814L33.1758 4.81857Z" fill="#99C481"/>
<path d="M23.643 7.10117C22.8916 7.41593 22.1413 7.7662 21.4136 8.14132L22.4975 10.2441C23.1696 9.89738 23.8631 9.57552 24.5553 9.2856L23.643 7.10117Z" fill="#99C481"/>
<path d="M28.3194 5.57585C27.5278 5.764 26.7302 5.99002 25.9492 6.24443L26.6841 8.49277C27.4035 8.25847 28.1384 8.0502 28.8673 7.87625L28.3194 5.57585Z" fill="#99C481"/>
<path d="M24.6961 62.0907L23.8618 64.3047C24.6274 64.5934 25.4143 64.855 26.2001 65.0786L26.8521 62.8042C26.1291 62.596 25.4037 62.3558 24.6961 62.0907Z" fill="#99C481"/>
<path d="M20.5936 60.1536L19.415 62.2055C20.1274 62.6137 20.8611 62.9959 21.5971 63.3438L22.6077 61.2032C21.9273 60.8825 21.2492 60.5299 20.5936 60.1536Z" fill="#99C481"/>
<path d="M29.0592 63.3415L28.5918 65.662C29.3965 65.8241 30.213 65.9555 31.0212 66.0525L31.3028 63.7024C30.5573 63.6137 29.8035 63.4918 29.0592 63.3415Z" fill="#99C481"/>
<path d="M13.8839 54.812L12.1479 56.4202C12.5858 56.8935 13.0414 57.3538 13.5088 57.7999L15.1406 56.0853C14.7087 55.6747 14.2898 55.2487 13.8839 54.812Z" fill="#99C481"/>
<path d="M16.8485 57.5846L15.3599 59.4247C16 59.943 16.6627 60.4376 17.3313 60.8956L18.6696 58.9454C18.0543 58.5206 17.4402 58.0638 16.8485 57.5846Z" fill="#99C481"/>
</g>
<defs>
<clipPath id="clip0_1400_5943">
<rect width="71" height="71" fill="white"/>
</clipPath>
</defs>
</svg>
