<svg width="67" height="72" viewBox="0 0 67 72" fill="none" xmlns="http://www.w3.org/2000/svg">
<path d="M63.9413 69.3004C63.9413 69.4661 63.8189 69.6004 63.6678 69.6004H33.3047V72.0004H63.6678C65.0267 71.9986 66.128 70.7908 66.1297 69.3004V26.4004H63.9413V69.3004Z" fill="#74B14E"/>
<path d="M63.6675 0H23.7304C22.3715 0.0018 21.2702 1.2096 21.2686 2.7V24H23.4569V2.7C23.4569 2.53425 23.5793 2.4 23.7304 2.4H63.6675C63.8186 2.4 63.941 2.53425 63.941 2.7V24H66.1294V2.7C66.1277 1.2096 65.0264 0.0018 63.6675 0Z" fill="#74B14E"/>
<path d="M59.884 29.1514L52.9986 36.703L50.4898 33.9514L48.9424 35.6485L52.2249 39.2485C52.6522 39.7171 53.3449 39.7171 53.7723 39.2485L61.4315 30.8485L59.884 29.1514Z" fill="#74B14E"/>
<path d="M45.3398 43.1998C45.3398 43.8625 45.8298 44.3998 46.434 44.3998H57.3757V41.9998H47.5282V31.1998H55.1873V28.7998H46.434C45.8298 28.7998 45.3398 29.3371 45.3398 29.9998V43.1998Z" fill="#74B14E"/>
<path d="M50.4898 54.3518L48.9424 56.0489L52.2249 59.6489C52.6522 60.1175 53.3449 60.1175 53.7723 59.6489L61.4315 51.2489L59.884 49.5518L52.9986 57.1034L50.4898 54.3518Z" fill="#74B14E"/>
<path d="M45.3398 63.6002C45.3398 64.2629 45.8298 64.8002 46.434 64.8002H57.3757V62.4002H47.5282V51.6002H55.1873V49.2002H46.434C45.8298 49.2002 45.3398 49.7375 45.3398 50.4002V63.6002Z" fill="#74B14E"/>
<path d="M59.884 7.55176L52.9986 15.1034L50.4898 12.3518L48.9424 14.0489L52.2249 17.6489C52.6522 18.1175 53.3449 18.1175 53.7723 17.6489L61.4315 9.24886L59.884 7.55176Z" fill="#74B14E"/>
<path d="M45.3398 8.40019V21.6002C45.3398 22.2629 45.8298 22.8002 46.434 22.8002H57.3757V20.4002H47.5282V9.60019H55.1873V7.2002H46.434C45.8298 7.2002 45.3398 7.7375 45.3398 8.40019Z" fill="#74B14E"/>
<path d="M30.7955 12.3518L29.248 14.0489L32.5305 17.6489C32.9578 18.1175 33.6506 18.1175 34.078 17.6489L41.7371 9.24886L40.1897 7.55176L33.3043 15.1034L30.7955 12.3518Z" fill="#74B14E"/>
<path d="M25.6455 8.40019V21.6002C25.6455 22.2629 26.1354 22.8002 26.7397 22.8002H37.6813V20.4002H27.8338V9.60019H35.493V7.2002H26.7397C26.1354 7.2002 25.6455 7.7375 25.6455 8.40019Z" fill="#74B14E"/>
<path d="M42.0578 49.2004C42.0578 36.6284 32.7318 26.4004 21.2687 26.4004C9.80548 26.4004 0.479492 36.6284 0.479492 49.2004H2.66782C2.66782 37.9519 11.0121 28.8004 21.2687 28.8004C31.5252 28.8004 39.8695 37.9519 39.8695 49.2004C39.8695 60.4489 31.5252 69.6004 21.2687 69.6004C11.8003 69.5869 3.84706 61.7863 2.78189 51.4679L0.607236 51.7328C1.79577 63.2665 10.6853 71.9866 21.2687 72.0004C32.7318 72.0004 42.0578 61.7723 42.0578 49.2004Z" fill="#74B14E"/>
<path d="M20.1748 51.0229L15.1143 55.4628L16.482 57.3369L21.9528 52.5369C22.2122 52.3091 22.3632 51.9642 22.3631 51.5996V39.5996H20.1748V51.0229Z" fill="#74B14E"/>
<path d="M22.3629 33.646C23.3695 33.73 24.3649 33.9321 25.3323 34.2486L25.9585 31.9488C17.2575 29.0923 8.09251 34.5124 5.48798 44.055C2.88346 53.5975 7.82553 63.649 16.5265 66.5054C25.2274 69.3619 34.3924 63.9418 36.997 54.3993C39.3241 45.8734 35.6328 36.7605 28.3042 32.9388L27.3632 35.1055C28.5009 35.7001 29.5611 36.4588 30.5158 37.3612L29.0057 39.0174L30.553 40.7146L32.0599 39.0625C34.0211 41.5752 35.2077 44.7034 35.4501 48.0003H33.3046V50.4003H35.4519C35.2215 53.7013 34.0355 56.8352 32.0668 59.345L30.5537 57.6854L29.0064 59.3827L30.5194 61.0421C28.2309 63.2015 25.3731 64.5025 22.3629 64.7552V62.4002H20.1746V64.7552C17.1648 64.5026 14.3072 63.2018 12.0188 61.0429L13.5317 59.3834L11.9845 57.6862L10.4714 59.345C8.50269 56.8352 7.31661 53.7013 7.08629 50.4003H9.2329V48.0003H7.08629C7.31661 44.6992 8.50269 41.5653 10.4714 39.0555L11.9845 40.7151L13.5317 39.0178L12.0188 37.3584C14.3072 35.1994 17.1648 33.8986 20.1746 33.646V36.0003H22.3629V33.646Z" fill="#74B14E"/>
</svg>
