<svg width="65" height="64" viewBox="0 0 65 64" fill="none" xmlns="http://www.w3.org/2000/svg">
<path d="M59.9842 44.678L38.1814 50.1662C37.9942 49.5246 37.6489 48.9184 37.1449 48.4144L30.1987 41.4682C29.337 40.6071 28.1919 40.133 26.9737 40.133H13.1182C12.8568 37.7446 10.828 35.8793 8.3698 35.8793H4.77685C2.1428 35.8793 0 38.0216 0 40.6562V50.2698C0 50.792 0.423943 51.2154 0.945643 51.2154C1.46783 51.2154 1.89178 50.792 1.89178 50.2698V40.6562C1.89178 39.0646 3.18669 37.7711 4.77685 37.7711H8.3698C9.78114 37.7711 10.9601 38.7909 11.2072 40.133C11.2775 40.5108 11.2554 39.3794 11.2554 57.4366C11.2554 59.0282 9.96044 60.3221 8.3698 60.3221H4.77685C3.18669 60.3221 1.89178 59.0282 1.89178 57.4366V54.0529C1.89178 53.5312 1.46783 53.1072 0.945643 53.1072C0.423943 53.1072 0 53.5312 0 54.0529V57.4366C0 60.0711 2.1428 62.2139 4.77685 62.2139H8.3698C11.0043 62.2139 13.1471 60.0711 13.1471 57.4366V55.7624C20.113 56.9655 18.6142 56.5273 28.9961 61.6067C30.683 62.4325 32.31 64 35.7522 64C37.5875 64 39.3761 63.4838 40.9294 62.5062L58.9197 53.3843C59.3859 53.148 59.5721 52.5786 59.3358 52.113C59.0995 51.6473 58.5301 51.4611 58.0644 51.6969C57.9996 51.7298 40.0147 60.8458 39.9538 60.8846C38.6952 61.6853 37.2426 62.1083 35.7522 62.1083C32.8828 62.1083 31.6365 60.7932 29.8273 59.9075C19.271 54.7431 20.7712 55.1596 13.1471 53.8431V42.0243H26.9742C27.6879 42.0243 28.3575 42.3018 28.862 42.8064L35.8067 49.7511C37.1748 51.1192 36.2547 53.4147 34.3605 53.4147C33.7951 53.4147 33.263 53.1942 32.8622 52.7943L26.6057 46.5354C26.2363 46.166 25.637 46.166 25.2676 46.5354C24.8982 46.9048 24.8982 47.5041 25.2676 47.8735L31.525 54.1325C33.7808 56.3809 37.6641 55.2333 38.2718 52.0943C61.6456 46.2102 60.3551 46.5157 60.5899 46.5157C62.5023 46.5157 63.1498 49.1183 61.4393 49.9859C60.9731 50.2222 60.7869 50.7915 61.0232 51.2572C61.259 51.7234 61.8283 51.9096 62.2945 51.6733C63.6877 50.9669 64.3234 49.6047 64.3234 48.3633C64.3234 45.7975 61.8126 44.2177 59.9842 44.678Z" fill="#259B22"/>
<path d="M63.1204 23.2524L58.5597 21.5925C58.5902 21.0487 58.5902 20.5118 58.5597 19.9655L63.12 18.3056C64.1206 17.9421 64.6354 16.8378 64.2714 15.8371L62.7225 11.5815C62.3595 10.5838 61.2518 10.067 60.254 10.43L55.6938 12.0899C55.3691 11.6561 55.0194 11.2401 54.6475 10.8441L57.0742 6.64105C57.6053 5.72144 57.2889 4.54098 56.3693 4.00995L52.4472 1.74581C52.0016 1.4884 51.4829 1.41963 50.9858 1.55324C50.4891 1.68637 50.0735 2.00519 49.8166 2.45074L47.3908 6.65136C46.8637 6.52806 46.3278 6.43423 45.7874 6.37086L44.9449 1.59156C44.7602 0.545704 43.7596 -0.154809 42.7137 0.0294074L38.2537 0.815396C37.2079 1.0001 36.5069 2.00077 36.6916 3.04662L37.5341 7.82396C37.0502 8.06909 36.5791 8.34124 36.1247 8.63942L32.4074 5.52003C31.5905 4.83426 30.3771 4.94331 29.6943 5.75779L26.7832 9.22695C26.0989 10.0419 26.205 11.2558 27.0205 11.9401L30.7362 15.058C30.522 15.5571 30.3359 16.069 30.1792 16.5887H25.3286C24.2666 16.5887 23.403 17.4528 23.403 18.5149V23.0432C23.403 24.1052 24.2666 24.9693 25.3286 24.9693H30.1792C30.3359 25.4896 30.522 26.0009 30.7362 26.5L27.0205 29.6175C26.207 30.3003 26.1004 31.5176 26.7832 32.3316L29.6943 35.8007C30.3766 36.6137 31.5939 36.7203 32.4074 36.038L36.1247 32.9186C36.5791 33.2168 37.0502 33.489 37.5341 33.7341L36.6916 38.5114C36.5069 39.5597 37.2054 40.5574 38.2537 40.7426L42.7137 41.5286C43.7542 41.7133 44.7597 41.0168 44.9449 39.9665L45.7874 35.1872C46.3278 35.1238 46.8637 35.03 47.3913 34.9067L49.8166 39.1073C50.3476 40.0274 51.5276 40.3438 52.4477 39.8127L56.3698 37.5481C57.2894 37.0171 57.6053 35.8371 57.0742 34.9175L54.6475 30.7139C55.0194 30.3185 55.3691 29.9019 55.6938 29.4681L60.254 31.128C61.2527 31.4911 62.3575 30.9792 62.7225 29.9766L64.2714 25.7214C64.6354 24.7208 64.1211 23.6164 63.1204 23.2524ZM62.4941 25.074L60.9452 29.3296C60.9433 29.334 60.9403 29.3429 60.927 29.3488C60.9143 29.3551 60.9054 29.3517 60.901 29.3502L55.6639 27.4437C55.2552 27.2954 54.7978 27.4442 54.5551 27.8053C54.0516 28.5549 53.4656 29.253 52.8127 29.8798C52.4988 30.1814 52.431 30.6579 52.6486 31.0347L55.4359 35.8626C55.4458 35.8793 55.4399 35.9005 55.4236 35.9098L51.5016 38.1739C51.4854 38.1838 51.4642 38.1779 51.4544 38.1617L48.6686 33.3367C48.4514 32.9599 48.0049 32.7801 47.5868 32.9009C46.7223 33.151 45.8248 33.3082 44.9189 33.3681C44.4846 33.3966 44.1255 33.7184 44.0499 34.1477L43.0821 39.6378C43.0787 39.6565 43.061 39.6688 43.0419 39.6658C42.9898 39.6565 38.545 38.8921 38.5544 38.8396L39.5221 33.3524C39.5973 32.924 39.3708 32.4991 38.9734 32.3232C38.1481 31.9577 37.3592 31.5014 36.6287 30.9669C36.2765 30.709 35.7951 30.7257 35.462 31.0052L31.1916 34.5884C31.1774 34.6006 31.1558 34.5987 31.1435 34.5844L28.2324 31.1153C28.2201 31.1005 28.222 31.0789 28.2363 31.0666L32.5047 27.485C32.8387 27.205 32.938 26.7334 32.7454 26.3428C32.3465 25.5318 32.0346 24.6756 31.8194 23.7977C31.7158 23.3748 31.3365 23.0775 30.9008 23.0775H25.3286C25.3095 23.0775 25.2942 23.0623 25.2942 23.0432V18.5144C25.2942 18.4957 25.3095 18.48 25.3286 18.48H30.9008C31.3365 18.48 31.7153 18.1828 31.8194 17.7598C32.0346 16.8825 32.3465 16.0262 32.7454 15.2152C32.938 14.8242 32.8387 14.3526 32.5047 14.0726L28.2363 10.4909C28.2329 10.4885 28.2255 10.4821 28.224 10.4678C28.223 10.4536 28.2289 10.4462 28.2324 10.4428L31.143 6.97362C31.1464 6.97018 31.1523 6.96281 31.1666 6.96134C31.1808 6.96036 31.1882 6.96625 31.1916 6.9692L35.462 10.5523C35.7955 10.8328 36.2775 10.8485 36.6287 10.5911C37.3592 10.0562 38.1481 9.5998 38.9734 9.23481C39.3708 9.05895 39.5973 8.63402 39.5221 8.20566L38.5544 2.71847C38.5509 2.6998 38.5637 2.68163 38.5824 2.67868L43.0424 1.8922C43.0468 1.89171 43.0561 1.88974 43.0679 1.8981C43.0797 1.90596 43.0812 1.91578 43.0821 1.9202L44.0499 7.41033C44.1255 7.83919 44.4846 8.16144 44.9189 8.18994C45.8253 8.24987 46.7228 8.40707 47.5868 8.65711C48.0049 8.77795 48.4514 8.59816 48.6691 8.22187L51.4544 3.39639C51.4569 3.39246 51.4618 3.38411 51.4755 3.38067C51.4893 3.37674 51.4976 3.38165 51.5016 3.38411L55.4236 5.64825C55.4399 5.65758 55.4458 5.6787 55.4364 5.6954L52.6486 10.5233C52.431 10.9001 52.4988 11.3766 52.8127 11.6783C53.4656 12.3056 54.0521 13.0036 54.5551 13.7528C54.7978 14.1138 55.2552 14.2622 55.6639 14.1138L60.901 12.2078C60.9187 12.2019 60.9383 12.2108 60.9452 12.2284L62.4941 16.4841C62.4956 16.4885 62.499 16.4973 62.4926 16.5101C62.4867 16.5234 62.4779 16.5263 62.4735 16.5283L57.2354 18.4343C56.8271 18.5832 56.5727 18.9914 56.6188 19.4237C56.7117 20.2937 56.7191 21.1951 56.6188 22.1344C56.5727 22.5667 56.8271 22.9749 57.2354 23.1237L62.4735 25.0297C62.4779 25.0317 62.4867 25.0347 62.4926 25.0479C62.499 25.0607 62.4956 25.0695 62.4941 25.074Z" fill="#259B22"/>
<path d="M51.4532 14.6239L40.8192 25.2579L36.3376 20.7763C35.9682 20.4073 35.3694 20.4073 35 20.7763C34.6305 21.1457 34.6305 21.7445 35 22.1139L39.5872 26.7011C40.2681 27.382 41.3704 27.382 42.0513 26.7011L52.7908 15.9616C53.1602 15.5922 53.1602 14.9933 52.7908 14.6239C52.4214 14.2545 51.8226 14.2545 51.4532 14.6239Z" fill="#259B22"/>
</svg>
