<svg width="35" height="35" viewBox="0 0 35 35" fill="none" xmlns="http://www.w3.org/2000/svg">
<g clip-path="url(#clip0_1400_6288)">
<path d="M17.5 0C14.0388 0 10.6554 1.02636 7.77753 2.94928C4.89967 4.87221 2.65665 7.60533 1.33212 10.803C0.00758243 14.0007 -0.338976 17.5194 0.336265 20.9141C1.01151 24.3088 2.67822 27.427 5.12564 29.8744C7.57306 32.3218 10.6913 33.9885 14.0859 34.6637C17.4806 35.339 20.9993 34.9924 24.197 33.6679C27.3947 32.3434 30.1278 30.1003 32.0507 27.2225C33.9737 24.3446 35 20.9612 35 17.5C35 12.8587 33.1563 8.40752 29.8744 5.12563C26.5925 1.84374 22.1413 0 17.5 0ZM21.9349 15.8421L21.6447 18.2806C21.6322 18.3938 21.5782 18.4983 21.4932 18.574C21.4081 18.6496 21.2981 18.6912 21.1842 18.6905H18.6513V25.9207C18.6519 26.0071 18.6184 26.0901 18.558 26.1518C18.4976 26.2135 18.4153 26.2488 18.329 26.25H15.75C15.7071 26.2494 15.6647 26.2403 15.6252 26.2234C15.5858 26.2064 15.5501 26.1818 15.5201 26.151C15.4902 26.1202 15.4666 26.0838 15.4508 26.0439C15.4349 26.004 15.427 25.9614 15.4276 25.9184L15.4415 18.6905H13.5234C13.4012 18.6905 13.2841 18.6419 13.1977 18.5556C13.1114 18.4692 13.0628 18.3521 13.0628 18.2299V15.7938C13.0628 15.6716 13.1114 15.5545 13.1977 15.4681C13.2841 15.3817 13.4012 15.3332 13.5234 15.3332H15.4276V12.9707C15.4276 10.2375 17.0556 8.75 19.4342 8.75H21.3845C21.5067 8.75 21.6238 8.79852 21.7102 8.88489C21.7966 8.97125 21.8451 9.08839 21.8451 9.21053V11.2622C21.8451 11.3843 21.7966 11.5014 21.7102 11.5878C21.6238 11.6742 21.5067 11.7227 21.3845 11.7227H20.1895C18.8954 11.7434 18.6513 12.3628 18.6513 13.2885V15.3263H21.4882C21.5524 15.3278 21.6157 15.3427 21.6738 15.37C21.732 15.3974 21.7837 15.4366 21.8258 15.4852C21.8679 15.5338 21.8993 15.5907 21.9181 15.6521C21.9369 15.7136 21.9426 15.7783 21.9349 15.8421Z" fill="#00491A"/>
</g>
<defs>
<clipPath id="clip0_1400_6288">
<rect width="35" height="35" fill="white"/>
</clipPath>
</defs>
</svg>
