<svg width="64" height="64" viewBox="0 0 64 64" fill="none" xmlns="http://www.w3.org/2000/svg">
<g clip-path="url(#clip0_1400_5391)">
<path d="M44.2562 24.6855C44.9604 24.9737 45.7822 24.5615 45.9751 23.8279C46.2719 22.6964 46.4226 21.5238 46.4226 20.3432C46.4226 19.1706 46.2737 18.0048 45.98 16.8778C45.7885 16.1423 44.965 15.7293 44.2595 16.0186C43.3239 16.4029 42.2359 16.0304 41.7289 15.1526C41.2216 14.2744 41.4434 13.1469 42.2447 12.5299C42.8474 12.066 42.9048 11.1466 42.3645 10.6112C40.689 8.9506 38.6056 7.74571 36.3399 7.12653C35.6047 6.92504 34.8369 7.43708 34.7373 8.19135C34.6048 9.19577 33.7388 9.95323 32.7228 9.95323C31.7067 9.95323 30.8407 9.19577 30.7082 8.19135C30.6086 7.4372 29.8409 6.92504 29.1056 7.12653C26.8404 7.74558 24.7573 8.95047 23.0817 10.6112C22.5418 11.1464 22.5988 12.0654 23.2012 12.5294C24.0022 13.1469 24.2241 14.2748 23.7173 15.1527C23.2103 16.0306 22.1227 16.4025 21.187 16.0186C20.4818 15.7292 19.6583 16.1423 19.4664 16.8778C19.1726 18.0044 19.0237 19.1705 19.0237 20.3433C19.0237 21.524 19.1743 22.6966 19.4714 23.828C19.664 24.562 20.4859 24.9735 21.1903 24.6855C22.1248 24.303 23.2108 24.6758 23.7171 25.5524C24.2218 26.4273 24.003 27.553 23.208 28.1709C22.9177 28.3966 22.7387 28.7363 22.7167 29.1033C22.6949 29.4702 22.8322 29.8289 23.0936 30.0873C24.7681 31.743 26.8479 32.944 29.1085 33.5609C29.8405 33.7604 30.6061 33.2547 30.7097 32.5029C30.8467 31.5051 31.7122 30.7526 32.7228 30.7526C33.7333 30.7526 34.5987 31.5051 34.7358 32.5027C34.8389 33.2535 35.6046 33.7607 36.3369 33.5609C38.5978 32.9441 40.678 31.7431 42.3527 30.0873C42.8923 29.5537 42.8378 28.6367 42.2383 28.1709C41.4429 27.5528 41.2239 26.4273 41.7291 25.5526C42.2354 24.6755 43.322 24.3027 44.2562 24.6855ZM39.5177 24.2755C38.6373 25.7997 38.7328 27.6625 39.65 29.0755C38.7896 29.7586 37.8326 30.3118 36.8144 30.7142C36.0499 29.213 34.484 28.1986 32.7229 28.1986C30.962 28.1986 29.3961 29.2131 28.6315 30.7142C27.6134 30.3115 26.6568 29.7588 25.7964 29.0754C26.7132 27.6627 26.8087 25.8001 25.9289 24.2756C25.0469 22.7476 23.3821 21.8987 21.6984 21.9899C21.6181 21.447 21.5776 20.8965 21.5776 20.3432C21.5776 19.7968 21.6173 19.2523 21.6959 18.715C23.3823 18.8076 25.0461 17.9583 25.9289 16.4297C26.8127 14.8991 26.7137 13.0312 25.7886 11.6174C26.6485 10.9334 27.6049 10.3796 28.623 9.97596C29.3836 11.4863 30.9524 12.5071 32.7228 12.5071C34.4931 12.5071 36.0619 11.4862 36.8225 9.97596C37.8409 10.3795 38.7974 10.9333 39.6573 11.6173C38.7315 13.031 38.6329 14.8991 39.5175 16.4301C40.4001 17.9584 42.0625 18.8062 43.7503 18.7151C43.8288 19.2526 43.8685 19.7971 43.8685 20.3435C43.8685 20.8966 43.8281 21.4474 43.7477 21.9902C42.0635 21.8999 40.3993 22.7479 39.5177 24.2755Z" fill="#259B22"/>
<path d="M32.7227 14.8083C29.671 14.8083 27.1881 17.291 27.1881 20.3429C27.1881 23.3947 29.6708 25.8775 32.7227 25.8775C35.7745 25.8775 38.2573 23.3947 38.2573 20.3429C38.2573 17.291 35.7743 14.8083 32.7227 14.8083ZM32.7227 23.3236C31.0791 23.3236 29.742 21.9864 29.742 20.3427C29.742 18.6992 31.0791 17.362 32.7227 17.362C34.3663 17.362 35.7035 18.6992 35.7035 20.3427C35.7033 21.9865 34.3663 23.3236 32.7227 23.3236Z" fill="#259B22"/>
<path d="M63.0964 53.1157C62.4707 50.1056 59.4074 48.1354 56.4045 48.8226L43.623 51.749C41.3198 52.2764 38.9436 52.164 36.7109 51.4283C37.5818 50.8162 38.2978 49.9568 38.7461 48.8977C39.9959 45.9753 38.6776 42.5121 35.7135 41.2854L22.6944 35.8967C22.5396 35.8327 22.3736 35.7996 22.2061 35.7996H10.0554V34.0653C10.0554 33.3701 9.47377 32.7884 8.77849 32.7884H-0.887342C-1.59245 32.7884 -2.16425 33.3602 -2.16425 34.0653V56.5105C-2.16425 57.2156 -1.59245 57.7874 -0.887342 57.7874H8.77837C9.48348 57.7874 10.0553 57.2156 10.0553 56.5105V55.2968H15.1004C15.8055 55.2968 16.3773 54.725 16.3773 54.0199C16.3773 53.3148 15.8055 52.743 15.1004 52.743H10.0553V46.0131V38.3533H21.9521L34.7367 43.645C36.4051 44.3355 37.1015 46.2722 36.3941 47.9018C35.7169 49.5013 33.9629 50.2954 32.3439 49.7659L23.638 46.4188C22.9795 46.1656 22.241 46.4942 21.9879 47.1524C21.7348 47.8106 22.0634 48.5495 22.7215 48.8026C22.7217 48.8027 27.5659 50.6651 31.2599 52.0898C31.3335 52.1183 31.4072 52.145 31.4811 52.1703L35.197 53.5989C38.0757 54.7057 41.1864 54.9266 44.1925 54.2385L56.974 51.3121C58.5989 50.9397 60.2571 52.0064 60.5956 53.6354C60.9246 55.2181 59.9549 56.7698 58.3883 57.1681L43.1374 61.044C40.505 61.713 37.777 61.5423 35.2485 60.5508L26.222 57.0103C25.5654 56.7526 24.8245 57.0763 24.567 57.7328C24.3094 58.3892 24.633 59.1302 25.2895 59.3878L34.316 62.9283C36.133 63.6409 38.0357 63.9996 39.9483 63.9996C41.2242 63.9996 42.5048 63.8398 43.7664 63.5191L59.0172 59.6431C61.9128 58.9074 63.7043 56.0401 63.0964 53.1157ZM0.38957 55.2336V35.3421H7.50158V47.0442V54.0199V55.2336H0.38957Z" fill="#259B22"/>
<path d="M10.1373 25.8177L13.7371 27.939C14.3076 28.2755 15.0647 28.1067 15.4387 27.5606L17.8172 24.0892C18.2158 23.5075 18.0673 22.7127 17.4856 22.3142C16.9042 21.9156 16.1092 22.0641 15.7105 22.6458L14.9495 23.7565C14.3126 20.3322 14.6859 16.7667 16.0469 13.5298C19.877 4.41969 30.4045 0.124161 39.5148 3.95477C43.928 5.81012 47.3544 9.27298 49.1629 13.7054C50.9714 18.1379 50.9456 23.0094 49.0901 27.4225C48.1671 29.6183 46.8462 31.5727 45.1647 33.2314C44.6626 33.7266 44.657 34.5351 45.1523 35.0372C45.6402 35.532 46.4633 35.5375 46.9581 35.0496C48.8806 33.1533 50.39 30.9202 51.4445 28.4123C53.5643 23.3705 53.5938 17.8048 51.5275 12.7407C49.4612 7.67671 45.5467 3.7202 40.5048 1.60053C30.0967 -2.77545 18.0687 2.13198 13.6926 12.5401C12.1402 16.2328 11.7129 20.3004 12.4363 24.2082L11.4339 23.6175C10.826 23.2594 10.0435 23.4616 9.68554 24.0693C9.3275 24.6767 9.52976 25.4596 10.1373 25.8177Z" fill="#259B22"/>
<path d="M42.5791 36.3681C42.1938 35.789 41.3873 35.6309 40.8094 36.0155C40.2309 36.4008 40.0714 37.2081 40.4556 37.7866C40.8405 38.3661 41.6499 38.5232 42.2267 38.1391C42.8094 37.751 42.9601 36.9491 42.5791 36.3681Z" fill="#259B22"/>
<path d="M21.3646 55.3509C20.9792 54.7718 20.1727 54.6137 19.5949 54.9983C19.0163 55.3836 18.8568 56.1909 19.2411 56.7694C19.6259 57.3489 20.4354 57.506 21.0122 57.1219C21.5947 56.7338 21.7454 55.932 21.3646 55.3509Z" fill="#259B22"/>
</g>
<defs>
<clipPath id="clip0_1400_5391">
<rect width="64" height="64" fill="white"/>
</clipPath>
</defs>
</svg>
