<svg width="1920" height="336" viewBox="0 0 1920 336" fill="none" xmlns="http://www.w3.org/2000/svg">
<path d="M0.000239189 335L0.000226542 9.7123e-05L1919 0V335L0.000239189 335Z" fill="#F5F5F5"/>
<path d="M9.08477e-05 332.266C-0.000174747 320.389 0.000226542 9.7123e-05 0.000226542 9.7123e-05L956.5 4.92442e-05C956.5 4.92442e-05 789 142.5 617 226.5C445 310.5 302 332 302 332C302 332 0.000236617 338.785 9.08477e-05 332.266Z" fill="#FCFCFC"/>
<path d="M1438 335C1442.24 332.753 1549.9 243.745 1569.85 222.224L1675.24 120.773L1723.79 73.3191L1675.24 0.0106559C1651.99 0.0106559 1700.52 0.0106559 1675.24 0.0106559C1693.93 0.0106559 1730.61 0.0106559 1754.64 0.0106559C1754.64 0.0106559 1766.95 18.5064 1771.67 26.2973C1779.16 18.6714 1798.52 0.0106559 1798.52 0.0106559C1798.52 0.0106559 1875.78 0.0116677 1897.46 0.0116677C1886.88 13.7606 1870.86 34.7878 1839.83 73.3191C1875.54 118.015 1919.1 173.092 1919.1 173.092L1919 335C1904.76 316.002 1847.86 240.521 1826.85 212.765C1826.85 212.765 1785.81 154.688 1771.67 137.424C1757.43 151.929 1736.92 186.394 1701.78 219.032C1672.88 245.873 1605.34 313.007 1581 335H1463H1438Z" fill="url(#paint0_radial_1550_19)" fill-opacity="0.23"/>
<path d="M1652 335C1654.83 333.024 1712.46 269.491 1725.76 250.566L1796.02 161.346L1818.11 131.606L1786.7 79.6131L1734.19 0.04624C1751.04 0.04624 1759.18 0.04624 1774.67 0.04624C1787.13 0.04624 1807.95 0.04624 1807.95 0.04624H1819.24C1819.24 0.04624 1827.99 16.5308 1832.66 24.9165C1844.6 46.3376 1853.81 64.1192 1860.3 78.2613C1870.98 63.9112 1886.13 44.9858 1905.75 21.485C1925.33 -2.01587 1919.1 0.0459489 1919.1 0.0459489V111.861C1919.1 111.861 1919.1 111.861 1907.42 128.902L1919.1 145.804V290.232L1895.49 251.814C1879.29 227.758 1866.48 208.14 1857.06 192.958C1847.57 205.713 1833.12 223.98 1813.71 247.758C1794.44 271.363 1760.73 315.659 1744.5 335C1752.61 335 1696 335 1696 335H1652Z" fill="url(#paint1_radial_1550_19)"/>
<defs>
<radialGradient id="paint0_radial_1550_19" cx="0" cy="0" r="1" gradientUnits="userSpaceOnUse" gradientTransform="translate(737.111 156.39) scale(1526.41 270.423)">
<stop stop-color="#7FBC53"/>
<stop offset="1" stop-color="#00491A"/>
</radialGradient>
<radialGradient id="paint1_radial_1550_19" cx="0" cy="0" r="1" gradientUnits="userSpaceOnUse" gradientTransform="translate(1750.05 209.699) scale(269.096 267.244)">
<stop stop-color="#7FBC53"/>
<stop offset="1" stop-color="#00491A"/>
</radialGradient>
</defs>
</svg>
