<svg width="1440" height="336" viewBox="0 0 1440 336" fill="none" xmlns="http://www.w3.org/2000/svg">
<path d="M-0.00557995 334.886L-0.00559258 0.00189209L1439.99 0.00181921V334.885L-0.00557995 334.886Z" fill="#F5F5F5"/>
<path d="M-2.99988 332.266C-3.00015 320.389 -2.99988 3.0516e-05 -2.99988 3.0516e-05L953.5 4.36723e-05C953.5 4.36723e-05 786 142.5 614 226.5C442 310.5 299 332 299 332C299 332 -2.99974 338.785 -2.99988 332.266Z" fill="#FCFCFC"/>
<path d="M1100.75 235.923C1103.85 234.28 1170.26 178.314 1184.86 162.57L1261.95 88.3525L1297.47 53.6374L1261.95 0.00790501C1244.95 0.00790501 1280.45 0.00790501 1261.95 0.00790501C1275.63 0.00790501 1302.46 0.00790501 1320.04 0.00790501C1320.04 0.00790501 1329.05 13.5386 1332.5 19.2382C1337.98 13.6594 1352.14 0.00790501 1352.14 0.00790501C1352.14 0.00790501 1408.66 0.00864517 1424.52 0.00864517C1416.78 10.0668 1405.06 25.4495 1382.37 53.6374C1408.49 86.3348 1440.36 126.627 1440.36 126.627V249.326C1429.94 235.428 1388.24 175.956 1372.87 155.65C1372.87 155.65 1342.84 113.163 1332.5 100.534C1322.08 111.145 1307.08 136.358 1281.37 160.235C1260.23 179.871 1203.01 237.134 1185.2 253.224C1102.7 324.328 1008.14 332.545 896 334.535C972.127 312.014 1041.68 278.516 1100.75 235.923Z" fill="url(#paint0_radial_1548_3)" fill-opacity="0.23"/>
<path d="M1242.84 247.813C1244.91 246.367 1289.18 197.149 1298.91 183.304L1350.31 118.034L1366.47 96.2776L1343.49 58.2417L1305.08 0.0338233C1317.41 0.0338233 1323.36 0.0338233 1334.7 0.0338233C1343.81 0.0338233 1359.04 0.0338233 1359.04 0.0338233H1367.3C1367.3 0.0338233 1373.7 12.0932 1377.12 18.2279C1385.85 33.8987 1392.59 46.907 1397.34 57.2527C1405.15 46.7548 1416.24 32.9098 1430.59 15.7175C1444.91 -1.47473 1440.36 0.0336103 1440.36 0.0336103V81.8327C1440.36 81.8327 1440.36 81.8327 1431.81 94.2998L1440.36 106.664V212.322L1423.08 184.217C1411.23 166.619 1401.86 152.267 1394.97 141.16C1388.02 150.492 1377.45 163.855 1363.25 181.25C1349.16 198.518 1311.01 248.878 1299.14 263.027C1244.14 325.558 1181.1 332.785 1106.34 334.535C1157.09 314.729 1203.46 285.27 1242.84 247.813Z" fill="url(#paint1_radial_1548_3)"/>
<defs>
<radialGradient id="paint0_radial_1548_3" cx="0" cy="0" r="1" gradientUnits="userSpaceOnUse" gradientTransform="translate(833.977 128.783) scale(783.333 222.686)">
<stop stop-color="#7FBC53"/>
<stop offset="1" stop-color="#00491A"/>
</radialGradient>
<radialGradient id="paint1_radial_1548_3" cx="0" cy="0" r="1" gradientUnits="userSpaceOnUse" gradientTransform="translate(1316.68 153.407) scale(196.86 195.505)">
<stop stop-color="#7FBC53"/>
<stop offset="1" stop-color="#00491A"/>
</radialGradient>
</defs>
</svg>
