<svg width="35" height="35" viewBox="0 0 35 35" fill="none" xmlns="http://www.w3.org/2000/svg">
<g clip-path="url(#clip0_1400_6292)">
<path d="M17.4998 20.2654C19.0272 20.2654 20.2653 19.0273 20.2653 17.5C20.2653 15.9726 19.0272 14.7345 17.4998 14.7345C15.9725 14.7345 14.7344 15.9726 14.7344 17.5C14.7344 19.0273 15.9725 20.2654 17.4998 20.2654Z" fill="#00491A"/>
<path d="M21.0369 10.5115H13.9632C13.0472 10.5115 12.1687 10.8754 11.5209 11.5231C10.8732 12.1709 10.5093 13.0494 10.5093 13.9654V21.0368C10.5093 21.9528 10.8732 22.8314 11.5209 23.4791C12.1687 24.1269 13.0472 24.4908 13.9632 24.4908H21.0369C21.953 24.4908 22.8315 24.1269 23.4792 23.4791C24.127 22.8314 24.4909 21.9528 24.4909 21.0368V13.9631C24.4902 13.0475 24.1261 12.1695 23.4784 11.5223C22.8307 10.8751 21.9526 10.5115 21.0369 10.5115ZM17.5001 22.0269C16.6046 22.0274 15.7291 21.7623 14.9844 21.2651C14.2396 20.768 13.659 20.0611 13.316 19.234C12.9731 18.4068 12.8831 17.4965 13.0575 16.6182C13.2319 15.7399 13.6629 14.9331 14.2959 14.2997C14.9289 13.6664 15.7355 13.235 16.6137 13.0601C17.492 12.8853 18.4023 12.9748 19.2296 13.3174C20.057 13.6599 20.7641 14.2402 21.2616 14.9847C21.7592 15.7292 22.0247 16.6045 22.0247 17.5C22.0235 18.6998 21.5465 19.8502 20.6983 20.6989C19.8501 21.5475 18.6999 22.0251 17.5001 22.0269ZM22.0524 14.0921C21.8308 14.0925 21.6142 14.0272 21.4298 13.9044C21.2454 13.7816 21.1016 13.6069 21.0166 13.4023C20.9316 13.1977 20.9093 12.9725 20.9524 12.7552C20.9955 12.5379 21.1021 12.3383 21.2588 12.1817C21.4154 12.025 21.615 11.9184 21.8323 11.8753C22.0496 11.8322 22.2748 11.8546 22.4794 11.9395C22.684 12.0245 22.8587 12.1683 22.9815 12.3527C23.1043 12.5371 23.1696 12.7538 23.1691 12.9753C23.1685 13.2713 23.0507 13.555 22.8414 13.7643C22.6321 13.9736 22.3484 14.0915 22.0524 14.0921Z" fill="#00491A"/>
<path d="M17.5 0C14.0388 0 10.6554 1.02636 7.77753 2.94928C4.89967 4.87221 2.65665 7.60533 1.33212 10.803C0.00758243 14.0007 -0.338976 17.5194 0.336265 20.9141C1.01151 24.3088 2.67822 27.427 5.12564 29.8744C7.57306 32.3218 10.6913 33.9885 14.0859 34.6637C17.4806 35.339 20.9993 34.9924 24.197 33.6679C27.3947 32.3434 30.1278 30.1003 32.0507 27.2225C33.9737 24.3446 35 20.9612 35 17.5C35 12.8587 33.1563 8.40752 29.8744 5.12563C26.5925 1.84374 22.1413 0 17.5 0ZM26.25 21.0368C26.2488 22.4191 25.6992 23.7444 24.7218 24.7218C23.7444 25.6992 22.4191 26.2488 21.0368 26.25H13.9632C12.5811 26.2482 11.2562 25.6983 10.2789 24.7211C9.30166 23.7438 8.75184 22.4189 8.75001 21.0368V13.9632C8.75184 12.5811 9.30166 11.2562 10.2789 10.2789C11.2562 9.30166 12.5811 8.75183 13.9632 8.75H21.0368C22.4189 8.75183 23.7438 9.30166 24.7211 10.2789C25.6984 11.2562 26.2482 12.5811 26.25 13.9632V21.0368Z" fill="#00491A"/>
</g>
<defs>
<clipPath id="clip0_1400_6292">
<rect width="35" height="35" fill="white"/>
</clipPath>
</defs>
</svg>
