<svg width="24" height="30" viewBox="0 0 24 30" fill="none" xmlns="http://www.w3.org/2000/svg">
<path d="M2.98174 17.7937C1.88888 15.5578 1.33482 13.399 1.33482 11.3777C1.33476 5.58046 6.0511 0.86406 11.8484 0.86406C15.2918 0.86406 18.522 2.55481 20.4893 5.38673C20.6255 5.5827 20.8948 5.63125 21.0906 5.49511C21.2866 5.35897 21.3351 5.0898 21.199 4.89383C19.0702 1.82942 15.5747 0 11.8484 0C5.57473 0 0.470703 5.10402 0.470703 11.3777C0.470703 13.5317 1.05436 15.818 2.20545 18.1732C2.28037 18.3266 2.43407 18.4156 2.59394 18.4156C2.65757 18.4156 2.7223 18.4015 2.78329 18.3716C2.99764 18.2669 3.0865 18.0081 2.98174 17.7937Z" fill="#00491a"/>
<path d="M22.0997 6.43772C21.996 6.22286 21.7376 6.13273 21.5228 6.23651C21.3079 6.34028 21.2178 6.59857 21.3215 6.81343C22.0116 8.24278 22.3615 9.77867 22.3615 11.3783C22.3615 13.4088 21.8023 15.5778 20.6996 17.8248C19.8089 19.6398 18.5644 21.508 17.0006 23.3775C14.8113 25.9948 12.5958 27.8868 11.8481 28.4994C10.7555 27.603 6.52545 23.9678 3.78728 19.2936C3.66663 19.0876 3.40196 19.0186 3.19614 19.1392C2.99026 19.2598 2.92115 19.5245 3.04174 19.7303C6.2784 25.2555 11.3684 29.2291 11.5835 29.3955C11.6613 29.4558 11.7546 29.4859 11.8479 29.4859C11.9411 29.4859 12.0345 29.4558 12.1122 29.3956C12.2255 29.308 14.917 27.212 17.6519 23.9455C19.2629 22.0214 20.5479 20.0931 21.471 18.2143C22.6352 15.8447 23.2256 13.5447 23.2256 11.3783C23.2256 9.64742 22.8468 7.98524 22.0997 6.43772Z" fill="#00491a"/>
<path d="M8.35168 8.72768C8.14834 8.60271 7.88228 8.66635 7.75742 8.86964C7.29487 9.62261 7.05029 10.49 7.05029 11.3779C7.05029 14.0234 9.20255 16.1756 11.848 16.1756C14.4935 16.1756 16.6457 14.0234 16.6457 11.3779C16.6457 8.7324 14.4934 6.5802 11.8479 6.5802C10.8399 6.5802 9.87507 6.88945 9.05789 7.47449C8.86387 7.6134 8.81924 7.88326 8.95809 8.07727C9.09699 8.27129 9.3668 8.31592 9.56087 8.17702C10.2305 7.69765 11.0213 7.4442 11.8479 7.4442C14.017 7.4442 15.7815 9.20878 15.7815 11.3778C15.7815 13.5468 14.017 15.3114 11.8479 15.3114C9.67893 15.3114 7.91435 13.5468 7.91435 11.3778C7.91435 10.6496 8.11465 9.93871 8.49364 9.32188C8.61849 9.11865 8.55497 8.85253 8.35168 8.72768Z" fill="#00491a"/>
</svg>
