<svg width="79" height="19" viewBox="0 0 79 19" fill="none" xmlns="http://www.w3.org/2000/svg">
<path d="M78.0735 9.45388L72.0972 4.53658C72.0387 4.48522 71.9705 4.44609 71.8966 4.42149C71.8227 4.39689 71.7446 4.38732 71.667 4.39335C71.5502 4.40273 71.4364 4.43519 71.3323 4.48884C71.2306 4.54286 71.1473 4.62598 71.0932 4.72754C71.0119 4.82792 70.9473 4.94077 70.902 5.06173C70.8626 5.20136 70.8464 5.34652 70.8542 5.49139C70.8488 5.67966 70.8845 5.86685 70.9588 6.03997C71.0331 6.21309 71.1442 6.368 71.2845 6.49395L76.0655 10.4087L71.2845 14.3712C71.1453 14.4877 71.0344 14.6341 70.9599 14.7994C70.8854 14.9647 70.8492 15.1448 70.8542 15.326C70.8531 15.614 70.9362 15.8961 71.0932 16.1376C71.1479 16.2414 71.2306 16.3278 71.3321 16.3869C71.4335 16.446 71.5496 16.4754 71.667 16.4718C71.8215 16.4683 71.9715 16.4184 72.0972 16.3286L78.0735 11.459C78.2175 11.3361 78.3312 11.1817 78.4058 11.0079C78.4804 10.834 78.5139 10.6453 78.5037 10.4564C78.5043 10.2689 78.4664 10.0831 78.3924 9.91073C78.3184 9.73831 78.2099 9.58284 78.0735 9.45388Z" fill="white"/>
<path d="M56.7501 12.5568C56.3361 12.1635 56.0078 11.6892 55.7857 11.1635C55.5636 10.6377 55.4525 10.0719 55.4593 9.50137C55.4525 8.93082 55.5636 8.365 55.7857 7.83927C56.0078 7.31355 56.3361 6.83923 56.7501 6.44596C57.1483 6.03829 57.6242 5.71432 58.1497 5.49311C58.6752 5.27191 59.2397 5.15795 59.81 5.15795C60.3802 5.15795 60.9448 5.27191 61.4702 5.49311C61.9957 5.71432 62.4716 6.03829 62.8698 6.44596C63.2729 6.84331 63.5973 7.31301 63.826 7.83044L64.6387 5.82533C64.4766 5.6227 64.3009 5.4313 64.1128 5.25244C62.9672 4.12125 61.4211 3.48682 59.81 3.48682C58.1988 3.48682 56.6527 4.12125 55.5071 5.25244C54.9335 5.80963 54.4805 6.47846 54.1762 7.21753C53.872 7.9566 53.7228 8.75017 53.7381 9.54911C53.7228 10.3481 53.872 11.1416 54.1762 11.8807C54.4805 12.6198 54.9335 13.2886 55.5071 13.8458C56.0651 14.4186 56.7349 14.8709 57.475 15.1747C58.2151 15.4786 59.0099 15.6275 59.81 15.6122C60.1136 15.6214 60.4174 15.6054 60.7183 15.5645L61.5311 13.5593C60.9883 13.7935 60.4011 13.9075 59.81 13.8935C58.6637 13.8239 57.5793 13.3502 56.7501 12.5568Z" fill="white"/>
<path d="M70.5208 0.335024C70.3048 0.120456 70.0126 0 69.708 0C69.4034 0 69.1111 0.120456 68.8952 0.335024C68.7999 0.434374 68.7194 0.546926 68.6562 0.66921L61.9628 17.3785C61.9081 17.5322 61.8759 17.693 61.8672 17.8559C61.8666 18.0065 61.8958 18.1558 61.9533 18.2951C62.0107 18.4344 62.0952 18.561 62.2019 18.6675C62.3085 18.774 62.4353 18.8584 62.5748 18.9158C62.7143 18.9731 62.8638 19.0023 63.0146 19.0017C63.233 18.9912 63.4449 18.924 63.6293 18.8068C63.8138 18.6896 63.9644 18.5264 64.0664 18.3333L70.7598 1.62403C70.8187 1.47151 70.8511 1.31004 70.8554 1.14662C70.8619 0.995201 70.8353 0.844193 70.7775 0.704055C70.7197 0.563917 70.6321 0.437998 70.5208 0.335024Z" fill="white"/>
<path d="M23.4276 5.01379C22.5961 4.19287 21.5243 3.65777 20.3677 3.48608H18.7422C17.5823 3.64719 16.5074 4.18387 15.6824 5.01379L15.5868 5.10927C15.0534 5.62196 14.63 6.23762 14.3423 6.91881C14.0547 7.6 13.9087 8.3325 13.9134 9.07176V14.8484C13.9437 15.0278 14.0269 15.194 14.1525 15.3258L14.2003 15.3736C14.2993 15.4829 14.4358 15.551 14.5828 15.5645H14.9653C15.1055 15.5305 15.2363 15.4652 15.3477 15.3736L15.3955 15.3258C15.5114 15.2059 15.5938 15.0577 15.6346 14.8961V9.02402C15.6249 8.80014 15.641 8.57589 15.6824 8.35565C15.8191 7.60548 16.1674 6.90986 16.6864 6.35053L16.782 6.25505L16.8776 6.15957C17.5353 5.52482 18.4022 5.15139 19.3159 5.10927H19.6984C20.6164 5.13243 21.4899 5.50871 22.1367 6.15957L22.2323 6.25505L22.3279 6.35053C22.8469 6.90986 23.1952 7.60548 23.3319 8.35565C23.3716 8.57611 23.3877 8.80017 23.3798 9.02402V14.8007C23.41 14.98 23.4932 15.1463 23.6188 15.2781C23.6989 15.3604 23.796 15.4244 23.9033 15.4657C24.0106 15.5069 24.1256 15.5243 24.2403 15.5168C24.4686 15.5097 24.6877 15.4256 24.8619 15.2781C24.9443 15.1981 25.0084 15.1012 25.0497 14.994C25.091 14.8868 25.1085 14.772 25.1009 14.6574V9.02402C25.1056 8.28476 24.9597 7.55226 24.672 6.87107C24.3843 6.18988 23.961 5.57422 23.4276 5.06153C23.4754 5.06153 23.4276 5.01379 23.4276 5.01379Z" fill="white"/>
<path d="M26.8705 9.50143C26.8552 10.3004 27.0043 11.0939 27.3086 11.833C27.6128 12.5721 28.0658 13.2409 28.6394 13.7981C29.5701 14.7283 30.7781 15.3314 32.0817 15.5168V13.7504C31.2399 13.5969 30.4693 13.1787 29.8825 12.5568C29.4684 12.1636 29.1401 11.6893 28.918 11.1635C28.6959 10.6378 28.5848 10.072 28.5916 9.50143C28.5848 8.93088 28.6959 8.36505 28.918 7.83933C29.1401 7.3136 29.4684 6.83928 29.8825 6.44602C30.4762 5.83312 31.2437 5.41659 32.0817 5.25249V3.48608C30.6321 3.69131 29.3058 4.41348 28.3479 5.51919C27.39 6.62489 26.8652 8.03941 26.8705 9.50143Z" fill="white"/>
<path d="M33.803 3.48608V5.25249C34.6448 5.40591 35.4154 5.82412 36.0022 6.44602C36.4162 6.83928 36.7446 7.3136 36.9667 7.83933C37.1888 8.36505 37.2999 8.93088 37.2931 9.50143C37.2999 10.072 37.1888 10.6378 36.9667 11.1635C36.7446 11.6893 36.4162 12.1636 36.0022 12.5568C35.4085 13.1697 34.641 13.5863 33.803 13.7504V15.5168C35.1098 15.3417 36.321 14.737 37.2453 13.7981C37.8189 13.2409 38.2719 12.5721 38.5761 11.833C38.8804 11.0939 39.0295 10.3004 39.0142 9.50143C39.0295 8.70249 38.8804 7.90892 38.5761 7.16985C38.2719 6.43078 37.8189 5.76194 37.2453 5.20475C36.3338 4.24832 35.1161 3.64033 33.803 3.48608Z" fill="white"/>
<path d="M42.2163 3.67674C42.1388 3.59098 42.0421 3.52468 41.9341 3.48321C41.8261 3.44174 41.7099 3.42626 41.5948 3.43803C41.3665 3.44506 41.1474 3.52921 40.9732 3.67674C40.8178 3.84594 40.7323 4.06773 40.7342 4.29737C40.7229 4.41098 40.7393 4.52565 40.782 4.63155L44.1765 11.9359L45.1327 9.8353L42.4075 3.91544C42.3559 3.82691 42.2915 3.74647 42.2163 3.67674Z" fill="white"/>
<path d="M51.1571 3.43826C50.9288 3.44528 50.7097 3.52944 50.5356 3.67696C50.4604 3.74669 50.396 3.82713 50.3443 3.91566L47.667 9.6923C47.6619 9.72849 47.6451 9.76203 47.6192 9.78779L45.4199 14.6573L45.6112 15.087C45.6469 15.1589 45.6955 15.2236 45.7546 15.278C45.925 15.4316 46.1465 15.5167 46.3761 15.5167C46.6057 15.5167 46.8272 15.4316 46.9976 15.278C47.0559 15.2052 47.1041 15.1249 47.1411 15.0393L51.9698 4.58404C52.0126 4.47813 52.029 4.36347 52.0177 4.24985C52.0106 4.02192 51.9263 3.80311 51.7786 3.62922C51.6001 3.49501 51.3802 3.42745 51.1571 3.43826Z" fill="white"/>
<path d="M6.93347 3.43787V5.20428C7.77528 5.35769 8.54589 5.7759 9.13272 6.3978C9.7465 6.99067 10.1636 7.75709 10.328 8.59388H1.81783C1.98216 7.75709 2.3993 6.99067 3.01308 6.3978C3.6068 5.7849 4.37433 5.36837 5.21232 5.20428V3.43787C3.90552 3.61291 2.69434 4.21763 1.77003 5.15654C1.19642 5.71373 0.743451 6.38256 0.439173 7.12163C0.134895 7.8607 -0.0142173 8.65427 0.00106664 9.45321C-0.0142173 10.2522 0.134895 11.0457 0.439173 11.7848C0.743451 12.5239 1.19642 13.1927 1.77003 13.7499C2.32802 14.3227 2.99782 14.775 3.73795 15.0788C4.47809 15.3827 5.2728 15.5316 6.0729 15.5163C7.53569 15.5431 8.95407 15.0141 10.0411 14.0363C10.195 13.8661 10.2802 13.645 10.2802 13.4157C10.2802 13.1864 10.195 12.9653 10.0411 12.7951C9.961 12.7127 9.86394 12.6487 9.75662 12.6075C9.64931 12.5663 9.53431 12.5488 9.41958 12.5564C9.32357 12.5514 9.22754 12.5657 9.1372 12.5985C9.04685 12.6313 8.96404 12.6819 8.89367 12.7473C8.0768 13.4632 7.01538 13.8377 5.92945 13.7933C4.84352 13.7489 3.81635 13.2888 3.06089 12.5086C2.44711 11.9158 2.02997 11.1493 1.86564 10.3125H11.332C11.5602 10.3055 11.7793 10.2214 11.9535 10.0738C12.036 9.99386 12.1001 9.89693 12.1414 9.78977C12.1826 9.68261 12.2001 9.56777 12.1925 9.45321C12.2078 8.65427 12.0587 7.8607 11.7544 7.12163C11.4502 6.38256 10.9972 5.71373 10.4236 5.15654C9.46249 4.24231 8.24489 3.64272 6.93347 3.43787Z" fill="white"/>
</svg>
