<svg width="64" height="64" viewBox="0 0 64 64" fill="none" xmlns="http://www.w3.org/2000/svg">
<g clip-path="url(#clip0_1400_5411)">
<path d="M63.3867 53.7383C58.409 34.807 58.4021 28.3172 63.3404 10.3378C64.1061 7.5503 63.5407 4.71688 61.3541 2.33541C59.0133 0.108702 56.0495 -0.404947 53.4215 0.28657C34.4899 5.26419 28 5.271 10.0209 0.332827C7.23298 -0.432817 4.04839 0.236881 2.00215 2.33541C-0.0441011 4.43393 -0.749845 7.5503 0.0158285 10.3378C4.95414 28.3169 4.94728 34.8067 -0.0304279 53.7383C-0.721393 56.3669 -0.129021 59.1404 1.55401 61.1571C3.99818 63.8956 7.23423 64.4232 10.0209 63.6574C27.9997 58.719 34.4897 58.726 53.4215 63.7035C55.7795 64.3806 59.0133 63.9764 61.3377 61.6712C63.5407 59.4086 64.0778 56.3666 63.3867 53.7383ZM60.2145 60.5315C58.5687 62.1978 55.9567 62.7155 53.8283 62.1561C44.7736 59.7754 38.2305 58.3919 31.5804 58.3647C26.5539 58.2768 19.5199 59.3889 9.59708 62.1145C7.33794 62.7348 4.95312 62.2203 3.14168 60.5315C1.33024 58.6406 0.957363 56.2739 1.51709 54.1452C3.89781 45.0906 5.28131 38.5474 5.30848 31.8974C5.33286 25.9127 4.31656 19.9546 1.55864 9.91397C0.938308 7.65529 1.50333 5.097 3.14168 3.45865C4.78003 1.8203 7.33809 1.25545 9.59708 1.87569C19.5206 4.60136 25.4561 5.62583 31.3709 5.62583C31.4406 5.62583 31.5106 5.62568 31.5805 5.62536C38.2305 5.59834 44.7736 4.21469 53.8283 1.83398C55.918 1.28425 58.5865 1.67539 60.2147 3.45888C61.8429 5.24237 62.4179 7.65538 61.7976 9.91397C59.0398 19.9547 58.0235 25.9128 58.0479 31.8974C58.0749 38.5475 59.4584 45.0906 61.8391 54.1452C62.3988 56.2737 61.8604 58.8651 60.2145 60.5315Z"/>
<path d="M50.4131 19.902C50.7652 20.4378 51.3047 20.8045 51.9324 20.9346C52.5603 21.0646 53.2011 20.9424 53.7369 20.5905C54.2726 20.2385 54.6392 19.699 54.7694 19.0713L56.6756 9.86993C56.8066 9.23787 56.7021 8.60323 56.381 8.08307C55.8511 7.22427 54.8337 6.78457 53.8478 6.9881L44.6016 8.90358C43.9739 9.03365 43.4344 9.40038 43.0824 9.93629C42.7305 10.4722 42.6083 11.1131 42.7383 11.7407C43.0067 13.0365 44.2791 13.8726 45.5754 13.604L46.2486 13.4645L31.6779 28.0351L17.1075 13.4646L17.7803 13.6039C19.0769 13.8722 20.3489 13.0366 20.6176 11.7407C20.8859 10.4447 20.0501 9.17198 18.7543 8.90361L9.55251 6.99729C8.91982 6.86612 8.28576 6.97097 7.76542 7.29208C6.9068 7.82217 6.46692 8.84019 6.67083 9.82516L8.58637 19.0713C8.85483 20.3672 10.128 21.2027 11.4235 20.9346C12.0512 20.8046 12.5907 20.4378 12.9426 19.902C13.2945 19.3661 13.4167 18.7253 13.2867 18.0976L13.1472 17.4244L27.7179 31.9951L13.1472 46.5658L13.2866 45.8927C13.4167 45.2649 13.2945 44.6241 12.9426 44.0881C12.5906 43.5523 12.0511 43.1856 11.4234 43.0556C10.7958 42.9256 10.1549 43.0477 9.61893 43.3997C9.08314 43.7516 8.71655 44.2911 8.5864 44.9188L6.67912 54.1246C6.62053 54.4078 6.46372 55.4877 7.3126 56.3365C8.20189 57.2258 9.42535 57.0191 9.50797 57.002L18.7543 55.0865C20.0501 54.818 20.8859 53.5453 20.6175 52.2492C20.3489 50.9535 19.0755 50.1175 17.7805 50.3861L17.1073 50.5256L31.6779 35.955L46.2487 50.5257L45.5754 50.3862C44.9477 50.2562 44.3068 50.3783 43.771 50.7303C43.235 51.0822 42.8685 51.6217 42.7385 52.2494C42.6083 52.8772 42.7305 53.5181 43.0824 54.0539C43.4343 54.5898 43.9738 54.9566 44.6015 55.0866L53.848 57.0021C54.008 57.0352 55.2538 57.1652 55.992 56.3871C56.8101 55.5281 56.7978 54.7101 56.6765 54.1239L54.7694 44.9189C54.6393 44.2912 54.2727 43.7517 53.7369 43.3997C53.2009 43.0478 52.5601 42.9254 51.9324 43.0556C51.3048 43.1856 50.7651 43.5524 50.4132 44.0882C50.0613 44.6241 49.9391 45.2649 50.0691 45.8926L50.2085 46.5655L35.6379 31.9951L50.2086 17.4245L50.0692 18.0974C49.9391 18.7253 50.0612 19.3661 50.4131 19.902ZM49.8339 15.5364L33.9408 31.4293C33.6176 31.6889 33.6479 32.2649 33.9408 32.5608L49.8339 48.4537C50.2372 48.8569 50.845 48.9458 51.3469 48.6751C51.8487 48.4043 52.108 47.8472 51.9924 47.2889L51.6358 45.5679C51.5925 45.3588 51.6049 44.7722 52.2571 44.6223C52.9092 44.4725 53.1591 45.0342 53.2024 45.2435L55.1095 54.4483C55.2032 54.7904 55.082 55.4573 54.1724 55.4353L44.9262 53.5198C44.7169 53.4764 44.183 53.1836 44.3052 52.574C44.471 52.0012 44.9409 51.8951 45.2507 51.953L46.972 52.3096C47.5304 52.4254 48.0874 52.1658 48.3581 51.6639C48.6289 51.1621 48.5399 50.5541 48.1367 50.151L32.2435 34.2579C31.9313 33.9455 31.4244 33.9455 31.1122 34.2579L15.2192 50.1509C14.8159 50.5541 14.727 51.1622 14.9978 51.664C15.2686 52.1658 15.8255 52.4254 16.3839 52.3095L18.1051 51.9529C18.5356 51.8635 18.9612 52.1421 19.0506 52.574C19.1402 53.006 18.8616 53.4302 18.4295 53.5198L9.18322 55.4353C8.51509 55.5786 8.06035 54.8813 8.24599 54.449L10.1533 45.2434C10.2426 44.8115 10.6673 44.5328 11.0988 44.6224C11.759 44.7757 11.7632 45.3587 11.7197 45.568L11.3635 47.289C11.2477 47.8474 11.5071 48.4045 12.0088 48.6753C12.5109 48.9462 13.119 48.8571 13.5218 48.4539L29.415 32.5608C29.7275 32.2484 29.7275 31.7418 29.415 31.4294L13.5219 15.5362C13.1187 15.1329 12.5107 15.0441 12.0088 15.3149C11.5071 15.5857 11.2477 16.1427 11.3633 16.7009L11.7199 18.4223C11.7632 18.6314 11.6782 19.1882 11.099 19.3678C10.666 19.4566 10.2427 19.1786 10.1533 18.7467L8.23776 9.50058C8.12104 8.98143 8.6364 8.43572 9.22779 8.56404L18.4297 10.4704C18.8616 10.5598 19.1402 10.9841 19.0508 11.4159C18.9613 11.8479 18.536 12.1264 18.105 12.0371L16.384 11.6806C15.8254 11.5649 15.2687 11.8243 14.9979 12.3261C14.7271 12.8279 14.816 13.4359 15.2193 13.8392L31.1122 29.7322C31.4244 30.0445 31.9313 30.0445 32.2435 29.7322L48.1368 13.8392C48.5401 13.436 48.629 12.828 48.3582 12.3262C48.0874 11.8243 47.5307 11.5645 46.9719 11.6806L45.2509 12.0371C44.8184 12.1262 44.3946 11.8479 44.3051 11.4159C44.178 10.9015 44.717 10.5136 44.9264 10.4703L54.1722 8.55488C54.6879 8.43569 55.2033 8.82983 55.1088 9.54509L53.2025 18.7467C53.1131 19.1786 52.6878 19.4567 52.257 19.3677C51.636 19.2285 51.5926 18.6314 51.636 18.4221L51.9923 16.7012C52.1081 16.1429 51.8487 15.5858 51.3469 15.3151C50.8452 15.0442 50.2372 15.1333 49.8339 15.5364Z"/>
</g>
<defs>
<clipPath id="clip0_1400_5411">
<rect width="64" height="64" fill="white"/>
</clipPath>
</defs>
</svg>
