<svg width="24" height="24" viewBox="0 0 24 24" fill="none" xmlns="http://www.w3.org/2000/svg">
<path d="M3.98337 0.400969C3.59142 0.412823 3.24707 0.618919 2.95887 0.907097L1.37235 2.49286C0.986445 2.8613 1.55462 3.43259 1.92518 3.04872L2.47266 2.5028L5.68169 5.78918C6.04588 6.18555 6.62967 5.61686 6.24294 5.24244L3.02702 1.9492L3.514 1.46297C3.71519 1.26179 3.87805 1.18908 4.00941 1.18505C4.14076 1.18061 4.29936 1.23526 4.52702 1.46297L7.89302 4.82824C8.05139 4.98661 8.05138 5.22272 7.89302 5.38108L6.07525 7.19881C5.61518 7.6589 5.46129 8.19157 5.514 8.63987C5.56671 9.08818 5.78704 9.4381 5.97112 9.67587C6.6827 10.595 7.79008 12.21 9.60588 14.0258C11.4217 15.8416 13.0367 16.9459 13.9558 17.6575C14.1936 17.8416 14.5404 18.0619 14.9887 18.1146C15.437 18.1673 15.9727 18.0134 16.4328 17.5533L16.9734 17.012L20.1863 20.2937C20.5505 20.6901 21.1342 20.1215 20.7475 19.7471L17.5285 16.4561L18.2475 15.7363C18.4059 15.578 18.6451 15.578 18.8034 15.7363L22.1687 19.1046C22.3963 19.3323 22.4506 19.4909 22.4466 19.6223C22.4426 19.7535 22.3698 19.9165 22.1687 20.1177L20.5829 21.7034C19.9212 22.365 19.0519 22.3718 18.5079 22.3718C16.4536 22.3718 12.7994 21.5975 7.41522 16.2133C2.03109 10.8292 1.25673 7.17808 1.25673 5.12379C1.25673 4.92763 1.25885 4.68734 1.29195 4.42928C1.3578 3.91014 0.579087 3.81139 0.513238 4.33048C0.472535 4.64721 0.472656 4.92699 0.472656 5.1237C0.472656 7.38128 1.37519 11.2851 6.85933 16.7692C12.3435 22.2534 16.2503 23.1559 18.5079 23.1559C19.0535 23.1559 20.2324 23.1618 21.1357 22.2593L22.7245 20.6704C23.0127 20.3822 23.2156 20.0379 23.2276 19.6459C23.2396 19.254 23.0506 18.8747 22.7245 18.5487L19.3555 15.1835C18.8996 14.7275 18.1506 14.7275 17.6947 15.1835L15.8769 16.9974C15.5529 17.3214 15.3138 17.3639 15.0814 17.3366C14.8489 17.3093 14.6086 17.174 14.4328 17.0379C13.4745 16.296 11.9229 15.234 10.1587 13.4698C8.39454 11.7056 7.33558 10.154 6.59363 9.19569C6.45756 9.01993 6.32004 8.77966 6.29271 8.54717C6.26539 8.31469 6.30722 8.0756 6.63115 7.7516L8.44815 5.93691C8.90407 5.481 8.90406 4.72898 8.44815 4.27305L5.08291 0.907052C4.75689 0.581031 4.37533 0.388938 3.98337 0.400969ZM13.0178 2.37723C17.5693 2.37723 21.2513 6.05928 21.2513 10.6108C21.2395 11.1452 22.0473 11.1452 22.0354 10.6108C22.0354 5.63554 17.993 1.59622 12.9991 1.59622C12.4994 1.65608 12.5333 2.36384 13.0178 2.37723ZM13.0178 3.94613C12.5065 3.95798 12.5065 4.71891 13.0178 4.73021C16.2702 4.73021 18.8984 7.35837 18.8984 10.6108C18.9096 11.122 19.6711 11.122 19.6824 10.6108C19.6824 6.93463 16.6939 3.94613 13.0178 3.94613ZM13.0178 6.29838C12.4946 6.29838 12.4946 7.08319 13.0178 7.08319C14.9711 7.08319 16.5454 8.65747 16.5454 10.6108C16.5454 11.134 17.3302 11.134 17.3302 10.6108C17.3302 8.23372 15.3949 6.29838 13.0178 6.29838ZM13.0178 9.43617C13.672 9.43617 14.1962 9.95656 14.1962 10.6108C14.1844 11.1452 14.9922 11.1452 14.9803 10.6108C14.9803 9.53282 14.0958 8.65136 12.9991 8.65136C12.4571 8.6764 12.4946 9.46118 13.0178 9.43617Z" fill="white"/>
</svg>
