<svg width="270" height="294" viewBox="0 0 270 294" fill="none" xmlns="http://www.w3.org/2000/svg">
<path d="M138.97 161.505C157.649 161.505 172.792 146.312 172.792 127.57C172.792 108.829 157.649 93.6357 138.97 93.6357C120.29 93.6357 105.148 108.829 105.148 127.57C105.148 146.312 120.29 161.505 138.97 161.505Z" stroke="#337731" stroke-width="6.5" stroke-miterlimit="10"/>
<path d="M138.97 144.44C148.257 144.44 155.784 136.887 155.784 127.569C155.784 118.252 148.257 110.699 138.97 110.699C129.684 110.699 122.156 118.252 122.156 127.569C122.156 136.887 129.684 144.44 138.97 144.44Z" stroke="#337731" stroke-width="5.6693" stroke-miterlimit="10"/>
<path d="M159.175 154.844V248.189" stroke="#337731" stroke-width="8.5039" stroke-miterlimit="10"/>
<path d="M128.407 193.398C102.435 187.369 81.9868 168.652 76.0752 144.878C67.1594 109.194 93.3738 71.1753 126.953 64.1745C157.529 57.8057 182.047 79.6833 183.161 80.7042C187.765 84.9825 197.843 95.5323 202.059 112.305C202.98 115.903 205.16 125.966 203.028 138.558C200.46 153.678 193.143 163.936 190.914 167.242C182.532 179.785 174.633 202.781 176.862 248.432" stroke="#337731" stroke-width="6.5" stroke-miterlimit="10"/>
<path d="M265.778 127.862C265.778 194.467 211.992 248.432 145.608 248.432C79.2246 248.432 25.4392 194.467 25.4392 127.862C25.4392 61.2574 79.2246 7.29272 145.608 7.29272C182.144 7.29272 209.376 24.9892 218.534 32.0387C221.102 33.9833 265.778 70.3487 265.778 127.862Z" stroke="#337731" stroke-width="6.5" stroke-miterlimit="10"/>
<path d="M151.181 32.5737C142.75 32.2334 110.333 31.9417 81.6958 55.6667C79.8545 57.1738 41.381 90.0387 45.1121 137.44C48.6493 182.459 88.9157 222.665 143.331 229.715" stroke="#337731" stroke-width="6.5" stroke-miterlimit="10"/>
<path fill-rule="evenodd" clip-rule="evenodd" d="M116.73 262.773H177.541C180.739 262.773 183.356 260.147 183.356 256.939V254.022C183.356 250.813 180.739 248.188 177.541 248.188H116.73C113.532 248.188 110.915 250.813 110.915 254.022V256.939C110.915 260.147 113.532 262.773 116.73 262.773Z" stroke="#337731" stroke-width="6.5" stroke-miterlimit="10"/>
<path fill-rule="evenodd" clip-rule="evenodd" d="M124.676 277.457H169.594C172.792 277.457 175.409 274.831 175.409 271.623V268.706C175.409 265.497 172.792 262.872 169.594 262.872H124.676C121.478 262.872 118.861 265.497 118.861 268.706V271.623C118.861 274.831 121.478 277.457 124.676 277.457Z" stroke="#337731" stroke-width="6.5" stroke-miterlimit="10"/>
<path fill-rule="evenodd" clip-rule="evenodd" d="M148.757 289.999C148.757 289.999 158.254 290.145 164.505 285.673C165.716 284.797 166.056 283.874 166.056 283.874C166.152 283.582 166.201 283.29 166.201 282.999V281.151C166.201 279.109 163.584 277.408 160.386 277.408H138.097C134.899 277.408 132.282 279.109 132.282 281.151V282.999C132.525 283.679 133.009 284.652 133.978 285.624C138.194 289.854 147.206 289.999 148.757 289.999Z" stroke="#337731" stroke-width="6.5" stroke-miterlimit="10"/>
<path d="M204.093 36.1697C202.106 39.2812 200.12 42.3927 198.133 45.5528C194.984 50.5117 191.882 55.422 188.733 60.3809C188.006 61.5477 187.279 62.6659 186.552 63.8327C185.971 64.7564 186.31 66.1663 187.279 66.6524C188.297 67.1872 189.46 66.8955 190.09 65.9232C192.076 62.8117 194.063 59.7002 196.05 56.5402C199.199 51.5812 202.3 46.6709 205.45 41.712C206.177 40.5452 206.904 39.427 207.63 38.2602C208.212 37.3365 207.873 35.9266 206.904 35.4405C205.886 34.9057 204.723 35.1974 204.093 36.1697Z" fill="#337731"/>
<path d="M218.099 52.5064C215.918 55.0345 213.786 57.5626 211.605 60.042C208.165 64.0286 204.773 68.0152 201.333 72.0018C200.558 72.9255 199.734 73.8492 198.959 74.7729C198.232 75.5994 198.086 76.9121 198.959 77.6899C199.734 78.4192 201.139 78.565 201.866 77.6899C204.046 75.1619 206.178 72.6338 208.359 70.1543C211.799 66.1678 215.191 62.1812 218.632 58.1946C219.407 57.2709 220.231 56.3472 221.006 55.4234C221.733 54.597 221.878 53.2843 221.006 52.5064C220.231 51.7772 218.874 51.6313 218.099 52.5064Z" fill="#337731"/>
<path d="M140.52 125.918C139.89 125.384 139.26 124.897 138.63 124.363C136.934 122.953 135.19 121.543 133.494 120.133C130.974 118.042 128.455 116.001 125.887 113.91C122.785 111.382 119.684 108.854 116.583 106.326C113.191 103.555 109.799 100.784 106.408 98.0124C102.967 95.1926 99.5754 92.4214 96.135 89.6017C92.937 86.9764 89.7389 84.3997 86.5409 81.7744C83.8758 79.5866 81.1623 77.3988 78.4973 75.1625C76.5591 73.5581 74.6209 72.0024 72.6827 70.398C71.762 69.6688 70.8414 68.8909 69.9207 68.1617C69.8723 68.113 69.8238 68.113 69.8238 68.0644C69.0001 67.3838 67.6918 67.1893 66.9165 68.0644C66.2381 68.8423 66.0443 70.2522 66.9165 70.9814C67.5464 71.5162 68.1763 72.0024 68.8062 72.5372C70.5022 73.9471 72.2466 75.3569 73.9425 76.7668C76.4622 78.8573 78.9819 80.8993 81.55 82.9898C84.6511 85.5178 87.7523 88.0459 90.8534 90.574C94.2453 93.3452 97.6371 96.1163 101.029 98.8875C104.469 101.707 107.861 104.478 111.302 107.298C114.5 109.923 117.698 112.5 120.896 115.125C123.561 117.313 126.274 119.501 128.939 121.737C130.877 123.342 132.816 124.897 134.754 126.502C135.675 127.231 136.595 128.009 137.516 128.738C137.564 128.787 137.613 128.787 137.613 128.835C138.437 129.516 139.745 129.711 140.52 128.835C141.198 128.106 141.392 126.648 140.52 125.918Z" fill="#337731"/>
<path d="M25.6813 25.7669L33.4342 0L78.9822 44.7274L71.7139 72.439L45.548 79.2454L0 34.0317L25.6813 25.7669Z" fill="#337731"/>
<path d="M187.667 25.9605C186.117 29.3636 184.518 32.7668 182.967 36.17C180.496 41.5664 178.025 46.9143 175.553 52.3108C174.972 53.5748 174.39 54.7902 173.857 56.0542C173.421 57.0266 173.567 58.3392 174.584 58.874C175.505 59.3602 176.91 59.1657 177.395 58.1448C178.945 54.7416 180.544 51.3384 182.095 47.9352C184.566 42.5388 187.037 37.1909 189.508 31.7945C190.09 30.5304 190.671 29.315 191.204 28.051C191.641 27.0786 191.495 25.766 190.478 25.2312C189.605 24.745 188.152 24.9395 187.667 25.9605Z" fill="#337731"/>
</svg>
