<svg width="52" height="54" viewBox="0 0 52 54" fill="none" xmlns="http://www.w3.org/2000/svg">
<path d="M50.7148 0H48.7893C48.0818 0 47.5041 0.585022 47.5041 1.30435V11.2876H23.6739V1.13914C23.6739 0.558243 23.2091 0.0869293 22.6383 0.0869293C21.9315 0.0869293 8.36058 0.0869293 7.6457 0.0869293C7.07452 0.0869293 6.6089 0.558243 6.6089 1.13914V11.2876H4.49551V7.17764C4.49551 6.73888 4.14477 6.38292 3.71284 6.38292C3.27928 6.38292 2.92975 6.73888 2.92975 7.17764V52.4106C2.33747 52.4106 2.17468 52.4106 1.56616 52.4106V1.58945H2.92975V3.99875C2.92975 4.43834 3.27928 4.79347 3.71284 4.79347C4.14477 4.79347 4.49551 4.43834 4.49551 3.99875V1.30435C4.49551 0.585022 3.91825 0 3.21027 0H1.28524C0.577264 0 0 0.585022 0 1.30435V52.6956C0 53.415 0.577264 54 1.28524 54H50.7148C51.4227 54 52 53.415 52 52.6956V1.30435C52 0.585022 51.4227 0 50.7148 0ZM13.752 1.67638H16.5316V4.24471L15.7298 3.60777C15.384 3.3338 14.8988 3.33421 14.5542 3.60777L13.752 4.24471V1.67638ZM8.17506 1.67638H12.1863V5.52022C12.1863 6.05333 12.6141 6.48756 13.1403 6.48756C13.5661 6.48756 13.6465 6.34625 15.142 5.15891L16.5563 6.28239C17.1807 6.77719 18.0977 6.32401 18.0977 5.52022V1.67638H22.1077V11.2876H8.17506V1.67638ZM4.49551 12.8771H47.5041V14.2609H4.49551V12.8771ZM4.49551 15.85H47.5041V30.3631H40.8997V18.1612C40.8997 17.5136 40.3796 16.9871 39.7419 16.9871C38.6564 16.9871 13.5495 16.9871 12.2581 16.9871C11.6204 16.9871 11.1003 17.5136 11.1003 18.1612V30.3631H4.49551V15.85ZM24.2167 24.1095L26 22.6939L27.7833 24.1095C28.4268 24.6208 29.3775 24.1552 29.3775 23.3214V18.5765H39.3335V30.3631H12.6665V18.5765H22.6225V23.3214C22.6225 24.149 23.5647 24.6237 24.2167 24.1095ZM24.1886 22.1142V18.5765H27.8114V22.1142C26.5415 21.1061 26.434 20.9454 26 20.9454C25.5616 20.9454 25.4495 21.1131 24.1886 22.1142ZM4.49551 31.9525H47.5041V33.3351C46.6447 33.3351 5.40119 33.3351 4.49551 33.3351V31.9525ZM34.8128 39.8408C35.2395 39.8408 35.3121 39.7061 36.858 38.4784L38.3145 39.6344V39.6352C38.9454 40.1325 39.8608 39.6748 39.8608 38.8694V34.9246H43.2497V49.4385H30.4663V34.9246H33.8556V38.8694C33.8556 39.4053 34.2847 39.8408 34.8128 39.8408ZM35.4213 37.6008V34.9246H38.2947V37.6008C37.4259 36.9116 37.2765 36.7225 36.858 36.7225C36.4435 36.7225 36.3124 36.8943 35.4213 37.6008ZM22.3164 45.7586C21.8841 45.7586 21.5333 46.1146 21.5333 46.5533V49.4385H8.74989V34.925H12.1392V38.8694C12.1392 39.4053 12.5683 39.8408 13.0964 39.8408C13.5219 39.8408 13.5909 39.7094 15.142 38.4784L16.5973 39.6344C16.5982 39.6344 16.5982 39.6352 16.5982 39.6352C17.2286 40.1321 18.1444 39.6748 18.1444 38.8694V34.925H21.5333V43.3748C21.5333 43.8136 21.8841 44.1696 22.3164 44.1696C22.7491 44.1696 23.0995 43.8136 23.0995 43.3748V34.9246H28.9005V49.4385C27.83 49.4385 23.6292 49.4385 23.0995 49.4385V46.5533C23.0995 46.1146 22.7487 45.7586 22.3164 45.7586ZM13.7053 37.6008V34.925H16.5783V37.6008C15.7245 36.9235 15.5666 36.7225 15.142 36.7225C14.7206 36.7225 14.5708 36.9141 13.7053 37.6008ZM4.49551 34.9246H7.18372V49.4385H4.49551V34.9246ZM47.5041 52.4106H4.49551V51.0279H47.5041V52.4106ZM50.4338 52.4106H49.0702C49.0702 51.6838 49.0702 46.4713 49.0702 45.7627C49.0702 45.3231 48.7207 44.9684 48.2872 44.9684C47.8552 44.9684 47.5041 45.3231 47.5041 45.7627V49.4385H44.8159V34.9246H47.5041V42.5842C47.5041 43.023 47.8552 43.379 48.2872 43.379C48.7207 43.379 49.0702 43.023 49.0702 42.5842C49.0702 40.5869 49.0702 3.24934 49.0702 1.58945H50.4338V52.4106Z" fill="white"/>
</svg>
