<svg width="201" height="170" viewBox="0 0 201 170" fill="none" xmlns="http://www.w3.org/2000/svg">
<path d="M113.828 107.781V115.905C113.828 116.351 113.651 116.779 113.335 117.095C113.019 117.411 112.591 117.588 112.145 117.588C111.698 117.588 111.27 117.411 110.954 117.095C110.639 116.779 110.461 116.351 110.461 115.905V107.781C110.461 107.334 110.639 106.906 110.954 106.591C111.27 106.275 111.698 106.098 112.145 106.098C112.591 106.098 113.019 106.275 113.335 106.591C113.651 106.906 113.828 107.334 113.828 107.781ZM112.145 83.5405C111.698 83.5405 111.27 83.7178 110.954 84.0335C110.639 84.3492 110.461 84.7774 110.461 85.2238V101.106C110.461 101.553 110.639 101.981 110.954 102.297C111.27 102.612 111.698 102.79 112.145 102.79C112.591 102.79 113.019 102.612 113.335 102.297C113.651 101.981 113.828 101.553 113.828 101.106V85.2255C113.828 84.7791 113.651 84.3509 113.335 84.0352C113.019 83.7195 112.591 83.5421 112.145 83.5421V83.5405ZM132.682 64.776C133.128 64.776 133.556 64.5986 133.872 64.2829C134.188 63.9672 134.365 63.5391 134.365 63.0926V52.8392C134.365 52.3928 134.188 51.9646 133.872 51.6489C133.556 51.3332 133.128 51.1559 132.682 51.1559C132.235 51.1559 131.807 51.3332 131.492 51.6489C131.176 51.9646 130.998 52.3928 130.998 52.8392V63.1078C131.002 63.5516 131.181 63.9761 131.496 64.2888C131.811 64.6015 132.236 64.7772 132.68 64.7777L132.682 64.776ZM132.682 45.2237C133.128 45.2237 133.556 45.0463 133.872 44.7306C134.188 44.415 134.365 43.9868 134.365 43.5403V22.7238C134.365 22.2774 134.188 21.8492 133.872 21.5335C133.556 21.2178 133.128 21.0405 132.682 21.0405C132.235 21.0405 131.807 21.2178 131.492 21.5335C131.176 21.8492 130.998 22.2774 130.998 22.7238V43.542C130.998 43.9882 131.176 44.4161 131.491 44.7317C131.806 45.0474 132.234 45.2249 132.68 45.2254L132.682 45.2237ZM153.219 129.183C152.772 129.183 152.344 129.361 152.029 129.676C151.713 129.992 151.536 130.42 151.536 130.867V137.344C151.536 137.791 151.713 138.219 152.029 138.535C152.344 138.85 152.772 139.028 153.219 139.028C153.665 139.028 154.094 138.85 154.409 138.535C154.725 138.219 154.902 137.791 154.902 137.344V130.868C154.902 130.647 154.859 130.428 154.774 130.224C154.689 130.019 154.565 129.834 154.409 129.677C154.252 129.521 154.066 129.397 153.862 129.313C153.657 129.228 153.438 129.185 153.217 129.185L153.219 129.183ZM153.219 108.025C152.772 108.025 152.344 108.202 152.029 108.518C151.713 108.834 151.536 109.262 151.536 109.708V124.133C151.536 124.58 151.713 125.008 152.029 125.323C152.344 125.639 152.772 125.817 153.219 125.817C153.665 125.817 154.094 125.639 154.409 125.323C154.725 125.008 154.902 124.58 154.902 124.133V109.71C154.902 109.489 154.859 109.27 154.774 109.065C154.689 108.861 154.565 108.675 154.409 108.519C154.252 108.363 154.066 108.239 153.862 108.154C153.657 108.07 153.438 108.026 153.217 108.027L153.219 108.025ZM200.619 78.9196V123.293C200.617 125.748 199.641 128.102 197.905 129.837C196.169 131.573 193.815 132.549 191.361 132.552H161.634V138.741C161.634 140.6 160.897 142.384 159.583 143.7C158.27 145.016 156.489 145.757 154.63 145.761H124.188C122.939 145.754 121.716 145.412 120.645 144.771C119.574 144.129 118.695 143.212 118.101 142.115C117.136 143.256 115.933 144.174 114.578 144.804C113.222 145.433 111.746 145.76 110.251 145.761H60.0345C57.3007 145.757 54.68 144.67 52.7471 142.737C50.8142 140.803 49.727 138.182 49.7239 135.449V85.2255C49.727 82.4918 50.8142 79.8709 52.7471 77.9377C54.68 76.0044 57.3007 74.9168 60.0345 74.9132H83.4602V10.5581C83.4629 8.02399 84.4708 5.59439 86.2627 3.80247C88.0546 2.01055 90.4842 1.00267 93.0184 1H131.54C134.075 1.00267 136.504 2.0106 138.296 3.80257C140.087 5.59454 141.095 8.02414 141.097 10.5581V69.6729H191.361C193.813 69.6756 196.165 70.6505 197.9 72.3841C199.635 74.1177 200.613 76.4685 200.617 78.9213L200.619 78.9196ZM162.693 73.0278V89.412L167.928 83.6044C168.086 83.4292 168.279 83.2891 168.494 83.1932C168.71 83.0973 168.943 83.0477 169.179 83.0477C169.415 83.0477 169.648 83.0973 169.863 83.1932C170.079 83.2891 170.272 83.4292 170.43 83.6044L175.663 89.4154V73.0396L162.693 73.0278ZM104.221 4.36673V29.5112L111.158 23.3181C111.467 23.0426 111.866 22.8904 112.279 22.8904C112.693 22.8904 113.092 23.0426 113.401 23.3181L120.336 29.5112V4.36673H104.221ZM86.8269 74.9132H110.251C112.985 74.9163 115.606 76.0039 117.539 77.9372C119.472 79.8705 120.559 82.4916 120.562 85.2255V102.34C121.649 101.661 122.905 101.299 124.188 101.293H137.73V10.5598C137.729 8.91847 137.076 7.34469 135.916 6.18391C134.755 5.02313 133.182 4.3702 131.54 4.36841H123.703V33.2718C123.703 33.5966 123.609 33.9145 123.432 34.1872C123.256 34.4598 123.004 34.6755 122.707 34.8083C122.411 34.941 122.082 34.9851 121.761 34.9353C121.44 34.8855 121.141 34.7439 120.898 34.5276L112.279 26.8329L103.659 34.5276C103.417 34.7439 103.117 34.8855 102.796 34.9353C102.475 34.9851 102.146 34.941 101.85 34.8083C101.553 34.6755 101.302 34.4598 101.125 34.1872C100.948 33.9145 100.854 33.5966 100.854 33.2718V4.36673H93.0184C91.377 4.36851 89.8034 5.02145 88.6429 6.18223C87.4825 7.343 86.83 8.91678 86.8286 10.5581L86.8269 74.9132ZM134.648 119.142L138.25 115.708C138.563 115.41 138.979 115.244 139.411 115.244C139.843 115.244 140.259 115.41 140.572 115.708L144.174 119.142V104.665H134.648V119.142ZM76.1847 78.2799V98.7631L84.2043 93.3427C84.4826 93.1545 84.8109 93.054 85.1469 93.054C85.4829 93.054 85.8113 93.1545 86.0896 93.3427L94.1075 98.7631V78.2799H76.1847ZM117.195 135.44V85.2255C117.193 83.3843 116.461 81.6189 115.159 80.3168C113.857 79.0147 112.092 78.2822 110.251 78.2799H97.4658V101.933C97.466 102.239 97.3829 102.539 97.2255 102.801C97.0681 103.063 96.8423 103.277 96.5724 103.42C96.3025 103.564 95.9986 103.631 95.6933 103.615C95.3881 103.599 95.093 103.5 94.8398 103.328L85.1385 96.7633L75.4356 103.328C75.1824 103.5 74.8873 103.599 74.582 103.615C74.2768 103.631 73.9729 103.564 73.703 103.42C73.433 103.277 73.2073 103.063 73.0499 102.801C72.8925 102.539 72.8094 102.239 72.8096 101.933V78.2799H60.0345C58.1934 78.2826 56.4285 79.0153 55.1268 80.3173C53.8251 81.6193 53.0928 83.3844 53.0906 85.2255V135.44C53.0906 137.283 53.8219 139.05 55.1238 140.354C56.4258 141.658 58.1919 142.392 60.0345 142.394H110.251C112.094 142.392 113.86 141.658 115.162 140.354C116.464 139.051 117.195 137.283 117.195 135.44ZM158.269 108.304C158.268 107.339 157.884 106.414 157.202 105.731C156.52 105.048 155.595 104.663 154.63 104.66H147.541V123.071C147.541 123.4 147.444 123.723 147.263 123.998C147.081 124.273 146.823 124.489 146.52 124.619C146.217 124.748 145.883 124.786 145.559 124.728C145.235 124.669 144.935 124.517 144.696 124.29L139.41 119.251L134.126 124.29C133.888 124.517 133.588 124.669 133.263 124.728C132.939 124.786 132.605 124.748 132.302 124.619C131.999 124.489 131.741 124.273 131.559 123.998C131.378 123.723 131.281 123.4 131.281 123.071V104.66H124.188C123.224 104.664 122.301 105.049 121.621 105.732C120.941 106.416 120.56 107.341 120.562 108.304V138.741C120.56 139.219 120.652 139.693 120.833 140.135C121.015 140.577 121.281 140.98 121.618 141.319C121.955 141.658 122.355 141.928 122.796 142.112C123.237 142.297 123.71 142.393 124.188 142.394H154.63C155.596 142.393 156.522 142.009 157.205 141.325C157.888 140.642 158.273 139.716 158.274 138.75L158.269 108.304ZM197.251 78.9213C197.251 77.3587 196.63 75.8601 195.525 74.7552C194.42 73.6503 192.921 73.0295 191.359 73.0295H179.025V93.8006C179.025 94.1409 178.921 94.4733 178.729 94.7538C178.536 95.0343 178.262 95.2497 177.945 95.3717C177.627 95.4936 177.28 95.5164 176.949 95.437C176.618 95.3575 176.319 95.1796 176.091 94.9267L169.174 87.2455L162.259 94.9234C162.101 95.0987 161.908 95.2389 161.692 95.3349C161.477 95.4309 161.244 95.4805 161.008 95.4806C160.802 95.4812 160.597 95.4435 160.405 95.3695C160.087 95.2475 159.814 95.0319 159.621 94.7512C159.428 94.4705 159.324 94.1378 159.324 93.7972V73.0396H141.097V101.293H154.63C156.488 101.295 158.27 102.035 159.585 103.349C160.899 104.664 161.639 106.446 161.641 108.304V129.178H191.361C192.923 129.178 194.422 128.557 195.527 127.453C196.632 126.348 197.252 124.849 197.252 123.286L197.251 78.9213ZM192.201 102.761C191.754 102.761 191.326 102.938 191.01 103.254C190.695 103.57 190.517 103.998 190.517 104.444V111.843C190.517 112.289 190.695 112.718 191.01 113.033C191.326 113.349 191.754 113.526 192.201 113.526C192.647 113.526 193.075 113.349 193.391 113.033C193.707 112.718 193.884 112.289 193.884 111.843V104.444C193.884 103.998 193.707 103.57 193.391 103.254C193.075 102.938 192.647 102.761 192.201 102.761ZM192.201 80.8908C191.754 80.8908 191.326 81.0682 191.01 81.3839C190.695 81.6996 190.517 82.1277 190.517 82.5742V96.2431C190.517 96.6896 190.695 97.1178 191.01 97.4334C191.326 97.7491 191.754 97.9265 192.201 97.9265C192.647 97.9265 193.075 97.7491 193.391 97.4334C193.707 97.1178 193.884 96.6896 193.884 96.2431V82.5742C193.884 82.1277 193.707 81.6996 193.391 81.3839C193.075 81.0682 192.647 80.8908 192.201 80.8908Z" fill="#7FBC53" stroke="#7FBC53" stroke-width="0.5"/>
<mask id="path-2-outside-1_1400_6534" maskUnits="userSpaceOnUse" x="0" y="63.1779" width="44" height="109" fill="black">
<rect fill="white" y="63.1779" width="44" height="109"/>
<path d="M33.58 169.178C31.828 169.178 30.368 168.594 29.2 167.426C28.032 166.258 27.448 164.847 27.448 163.192V80.1179L29.2 82.1619L12.702 93.5499C11.7287 94.2312 10.6093 94.5719 9.344 94.5719C7.68933 94.5719 6.278 93.9879 5.11 92.8199C3.942 91.5545 3.358 90.1432 3.358 88.5858C3.358 86.4445 4.38 84.7412 6.424 83.4759L29.638 68.1459C30.4167 67.6592 31.1953 67.3185 31.974 67.1238C32.7527 66.9292 33.5313 66.8805 34.31 66.9778C36.062 66.9778 37.4247 67.5619 38.398 68.7299C39.4687 69.8005 40.004 71.1632 40.004 72.8179V163.192C40.004 164.847 39.3713 166.258 38.106 167.426C36.938 168.594 35.4293 169.178 33.58 169.178Z"/>
</mask>
<path d="M29.2 167.426L27.0787 169.547V169.547L29.2 167.426ZM27.448 80.1179L29.7258 78.1655L24.448 72.0081V80.1179H27.448ZM29.2 82.1619L30.9042 84.6308L33.6455 82.7385L31.4778 80.2095L29.2 82.1619ZM12.702 93.5499L10.9978 91.0809L10.9897 91.0865L10.9816 91.0922L12.702 93.5499ZM5.11 92.8199L2.90559 94.8547L2.94627 94.8988L2.98868 94.9412L5.11 92.8199ZM6.424 83.4759L8.00307 86.0266L8.04047 86.0035L8.07719 85.9792L6.424 83.4759ZM29.638 68.1459L28.048 65.6019L28.0162 65.6218L27.9848 65.6425L29.638 68.1459ZM31.974 67.1238L31.2464 64.2134L31.2464 64.2134L31.974 67.1238ZM34.31 66.9778L33.9379 69.9547L34.1232 69.9778H34.31V66.9778ZM38.398 68.7299L36.0933 70.6504L36.1805 70.7549L36.2767 70.8512L38.398 68.7299ZM38.106 167.426L36.0712 165.221L36.0271 165.262L35.9847 165.305L38.106 167.426ZM33.58 166.178C32.5701 166.178 31.8899 165.873 31.3213 165.305L27.0787 169.547C28.8461 171.315 31.0859 172.178 33.58 172.178V166.178ZM31.3213 165.305C30.717 164.7 30.448 164.052 30.448 163.192H24.448C24.448 165.641 25.347 167.815 27.0787 169.547L31.3213 165.305ZM30.448 163.192V80.1179H24.448V163.192H30.448ZM25.1702 82.0702L26.9222 84.1142L31.4778 80.2095L29.7258 78.1655L25.1702 82.0702ZM27.4958 79.6929L10.9978 91.0809L14.4062 96.0188L30.9042 84.6308L27.4958 79.6929ZM10.9816 91.0922C10.5461 91.397 10.0361 91.5719 9.344 91.5719V97.5719C11.1826 97.5719 12.9112 97.0653 14.4224 96.0076L10.9816 91.0922ZM9.344 91.5719C8.48343 91.5719 7.83561 91.3028 7.23132 90.6985L2.98868 94.9412C4.72039 96.6729 6.89524 97.5719 9.344 97.5719V91.5719ZM7.31441 90.785C6.59933 90.0103 6.358 89.3068 6.358 88.5858H0.358C0.358 90.9795 1.28467 93.0987 2.90559 94.8547L7.31441 90.785ZM6.358 88.5858C6.358 87.6265 6.71359 86.8249 8.00307 86.0266L4.84494 80.9251C2.04641 82.6575 0.358 85.2625 0.358 88.5858H6.358ZM8.07719 85.9792L31.2912 70.6492L27.9848 65.6425L4.77082 80.9725L8.07719 85.9792ZM31.228 70.6898C31.7779 70.3462 32.2682 70.1426 32.7016 70.0343L31.2464 64.2134C30.1225 64.4944 29.0555 64.9722 28.048 65.6019L31.228 70.6898ZM32.7016 70.0343C33.1293 69.9274 33.5352 69.9043 33.9379 69.9547L34.6821 64.001C33.5275 63.8567 32.376 63.931 31.2464 64.2134L32.7016 70.0343ZM34.31 69.9778C35.3232 69.9778 35.7804 70.2748 36.0933 70.6504L40.7027 66.8093C39.069 64.8489 36.8008 63.9778 34.31 63.9778V69.9778ZM36.2767 70.8512C36.7298 71.3043 37.004 71.8776 37.004 72.8179H43.004C43.004 70.4488 42.2076 68.2968 40.5193 66.6085L36.2767 70.8512ZM37.004 72.8179V163.192H43.004V72.8179H37.004ZM37.004 163.192C37.004 163.971 36.7495 164.595 36.0712 165.221L40.1408 169.63C41.9931 167.92 43.004 165.722 43.004 163.192H37.004ZM35.9847 165.305C35.4488 165.84 34.7377 166.178 33.58 166.178V172.178C36.121 172.178 38.4272 171.347 40.2273 169.547L35.9847 165.305Z" fill="#69B539" mask="url(#path-2-outside-1_1400_6534)"/>
</svg>
