<svg width="242" height="203" viewBox="0 0 242 203" fill="none" xmlns="http://www.w3.org/2000/svg">
<mask id="path-1-outside-1_1615_101" maskUnits="userSpaceOnUse" x="5" y="83" width="73" height="113" fill="black">
<rect fill="white" x="5" y="83" width="73" height="113"/>
<path d="M41.902 192.46C36.354 192.46 31.4387 191.438 27.156 189.394C22.9707 187.253 19.4667 184.381 16.644 180.78C13.8213 177.179 11.68 173.139 10.22 168.662C8.76 164.185 8.03 159.561 8.03 154.792C8.03 150.607 8.56533 145.935 9.636 140.776C10.7067 135.617 12.3127 130.361 14.454 125.008C16.6927 119.557 19.564 114.35 23.068 109.386C26.572 104.422 30.7573 99.9933 35.624 96.1C40.4907 92.1093 46.0873 89.0433 52.414 86.902C53.29 86.7073 54.0687 86.61 54.75 86.61C56.3073 86.61 57.67 87.048 58.838 87.924C60.1033 88.7027 60.736 90.1627 60.736 92.304C60.736 93.6667 60.298 94.8833 59.422 95.954C58.546 96.9273 57.378 97.6573 55.918 98.144C52.0247 99.604 48.18 101.745 44.384 104.568C40.6853 107.293 37.23 110.554 34.018 114.35C30.9033 118.049 28.178 122.088 25.842 126.468C23.6033 130.751 22.046 135.228 21.17 139.9L17.666 141.068C19.3207 138.44 21.4133 135.958 23.944 133.622C26.4747 131.286 29.3947 129.388 32.704 127.928C36.1107 126.468 39.8093 125.738 43.8 125.738C48.0827 125.738 52.0733 126.663 55.772 128.512C59.4707 130.361 62.7313 132.843 65.554 135.958C68.3767 139.073 70.5667 142.674 72.124 146.762C73.7787 150.753 74.606 154.938 74.606 159.318C74.606 165.255 73.146 170.755 70.226 175.816C67.4033 180.78 63.51 184.819 58.546 187.934C53.6793 190.951 48.1313 192.46 41.902 192.46ZM41.756 181.51C45.7467 181.51 49.2993 180.585 52.414 178.736C55.626 176.789 58.1567 174.161 60.006 170.852C61.8553 167.445 62.78 163.601 62.78 159.318C62.78 155.327 61.9527 151.629 60.298 148.222C58.6433 144.815 56.2587 142.09 53.144 140.046C50.1267 137.905 46.4767 136.834 42.194 136.834C37.6193 136.834 33.6773 137.856 30.368 139.9C27.0587 141.944 24.4793 144.718 22.63 148.222C20.878 151.629 20.002 155.425 20.002 159.61C20.002 163.503 20.878 167.105 22.63 170.414C24.382 173.723 26.864 176.4 30.076 178.444C33.3853 180.488 37.2787 181.51 41.756 181.51Z"/>
</mask>
<path d="M27.156 189.394L25.7896 192.065L25.8264 192.084L25.8638 192.101L27.156 189.394ZM16.644 180.78L19.0052 178.929L19.0052 178.929L16.644 180.78ZM10.22 168.662L7.36781 169.592L7.36781 169.592L10.22 168.662ZM9.636 140.776L6.6986 140.166L6.6986 140.166L9.636 140.776ZM14.454 125.008L11.6789 123.868L11.6737 123.881L11.6686 123.894L14.454 125.008ZM35.624 96.1L37.4981 98.4426L37.5122 98.4313L37.5262 98.4198L35.624 96.1ZM52.414 86.902L51.7632 83.9734L51.6054 84.0085L51.4522 84.0603L52.414 86.902ZM58.838 87.924L57.038 90.324L57.1483 90.4067L57.2657 90.479L58.838 87.924ZM59.422 95.954L61.6519 97.9609L61.6991 97.9084L61.7439 97.8537L59.422 95.954ZM55.918 98.144L54.9693 95.2979L54.9166 95.3155L54.8646 95.335L55.918 98.144ZM44.384 104.568L46.1636 106.983L46.1741 106.975L44.384 104.568ZM34.018 114.35L31.7278 112.412L31.7233 112.418L34.018 114.35ZM25.842 126.468L23.1949 125.056L23.1891 125.067L23.1833 125.078L25.842 126.468ZM21.17 139.9L22.1187 142.746L23.7933 142.188L24.1186 140.453L21.17 139.9ZM17.666 141.068L15.1273 139.47L10.6593 146.566L18.6147 143.914L17.666 141.068ZM23.944 133.622L25.9788 135.826L25.9788 135.826L23.944 133.622ZM32.704 127.928L31.5222 125.171L31.5076 125.177L31.4931 125.183L32.704 127.928ZM55.772 128.512L57.1136 125.829L57.1136 125.829L55.772 128.512ZM65.554 135.958L67.777 133.943L67.777 133.943L65.554 135.958ZM72.124 146.762L69.3205 147.83L69.3361 147.871L69.3528 147.911L72.124 146.762ZM70.226 175.816L67.6274 174.317L67.6228 174.325L67.6181 174.333L70.226 175.816ZM58.546 187.934L60.1268 190.484L60.1337 190.479L60.1405 190.475L58.546 187.934ZM52.414 178.736L53.9456 181.316L53.9573 181.309L53.9689 181.302L52.414 178.736ZM60.006 170.852L62.6248 172.315L62.6338 172.299L62.6426 172.283L60.006 170.852ZM53.144 140.046L51.4078 142.493L51.4523 142.524L51.498 142.554L53.144 140.046ZM30.368 139.9L28.7915 137.348L28.7915 137.348L30.368 139.9ZM22.63 148.222L19.9768 146.822L19.9694 146.836L19.9621 146.85L22.63 148.222ZM22.63 170.414L19.9786 171.818L19.9786 171.818L22.63 170.414ZM30.076 178.444L28.4654 180.975L28.4824 180.986L28.4995 180.996L30.076 178.444ZM41.902 189.46C36.7259 189.46 32.2645 188.508 28.4482 186.687L25.8638 192.101C30.6128 194.368 35.9821 195.46 41.902 195.46V189.46ZM28.5224 186.723C24.7133 184.774 21.5521 182.179 19.0052 178.929L14.2828 182.631C17.3812 186.584 21.2281 189.731 25.7896 192.065L28.5224 186.723ZM19.0052 178.929C16.405 175.612 14.4268 171.886 13.0722 167.732L7.36781 169.592C8.93323 174.393 11.2377 178.745 14.2828 182.631L19.0052 178.929ZM13.0722 167.732C11.7114 163.559 11.03 159.25 11.03 154.792H5.03C5.03 159.873 5.80863 164.811 7.36781 169.592L13.0722 167.732ZM11.03 154.792C11.03 150.856 11.5342 146.393 12.5734 141.386L6.6986 140.166C5.59647 145.477 5.03 150.357 5.03 154.792H11.03ZM12.5734 141.386C13.6051 136.415 15.1574 131.327 17.2394 126.122L11.6686 123.894C9.46794 129.395 7.8082 134.82 6.6986 140.166L12.5734 141.386ZM17.2291 126.148C19.3795 120.912 22.1407 115.902 25.5189 111.116L20.6171 107.656C16.9873 112.798 14.0058 118.203 11.6789 123.868L17.2291 126.148ZM25.5189 111.116C28.8562 106.388 32.8458 102.164 37.4981 98.4426L33.7499 93.7574C28.6689 97.8222 24.2878 102.456 20.6171 107.656L25.5189 111.116ZM37.5262 98.4198C42.0966 94.6721 47.3703 91.7763 53.3758 89.7436L51.4522 84.0603C44.8044 86.3104 38.8847 89.5466 33.7218 93.7802L37.5262 98.4198ZM53.0648 89.8306C53.7902 89.6694 54.3439 89.61 54.75 89.61V83.61C53.7935 83.61 52.7899 83.7453 51.7632 83.9734L53.0648 89.8306ZM54.75 89.61C55.7043 89.61 56.425 89.8642 57.038 90.324L60.638 85.524C58.915 84.2318 56.9104 83.61 54.75 83.61V89.61ZM57.2657 90.479C57.3367 90.5227 57.4187 90.5879 57.5088 90.7958C57.6161 91.0432 57.736 91.5097 57.736 92.304H63.736C63.736 89.6229 62.9197 86.9133 60.4103 85.369L57.2657 90.479ZM57.736 92.304C57.736 92.9627 57.5449 93.5107 57.1001 94.0543L61.7439 97.8537C63.0511 96.2559 63.736 94.3706 63.736 92.304H57.736ZM57.1921 93.9471C56.7199 94.4718 56.0237 94.9465 54.9693 95.2979L56.8667 100.99C58.7323 100.368 60.3721 99.3828 61.6519 97.9609L57.1921 93.9471ZM54.8646 95.335C50.6748 96.9062 46.585 99.1928 42.5939 102.161L46.1741 106.975C49.775 104.298 53.3745 102.302 56.9714 100.953L54.8646 95.335ZM42.6044 102.153C38.7028 105.028 35.0785 108.452 31.7278 112.412L36.3082 116.288C39.3815 112.656 42.6679 109.559 46.1636 106.983L42.6044 102.153ZM31.7233 112.418C28.4697 116.281 25.6272 120.496 23.1949 125.056L28.4891 127.88C30.7288 123.68 33.337 119.816 36.3127 116.282L31.7233 112.418ZM23.1833 125.078C20.8095 129.62 19.153 134.378 18.2214 139.347L24.1186 140.453C24.939 136.078 26.3972 131.882 28.5007 127.858L23.1833 125.078ZM20.2213 137.054L16.7173 138.222L18.6147 143.914L22.1187 142.746L20.2213 137.054ZM20.2047 142.666C21.7045 140.284 23.6212 138.003 25.9788 135.826L21.9092 131.418C19.2055 133.913 16.9369 136.596 15.1273 139.47L20.2047 142.666ZM25.9788 135.826C28.2545 133.726 30.8928 132.006 33.9149 130.673L31.4931 125.183C27.8965 126.77 24.6948 128.846 21.9092 131.418L25.9788 135.826ZM33.8858 130.685C36.8911 129.397 40.1841 128.738 43.8 128.738V122.738C39.4346 122.738 35.3303 123.539 31.5222 125.171L33.8858 130.685ZM43.8 128.738C47.6341 128.738 51.1633 129.562 54.4304 131.195L57.1136 125.829C52.9833 123.764 48.5313 122.738 43.8 122.738V128.738ZM54.4304 131.195C57.7908 132.875 60.7539 135.129 63.331 137.973L67.777 133.943C64.7087 130.558 61.1506 127.847 57.1136 125.829L54.4304 131.195ZM63.331 137.973C65.8928 140.799 67.8906 144.076 69.3205 147.83L74.9275 145.694C73.2427 141.272 70.8605 137.346 67.777 133.943L63.331 137.973ZM69.3528 147.911C70.8543 151.532 71.606 155.327 71.606 159.318H77.606C77.606 154.549 76.7031 149.973 74.8952 145.613L69.3528 147.911ZM71.606 159.318C71.606 164.738 70.28 169.719 67.6274 174.317L72.8246 177.315C76.012 171.79 77.606 165.773 77.606 159.318H71.606ZM67.6181 174.333C65.0472 178.854 61.5069 182.535 56.9515 185.393L60.1405 190.475C65.5131 187.104 69.7595 182.706 72.8339 177.299L67.6181 174.333ZM56.9652 185.384C52.6147 188.082 47.6237 189.46 41.902 189.46V195.46C48.639 195.46 54.7439 193.821 60.1268 190.484L56.9652 185.384ZM41.756 184.51C46.2293 184.51 50.3212 183.468 53.9456 181.316L50.8824 176.156C48.2774 177.703 45.2641 178.51 41.756 178.51V184.51ZM53.9689 181.302C57.6293 179.083 60.5247 176.074 62.6248 172.315L57.3872 169.389C55.7886 172.249 53.6227 174.495 50.8591 176.17L53.9689 181.302ZM62.6426 172.283C64.7547 168.393 65.78 164.047 65.78 159.318H59.78C59.78 163.154 58.956 166.498 57.3694 169.421L62.6426 172.283ZM65.78 159.318C65.78 154.898 64.8602 150.748 62.9965 146.911L57.5995 149.533C59.0451 152.509 59.78 155.756 59.78 159.318H65.78ZM62.9965 146.911C61.1096 143.026 58.3649 139.884 54.79 137.538L51.498 142.554C54.1524 144.296 56.1771 146.604 57.5995 149.533L62.9965 146.911ZM54.8802 137.599C51.2788 135.044 46.9976 133.834 42.194 133.834V139.834C45.9558 139.834 48.9745 140.766 51.4078 142.493L54.8802 137.599ZM42.194 133.834C37.1619 133.834 32.6526 134.963 28.7915 137.348L31.9445 142.452C34.7021 140.749 38.0768 139.834 42.194 139.834V133.834ZM28.7915 137.348C25.0182 139.678 22.071 142.854 19.9768 146.822L25.2832 149.622C26.8876 146.582 29.0992 144.21 31.9445 142.452L28.7915 137.348ZM19.9621 146.85C17.9722 150.719 17.002 154.992 17.002 159.61H23.002C23.002 155.857 23.7838 152.538 25.2979 149.594L19.9621 146.85ZM17.002 159.61C17.002 163.973 17.9884 168.058 19.9786 171.818L25.2814 169.01C23.7676 166.151 23.002 163.034 23.002 159.61H17.002ZM19.9786 171.818C21.9782 175.595 24.8223 178.657 28.4654 180.975L31.6866 175.913C28.9057 174.143 26.7858 171.852 25.2814 169.01L19.9786 171.818ZM28.4995 180.996C32.3507 183.375 36.8076 184.51 41.756 184.51V178.51C37.7497 178.51 34.42 177.601 31.6525 175.892L28.4995 180.996Z" fill="#69B539" mask="url(#path-1-outside-1_1615_101)"/>
<path d="M83.3362 15V53.6012H93.4304C93.1447 54.3738 92.9945 55.19 92.9865 56.0137C92.9865 57.9333 93.7491 59.7742 95.1064 61.1316C96.4637 62.4889 98.3047 63.2514 100.224 63.2514C102.144 63.2514 103.985 62.4889 105.342 61.1316C106.699 59.7742 107.462 57.9333 107.462 56.0137C107.454 55.19 107.304 54.3738 107.018 53.6012H146.507C146.221 54.3738 146.071 55.19 146.063 56.0137C146.063 57.9333 146.826 59.7742 148.183 61.1316C149.54 62.4889 151.381 63.2514 153.301 63.2514C155.22 63.2514 157.061 62.4889 158.419 61.1316C159.776 59.7742 160.539 57.9333 160.539 56.0137C160.531 55.19 160.38 54.3738 160.095 53.6012H175.014V33.3018L166.363 24.6503H155.713V15H83.3362ZM88.1614 19.8251H150.888V48.776H88.1614V19.8251ZM102.637 56.0137C102.637 56.4909 102.495 56.9573 102.23 57.3541C101.965 57.7508 101.588 58.0601 101.147 58.2427C100.707 58.4253 100.222 58.473 99.7536 58.3799C99.2856 58.2869 98.8557 58.0571 98.5183 57.7197C98.1809 57.3823 97.9511 56.9524 97.858 56.4844C97.7649 56.0164 97.8127 55.5313 97.9953 55.0905C98.1779 54.6496 98.4871 54.2728 98.8839 54.0077C99.2806 53.7427 99.7471 53.6012 100.224 53.6012C100.864 53.6012 101.478 53.8553 101.93 54.3078C102.383 54.7602 102.637 55.3739 102.637 56.0137ZM153.301 58.4263C152.824 58.4263 152.357 58.2848 151.96 58.0197C151.564 57.7546 151.255 57.3778 151.072 56.937C150.889 56.4961 150.842 56.0111 150.935 55.5431C151.028 55.0751 151.257 54.6452 151.595 54.3078C151.932 53.9704 152.362 53.7406 152.83 53.6475C153.298 53.5544 153.783 53.6022 154.224 53.7848C154.665 53.9674 155.042 54.2766 155.307 54.6734C155.572 55.0701 155.713 55.5366 155.713 56.0137C155.713 56.6536 155.459 57.2672 155.007 57.7197C154.554 58.1721 153.941 58.4263 153.301 58.4263ZM164.365 29.4754L170.189 35.2994V48.776H155.713V29.4754H164.365Z" fill="#7FBC53"/>
<path d="M201.723 128.121C204.586 128.121 207.385 127.272 209.765 125.681C212.146 124.091 214.001 121.83 215.097 119.185C216.192 116.54 216.479 113.629 215.92 110.821C215.362 108.013 213.983 105.434 211.959 103.41C209.934 101.385 207.355 100.006 204.547 99.4479C201.739 98.8894 198.829 99.1761 196.184 100.272C193.539 101.367 191.278 103.223 189.687 105.603C188.097 107.984 187.248 110.782 187.248 113.645C187.252 117.483 188.779 121.162 191.492 123.876C194.206 126.59 197.885 128.116 201.723 128.121ZM201.723 103.995C203.632 103.995 205.498 104.561 207.085 105.621C208.672 106.682 209.908 108.189 210.639 109.952C211.369 111.716 211.56 113.656 211.188 115.528C210.816 117.4 209.897 119.119 208.547 120.469C207.197 121.819 205.478 122.738 203.606 123.11C201.734 123.482 199.793 123.291 198.03 122.561C196.267 121.831 194.76 120.594 193.699 119.007C192.639 117.42 192.073 115.554 192.073 113.645C192.073 111.086 193.09 108.631 194.899 106.821C196.709 105.012 199.164 103.995 201.723 103.995Z" fill="#7FBC53"/>
<path d="M180.179 129.453L201.552 159.05L222.925 129.453C225.769 125.516 227.471 120.87 227.842 116.028C228.213 111.185 227.24 106.334 225.029 102.01C222.819 97.6856 219.457 94.0559 215.314 91.5211C211.171 88.9863 206.409 87.6449 201.552 87.6449C196.696 87.6449 191.933 88.9863 187.791 91.5211C183.648 94.0559 180.286 97.6856 178.075 102.01C175.865 106.334 174.891 111.185 175.262 116.028C175.634 120.87 177.335 125.516 180.179 129.453ZM186.322 98.784C190.15 94.9525 195.282 92.7039 200.694 92.4864C206.106 92.2689 211.401 94.0984 215.524 97.6103C219.648 101.122 222.297 106.059 222.944 111.436C223.591 116.814 222.188 122.238 219.014 126.627L201.552 150.809L184.09 126.627C181.075 122.485 179.642 117.4 180.052 112.293C180.461 107.185 182.685 102.393 186.322 98.784Z" fill="#7FBC53"/>
<path d="M201.203 68.0773H193.966V72.9024H201.203V68.0773Z" fill="#7FBC53"/>
<path d="M201.553 39.1259H194.315V43.951H201.553V39.1259Z" fill="#7FBC53"/>
<path d="M128.135 125.978H120.897V130.803H128.135V125.978Z" fill="#7FBC53"/>
<path d="M142.61 125.978H135.372V130.803H142.61V125.978Z" fill="#7FBC53"/>
<path d="M149.043 101.867L149.285 97.0422C149.024 97.0277 148.751 97.0277 148.476 97.0277H141.931V101.853H148.476C148.667 101.853 148.858 101.853 149.043 101.867Z" fill="#7FBC53"/>
<path d="M88.1614 142.867C88.1597 140.844 88.6648 138.854 89.6306 137.077L85.399 134.763C84.0444 137.249 83.3351 140.036 83.3362 142.867H88.1614Z" fill="#7FBC53"/>
<path d="M128.827 68.0773L121.541 68.0821L121.642 72.9072L128.827 72.9024V68.0773Z" fill="#7FBC53"/>
<path d="M134.691 97.0277H127.454V101.853H134.691V97.0277Z" fill="#7FBC53"/>
<path d="M120.906 154.929H113.668V159.754H120.906V154.929Z" fill="#7FBC53"/>
<path d="M143.302 68.0773H136.065V72.9024H143.302V68.0773Z" fill="#7FBC53"/>
<path d="M120.508 96.9488C118.503 96.7104 116.59 95.9703 114.947 94.7968L112.141 98.7172C114.449 100.358 117.132 101.394 119.944 101.73L120.508 96.9488Z" fill="#7FBC53"/>
<path d="M165.364 113.525L160.538 113.624V113.916C160.545 115.839 160.085 117.736 159.199 119.443L163.489 121.658C164.714 119.279 165.357 116.643 165.364 113.967V113.525Z" fill="#7FBC53"/>
<path d="M172.254 68.0773H165.016V72.9024H172.254V68.0773Z" fill="#7FBC53"/>
<path d="M164.333 154.929H157.095V159.754H164.333V154.929Z" fill="#7FBC53"/>
<path d="M157.938 127.909L155.228 123.909C153.556 125.04 151.626 125.732 149.617 125.924L150.068 130.729C152.886 130.462 155.591 129.492 157.938 127.909Z" fill="#7FBC53"/>
<path d="M149.857 154.929H142.62V159.754H149.857V154.929Z" fill="#7FBC53"/>
<path d="M154.749 103.612C156.473 104.669 157.909 106.137 158.927 107.884L163.101 105.472C161.685 103.027 159.682 100.974 157.272 99.4983L154.749 103.612Z" fill="#7FBC53"/>
<path d="M135.383 154.929H128.146V159.754H135.383V154.929Z" fill="#7FBC53"/>
<path d="M227.621 52.038C226.952 49.2885 225.605 46.7505 223.703 44.6555L220.13 47.9028C221.49 49.3969 222.453 51.2087 222.931 53.1719L227.621 52.038Z" fill="#7FBC53"/>
<path d="M187.077 39.1259H179.84V43.951H187.077V39.1259Z" fill="#7FBC53"/>
<path d="M223.425 67.6686C225.379 65.6217 226.789 63.1175 227.526 60.385L222.858 59.1498C222.332 61.0997 221.327 62.887 219.934 64.3489L223.425 67.6686Z" fill="#7FBC53"/>
<path d="M193.284 154.929H186.047V159.754H193.284V154.929Z" fill="#7FBC53"/>
<path d="M208.443 72.9017H211.203C212.947 72.9026 214.68 72.6341 216.342 72.1056L214.875 67.5072C213.688 67.8859 212.449 68.078 211.203 68.0766H208.443V72.9017Z" fill="#7FBC53"/>
<path d="M215.15 44.6096L216.728 40.0499C214.951 39.436 213.084 39.1236 211.204 39.1259H208.791V43.951H211.204C212.547 43.9493 213.881 44.1719 215.15 44.6096Z" fill="#7FBC53"/>
<path d="M106.432 159.755V154.929H100.224C99.9349 154.929 99.6478 154.929 99.3631 154.898L99.0278 159.723C99.421 159.75 99.8215 159.764 100.234 159.764L106.432 159.755Z" fill="#7FBC53"/>
<path d="M105.048 84.9639C105.039 87.5231 105.617 90.0503 106.737 92.3512L111.079 90.2402C110.28 88.5967 109.867 86.7918 109.873 84.9639C109.873 84.7782 109.873 84.59 109.888 84.4042L105.062 84.163C105.048 84.4235 105.048 84.6937 105.048 84.9639Z" fill="#7FBC53"/>
<path d="M115.906 74.5158L113.494 70.3396C111.047 71.7568 108.993 73.7639 107.52 76.178L111.634 78.6919C112.688 76.9657 114.157 75.5302 115.906 74.5158Z" fill="#7FBC53"/>
<path d="M113.659 125.978H106.421V130.803H113.659V125.978Z" fill="#7FBC53"/>
<path d="M99.0169 126.024C96.1937 126.224 93.4664 127.132 91.0867 128.664L93.7092 132.734C95.4063 131.641 97.3509 130.992 99.3643 130.847L99.0169 126.024Z" fill="#7FBC53"/>
<path d="M89.6332 148.656L85.4016 150.974C86.7628 153.452 88.7196 155.552 91.0952 157.085L93.7104 153.023C92.0118 151.926 90.611 150.426 89.6332 148.656Z" fill="#7FBC53"/>
<path d="M178.809 154.929H171.571V159.754H178.809V154.929Z" fill="#7FBC53"/>
<path d="M157.78 68.0773H150.542V72.9024H157.78V68.0773Z" fill="#7FBC53"/>
<path d="M186.729 68.0773H179.492V72.9024H186.729V68.0773Z" fill="#7FBC53"/>
</svg>
