<svg width="242" height="203" viewBox="0 0 242 203" fill="none" xmlns="http://www.w3.org/2000/svg">
<path d="M113.828 134.781V142.905C113.828 143.351 113.651 143.779 113.335 144.095C113.019 144.411 112.591 144.588 112.145 144.588C111.698 144.588 111.27 144.411 110.954 144.095C110.639 143.779 110.461 143.351 110.461 142.905V134.781C110.461 134.334 110.639 133.906 110.954 133.591C111.27 133.275 111.698 133.098 112.145 133.098C112.591 133.098 113.019 133.275 113.335 133.591C113.651 133.906 113.828 134.334 113.828 134.781ZM112.145 110.54C111.698 110.54 111.27 110.718 110.954 111.034C110.639 111.349 110.461 111.777 110.461 112.224V128.106C110.461 128.553 110.639 128.981 110.954 129.297C111.27 129.612 111.698 129.79 112.145 129.79C112.591 129.79 113.019 129.612 113.335 129.297C113.651 128.981 113.828 128.553 113.828 128.106V112.226C113.828 111.779 113.651 111.351 113.335 111.035C113.019 110.719 112.591 110.542 112.145 110.542V110.54ZM132.682 91.776C133.128 91.776 133.556 91.5986 133.872 91.2829C134.188 90.9672 134.365 90.5391 134.365 90.0926V79.8392C134.365 79.3928 134.188 78.9646 133.872 78.6489C133.556 78.3332 133.128 78.1559 132.682 78.1559C132.235 78.1559 131.807 78.3332 131.491 78.6489C131.176 78.9646 130.998 79.3928 130.998 79.8392V90.1078C131.002 90.5516 131.181 90.9761 131.496 91.2888C131.811 91.6015 132.236 91.7772 132.68 91.7777L132.682 91.776ZM132.682 72.2237C133.128 72.2237 133.556 72.0463 133.872 71.7306C134.188 71.415 134.365 70.9868 134.365 70.5403V49.7238C134.365 49.2774 134.188 48.8492 133.872 48.5335C133.556 48.2178 133.128 48.0405 132.682 48.0405C132.235 48.0405 131.807 48.2178 131.491 48.5335C131.176 48.8492 130.998 49.2774 130.998 49.7238V70.542C130.998 70.9882 131.176 71.4161 131.491 71.7317C131.806 72.0474 132.234 72.2249 132.68 72.2254L132.682 72.2237ZM153.219 156.183C152.772 156.183 152.344 156.361 152.029 156.676C151.713 156.992 151.536 157.42 151.536 157.867V164.344C151.536 164.791 151.713 165.219 152.029 165.535C152.344 165.85 152.772 166.028 153.219 166.028C153.665 166.028 154.093 165.85 154.409 165.535C154.725 165.219 154.902 164.791 154.902 164.344V157.868C154.902 157.647 154.859 157.428 154.774 157.224C154.689 157.019 154.565 156.834 154.409 156.677C154.252 156.521 154.066 156.397 153.862 156.313C153.657 156.228 153.438 156.185 153.217 156.185L153.219 156.183ZM153.219 135.025C152.772 135.025 152.344 135.202 152.029 135.518C151.713 135.834 151.536 136.262 151.536 136.708V151.133C151.536 151.58 151.713 152.008 152.029 152.323C152.344 152.639 152.772 152.817 153.219 152.817C153.665 152.817 154.093 152.639 154.409 152.323C154.725 152.008 154.902 151.58 154.902 151.133V136.71C154.902 136.489 154.859 136.27 154.774 136.065C154.689 135.861 154.565 135.675 154.409 135.519C154.252 135.363 154.066 135.239 153.862 135.154C153.657 135.07 153.438 135.026 153.217 135.027L153.219 135.025ZM200.619 105.92V150.293C200.617 152.748 199.641 155.102 197.905 156.837C196.169 158.573 193.815 159.549 191.361 159.552H161.634V165.741C161.634 167.6 160.897 169.384 159.583 170.7C158.27 172.016 156.489 172.757 154.63 172.761H124.188C122.939 172.754 121.716 172.412 120.645 171.771C119.574 171.129 118.695 170.212 118.1 169.115C117.136 170.256 115.933 171.174 114.578 171.804C113.222 172.433 111.746 172.76 110.251 172.761H60.0345C57.3007 172.757 54.68 171.67 52.7471 169.737C50.8142 167.803 49.727 165.182 49.7239 162.449V112.226C49.727 109.492 50.8142 106.871 52.7471 104.938C54.68 103.004 57.3007 101.917 60.0345 101.913H83.4602V37.5581C83.4629 35.024 84.4707 32.5944 86.2627 30.8025C88.0546 29.0105 90.4842 28.0027 93.0183 28H131.54C134.074 28.0027 136.504 29.0106 138.296 30.8026C140.087 32.5945 141.095 35.0241 141.097 37.5581V96.6729H191.361C193.813 96.6756 196.165 97.6505 197.9 99.3841C199.635 101.118 200.612 103.469 200.617 105.921L200.619 105.92ZM162.693 100.028V116.412L167.928 110.604C168.086 110.429 168.279 110.289 168.494 110.193C168.71 110.097 168.943 110.048 169.179 110.048C169.415 110.048 169.648 110.097 169.863 110.193C170.079 110.289 170.272 110.429 170.43 110.604L175.663 116.415V100.04L162.693 100.028ZM104.221 31.3667V56.5112L111.158 50.3181C111.467 50.0426 111.866 49.8904 112.279 49.8904C112.693 49.8904 113.092 50.0426 113.401 50.3181L120.336 56.5112V31.3667H104.221ZM86.8269 101.913H110.251C112.985 101.916 115.606 103.004 117.539 104.937C119.472 106.87 120.559 109.492 120.562 112.226V129.34C121.649 128.661 122.905 128.299 124.188 128.293H137.73V37.5598C137.729 35.9185 137.076 34.3447 135.916 33.1839C134.755 32.0231 133.182 31.3702 131.54 31.3684H123.703V60.2718C123.703 60.5966 123.609 60.9145 123.432 61.1872C123.256 61.4598 123.004 61.6755 122.707 61.8082C122.411 61.941 122.082 61.9851 121.761 61.9353C121.44 61.8855 121.141 61.7439 120.898 61.5276L112.279 53.8329L103.659 61.5276C103.417 61.7439 103.117 61.8855 102.796 61.9353C102.475 61.9851 102.146 61.941 101.85 61.8082C101.553 61.6755 101.302 61.4598 101.125 61.1872C100.948 60.9145 100.854 60.5966 100.854 60.2718V31.3667H93.0183C91.377 31.3685 89.8034 32.0214 88.6429 33.1822C87.4824 34.343 86.8299 35.9168 86.8286 37.5581L86.8269 101.913ZM134.648 146.142L138.25 142.708C138.563 142.41 138.979 142.244 139.411 142.244C139.843 142.244 140.259 142.41 140.572 142.708L144.174 146.142V131.665H134.648V146.142ZM76.1847 105.28V125.763L84.2042 120.343C84.4826 120.155 84.8109 120.054 85.1469 120.054C85.4829 120.054 85.8112 120.155 86.0896 120.343L94.1075 125.763V105.28H76.1847ZM117.195 162.44V112.226C117.193 110.384 116.461 108.619 115.159 107.317C113.857 106.015 112.092 105.282 110.251 105.28H97.4658V128.933C97.4659 129.239 97.3829 129.539 97.2255 129.801C97.0681 130.063 96.8423 130.277 96.5724 130.42C96.3024 130.564 95.9986 130.631 95.6933 130.615C95.3881 130.599 95.093 130.5 94.8397 130.328L85.1385 123.763L75.4356 130.328C75.1823 130.5 74.8873 130.599 74.582 130.615C74.2768 130.631 73.9729 130.564 73.703 130.42C73.433 130.277 73.2073 130.063 73.0499 129.801C72.8925 129.539 72.8094 129.239 72.8095 128.933V105.28H60.0345C58.1934 105.283 56.4285 106.015 55.1268 107.317C53.8251 108.619 53.0928 110.384 53.0906 112.226V162.44C53.0906 164.283 53.8219 166.05 55.1238 167.354C56.4257 168.658 58.1919 169.392 60.0345 169.394H110.251C112.094 169.392 113.86 168.658 115.162 167.354C116.464 166.051 117.195 164.283 117.195 162.44ZM158.269 135.304C158.268 134.339 157.884 133.414 157.202 132.731C156.52 132.048 155.595 131.663 154.63 131.66H147.541V150.071C147.541 150.4 147.444 150.723 147.263 150.998C147.081 151.273 146.823 151.489 146.52 151.619C146.217 151.748 145.883 151.786 145.559 151.728C145.235 151.669 144.935 151.517 144.696 151.29L139.41 146.251L134.126 151.29C133.888 151.517 133.588 151.669 133.263 151.728C132.939 151.786 132.605 151.748 132.302 151.619C131.999 151.489 131.741 151.273 131.559 150.998C131.378 150.723 131.281 150.4 131.281 150.071V131.66H124.188C123.224 131.664 122.301 132.049 121.621 132.732C120.941 133.416 120.56 134.341 120.562 135.304V165.741C120.56 166.219 120.652 166.693 120.833 167.135C121.015 167.577 121.281 167.98 121.618 168.319C121.955 168.658 122.355 168.928 122.796 169.112C123.237 169.297 123.71 169.393 124.188 169.394H154.63C155.596 169.393 156.522 169.009 157.205 168.325C157.888 167.642 158.273 166.716 158.274 165.75L158.269 135.304ZM197.251 105.921C197.251 104.359 196.63 102.86 195.525 101.755C194.42 100.65 192.921 100.03 191.359 100.03H179.025V120.801C179.025 121.141 178.921 121.473 178.729 121.754C178.536 122.034 178.262 122.25 177.945 122.372C177.627 122.494 177.28 122.516 176.949 122.437C176.618 122.358 176.319 122.18 176.091 121.927L169.174 114.246L162.259 121.923C162.101 122.099 161.908 122.239 161.692 122.335C161.477 122.431 161.244 122.481 161.008 122.481C160.802 122.481 160.597 122.444 160.405 122.369C160.087 122.248 159.813 122.032 159.621 121.751C159.428 121.47 159.324 121.138 159.324 120.797V100.04H141.097V128.293H154.63C156.488 128.295 158.27 129.035 159.585 130.349C160.899 131.664 161.639 133.446 161.641 135.304V156.178H191.361C192.923 156.178 194.422 155.557 195.527 154.453C196.632 153.348 197.252 151.849 197.252 150.286L197.251 105.921ZM192.201 129.761C191.754 129.761 191.326 129.938 191.01 130.254C190.695 130.57 190.517 130.998 190.517 131.444V138.843C190.517 139.289 190.695 139.718 191.01 140.033C191.326 140.349 191.754 140.526 192.201 140.526C192.647 140.526 193.075 140.349 193.391 140.033C193.707 139.718 193.884 139.289 193.884 138.843V131.444C193.884 130.998 193.707 130.57 193.391 130.254C193.075 129.938 192.647 129.761 192.201 129.761ZM192.201 107.891C191.754 107.891 191.326 108.068 191.01 108.384C190.695 108.7 190.517 109.128 190.517 109.574V123.243C190.517 123.69 190.695 124.118 191.01 124.433C191.326 124.749 191.754 124.926 192.201 124.926C192.647 124.926 193.075 124.749 193.391 124.433C193.707 124.118 193.884 123.69 193.884 123.243V109.574C193.884 109.128 193.707 108.7 193.391 108.384C193.075 108.068 192.647 107.891 192.201 107.891Z" fill="#7FBC53" stroke="#7FBC53" stroke-width="0.5"/>
<mask id="path-2-outside-1_1615_98" maskUnits="userSpaceOnUse" x="0" y="92" width="44" height="109" fill="black">
<rect fill="white" y="92" width="44" height="109"/>
<path d="M33.58 198C31.828 198 30.368 197.416 29.2 196.248C28.032 195.08 27.448 193.669 27.448 192.014V108.94L29.2 110.984L12.702 122.372C11.7287 123.053 10.6093 123.394 9.344 123.394C7.68933 123.394 6.278 122.81 5.11 121.642C3.942 120.377 3.358 118.965 3.358 117.408C3.358 115.267 4.38 113.563 6.424 112.298L29.638 96.968C30.4167 96.4813 31.1953 96.1407 31.974 95.946C32.7527 95.7513 33.5313 95.7027 34.31 95.8C36.062 95.8 37.4247 96.384 38.398 97.552C39.4687 98.6227 40.004 99.9853 40.004 101.64V192.014C40.004 193.669 39.3713 195.08 38.106 196.248C36.938 197.416 35.4293 198 33.58 198Z"/>
</mask>
<path d="M29.2 196.248L27.0787 198.369L27.0787 198.369L29.2 196.248ZM27.448 108.94L29.7258 106.988L24.448 100.83V108.94H27.448ZM29.2 110.984L30.9042 113.453L33.6455 111.561L31.4778 109.032L29.2 110.984ZM12.702 122.372L10.9978 119.903L10.9897 119.909L10.9816 119.914L12.702 122.372ZM5.11 121.642L2.90559 123.677L2.94627 123.721L2.98868 123.763L5.11 121.642ZM6.424 112.298L8.00307 114.849L8.04047 114.826L8.07719 114.801L6.424 112.298ZM29.638 96.968L28.048 94.424L28.0162 94.4439L27.9848 94.4646L29.638 96.968ZM31.974 95.946L31.2464 93.0356L31.2464 93.0356L31.974 95.946ZM34.31 95.8L33.9379 98.7768L34.1232 98.8H34.31V95.8ZM38.398 97.552L36.0933 99.4725L36.1805 99.5771L36.2767 99.6733L38.398 97.552ZM38.106 196.248L36.0712 194.044L36.0271 194.084L35.9847 194.127L38.106 196.248ZM33.58 195C32.5701 195 31.8899 194.695 31.3213 194.127L27.0787 198.369C28.8461 200.137 31.0859 201 33.58 201V195ZM31.3213 194.127C30.717 193.522 30.448 192.875 30.448 192.014H24.448C24.448 194.463 25.347 196.638 27.0787 198.369L31.3213 194.127ZM30.448 192.014V108.94H24.448V192.014H30.448ZM25.1702 110.892L26.9222 112.936L31.4778 109.032L29.7258 106.988L25.1702 110.892ZM27.4958 108.515L10.9978 119.903L14.4062 124.841L30.9042 113.453L27.4958 108.515ZM10.9816 119.914C10.5461 120.219 10.0361 120.394 9.344 120.394V126.394C11.1826 126.394 12.9112 125.887 14.4224 124.83L10.9816 119.914ZM9.344 120.394C8.48343 120.394 7.83561 120.125 7.23132 119.521L2.98868 123.763C4.72039 125.495 6.89524 126.394 9.344 126.394V120.394ZM7.31441 119.607C6.59933 118.832 6.358 118.129 6.358 117.408H0.358C0.358 119.802 1.28467 121.921 2.90559 123.677L7.31441 119.607ZM6.358 117.408C6.358 116.449 6.71359 115.647 8.00307 114.849L4.84494 109.747C2.04641 111.48 0.358 114.085 0.358 117.408H6.358ZM8.07719 114.801L31.2912 99.4714L27.9848 94.4646L4.77082 109.795L8.07719 114.801ZM31.228 99.512C31.7779 99.1683 32.2682 98.9648 32.7016 98.8564L31.2464 93.0356C30.1225 93.3165 29.0555 93.7943 28.048 94.424L31.228 99.512ZM32.7016 98.8564C33.1293 98.7495 33.5352 98.7265 33.9379 98.7768L34.6821 92.8232C33.5275 92.6788 32.376 92.7532 31.2464 93.0356L32.7016 98.8564ZM34.31 98.8C35.3232 98.8 35.7804 99.097 36.0933 99.4725L40.7027 95.6314C39.069 93.671 36.8008 92.8 34.31 92.8V98.8ZM36.2767 99.6733C36.7298 100.126 37.004 100.7 37.004 101.64H43.004C43.004 99.271 42.2076 97.1189 40.5193 95.4307L36.2767 99.6733ZM37.004 101.64V192.014H43.004V101.64H37.004ZM37.004 192.014C37.004 192.794 36.7495 193.417 36.0712 194.044L40.1408 198.452C41.9931 196.743 43.004 194.544 43.004 192.014H37.004ZM35.9847 194.127C35.4488 194.663 34.7377 195 33.58 195V201C36.121 201 38.4272 200.169 40.2273 198.369L35.9847 194.127Z" fill="#69B539" mask="url(#path-2-outside-1_1615_98)"/>
</svg>
