<svg width="242" height="203" viewBox="0 0 242 203" fill="none" xmlns="http://www.w3.org/2000/svg">
<path d="M88.0042 117.51H91.6233V158.526C91.6233 162.524 94.864 165.764 98.8615 165.764H188.133C189.99 165.762 191.774 165.042 193.113 163.755L214.955 142.354C216.323 140.997 217.09 139.148 217.086 137.222V93.3822H220.978C222.53 93.3842 223.988 92.6395 224.896 91.3812C225.804 90.1228 226.052 88.5043 225.562 87.0319L218.082 64.5427C217.084 61.5909 214.315 59.6041 211.199 59.6039H179.447L184.601 53.2752C185.837 51.7288 186.081 49.6117 185.228 47.8249C184.49 46.1897 182.865 45.1355 181.071 45.1274H173.656V25.8255C173.656 23.1604 171.496 21 168.831 21H154.355C151.69 21 149.529 23.1604 149.529 25.8255V45.1274H142.115C140.325 45.1403 138.706 46.1936 137.97 47.8249C137.116 49.612 137.361 51.7297 138.599 53.2752L143.751 59.6039H122.579C120.652 59.5995 118.804 60.3667 117.447 61.7343L94.743 84.4382C94.5202 84.6607 94.3432 84.9246 94.2218 85.2151L83.5503 110.826C82.9289 112.316 83.0933 114.017 83.9883 115.36C84.8833 116.703 86.3903 117.51 88.0042 117.51ZM98.8615 160.939C97.529 160.939 96.4488 159.859 96.4488 158.526V117.51H180.895C182.955 117.517 184.79 116.209 185.455 114.26L190.546 100.041V158.526C190.546 159.859 189.465 160.939 188.133 160.939H98.8615ZM211.561 138.925L195.371 154.811V87.0657L212.26 68.1836V137.222C212.261 137.86 212.01 138.472 211.561 138.925ZM220.978 88.5567H217.086V76.8718L220.978 88.5567ZM142.308 49.9529H149.529C152.194 49.9529 154.355 47.7924 154.355 45.1274V25.8255H168.831V45.1274C168.831 47.7924 170.991 49.9529 173.656 49.9529H180.878C180.909 50.0449 180.897 50.1462 180.844 50.2279L161.593 73.8776L142.342 50.2328C142.287 50.1498 142.275 50.0464 142.308 49.9529ZM158.075 77.2C158.918 78.2882 160.216 78.9252 161.593 78.9252C162.969 78.9252 164.268 78.2882 165.111 77.2L175.507 64.4293H209.145L191.88 83.7313H125.402V64.4293H147.678L158.075 77.2ZM120.576 65.4282V83.7313H102.273L120.576 65.4282ZM98.0581 88.5567H189.532L180.895 112.684H88.0042L98.0581 88.5567Z" fill="#7FBC53"/>
<path d="M135.052 139.225H106.099C103.434 139.225 101.274 141.386 101.274 144.051V151.289C101.274 153.954 103.434 156.114 106.099 156.114H135.052C137.717 156.114 139.878 153.954 139.878 151.289V144.051C139.878 141.386 137.717 139.225 135.052 139.225ZM135.052 151.289H106.099V144.051H135.052V151.289Z" fill="#7FBC53"/>
<path d="M183.308 151.289H173.657C172.325 151.289 171.245 152.369 171.245 153.701C171.245 155.034 172.325 156.114 173.657 156.114H183.308C184.641 156.114 185.721 155.034 185.721 153.701C185.721 152.369 184.641 151.289 183.308 151.289Z" fill="#7FBC53"/>
<path d="M180.189 139.932C179.246 138.99 177.719 138.99 176.777 139.932L171.951 144.757C171.037 145.704 171.05 147.209 171.981 148.139C172.912 149.07 174.416 149.083 175.363 148.169L178.483 145.049L181.602 148.169C182.549 149.083 184.054 149.07 184.985 148.139C185.915 147.209 185.928 145.704 185.014 144.757L180.189 139.932Z" fill="#7FBC53"/>
<mask id="path-5-outside-1_1615_100" maskUnits="userSpaceOnUse" x="6" y="92" width="70" height="109" fill="black">
<rect fill="white" x="6" y="92" width="70" height="109"/>
<path d="M34.602 197.584C30.7087 197.584 26.718 197 22.63 195.832C18.6393 194.567 15.1353 192.717 12.118 190.284C11.3393 189.603 10.7067 188.727 10.22 187.656C9.73333 186.585 9.49 185.563 9.49 184.59C9.49 183.422 9.97667 182.303 10.95 181.232C12.0207 180.064 13.3833 179.48 15.038 179.48C16.3033 179.48 17.7633 180.113 19.418 181.378C21.5593 183.033 23.944 184.347 26.572 185.32C29.2 186.293 31.828 186.78 34.456 186.78C39.9067 186.78 44.6273 185.758 48.618 183.714C52.6087 181.67 55.6747 178.799 57.816 175.1C59.9573 171.401 61.028 167.07 61.028 162.106C61.028 157.629 60.006 153.735 57.962 150.426C56.0153 147.019 53.2413 144.391 49.64 142.542C46.136 140.693 42.0967 139.768 37.522 139.768C34.1153 139.768 31.0493 140.303 28.324 141.374C25.696 142.347 23.36 143.369 21.316 144.44C19.3693 145.511 17.666 146.046 16.206 146.046C14.3567 146.046 12.9453 145.657 11.972 144.878C10.9987 144.002 10.366 142.931 10.074 141.666C9.782 140.401 9.68467 139.233 9.782 138.162L15.476 100.348C15.768 99.0827 16.4493 97.9633 17.52 96.99C18.5907 96.0167 19.9047 95.53 21.462 95.53H64.824C66.3813 95.53 67.6953 96.0653 68.766 97.136C69.8367 98.2067 70.372 99.5693 70.372 101.224C70.372 102.781 69.8367 104.095 68.766 105.166C67.6953 106.139 66.3813 106.626 64.824 106.626H24.382L25.842 105.312L20.44 138.308L18.104 135.242C19.1747 134.269 20.7807 133.295 22.922 132.322C25.1607 131.349 27.6913 130.521 30.514 129.84C33.434 129.159 36.4027 128.818 39.42 128.818C45.7467 128.818 51.392 130.278 56.356 133.198C61.4173 136.021 65.408 139.914 68.328 144.878C71.248 149.842 72.708 155.536 72.708 161.96C72.708 169.065 71.1507 175.295 68.036 180.648C64.9213 186.001 60.4927 190.187 54.75 193.204C49.1047 196.124 42.3887 197.584 34.602 197.584Z"/>
</mask>
<path d="M22.63 195.832L21.7233 198.692L21.7644 198.705L21.8058 198.717L22.63 195.832ZM12.118 190.284L10.1425 192.542L10.1878 192.581L10.2347 192.619L12.118 190.284ZM10.22 187.656L7.4889 188.897L7.4889 188.897L10.22 187.656ZM10.95 181.232L8.73852 179.205L8.73018 179.214L10.95 181.232ZM19.418 181.378L21.2523 179.004L21.2464 179L21.2404 178.995L19.418 181.378ZM26.572 185.32L27.6139 182.507L27.6139 182.507L26.572 185.32ZM48.618 183.714L47.2504 181.044L47.2504 181.044L48.618 183.714ZM57.816 175.1L60.4123 176.603L60.4123 176.603L57.816 175.1ZM57.962 150.426L55.3573 151.914L55.3827 151.959L55.4096 152.002L57.962 150.426ZM49.64 142.542L48.2397 145.195L48.2546 145.203L48.2696 145.211L49.64 142.542ZM28.324 141.374L29.3659 144.187L29.3936 144.177L29.421 144.166L28.324 141.374ZM21.316 144.44L19.924 141.783L19.897 141.797L19.8702 141.811L21.316 144.44ZM11.972 144.878L9.96511 147.108L10.0299 147.166L10.0979 147.221L11.972 144.878ZM10.074 141.666L12.9972 140.991L12.9972 140.991L10.074 141.666ZM9.782 138.162L6.81544 137.715L6.80231 137.803L6.79432 137.89L9.782 138.162ZM15.476 100.348L12.5528 99.6734L12.5267 99.7865L12.5094 99.9013L15.476 100.348ZM17.52 96.99L15.502 94.7702L15.502 94.7702L17.52 96.99ZM68.766 97.136L66.6447 99.2573L66.6447 99.2573L68.766 97.136ZM68.766 105.166L70.784 107.386L70.8368 107.338L70.8873 107.287L68.766 105.166ZM24.382 106.626L22.3751 104.396L16.5641 109.626H24.382V106.626ZM25.842 105.312L28.8026 105.797L30.1822 97.3697L23.8351 103.082L25.842 105.312ZM20.44 138.308L18.0537 140.126L22.2752 145.667L23.4006 138.793L20.44 138.308ZM18.104 135.242L16.086 133.022L14.0508 134.872L15.7177 137.06L18.104 135.242ZM22.922 132.322L21.7258 129.571L21.7031 129.581L21.6806 129.591L22.922 132.322ZM30.514 129.84L29.8323 126.918L29.8212 126.921L29.8101 126.924L30.514 129.84ZM56.356 133.198L54.8349 135.784L54.8647 135.801L54.8948 135.818L56.356 133.198ZM68.036 180.648L70.629 182.157L70.629 182.157L68.036 180.648ZM54.75 193.204L56.1283 195.869L56.1368 195.864L56.1454 195.86L54.75 193.204ZM34.602 194.584C31.0118 194.584 27.2986 194.046 23.4542 192.947L21.8058 198.717C26.1374 199.954 30.4056 200.584 34.602 200.584V194.584ZM23.5367 192.972C19.8727 191.811 16.706 190.13 14.0013 187.949L10.2347 192.619C13.5647 195.305 17.4059 197.323 21.7233 198.692L23.5367 192.972ZM14.0935 188.026C13.6773 187.662 13.2852 187.15 12.9511 186.415L7.4889 188.897C8.1281 190.304 9.00133 191.543 10.1425 192.542L14.0935 188.026ZM12.9511 186.415C12.6054 185.654 12.49 185.055 12.49 184.59H6.49C6.49 186.071 6.86125 187.517 7.4889 188.897L12.9511 186.415ZM12.49 184.59C12.49 184.336 12.5733 183.906 13.1698 183.25L8.73018 179.214C7.38005 180.699 6.49 182.508 6.49 184.59H12.49ZM13.1615 183.259C13.6361 182.741 14.1821 182.48 15.038 182.48V176.48C12.5845 176.48 10.4053 177.387 8.73854 179.205L13.1615 183.259ZM15.038 182.48C15.3391 182.48 16.1542 182.659 17.5956 183.761L21.2404 178.995C19.3725 177.567 17.2676 176.48 15.038 176.48V182.48ZM17.5837 183.752C19.9738 185.599 22.6274 187.058 25.5301 188.133L27.6139 182.507C25.2606 181.635 23.1448 180.467 21.2523 179.004L17.5837 183.752ZM25.5301 188.133C28.4693 189.222 31.4493 189.78 34.456 189.78V183.78C32.2067 183.78 29.9307 183.365 27.6139 182.507L25.5301 188.133ZM34.456 189.78C40.281 189.78 45.4899 188.687 49.9856 186.384L47.2504 181.044C43.7648 182.829 39.5324 183.78 34.456 183.78V189.78ZM49.9856 186.384C54.463 184.091 57.9675 180.826 60.4123 176.603L55.2197 173.597C53.3818 176.771 50.7543 179.249 47.2504 181.044L49.9856 186.384ZM60.4123 176.603C62.8582 172.378 64.028 167.512 64.028 162.106H58.028C58.028 166.628 57.0565 170.424 55.2197 173.597L60.4123 176.603ZM64.028 162.106C64.028 157.158 62.8931 152.701 60.5144 148.85L55.4096 152.002C57.119 154.77 58.028 158.1 58.028 162.106H64.028ZM60.5667 148.938C58.3221 145.01 55.1115 141.979 51.0104 139.873L48.2696 145.211C51.3712 146.803 53.7086 149.029 55.3573 151.914L60.5667 148.938ZM51.0403 139.889C47.0422 137.779 42.5088 136.768 37.522 136.768V142.768C41.6845 142.768 45.2298 143.607 48.2397 145.195L51.0403 139.889ZM37.522 136.768C33.8003 136.768 30.354 137.353 27.227 138.582L29.421 144.166C31.7447 143.253 34.4303 142.768 37.522 142.768V136.768ZM27.2821 138.561C24.5586 139.569 22.1022 140.642 19.924 141.783L22.708 147.097C24.6178 146.097 26.8334 145.125 29.3659 144.187L27.2821 138.561ZM19.8702 141.811C18.1546 142.755 16.964 143.046 16.206 143.046V149.046C18.368 149.046 20.584 148.266 22.7618 147.069L19.8702 141.811ZM16.206 143.046C14.7209 143.046 14.0838 142.726 13.8461 142.535L10.0979 147.221C11.8068 148.588 13.9924 149.046 16.206 149.046V143.046ZM13.9789 142.648C13.4593 142.18 13.1494 141.651 12.9972 140.991L7.15083 142.341C7.58258 144.211 8.53803 145.824 9.96511 147.108L13.9789 142.648ZM12.9972 140.991C12.7623 139.974 12.7064 139.13 12.7697 138.434L6.79432 137.89C6.66292 139.336 6.80167 140.828 7.15083 142.341L12.9972 140.991ZM12.7486 138.609L18.4426 100.795L12.5094 99.9013L6.81544 137.715L12.7486 138.609ZM18.3992 101.023C18.5383 100.42 18.8655 99.8212 19.538 99.2098L15.502 94.7702C14.0331 96.1055 12.9977 97.7457 12.5528 99.6734L18.3992 101.023ZM19.538 99.2098C20.0122 98.7787 20.5889 98.53 21.462 98.53V92.53C19.2204 92.53 17.1691 93.2546 15.502 94.7702L19.538 99.2098ZM21.462 98.53H64.824V92.53H21.462V98.53ZM64.824 98.53C65.6111 98.53 66.1543 98.767 66.6447 99.2573L70.8873 95.0147C69.2363 93.3637 67.1516 92.53 64.824 92.53V98.53ZM66.6447 99.2573C67.0978 99.7104 67.372 100.284 67.372 101.224H73.372C73.372 98.855 72.5756 96.7029 70.8873 95.0147L66.6447 99.2573ZM67.372 101.224C67.372 102.011 67.135 102.554 66.6447 103.045L70.8873 107.287C72.5383 105.636 73.372 103.552 73.372 101.224H67.372ZM66.748 102.946C66.2738 103.377 65.6971 103.626 64.824 103.626V109.626C67.0656 109.626 69.1169 108.901 70.784 107.386L66.748 102.946ZM64.824 103.626H24.382V109.626H64.824V103.626ZM26.3889 108.856L27.8489 107.542L23.8351 103.082L22.3751 104.396L26.3889 108.856ZM22.8814 104.827L17.4794 137.823L23.4006 138.793L28.8026 105.797L22.8814 104.827ZM22.8263 136.49L20.4903 133.424L15.7177 137.06L18.0537 140.126L22.8263 136.49ZM20.122 137.462C20.8634 136.788 22.1519 135.967 24.1634 135.053L21.6806 129.591C19.4095 130.623 17.4859 131.749 16.086 133.022L20.122 137.462ZM24.1182 135.073C26.1714 134.181 28.5332 133.404 31.2179 132.756L29.8101 126.924C26.8495 127.638 24.15 128.517 21.7258 129.571L24.1182 135.073ZM31.1957 132.762C33.8908 132.133 36.6307 131.818 39.42 131.818V125.818C36.1746 125.818 32.9772 126.185 29.8323 126.918L31.1957 132.762ZM39.42 131.818C45.266 131.818 50.3766 133.161 54.8349 135.784L57.8771 130.612C52.4074 127.395 46.2273 125.818 39.42 125.818V131.818ZM54.8948 135.818C59.4933 138.383 63.0945 141.898 65.7422 146.399L70.9138 143.357C67.7215 137.93 63.3414 133.659 57.8172 130.578L54.8948 135.818ZM65.7422 146.399C68.3606 150.85 69.708 156.008 69.708 161.96H75.708C75.708 155.064 74.1354 148.834 70.9138 143.357L65.7422 146.399ZM69.708 161.96C69.708 168.615 68.2539 174.308 65.443 179.139L70.629 182.157C74.0475 176.281 75.708 169.516 75.708 161.96H69.708ZM65.443 179.139C62.6256 183.982 58.623 187.78 53.3546 190.548L56.1454 195.86C62.3623 192.593 67.2171 188.021 70.629 182.157L65.443 179.139ZM53.3717 190.539C48.2378 193.195 42.0155 194.584 34.602 194.584V200.584C42.7619 200.584 49.9715 199.053 56.1283 195.869L53.3717 190.539Z" fill="#69B539" mask="url(#path-5-outside-1_1615_100)"/>
</svg>
