<svg width="242" height="203" viewBox="0 0 242 203" fill="none" xmlns="http://www.w3.org/2000/svg">
<path d="M226.852 43.3106L163.591 21.1694C163.139 20.9435 162.688 20.9435 162.01 21.1694L98.7495 43.3106C97.6199 43.7624 97.168 44.6661 97.168 45.7958C97.394 46.9254 98.2977 47.6032 99.4273 47.6032H108.239V90.078H96.7162C94.2309 90.078 92.1976 92.1114 92.1976 94.5966V127.356H88.3568C85.8715 127.356 83.8382 129.39 83.8382 131.875V154.468C83.8382 156.953 85.8715 158.987 88.3568 158.987H91.5198C92.4235 162.827 96.0384 165.764 100.331 165.764C104.624 165.764 108.013 162.827 109.142 158.987H123.376C124.28 162.827 127.894 165.764 132.187 165.764C136.48 165.764 139.869 162.827 140.998 158.987H146.421C147.776 158.987 148.68 158.083 148.68 156.727V149.723H153.199V151.757C153.199 153.112 154.102 154.016 155.458 154.016H176.921C178.277 154.016 179.181 153.112 179.181 151.757C179.181 150.401 178.277 149.498 176.921 149.498H157.717V140.686H215.103C216.459 140.686 217.363 139.783 217.363 138.427V47.8292H226.174C227.304 47.8292 228.207 46.9254 228.433 46.0217C228.659 44.6661 227.981 43.7624 226.852 43.3106ZM162.914 25.914L212.844 43.3106H112.983L162.914 25.914ZM96.7162 94.5966H126.539L136.706 131.423L125.409 123.064L127.217 120.579C127.894 119.675 127.669 118.093 126.765 117.416C125.861 116.738 124.28 116.964 123.602 117.867L117.502 126.453C116.824 127.356 117.05 128.938 117.954 129.616C119.083 130.294 120.439 130.068 121.117 129.164L122.924 126.679L136.028 136.168H116.146L109.142 128.034C108.69 127.582 108.013 127.13 107.335 127.13H96.7162V94.5966ZM100.331 161.246C97.8458 161.246 95.8125 159.213 95.8125 156.727C95.8125 154.242 97.8458 152.209 100.331 152.209C102.816 152.209 104.85 154.242 104.85 156.727C104.85 159.213 102.816 161.246 100.331 161.246ZM132.187 161.246C129.702 161.246 127.669 159.213 127.669 156.727C127.669 154.242 129.702 152.209 132.187 152.209C134.672 152.209 136.706 154.242 136.706 156.727C136.706 159.213 134.672 161.246 132.187 161.246ZM140.998 154.468C140.095 150.627 136.48 147.69 132.187 147.69C127.894 147.69 124.506 150.627 123.376 154.468H108.916C108.013 150.627 104.398 147.69 100.105 147.69C95.8125 147.69 92.4235 150.627 91.2939 154.468H88.3568V131.875C88.5827 131.875 106.431 131.875 106.205 131.875L113.209 140.008C113.661 140.46 114.339 140.912 115.016 140.912H144.387V147.464V154.468H140.998ZM212.844 136.394H157.491V104.989C157.491 103.634 156.588 102.73 155.232 102.73C153.876 102.73 152.973 103.634 152.973 104.989V145.205H148.454V140.686C148.454 138.201 146.421 136.168 143.935 136.168H142.806C142.806 135.942 142.58 135.716 142.354 135.716L130.832 93.241C130.38 91.2077 128.572 89.8521 126.539 89.8521H112.983V47.8292H212.844V136.394Z" fill="#7FBC53"/>
<path d="M166.526 130.52H203.805C205.16 130.52 206.064 129.616 206.064 128.26V95.9523C206.064 94.5967 205.16 93.693 203.805 93.693C185.956 93.693 184.149 93.693 166.526 93.693C165.171 93.693 164.267 94.5967 164.267 95.9523V128.034C164.267 129.39 165.397 130.52 166.526 130.52ZM188.667 98.2116V103.182C186.182 102.278 185.956 102.052 185.278 102.052C184.601 102.052 184.375 102.278 181.889 103.182V98.2116H188.667ZM168.785 98.2116H177.145V106.571C177.145 107.249 177.597 107.927 178.049 108.378C178.726 108.83 179.404 108.83 180.082 108.604L184.827 106.571L189.571 108.604C190.249 108.83 190.927 108.83 191.604 108.378C192.282 107.927 192.508 107.249 192.508 106.571V98.2116H200.868V125.775H168.785V98.2116Z" fill="#7FBC53"/>
<path d="M166.526 90.3041H203.805C205.16 90.3041 206.064 89.4004 206.064 88.0448V55.9628C206.064 54.6072 205.16 53.7035 203.805 53.7035C186.182 53.7035 184.375 53.7035 166.526 53.7035C165.171 53.7035 164.267 54.6072 164.267 55.9628V88.0448C164.267 89.1745 165.397 90.3041 166.526 90.3041ZM188.667 58.2221V63.1925C186.182 62.2888 185.956 62.0629 185.278 62.0629C184.601 62.0629 184.375 62.2888 181.889 63.1925V58.2221H188.667ZM168.785 58.2221H177.145V66.5815C177.145 67.2593 177.597 67.9371 178.049 68.3889C178.726 68.8408 179.404 68.8408 180.082 68.6149L184.827 66.5815L189.571 68.6149C189.797 68.6149 190.023 68.8408 190.475 68.8408C190.927 68.8408 191.378 68.6149 191.83 68.3889C192.508 67.9371 192.734 67.2593 192.734 66.5815V58.2221H201.093V85.7855H168.785V58.2221Z" fill="#7FBC53"/>
<mask id="path-4-outside-1_1615_99" maskUnits="userSpaceOnUse" x="-2" y="88" width="81" height="109" fill="black">
<rect fill="white" x="-2" y="88" width="81" height="109"/>
<path d="M54.75 194C53.0953 194 51.684 193.416 50.516 192.248C49.4453 191.08 48.91 189.669 48.91 188.014V108.152L51.246 109.028L16.352 154.58L15.768 152.828H70.372C71.9293 152.828 73.2433 153.363 74.314 154.434C75.3847 155.505 75.92 156.819 75.92 158.376C75.92 159.836 75.3847 161.101 74.314 162.172C73.2433 163.145 71.9293 163.632 70.372 163.632H7.738C6.278 163.632 4.91533 163.048 3.65 161.88C2.482 160.712 1.898 159.349 1.898 157.792C1.898 156.332 2.38467 155.067 3.358 153.996L49.932 94.136C50.6133 93.26 51.392 92.676 52.268 92.384C53.144 91.9947 54.02 91.8 54.896 91.8C56.5507 91.8 57.9133 92.384 58.984 93.552C60.0547 94.6227 60.59 95.9853 60.59 97.64V188.014C60.59 189.669 60.006 191.08 58.838 192.248C57.7673 193.416 56.4047 194 54.75 194Z"/>
</mask>
<path d="M50.516 192.248L48.3045 194.275L48.3486 194.323L48.3947 194.369L50.516 192.248ZM48.91 108.152L49.9634 105.343L45.91 103.823V108.152H48.91ZM51.246 109.028L53.6276 110.852L56.0884 107.64L52.2994 106.219L51.246 109.028ZM16.352 154.58L13.506 155.529L15.2944 160.894L18.7336 156.404L16.352 154.58ZM15.768 152.828V149.828H11.6057L12.922 153.777L15.768 152.828ZM74.314 154.434L72.1927 156.555L72.1927 156.555L74.314 154.434ZM74.314 162.172L76.332 164.392L76.3848 164.344L76.4353 164.293L74.314 162.172ZM3.65 161.88L1.52868 164.001L1.57109 164.044L1.61516 164.084L3.65 161.88ZM3.358 153.996L5.57782 156.014L5.65515 155.929L5.72575 155.838L3.358 153.996ZM49.932 94.136L52.2997 95.9782L52.3001 95.9778L49.932 94.136ZM52.268 92.384L53.2167 95.23L53.3541 95.1842L53.4864 95.1254L52.268 92.384ZM58.984 93.552L56.7725 95.5792L56.8166 95.6272L56.8627 95.6733L58.984 93.552ZM58.838 192.248L56.7167 190.127L56.6706 190.173L56.6265 190.221L58.838 192.248ZM54.75 191C53.8894 191 53.2416 190.731 52.6373 190.127L48.3947 194.369C50.1264 196.101 52.3012 197 54.75 197V191ZM52.7275 190.221C52.1882 189.632 51.91 188.955 51.91 188.014H45.91C45.91 190.383 46.7025 192.528 48.3045 194.275L52.7275 190.221ZM51.91 188.014V108.152H45.91V188.014H51.91ZM47.8566 110.961L50.1926 111.837L52.2994 106.219L49.9634 105.343L47.8566 110.961ZM48.8644 107.204L13.9704 152.756L18.7336 156.404L53.6276 110.852L48.8644 107.204ZM19.1981 153.631L18.6141 151.879L12.922 153.777L13.506 155.529L19.1981 153.631ZM15.768 155.828H70.372V149.828H15.768V155.828ZM70.372 155.828C71.1591 155.828 71.7023 156.065 72.1927 156.555L76.4353 152.313C74.7843 150.662 72.6996 149.828 70.372 149.828V155.828ZM72.1927 156.555C72.683 157.046 72.92 157.589 72.92 158.376H78.92C78.92 156.048 78.0863 153.964 76.4353 152.313L72.1927 156.555ZM72.92 158.376C72.92 159.008 72.724 159.519 72.1927 160.051L76.4353 164.293C78.0453 162.683 78.92 160.664 78.92 158.376H72.92ZM72.296 159.952C71.8218 160.383 71.2451 160.632 70.372 160.632V166.632C72.6136 166.632 74.6649 165.907 76.332 164.392L72.296 159.952ZM70.372 160.632H7.738V166.632H70.372V160.632ZM7.738 160.632C7.16468 160.632 6.50173 160.43 5.68484 159.676L1.61516 164.084C3.32893 165.666 5.39132 166.632 7.738 166.632V160.632ZM5.77132 159.759C5.12805 159.115 4.898 158.502 4.898 157.792H-1.102C-1.102 160.197 -0.164053 162.309 1.52868 164.001L5.77132 159.759ZM4.898 157.792C4.898 157.071 5.11149 156.527 5.57782 156.014L1.13818 151.978C-0.342158 153.606 -1.102 155.593 -1.102 157.792H4.898ZM5.72575 155.838L52.2997 95.9782L47.5643 92.2938L0.990255 152.154L5.72575 155.838ZM52.3001 95.9778C52.6922 95.4736 53.0075 95.2998 53.2167 95.23L51.3193 89.5379C49.7765 90.0522 48.5344 91.0464 47.5639 92.2942L52.3001 95.9778ZM53.4864 95.1254C54.0154 94.8903 54.478 94.8 54.896 94.8V88.8C53.562 88.8 52.2726 89.099 51.0496 89.6426L53.4864 95.1254ZM54.896 94.8C55.7519 94.8 56.2979 95.0614 56.7725 95.5792L61.1955 91.5248C59.5287 89.7066 57.3495 88.8 54.896 88.8V94.8ZM56.8627 95.6733C57.3158 96.1264 57.59 96.6997 57.59 97.64H63.59C63.59 95.271 62.7936 93.1189 61.1053 91.4307L56.8627 95.6733ZM57.59 97.64V188.014H63.59V97.64H57.59ZM57.59 188.014C57.59 188.875 57.321 189.522 56.7167 190.127L60.9593 194.369C62.691 192.638 63.59 190.463 63.59 188.014H57.59ZM56.6265 190.221C56.1519 190.739 55.6059 191 54.75 191V197C57.2035 197 59.3827 196.093 61.0495 194.275L56.6265 190.221Z" fill="#69B539" mask="url(#path-4-outside-1_1615_99)"/>
</svg>
