<svg width="242" height="203" viewBox="0 0 242 203" fill="none" xmlns="http://www.w3.org/2000/svg">
<path d="M188.254 154.785C186.94 154.785 186.064 155.661 186.064 156.975V159.384H87.2915V46.595H109.411C108.316 50.0992 108.535 52.5083 108.535 54.9174C108.535 56.2314 109.411 57.1074 110.725 57.1074H162.849C164.163 57.1074 165.039 56.2314 165.039 54.9174C165.039 52.5083 165.258 50.0992 164.163 46.595H186.283V61.7066C186.283 63.0207 187.159 63.8967 188.473 63.8967C189.787 63.8967 190.663 63.0207 190.663 61.7066V44.405C190.663 43.0909 189.787 42.2149 188.473 42.2149H162.192C160.002 38.2727 156.498 35.2066 152.118 33.0165C151.68 25.3512 144.891 19 136.787 19C128.684 19 121.895 25.1322 121.457 33.0165C117.077 34.9876 113.792 38.2727 111.382 42.2149H85.1014C83.7874 42.2149 82.9113 43.0909 82.9113 44.405V161.574C82.9113 162.888 83.7874 163.764 85.1014 163.764H188.254C189.568 163.764 190.444 162.888 190.444 161.574V156.975C190.444 155.88 189.349 154.785 188.254 154.785ZM124.304 36.5207C125.18 36.0826 125.837 35.2066 125.618 33.8926C125.618 28.1983 130.436 23.5992 136.568 23.5992C142.701 23.5992 147.519 28.1983 147.519 33.8926C147.3 35.2066 147.957 36.0826 148.833 36.5207C155.841 39.1488 160.221 45.5 160.44 52.7273H112.915C112.915 45.719 117.515 39.3678 124.304 36.5207Z" fill="#7FBC53"/>
<path d="M136.567 44.8428C141.166 44.8428 145.109 41.1197 145.109 36.3015C145.109 31.4833 141.385 27.7602 136.567 27.7602C131.968 27.7602 128.026 31.4833 128.026 36.3015C128.026 41.1197 131.968 44.8428 136.567 44.8428ZM136.567 32.1404C138.757 32.1404 140.728 33.8924 140.728 36.3015C140.728 38.7106 138.976 40.4627 136.567 40.4627C134.377 40.4627 132.406 38.7106 132.406 36.3015C132.406 33.8924 134.377 32.1404 136.567 32.1404Z" fill="#7FBC53"/>
<path d="M115.106 70.2477C115.106 68.9337 114.23 68.0576 112.916 68.0576H98.0235C96.7095 68.0576 95.8335 68.9337 95.8335 70.2477V86.2353C95.8335 87.5494 96.7095 88.4254 98.0235 88.4254H112.916C114.23 88.4254 115.106 87.5494 115.106 86.2353V70.2477ZM110.726 83.8262H100.214V72.2188H110.726V83.8262Z" fill="#7FBC53"/>
<path d="M115.106 99.596C115.106 98.282 114.23 97.4059 112.916 97.4059H98.0235C96.7095 97.4059 95.8335 98.282 95.8335 99.596V115.584C95.8335 116.898 96.7095 117.774 98.0235 117.774H112.916C114.23 117.774 115.106 116.898 115.106 115.584V99.596ZM110.726 113.394H100.214V101.786H110.726V113.394Z" fill="#7FBC53"/>
<path d="M112.916 126.97H98.0235C96.7095 126.97 95.8335 127.846 95.8335 129.16V145.148C95.8335 146.462 96.7095 147.338 98.0235 147.338H112.916C114.23 147.338 115.106 146.462 115.106 145.148V129.16C115.106 127.846 114.011 126.97 112.916 126.97ZM110.726 142.958H100.214V131.351H110.726V142.958Z" fill="#7FBC53"/>
<path d="M226.143 89.3023L186.284 67.6204C185.627 67.1824 184.751 67.1824 184.313 67.6204C181.685 68.9345 149.928 86.0171 144.672 88.8642C144.015 89.3023 143.577 90.1783 143.577 90.8353V125.877C143.577 126.534 144.015 127.41 144.672 127.629L184.313 152.596C184.97 153.034 185.846 153.034 186.503 152.596L226.362 131.352C227.019 130.914 227.457 130.257 227.457 129.381V91.2733C227.457 90.6163 227.019 89.7403 226.143 89.3023ZM185.408 72.0006L220.887 91.2733L211.689 96.3105L176.209 76.8188L185.408 72.0006ZM202.928 102.224L166.135 82.294L171.391 79.4469L209.28 100.253V110.984L204.023 113.831V104.195C204.023 103.319 203.585 102.443 202.928 102.224ZM161.536 84.7031L197.234 104.195L185.408 110.765L150.147 90.8353L161.536 84.7031ZM147.738 124.344V94.3394L182.999 114.269V146.682L147.738 124.344ZM187.598 146.901V114.488L199.643 107.918V117.554C199.643 118.43 200.081 119.087 200.738 119.525C201.395 119.963 202.271 119.963 202.928 119.525L212.565 114.269C213.222 113.831 213.66 113.174 213.66 112.298V100.253L223.077 95.2155V128.286L187.598 146.901Z" fill="#7FBC53"/>
<path d="M154.745 78.1328C154.745 76.8188 153.869 75.9427 152.555 75.9427H121.237C119.923 75.9427 119.047 76.8188 119.047 78.1328C119.047 79.4469 119.923 80.3229 121.237 80.3229H152.555C153.65 80.3229 154.745 79.4469 154.745 78.1328Z" fill="#7FBC53"/>
<path d="M139.198 105.509H121.02C119.706 105.509 118.83 106.385 118.83 107.699C118.83 109.013 119.706 109.889 121.02 109.889H139.198C140.512 109.889 141.388 109.013 141.388 107.699C141.388 106.385 140.293 105.509 139.198 105.509Z" fill="#7FBC53"/>
<path d="M117.514 137.046C117.514 138.36 118.39 139.236 119.704 139.236H148.395C149.709 139.236 150.585 138.36 150.585 137.046C150.585 135.732 149.709 134.855 148.395 134.855H119.704C118.609 134.855 117.514 135.951 117.514 137.046Z" fill="#7FBC53"/>
<mask id="path-10-outside-1_1615_92" maskUnits="userSpaceOnUse" x="5" y="90" width="73" height="110" fill="black">
<rect fill="white" x="5" y="90" width="73" height="110"/>
<path d="M68.474 186.05C70.0313 186.05 71.3453 186.585 72.416 187.656C73.4867 188.727 74.022 190.041 74.022 191.598C74.022 193.155 73.4867 194.469 72.416 195.54C71.3453 196.513 70.0313 197 68.474 197H15.476C13.724 197 12.264 196.513 11.096 195.54C10.0253 194.469 9.49 193.058 9.49 191.306C9.49 189.749 10.074 188.337 11.242 187.072L44.238 151.01C49.1047 145.754 52.7547 140.839 55.188 136.264C57.7187 131.592 58.984 127.455 58.984 123.854C58.984 117.917 57.1833 113.196 53.582 109.692C50.078 106.091 45.3573 104.29 39.42 104.29C36.792 104.29 34.164 104.874 31.536 106.042C28.908 107.113 26.5233 108.621 24.382 110.568C22.2407 112.417 20.4887 114.51 19.126 116.846C18.3473 118.111 17.52 118.939 16.644 119.328C15.8653 119.62 15.038 119.766 14.162 119.766C12.702 119.766 11.388 119.279 10.22 118.306C9.052 117.235 8.468 116.019 8.468 114.656C8.468 113.585 8.76 112.612 9.344 111.736C9.928 110.763 10.7067 109.692 11.68 108.524C13.724 105.701 16.2547 103.171 19.272 100.932C22.3867 98.596 25.7447 96.7467 29.346 95.384C33.0447 94.0213 36.646 93.34 40.15 93.34C46.3793 93.34 51.7813 94.5567 56.356 96.99C61.028 99.4233 64.6293 102.879 67.16 107.356C69.6907 111.833 70.956 117.089 70.956 123.124C70.956 128.283 69.3987 133.977 66.284 140.206C63.1693 146.435 58.5947 152.762 52.56 159.186L27.01 187.51L25.55 186.05H68.474Z"/>
</mask>
<path d="M72.416 187.656L70.2947 189.777L72.416 187.656ZM72.416 195.54L74.434 197.76L74.4868 197.712L74.5373 197.661L72.416 195.54ZM11.096 195.54L8.97468 197.661L9.07091 197.758L9.17545 197.845L11.096 195.54ZM11.242 187.072L13.4464 189.107L13.4553 189.097L11.242 187.072ZM44.238 151.01L42.0367 148.972L42.0307 148.978L42.0247 148.985L44.238 151.01ZM55.188 136.264L52.5501 134.835L52.5447 134.845L52.5394 134.855L55.188 136.264ZM53.582 109.692L51.4318 111.784L51.4605 111.814L51.4899 111.842L53.582 109.692ZM31.536 106.042L32.6679 108.82L32.7114 108.803L32.7544 108.783L31.536 106.042ZM24.382 110.568L26.3429 112.838L26.3718 112.814L26.4 112.788L24.382 110.568ZM19.126 116.846L21.681 118.418L21.6995 118.388L21.7173 118.358L19.126 116.846ZM16.644 119.328L17.6974 122.137L17.7809 122.106L17.8624 122.069L16.644 119.328ZM10.22 118.306L8.19283 120.517L8.24504 120.565L8.29945 120.611L10.22 118.306ZM9.344 111.736L11.8402 113.4L11.8798 113.341L11.9165 113.279L9.344 111.736ZM11.68 108.524L13.9847 110.445L14.05 110.366L14.1098 110.284L11.68 108.524ZM19.272 100.932L21.0595 103.341L21.0658 103.337L21.072 103.332L19.272 100.932ZM29.346 95.384L28.3089 92.569L28.2966 92.5735L28.2843 92.5781L29.346 95.384ZM56.356 96.99L54.9472 99.6386L54.9587 99.6447L54.9702 99.6507L56.356 96.99ZM67.16 107.356L64.5483 108.832L64.5483 108.832L67.16 107.356ZM66.284 140.206L63.6007 138.864L63.6007 138.864L66.284 140.206ZM52.56 159.186L50.3735 157.132L50.3527 157.154L50.3324 157.177L52.56 159.186ZM27.01 187.51L24.8887 189.631L27.122 191.865L29.2376 189.519L27.01 187.51ZM25.55 186.05V183.05H18.3074L23.4287 188.171L25.55 186.05ZM68.474 189.05C69.2611 189.05 69.8043 189.287 70.2947 189.777L74.5373 185.535C72.8863 183.884 70.8016 183.05 68.474 183.05V189.05ZM70.2947 189.777C70.785 190.268 71.022 190.811 71.022 191.598H77.022C77.022 189.27 76.1883 187.186 74.5373 185.535L70.2947 189.777ZM71.022 191.598C71.022 192.385 70.785 192.928 70.2947 193.419L74.5373 197.661C76.1883 196.01 77.022 193.926 77.022 191.598H71.022ZM70.398 193.32C69.9238 193.751 69.3471 194 68.474 194V200C70.7156 200 72.7669 199.275 74.434 197.76L70.398 193.32ZM68.474 194H15.476V200H68.474V194ZM15.476 194C14.313 194 13.5647 193.692 13.0166 193.235L9.17545 197.845C10.9633 199.335 13.135 200 15.476 200V194ZM13.2173 193.419C12.7982 193 12.49 192.398 12.49 191.306H6.49C6.49 193.718 7.25246 195.939 8.97468 197.661L13.2173 193.419ZM12.49 191.306C12.49 190.585 12.7313 189.882 13.4464 189.107L9.03759 185.037C7.41667 186.793 6.49 188.912 6.49 191.306H12.49ZM13.4553 189.097L46.4513 153.035L42.0247 148.985L9.02868 185.047L13.4553 189.097ZM46.4393 153.048C51.4199 147.669 55.2456 142.544 57.8366 137.673L52.5394 134.855C50.2637 139.133 46.7894 143.839 42.0367 148.972L46.4393 153.048ZM57.8259 137.693C60.4895 132.775 61.984 128.136 61.984 123.854H55.984C55.984 126.775 54.9478 130.409 52.5501 134.835L57.8259 137.693ZM61.984 123.854C61.984 117.266 59.9607 111.713 55.6741 107.542L51.4899 111.842C54.406 114.679 55.984 118.568 55.984 123.854H61.984ZM55.7322 107.6C51.5614 103.313 46.0083 101.29 39.42 101.29V107.29C44.7063 107.29 48.5946 108.868 51.4318 111.784L55.7322 107.6ZM39.42 101.29C36.334 101.29 33.2926 101.978 30.3176 103.301L32.7544 108.783C35.0354 107.77 37.25 107.29 39.42 107.29V101.29ZM30.4041 103.264C27.4438 104.47 24.7604 106.17 22.364 108.348L26.4 112.788C28.2863 111.073 30.3722 109.756 32.6679 108.82L30.4041 103.264ZM22.4211 108.298C20.0409 110.353 18.0718 112.699 16.5347 115.334L21.7173 118.358C22.9056 116.321 24.4404 114.481 26.3429 112.838L22.4211 108.298ZM16.571 115.274C15.9476 116.287 15.5207 116.544 15.4256 116.587L17.8624 122.069C19.5193 121.333 20.7471 119.936 21.681 118.418L16.571 115.274ZM15.5906 116.519C15.1665 116.678 14.6977 116.766 14.162 116.766V122.766C15.3783 122.766 16.5642 122.562 17.6974 122.137L15.5906 116.519ZM14.162 116.766C13.4347 116.766 12.7936 116.546 12.1406 116.001L8.29945 120.611C9.98237 122.013 11.9693 122.766 14.162 122.766V116.766ZM12.2472 116.095C11.5885 115.491 11.468 115.039 11.468 114.656H5.468C5.468 116.999 6.51554 118.98 8.19283 120.517L12.2472 116.095ZM11.468 114.656C11.468 114.167 11.5906 113.774 11.8402 113.4L6.84785 110.072C5.92944 111.45 5.468 113.004 5.468 114.656H11.468ZM11.9165 113.279C12.3996 112.474 13.0793 111.531 13.9847 110.445L9.37534 106.603C8.33406 107.853 7.45643 109.051 6.77152 110.193L11.9165 113.279ZM14.1098 110.284C15.9607 107.728 18.2691 105.412 21.0595 103.341L17.4845 98.5227C14.2403 100.93 11.4873 103.675 9.25017 106.764L14.1098 110.284ZM21.072 103.332C23.9634 101.163 27.0733 99.4515 30.4077 98.1899L28.2843 92.5781C24.4161 94.0418 20.8099 96.0286 17.472 98.532L21.072 103.332ZM30.3831 98.199C33.7908 96.9435 37.0413 96.34 40.15 96.34V90.34C36.2507 90.34 32.2985 91.0991 28.3089 92.569L30.3831 98.199ZM40.15 96.34C45.9868 96.34 50.8858 97.4783 54.9472 99.6386L57.7648 94.3414C52.6769 91.635 46.7719 90.34 40.15 90.34V96.34ZM54.9702 99.6507C59.1408 101.823 62.3104 104.873 64.5483 108.832L69.7717 105.88C66.9483 100.885 62.9152 97.0237 57.7418 94.3292L54.9702 99.6507ZM64.5483 108.832C66.7834 112.787 67.956 117.516 67.956 123.124H73.956C73.956 116.662 72.5979 110.88 69.7717 105.88L64.5483 108.832ZM67.956 123.124C67.956 127.683 66.5765 132.913 63.6007 138.864L68.9673 141.548C72.2208 135.041 73.956 128.882 73.956 123.124H67.956ZM63.6007 138.864C60.6454 144.775 56.2591 150.867 50.3735 157.132L54.7465 161.24C60.9302 154.657 65.6933 148.096 68.9673 141.548L63.6007 138.864ZM50.3324 157.177L24.7824 185.501L29.2376 189.519L54.7876 161.195L50.3324 157.177ZM29.1313 185.389L27.6713 183.929L23.4287 188.171L24.8887 189.631L29.1313 185.389ZM25.55 189.05H68.474V183.05H25.55V189.05Z" fill="#69B539" mask="url(#path-10-outside-1_1615_92)"/>
</svg>
