<svg width="242" height="203" viewBox="0 0 242 203" fill="none" xmlns="http://www.w3.org/2000/svg">
<g clip-path="url(#clip0_1615_97)">
<path d="M152.386 111.646L139.18 113.603C136.426 114.012 137.006 118.215 139.802 117.797L153.008 115.84C155.787 115.428 155.156 111.231 152.386 111.646Z" fill="#7FBC53"/>
<path d="M153.567 119.608L140.361 121.565C137.606 121.974 138.186 126.178 140.982 125.759L154.188 123.802C156.965 123.39 156.337 119.194 153.567 119.608Z" fill="#7FBC53"/>
<path d="M145.815 71.4966C148.593 71.0846 147.965 66.8888 145.193 67.303L131.988 69.2601C129.405 69.6433 129.69 73.4769 132.296 73.4769C132.593 73.4769 131.85 73.5586 145.815 71.4966Z" fill="#7FBC53"/>
<path d="M133.789 81.4158L146.995 79.4587C149.767 79.0478 149.149 74.8509 146.374 75.265L133.168 77.2222C130.413 77.6308 130.993 81.8344 133.789 81.4158Z" fill="#7FBC53"/>
<path d="M178.397 126.713C176.961 125.649 175.2 125.206 173.435 125.467L165.822 126.596C165.608 125.158 157.358 69.7272 155.509 57.3075C155.098 54.5353 150.903 55.1527 151.315 57.9293L155.056 83.1686C154.25 83.2879 102.779 90.9164 95.7836 91.9535L89.7676 51.3666L110.302 48.3238L111.987 59.7009C112.347 62.1285 114.614 63.8084 117.04 63.4494L125.834 62.1462C128.26 61.7861 129.941 59.5198 129.582 57.0932L127.896 45.715C147.33 42.9804 148.938 41.8914 149.254 44.0208L150.071 49.5409C150.482 52.3131 154.677 51.6957 154.266 48.9191L153.448 43.399C152.986 40.2855 150.094 38.1395 146.979 38.6012L125.186 41.8306C125.182 41.8306 125.18 41.8317 125.177 41.8317C125.175 41.8317 125.172 41.8328 125.17 41.8328L89.1458 47.1729L87.6106 36.8186C86.4796 29.1878 79.3492 23.9007 71.7206 25.0306L71.619 25.045C70.8945 24.0885 69.6829 23.5451 68.415 23.7328L39.2239 28.0601C37.3695 28.3352 36.0906 30.0581 36.3656 31.9136L37.882 42.1465C38.1548 43.991 39.8689 45.281 41.7344 45.0049L70.9265 40.6787C72.3016 40.4754 73.3431 39.4803 73.6932 38.2533C74.1593 38.2533 74.3537 38.5581 74.3868 38.7779L86.6188 121.31C87.0318 124.092 91.2244 123.459 90.8135 120.688L78.5805 38.1572C78.3905 36.8727 77.7113 35.7406 76.6675 34.9664C75.7078 34.2551 74.5481 33.926 73.3696 34.0254L72.6517 29.1834C77.8526 28.5815 82.6438 32.2251 83.4169 37.4404L95.7947 120.953C96.2066 123.727 100.4 123.108 99.9894 120.332L96.4043 96.1471L116.828 93.1198L118.168 102.16C118.528 104.587 120.795 106.268 123.221 105.908L132.013 104.605C134.44 104.246 136.122 101.979 135.762 99.5522L134.422 90.5122L155.72 87.3556L161.629 127.218L117.63 133.739C114.851 134.151 115.481 138.348 118.251 137.932C122.125 137.358 171.844 129.989 174.057 129.661C177.213 129.191 177.989 134.021 174.774 134.498L119.754 142.653C116.983 143.064 117.599 147.262 120.375 146.847L175.396 138.692C181.306 137.815 183.138 130.23 178.397 126.713ZM125.388 57.7151C125.405 57.8288 125.326 57.9359 125.212 57.9525L116.419 59.2558C116.304 59.2735 116.199 59.1939 116.182 59.0791L114.495 47.702L123.702 46.338L125.388 57.7151ZM41.952 40.6875L40.6829 32.1301L68.1985 28.0513L69.4664 36.6087L41.952 40.6875ZM131.393 100.411C122.487 101.637 122.421 101.937 122.363 101.538L121.022 92.498L130.229 91.134C131.483 100.225 131.793 100.352 131.393 100.411Z" fill="#7FBC53"/>
<path d="M78.7384 134.605C68.4967 148.41 80.0659 167.913 97.1763 165.376C107.766 163.807 115.104 153.914 113.535 143.326C111.014 126.322 89.0143 120.752 78.7384 134.605ZM96.5545 161.183C83.2689 163.15 74.1096 147.96 82.1434 137.132C90.1806 126.296 107.365 130.623 109.34 143.947C110.567 152.223 104.831 159.955 96.5545 161.183Z" fill="#7FBC53"/>
<path d="M99.5852 139.088C93.2389 134.379 84.465 139.776 85.6049 147.465C86.3172 152.267 90.8036 155.61 95.6235 154.896C103.347 153.752 105.878 143.756 99.5852 139.088ZM95.0017 150.702C92.5022 151.074 90.1696 149.342 89.7996 146.843C89.2065 142.844 93.7713 140.054 97.0593 142.493C98.0411 143.222 98.6817 144.29 98.8607 145.5C99.2318 147.999 97.5 150.332 95.0017 150.702Z" fill="#7FBC53"/>
</g>
<mask id="path-8-outside-1_1615_97" maskUnits="userSpaceOnUse" x="3" y="87" width="70" height="110" fill="black">
<rect fill="white" x="3" y="87" width="70" height="110"/>
<path d="M14.162 175.064C14.746 175.064 15.3787 175.21 16.06 175.502C16.8387 175.697 17.666 176.183 18.542 176.962C20.4887 178.714 22.776 180.125 25.404 181.196C28.032 182.267 31.0493 182.802 34.456 182.802C38.6413 182.802 42.486 181.877 45.99 180.028C49.494 178.081 52.3167 175.356 54.458 171.852C56.6967 168.348 57.816 164.309 57.816 159.734C57.816 154.77 56.6967 150.731 54.458 147.616C52.3167 144.404 49.5427 142.068 46.136 140.608C42.8267 139.051 39.3227 138.272 35.624 138.272C34.2613 138.272 32.996 138.369 31.828 138.564C30.66 138.759 29.5407 139.002 28.47 139.294C27.4967 139.586 26.572 139.732 25.696 139.732C24.1387 139.732 22.922 139.197 22.046 138.126C21.17 137.055 20.732 135.741 20.732 134.184C20.732 133.308 20.878 132.529 21.17 131.848C21.5593 131.069 22.1433 130.242 22.922 129.366L51.246 98.706L53.582 101.48H12.118C10.5607 101.48 9.24667 100.945 8.176 99.874C7.10533 98.8033 6.57 97.4893 6.57 95.932C6.57 94.3747 7.10533 93.1093 8.176 92.136C9.24667 91.0653 10.5607 90.53 12.118 90.53H59.714C61.8553 90.53 63.4127 91.1627 64.386 92.428C65.3593 93.596 65.846 94.91 65.846 96.37C65.846 97.246 65.6027 98.0733 65.116 98.852C64.7267 99.6307 64.1913 100.361 63.51 101.042L35.186 131.848L31.828 128.928C32.3147 128.539 33.434 128.198 35.186 127.906C36.938 127.517 38.398 127.322 39.566 127.322C45.0167 127.322 50.0293 128.636 54.604 131.264C59.1787 133.892 62.8287 137.591 65.554 142.36C68.2793 147.129 69.642 152.677 69.642 159.004C69.642 166.012 68.036 172.095 64.824 177.254C61.612 182.413 57.1833 186.403 51.538 189.226C45.99 192.049 39.712 193.46 32.704 193.46C28.8107 193.46 24.966 192.876 21.17 191.708C17.4713 190.443 14.2593 188.642 11.534 186.306C10.2687 185.625 9.39267 184.846 8.906 183.97C8.51667 183.094 8.322 182.218 8.322 181.342C8.322 179.882 8.85733 178.471 9.928 177.108C11.096 175.745 12.5073 175.064 14.162 175.064Z"/>
</mask>
<path d="M16.06 175.502L14.8782 178.259L15.0992 178.354L15.3324 178.412L16.06 175.502ZM18.542 176.962L20.5489 174.732L20.542 174.726L20.5351 174.72L18.542 176.962ZM25.404 181.196L26.5359 178.418L26.5359 178.418L25.404 181.196ZM45.99 180.028L47.3903 182.681L47.4188 182.666L47.4469 182.65L45.99 180.028ZM54.458 171.852L51.9299 170.237L51.9138 170.262L51.8982 170.288L54.458 171.852ZM54.458 147.616L51.9619 149.28L51.9911 149.324L52.022 149.367L54.458 147.616ZM46.136 140.608L44.8586 143.322L44.9061 143.345L44.9542 143.365L46.136 140.608ZM28.47 139.294L27.6807 136.4L27.6442 136.41L27.608 136.421L28.47 139.294ZM21.17 131.848L18.4867 130.506L18.4473 130.585L18.4126 130.666L21.17 131.848ZM22.922 129.366L20.7184 127.33L20.6989 127.351L20.6798 127.373L22.922 129.366ZM51.246 98.706L53.5407 96.7736L51.3501 94.1722L49.0424 96.6703L51.246 98.706ZM53.582 101.48V104.48H60.0303L55.8767 99.5476L53.582 101.48ZM8.176 99.874L10.2973 97.7527L10.2973 97.7527L8.176 99.874ZM8.176 92.136L10.194 94.3558L10.2468 94.3078L10.2973 94.2573L8.176 92.136ZM64.386 92.428L62.0081 94.2571L62.0438 94.3036L62.0813 94.3485L64.386 92.428ZM65.116 98.852L62.572 97.262L62.4965 97.3829L62.4327 97.5104L65.116 98.852ZM63.51 101.042L61.3887 98.9207L61.3442 98.9652L61.3016 99.0115L63.51 101.042ZM35.186 131.848L33.2175 134.112L35.4194 136.027L37.3944 133.878L35.186 131.848ZM31.828 128.928L29.9539 126.585L27.1457 128.832L29.8595 131.192L31.828 128.928ZM35.186 127.906L35.6792 130.865L35.7584 130.852L35.8368 130.835L35.186 127.906ZM54.604 131.264L53.1096 133.865L53.1096 133.865L54.604 131.264ZM65.554 142.36L62.9493 143.848L62.9493 143.848L65.554 142.36ZM64.824 177.254L67.3707 178.84L67.3707 178.84L64.824 177.254ZM51.538 189.226L50.1964 186.543L50.187 186.547L50.1776 186.552L51.538 189.226ZM21.17 191.708L20.1989 194.546L20.2431 194.562L20.2877 194.575L21.17 191.708ZM11.534 186.306L13.4864 184.028L13.2409 183.818L12.9563 183.665L11.534 186.306ZM8.906 183.97L6.16457 185.188L6.21874 185.31L6.28353 185.427L8.906 183.97ZM9.928 177.108L7.65023 175.156L7.60858 175.204L7.56905 175.255L9.928 177.108ZM14.162 178.064C14.2462 178.064 14.4735 178.086 14.8782 178.259L17.2418 172.745C16.2838 172.334 15.2458 172.064 14.162 172.064V178.064ZM15.3324 178.412C15.4753 178.448 15.8802 178.61 16.5489 179.204L20.5351 174.72C19.4518 173.757 18.2021 172.945 16.7876 172.592L15.3324 178.412ZM16.5351 179.192C18.7603 181.195 21.3498 182.784 24.2721 183.974L26.5359 178.418C24.2022 177.467 22.2171 176.233 20.5489 174.732L16.5351 179.192ZM24.2721 183.974C27.3238 185.218 30.7373 185.802 34.456 185.802V179.802C31.3614 179.802 28.7402 179.316 26.5359 178.418L24.2721 183.974ZM34.456 185.802C39.101 185.802 43.4303 184.771 47.3903 182.681L44.5897 177.375C41.5417 178.984 38.1817 179.802 34.456 179.802V185.802ZM47.4469 182.65C51.4152 180.446 54.6133 177.351 57.0178 173.416L51.8982 170.288C50.02 173.361 47.5728 175.717 44.5331 177.406L47.4469 182.65ZM56.9861 173.467C59.5634 169.433 60.816 164.822 60.816 159.734H54.816C54.816 163.796 53.8299 167.263 51.9299 170.237L56.9861 173.467ZM60.816 159.734C60.816 154.326 59.5941 149.622 56.894 145.865L52.022 149.367C53.7992 151.84 54.816 155.214 54.816 159.734H60.816ZM56.9542 145.952C54.5042 142.277 51.2823 139.55 47.3178 137.851L44.9542 143.365C47.803 144.586 50.1292 146.531 51.9619 149.28L56.9542 145.952ZM47.4134 137.894C43.6998 136.146 39.7591 135.272 35.624 135.272V141.272C38.8862 141.272 41.9535 141.955 44.8586 143.322L47.4134 137.894ZM35.624 135.272C34.1202 135.272 32.688 135.379 31.3348 135.605L32.3212 141.523C33.304 141.359 34.4025 141.272 35.624 141.272V135.272ZM31.3348 135.605C30.0736 135.815 28.8551 136.079 27.6807 136.4L29.2594 142.188C30.2262 141.925 31.2464 141.702 32.3212 141.523L31.3348 135.605ZM27.608 136.421C26.8706 136.642 26.2377 136.732 25.696 136.732V142.732C26.9063 142.732 28.1227 142.53 29.332 142.167L27.608 136.421ZM25.696 136.732C24.9108 136.732 24.5979 136.507 24.3679 136.226L19.7241 140.026C21.2461 141.886 23.3666 142.732 25.696 142.732V136.732ZM24.3679 136.226C23.9855 135.759 23.732 135.141 23.732 134.184H17.732C17.732 136.342 18.3545 138.352 19.7241 140.026L24.3679 136.226ZM23.732 134.184C23.732 133.642 23.8218 133.276 23.9274 133.03L18.4126 130.666C17.9342 131.782 17.732 132.974 17.732 134.184H23.732ZM23.8533 133.19C24.0922 132.712 24.5044 132.101 25.1642 131.359L20.6798 127.373C19.7823 128.383 19.0265 129.427 18.4867 130.506L23.8533 133.19ZM25.1256 131.402L53.4496 100.742L49.0424 96.6703L20.7184 127.33L25.1256 131.402ZM48.9513 100.638L51.2873 103.412L55.8767 99.5476L53.5407 96.7736L48.9513 100.638ZM53.582 98.48H12.118V104.48H53.582V98.48ZM12.118 98.48C11.3309 98.48 10.7877 98.243 10.2973 97.7527L6.05468 101.995C7.70565 103.646 9.7904 104.48 12.118 104.48V98.48ZM10.2973 97.7527C9.80697 97.2623 9.57 96.7191 9.57 95.932H3.57C3.57 98.2596 4.4037 100.344 6.05468 101.995L10.2973 97.7527ZM9.57 95.932C9.57 95.1475 9.8004 94.7137 10.194 94.3558L6.15798 89.9162C4.41027 91.505 3.57 93.6018 3.57 95.932H9.57ZM10.2973 94.2573C10.7877 93.767 11.3309 93.53 12.118 93.53V87.53C9.7904 87.53 7.70565 88.3637 6.05468 90.0147L10.2973 94.2573ZM12.118 93.53H59.714V87.53H12.118V93.53ZM59.714 93.53C61.2664 93.53 61.7832 93.9647 62.0081 94.2571L66.7639 90.5989C65.0422 88.3606 62.4442 87.53 59.714 87.53V93.53ZM62.0813 94.3485C62.6256 95.0016 62.846 95.6427 62.846 96.37H68.846C68.846 94.1773 68.0931 92.1904 66.6907 90.5074L62.0813 94.3485ZM62.846 96.37C62.846 96.656 62.7757 96.936 62.572 97.262L67.66 100.442C68.4296 99.2106 68.846 97.836 68.846 96.37H62.846ZM62.4327 97.5104C62.2021 97.9716 61.8662 98.4432 61.3887 98.9207L65.6313 103.163C66.5165 102.278 67.2512 101.29 67.7993 100.194L62.4327 97.5104ZM61.3016 99.0115L32.9776 129.818L37.3944 133.878L65.7184 103.072L61.3016 99.0115ZM37.1545 129.584L33.7965 126.664L29.8595 131.192L33.2175 134.112L37.1545 129.584ZM33.7021 131.271C33.5681 131.378 33.493 131.403 33.553 131.376C33.603 131.353 33.7139 131.309 33.906 131.251C34.2948 131.132 34.8732 131 35.6792 130.865L34.6928 124.947C33.7468 125.104 32.8895 125.288 32.159 125.51C31.4977 125.712 30.6519 126.027 29.9539 126.585L33.7021 131.271ZM35.8368 130.835C37.476 130.47 38.7004 130.322 39.566 130.322V124.322C38.0956 124.322 36.4 124.563 34.5352 124.977L35.8368 130.835ZM39.566 130.322C44.5104 130.322 49.0052 131.507 53.1096 133.865L56.0984 128.663C51.0535 125.765 45.5229 124.322 39.566 124.322V130.322ZM53.1096 133.865C57.2023 136.216 60.4772 139.522 62.9493 143.848L68.1587 140.872C65.1802 135.659 61.155 131.568 56.0984 128.663L53.1096 133.865ZM62.9493 143.848C65.3785 148.1 66.642 153.119 66.642 159.004H72.642C72.642 152.235 71.1802 146.159 68.1587 140.872L62.9493 143.848ZM66.642 159.004C66.642 165.539 65.1499 171.055 62.2773 175.668L67.3707 178.84C70.9221 173.136 72.642 166.485 72.642 159.004H66.642ZM62.2773 175.668C59.3696 180.338 55.3665 183.958 50.1964 186.543L52.8796 191.909C59.0002 188.849 63.8544 184.487 67.3707 178.84L62.2773 175.668ZM50.1776 186.552C45.1015 189.135 39.2993 190.46 32.704 190.46V196.46C40.1247 196.46 46.8785 194.963 52.8984 191.9L50.1776 186.552ZM32.704 190.46C29.1157 190.46 25.5682 189.923 22.0523 188.841L20.2877 194.575C24.3638 195.829 28.5056 196.46 32.704 196.46V190.46ZM22.1411 188.87C18.7699 187.716 15.8983 186.096 13.4864 184.028L9.58163 188.584C12.6203 191.188 16.1728 193.169 20.1989 194.546L22.1411 188.87ZM12.9563 183.665C11.9876 183.143 11.6404 182.715 11.5285 182.513L6.28353 185.427C7.14494 186.977 8.54974 188.106 10.1117 188.947L12.9563 183.665ZM11.6474 182.752C11.4124 182.223 11.322 181.76 11.322 181.342H5.322C5.322 182.676 5.62098 183.965 6.16457 185.188L11.6474 182.752ZM11.322 181.342C11.322 180.674 11.551 179.898 12.287 178.961L7.56905 175.255C6.16367 177.043 5.322 179.09 5.322 181.342H11.322ZM12.2058 179.06C12.8584 178.299 13.4637 178.064 14.162 178.064V172.064C11.551 172.064 9.33359 173.192 7.65023 175.156L12.2058 179.06Z" fill="#69B539" mask="url(#path-8-outside-1_1615_97)"/>
<defs>
<clipPath id="clip0_1615_97">
<rect width="144.764" height="144.764" fill="white" transform="translate(36.328 22)"/>
</clipPath>
</defs>
</svg>
