<svg width="63" height="57" viewBox="0 0 63 57" fill="none" xmlns="http://www.w3.org/2000/svg">
<path d="M33.6818 46.6362H1.29545C0.951879 46.6362 0.622375 46.4997 0.37943 46.2567C0.136485 46.0138 0 45.6843 0 45.3407V41.4543H2.59091V44.0453H33.6818V46.6362Z" fill="#259B22"/>
<path d="M2.59091 38.8636H0V1.29545C0 0.951879 0.136485 0.622375 0.37943 0.37943C0.622375 0.136485 0.951879 0 1.29545 0H45.3409C45.6845 0 46.014 0.136485 46.2569 0.37943C46.4999 0.622375 46.6364 0.951879 46.6364 1.29545V16.8409H44.0455V2.59091H2.59091V38.8636Z" fill="#259B22"/>
<path d="M29.7957 20.7273H16.8411C16.4976 20.7273 16.168 20.5908 15.9251 20.3478C15.6822 20.1049 15.5457 19.7754 15.5457 19.4318V1.29545C15.5457 0.951879 15.6822 0.622375 15.9251 0.37943C16.168 0.136485 16.4976 0 16.8411 0H29.7957C30.1392 0 30.4688 0.136485 30.7117 0.37943C30.9546 0.622375 31.0911 0.951879 31.0911 1.29545V19.4318C31.0911 19.7754 30.9546 20.1049 30.7117 20.3478C30.4688 20.5908 30.1392 20.7273 29.7957 20.7273ZM18.1366 18.1364H28.5002V2.59091H18.1366V18.1364Z" fill="#259B22"/>
<path d="M5.18268 38.8636H7.77359V41.4545H5.18268V38.8636Z" fill="#259B22"/>
<path d="M10.363 38.8636H18.1357V41.4545H10.363V38.8636Z" fill="#259B22"/>
<path d="M5.18268 33.6821H12.9554V36.273H5.18268V33.6821Z" fill="#259B22"/>
<path d="M1.29567 5.18207H25.9093V7.77298H1.29567V5.18207Z" fill="#259B22"/>
<path d="M29.7957 5.18207H45.3411V7.77298H29.7957V5.18207Z" fill="#259B22"/>
<path d="M46.6368 57C46.297 56.9986 45.9713 56.8637 45.73 56.6244C45.1263 56.031 31.0913 41.9961 31.0913 33.6819C31.0913 29.559 32.7292 25.6049 35.6445 22.6896C38.5598 19.7742 42.5139 18.1364 46.6368 18.1364C50.7597 18.1364 54.7138 19.7742 57.6291 22.6896C60.5444 25.6049 62.1823 29.559 62.1823 33.6819C62.1823 41.9961 48.1473 56.031 47.5436 56.6244C47.3023 56.8637 46.9767 56.9986 46.6368 57ZM46.6368 20.7273C43.2022 20.7311 39.9094 22.0972 37.4807 24.5258C35.0521 26.9544 33.686 30.2473 33.6823 33.6819C33.6823 39.2627 42.3165 49.3737 46.6368 53.8573C50.9571 49.3737 59.5913 39.2627 59.5913 33.6819C59.5876 30.2473 58.2215 26.9544 55.7929 24.5258C53.3643 22.0972 50.0714 20.7311 46.6368 20.7273Z" fill="#259B22"/>
<path d="M46.6357 41.4547C45.0984 41.4547 43.5957 40.9988 42.3174 40.1448C41.0392 39.2907 40.043 38.0767 39.4547 36.6565C38.8664 35.2362 38.7124 33.6734 39.0124 32.1656C39.3123 30.6578 40.0525 29.2729 41.1396 28.1858C42.2266 27.0988 43.6116 26.3585 45.1193 26.0586C46.6271 25.7587 48.1899 25.9126 49.6102 26.5009C51.0305 27.0892 52.2444 28.0855 53.0985 29.3637C53.9526 30.6419 54.4085 32.1447 54.4085 33.682C54.4064 35.7428 53.5868 37.7186 52.1296 39.1758C50.6724 40.6331 48.6966 41.4526 46.6357 41.4547ZM46.6357 28.5002C45.6109 28.5002 44.609 28.8041 43.7569 29.3734C42.9047 29.9428 42.2406 30.7521 41.8484 31.699C41.4562 32.6458 41.3535 33.6877 41.5535 34.6929C41.7534 35.6981 42.2469 36.6214 42.9716 37.3461C43.6963 38.0708 44.6196 38.5643 45.6248 38.7642C46.63 38.9642 47.6719 38.8615 48.6187 38.4693C49.5656 38.0771 50.3749 37.413 50.9443 36.5608C51.5136 35.7087 51.8176 34.7068 51.8176 33.682C51.8176 32.3077 51.2716 30.9897 50.2998 30.0179C49.3281 29.0461 48.01 28.5002 46.6357 28.5002Z" fill="#259B22"/>
</svg>
