<svg width="49" height="72" viewBox="0 0 49 72" fill="none" xmlns="http://www.w3.org/2000/svg">
<path d="M47.2153 32.6769H43.2646V18.3396C43.2646 12.9714 40.8843 7.88653 36.7337 4.38891C36.2023 3.9413 35.4037 4.00331 34.9503 4.5277C34.4968 5.05209 34.5596 5.8403 35.0909 6.28805C38.6776 9.3105 40.7345 13.7032 40.7345 18.3395V32.6768H36.9585V18.3396C36.9585 11.6592 31.4529 6.2242 24.6859 6.2242C17.9179 6.2242 12.4117 11.6592 12.4117 18.3396V29.971C12.4117 30.6606 12.978 31.2196 13.6767 31.2196C14.3754 31.2196 14.9417 30.6606 14.9417 29.971V18.3396C14.9417 13.0362 19.3129 8.72142 24.6859 8.72142C30.058 8.72142 34.4285 13.0361 34.4285 18.3396V32.6769H8.6357V18.3396C8.6357 9.60398 15.8358 2.49708 24.686 2.49708C27.1294 2.49708 29.4763 3.02752 31.6618 4.07348C32.2911 4.37484 33.0472 4.11525 33.352 3.49481C33.6569 2.87437 33.3944 2.12752 32.7658 1.82644C30.2334 0.614531 27.5151 0 24.6862 0C14.4409 0 6.10587 8.22713 6.10587 18.3398V32.677H2.15561C1.45694 32.677 0.890625 33.236 0.890625 33.9256V57.4381C0.890625 58.1278 1.45694 58.6868 2.15561 58.6868C2.85428 58.6868 3.4206 58.1278 3.4206 57.4381V35.1741H45.9502V69.5028H3.4206V61.7605C3.4206 61.0709 2.85428 60.5119 2.15561 60.5119C1.45694 60.5119 0.890625 61.0709 0.890625 61.7605V70.7514C0.890625 71.441 1.45694 72 2.15561 72H47.2153C47.9141 72 48.4803 71.441 48.4803 70.7514V33.9255C48.4803 33.2359 47.9141 32.6769 47.2153 32.6769Z" fill="white"/>
<path d="M28.5003 53.9621C30.6544 52.6668 31.9931 50.3604 31.9931 47.8081C31.9931 43.8306 28.7145 40.5947 24.6849 40.5947C20.6553 40.5947 17.377 43.8306 17.377 47.8081C17.377 50.3604 18.7156 52.667 20.8699 53.9621L17.9498 62.4314C17.8185 62.8126 17.8813 63.2332 18.1188 63.5606C18.3563 63.8881 18.7392 64.0823 19.1473 64.0823H30.2229C30.6309 64.0823 31.0137 63.888 31.2514 63.5606C31.489 63.2331 31.552 62.8126 31.4203 62.4314L28.5003 53.9621ZM20.914 61.5851L23.6188 53.7408C23.8351 53.1139 23.5177 52.4294 22.8957 52.181C21.0802 51.456 19.9071 49.7397 19.9071 47.8079C19.9071 45.2075 22.0505 43.0918 24.6851 43.0918C27.3198 43.0918 29.4632 45.2075 29.4632 47.8079C29.4632 49.7396 28.2901 51.456 26.4746 52.181C25.8526 52.4293 25.5353 53.1137 25.7516 53.7408L28.4562 61.5851H20.914Z" fill="white"/>
</svg>
