<svg width="64" height="64" viewBox="0 0 64 64" fill="none" xmlns="http://www.w3.org/2000/svg">
<g clip-path="url(#clip0_1400_5347)">
<path d="M50.7065 7.56075C51.1041 6.99625 50.9687 6.2165 50.4042 5.819C44.9984 2.01212 38.6342 0 32 0C27.847 0 23.8059 0.78425 19.9887 2.33087C19.349 2.59012 19.0405 3.319 19.2997 3.95875C19.5589 4.5985 20.2874 4.90712 20.9276 4.64787C24.4451 3.22262 28.1702 2.5 32 2.5C38.1162 2.5 43.9825 4.3545 48.9649 7.863C49.1837 8.017 49.4349 8.09112 49.6835 8.09112C50.0764 8.09112 50.4631 7.90637 50.7065 7.56075Z" fill="url(#paint0_linear_1400_5347)"/>
<path d="M64 32C64 25.6044 62.1191 19.4309 58.5606 14.1469C58.1749 13.5741 57.398 13.4228 56.8255 13.8083C56.2529 14.1939 56.1012 14.9706 56.4869 15.5433C59.7665 20.4133 61.5 26.1039 61.5 32C61.5 38.2699 59.5761 44.2139 55.9286 49.2551C55.3309 48.9834 54.6681 48.8308 53.9699 48.8308C51.3507 48.8308 49.2199 50.9616 49.2199 53.5808C49.2199 56.1999 51.3507 58.3308 53.9699 58.3308C56.589 58.3308 58.7199 56.1999 58.7199 53.5808C58.7199 52.567 58.3996 51.6271 57.8564 50.855C61.878 45.3564 64 38.8576 64 32ZM53.9699 55.8308C52.7292 55.8308 51.7199 54.8214 51.7199 53.5808C51.7199 52.3401 52.7292 51.3308 53.9699 51.3308C55.2105 51.3308 56.2199 52.3401 56.2199 53.5808C56.2199 54.8214 55.2105 55.8308 53.9699 55.8308Z" fill="url(#paint1_linear_1400_5347)"/>
<path d="M43.0723 59.352C39.555 60.7774 35.8298 61.5 32 61.5C15.7336 61.5 2.5 48.2664 2.5 32C2.5 25.7301 4.42387 19.7861 8.07137 14.7449C8.66912 15.0166 9.33187 15.1693 10.0301 15.1693C12.6493 15.1693 14.7801 13.0384 14.7801 10.4193C14.7801 7.80013 12.6493 5.66925 10.0301 5.66925C7.411 5.66925 5.28013 7.80013 5.28013 10.4193C5.28013 11.433 5.60037 12.3729 6.14362 13.145C2.122 18.6436 0 25.1424 0 32C0 40.5475 3.32863 48.5834 9.3725 54.6274C15.4166 60.6715 23.4525 64 32 64C36.153 64 40.1941 63.2157 44.0112 61.6691C44.651 61.4099 44.9595 60.681 44.7002 60.0412C44.4409 59.4012 43.7119 59.0929 43.0723 59.352ZM10.0301 8.16925C11.2708 8.16925 12.2801 9.17863 12.2801 10.4193C12.2801 11.6599 11.2708 12.6693 10.0301 12.6693C8.7895 12.6693 7.78013 11.6599 7.78013 10.4193C7.78013 9.17863 8.7895 8.16925 10.0301 8.16925Z" fill="url(#paint2_linear_1400_5347)"/>
<path d="M32 29.2213C29.3606 29.2213 27.2134 31.3685 27.2134 34.0078C27.2134 35.102 27.5781 36.1401 28.25 36.9834V40.7161C28.25 42.7839 29.9322 44.4661 32 44.4661C34.0677 44.4661 35.75 42.7839 35.75 40.7161V36.9834C36.4219 36.14 36.7866 35.102 36.7866 34.0078C36.7866 31.3685 34.6394 29.2213 32 29.2213ZM33.6164 35.625C33.3819 35.8595 33.25 36.1775 33.25 36.5091V40.7161C33.25 41.4054 32.6892 41.9661 32 41.9661C31.3107 41.9661 30.75 41.4054 30.75 40.7161V36.5091C30.75 36.1775 30.6181 35.8594 30.3836 35.625C29.9514 35.193 29.7134 34.6188 29.7134 34.0078C29.7134 32.747 30.7391 31.7213 32 31.7213C33.2609 31.7213 34.2866 32.747 34.2866 34.0078C34.2866 34.6188 34.0486 35.1931 33.6164 35.625Z" fill="url(#paint3_linear_1400_5347)"/>
<path d="M43.4939 24.4526V21.8899C43.4939 15.5521 38.3377 10.396 32 10.396C25.6623 10.396 20.5061 15.5521 20.5061 21.8899V24.4526C18.8877 25.1415 17.75 26.7476 17.75 28.6146V45.0727C17.75 47.5656 19.7781 49.5937 22.2709 49.5937H41.7291C44.2219 49.5937 46.25 47.5656 46.25 45.0727V28.6146C46.25 26.7476 45.1122 25.1415 43.4939 24.4526ZM23.0061 21.8899C23.0061 16.9306 27.0408 12.896 32 12.896C36.9592 12.896 40.9939 16.9306 40.9939 21.8899V24.0937H38.3719V21.8899C38.3719 18.3764 35.5135 15.518 31.9999 15.518C28.4862 15.518 25.6279 18.3765 25.6279 21.8899V24.0937H23.0059V21.8899H23.0061ZM28.128 24.0937V21.8899C28.128 19.7549 29.865 18.018 32 18.018C34.135 18.018 35.872 19.7549 35.872 21.8899V24.0937H28.128ZM43.75 45.0727C43.75 46.1871 42.8434 47.0937 41.7291 47.0937H22.2709C21.1566 47.0937 20.25 46.1871 20.25 45.0727V28.6146C20.25 27.5002 21.1566 26.5937 22.2709 26.5937H41.7291C42.8434 26.5937 43.75 27.5004 43.75 28.6146V45.0727Z" fill="url(#paint4_linear_1400_5347)"/>
<path d="M53.97 11.735C54.2987 11.735 54.6212 11.6025 54.8537 11.37C55.0861 11.1375 55.22 10.815 55.22 10.4863C55.22 10.1563 55.0862 9.83377 54.8537 9.60127C54.6212 9.36877 54.2986 9.23627 53.97 9.23627C53.6412 9.23627 53.3187 9.36877 53.0862 9.60127C52.8539 9.83377 52.72 10.1563 52.72 10.4863C52.72 10.815 52.8537 11.1363 53.0862 11.37C53.3187 11.6025 53.6412 11.735 53.97 11.735Z" fill="url(#paint5_linear_1400_5347)"/>
</g>
<defs>
<linearGradient id="paint0_linear_1400_5347" x1="35.0713" y1="0" x2="35.0713" y2="8.09112" gradientUnits="userSpaceOnUse">
<stop stop-color="#00491A"/>
<stop offset="1" stop-color="#0AA340"/>
</linearGradient>
<linearGradient id="paint1_linear_1400_5347" x1="56.6099" y1="13.595" x2="56.6099" y2="58.3308" gradientUnits="userSpaceOnUse">
<stop stop-color="#00491A"/>
<stop offset="1" stop-color="#0AA340"/>
</linearGradient>
<linearGradient id="paint2_linear_1400_5347" x1="22.396" y1="5.66925" x2="22.396" y2="64" gradientUnits="userSpaceOnUse">
<stop stop-color="#00491A"/>
<stop offset="1" stop-color="#0AA340"/>
</linearGradient>
<linearGradient id="paint3_linear_1400_5347" x1="32" y1="29.2213" x2="32" y2="44.4661" gradientUnits="userSpaceOnUse">
<stop stop-color="#00491A"/>
<stop offset="1" stop-color="#0AA340"/>
</linearGradient>
<linearGradient id="paint4_linear_1400_5347" x1="32" y1="10.396" x2="32" y2="49.5937" gradientUnits="userSpaceOnUse">
<stop stop-color="#00491A"/>
<stop offset="1" stop-color="#0AA340"/>
</linearGradient>
<linearGradient id="paint5_linear_1400_5347" x1="53.97" y1="9.23627" x2="53.97" y2="11.735" gradientUnits="userSpaceOnUse">
<stop stop-color="#00491A"/>
<stop offset="1" stop-color="#0AA340"/>
</linearGradient>
<clipPath id="clip0_1400_5347">
<rect width="64" height="64" fill="white"/>
</clipPath>
</defs>
</svg>
