<svg width="71" height="71" viewBox="0 0 71 71" fill="none" xmlns="http://www.w3.org/2000/svg">
<g clip-path="url(#clip0_1400_6025)">
<path d="M63.8998 56.6391C63.6721 54.7379 62.872 52.9507 61.6057 51.5143C60.3393 50.078 58.6665 49.0603 56.8087 48.5962L43.2655 44.7866V39.5326C45.938 37.3416 48.2632 34.364 48.7192 31.0625H53.028C53.9695 31.0625 54.8724 30.6885 55.5382 30.0227C56.2039 29.357 56.578 28.454 56.578 27.5125V23.5188C56.5761 22.8512 56.3855 22.1978 56.0283 21.6338C55.671 21.0699 55.1617 20.6184 54.5589 20.3315C54.642 19.659 54.6865 18.9823 54.692 18.3047C54.692 11.4676 52.197 0 35.4998 0C18.8026 0 16.3077 11.4676 16.3077 18.3047C16.3129 18.9823 16.3569 19.659 16.4397 20.3315C15.8371 20.6186 15.328 21.0701 14.971 21.6341C14.6139 22.198 14.4235 22.8513 14.4217 23.5188V27.5125C14.4217 28.454 14.7957 29.357 15.4615 30.0227C16.1272 30.6885 17.0302 31.0625 17.9717 31.0625H22.2839C22.7398 34.3551 25.0573 37.3271 27.7364 39.5159V44.7866L14.2254 48.5906C12.3615 49.0511 10.6817 50.0675 9.40901 51.5051C8.13634 52.9426 7.33098 54.7332 7.09984 56.6391L5.55448 69.7608C5.5201 70.053 5.60316 70.3468 5.7854 70.5778C5.96765 70.8087 6.23415 70.9578 6.5263 70.9922C6.56936 70.9975 6.61271 71.0001 6.65609 71C6.92762 70.9997 7.18961 70.8998 7.39244 70.7193C7.59526 70.5387 7.72482 70.2901 7.75659 70.0204L9.30195 56.8987C9.48034 55.4346 10.1012 54.0597 11.0817 52.9577C12.0621 51.8558 13.3554 51.0792 14.7889 50.7317L21.5972 48.8181L27.9206 58.3032C28.007 58.4325 28.1196 58.5421 28.2511 58.6251C28.3825 58.708 28.53 58.7624 28.6838 58.7847C28.7367 58.7931 28.7901 58.7972 28.8436 58.7969C29.1029 58.7971 29.3542 58.7064 29.5536 58.5406L34.3905 54.5091V62.0995C34.3905 62.3937 34.5073 62.6759 34.7154 62.8839C34.9234 63.092 35.2056 63.2089 35.4998 63.2089C35.7941 63.2089 36.0762 63.092 36.2843 62.8839C36.4923 62.6759 36.6092 62.3937 36.6092 62.0995V54.5091L41.4461 58.5406C41.6455 58.7064 41.8967 58.7971 42.1561 58.7969C42.2096 58.7972 42.263 58.7931 42.3158 58.7847C42.4697 58.7624 42.6171 58.708 42.7486 58.6251C42.8801 58.5421 42.9927 58.4325 43.0791 58.3032L49.4025 48.8125L56.2452 50.7417C57.6712 51.0932 58.9565 51.8706 59.9299 52.9705C60.9033 54.0704 61.5188 55.4405 61.6944 56.8987L63.2387 70.0204C63.2705 70.2909 63.4007 70.5401 63.6045 70.7208C63.8082 70.9014 64.0713 71.0008 64.3436 71C64.3873 71.0002 64.4311 70.9976 64.4745 70.9922C64.7666 70.9578 65.0331 70.8087 65.2154 70.5778C65.3976 70.3468 65.4807 70.053 65.4463 69.7608L63.8998 56.6391ZM22.2683 19.9688H21.8934C22.1873 10.1475 26.4229 5.54688 35.177 5.54688C43.4507 5.54688 47.6852 9.65822 48.3786 18.399C48.1043 17.2382 47.4444 16.2048 46.5068 15.4675C45.5693 14.7302 44.4094 14.3327 43.2167 14.3398C41.6817 14.3864 40.1745 14.7617 38.7969 15.4403C37.7733 15.9629 36.6501 16.2617 35.5021 16.3167C34.354 16.2617 33.2309 15.9629 32.2072 15.4403C30.8296 14.7617 29.3225 14.3864 27.7875 14.3398C23.9901 14.3398 22.5912 17.5758 22.2683 19.9688ZM54.3592 27.5125C54.3592 27.8656 54.219 28.2042 53.9693 28.4538C53.7196 28.7035 53.381 28.8438 53.028 28.8438H48.8123V22.1875H53.028C53.381 22.1875 53.7196 22.3278 53.9693 22.5774C54.219 22.8271 54.3592 23.1657 54.3592 23.5188V27.5125ZM35.4998 2.21875C49.5279 2.21875 52.4733 10.9651 52.4733 18.3047C52.4697 18.8608 52.4356 19.4163 52.3712 19.9688H50.6783C50.3655 8.78625 45.2934 3.32813 35.177 3.32813C25.0606 3.32813 19.9908 8.78625 19.6757 19.9688H18.6296C18.5652 19.4163 18.5311 18.8608 18.5275 18.3047C18.5264 10.9651 21.4718 2.21875 35.4998 2.21875ZM16.6405 27.5125V23.5188C16.6405 23.1657 16.7807 22.8271 17.0304 22.5774C17.28 22.3278 17.6186 22.1875 17.9717 22.1875H22.1873V28.8438H17.9717C17.6186 28.8438 17.28 28.7035 17.0304 28.4538C16.7807 28.2042 16.6405 27.8656 16.6405 27.5125ZM24.4061 29.9032V21.0781C24.4061 20.8929 24.4693 16.5552 27.7852 16.5552C29.0209 16.6066 30.2313 16.9217 31.3353 17.4793C32.6303 18.1248 34.0492 18.4838 35.4954 18.5321C36.9416 18.4838 38.3605 18.1248 39.6556 17.4793C40.7595 16.9217 41.9699 16.6066 43.2056 16.5552C46.5304 16.5585 46.5936 20.8962 46.5936 21.0781V29.1843L41.3596 31.1468C40.8537 30.5566 40.1562 30.1633 39.3894 30.0358C38.6225 29.9084 37.8353 30.055 37.1657 30.4499C36.4962 30.8448 35.987 31.4628 35.7275 32.1956C35.468 32.9283 35.4747 33.7291 35.7465 34.4574C36.0183 35.1856 36.5377 35.795 37.2139 36.1786C37.89 36.5622 38.6795 36.6956 39.4441 36.5553C40.2087 36.415 40.8995 36.01 41.3954 35.4114C41.8913 34.8127 42.1606 34.0586 42.1561 33.2813C42.1561 33.2602 42.1505 33.2413 42.1494 33.2202L46.3296 31.6527C44.9195 36.7836 37.8218 41.0469 35.5254 41.0469C32.9594 41.0469 24.4061 35.7796 24.4061 29.9054V29.9032ZM39.9373 33.2813C39.9373 33.5007 39.8723 33.7152 39.7504 33.8976C39.6285 34.08 39.4552 34.2222 39.2525 34.3062C39.0498 34.3901 38.8267 34.4121 38.6115 34.3693C38.3963 34.3265 38.1987 34.2208 38.0435 34.0657C37.8884 33.9106 37.7827 33.7129 37.7399 33.4977C37.6971 33.2825 37.7191 33.0594 37.803 32.8567C37.887 32.654 38.0292 32.4807 38.2116 32.3588C38.3941 32.2369 38.6086 32.1719 38.828 32.1719C39.1222 32.1719 39.4044 32.2888 39.6124 32.4968C39.8205 32.7049 39.9373 32.987 39.9373 33.2813ZM35.5254 43.2656C37.5138 43.0217 39.4108 42.2888 41.0467 41.1323V45.0251L35.4998 50.572L29.953 45.0251V41.1146C31.6043 42.2807 33.5188 43.0197 35.5254 43.2656ZM29.0821 56.0456L23.8425 48.1857L28.6306 46.84L33.8569 52.0663L29.0821 56.0456ZM41.9176 56.0456L37.1473 52.0663L42.3735 46.84L47.1616 48.1857L41.9176 56.0456Z" fill="#99C481"/>
<path d="M35.5 65.4531C35.2058 65.4531 34.9236 65.57 34.7156 65.7781C34.5075 65.9861 34.3906 66.2683 34.3906 66.5625V69.8906C34.3906 70.1848 34.5075 70.467 34.7156 70.6751C34.9236 70.8831 35.2058 71 35.5 71C35.7942 71 36.0764 70.8831 36.2844 70.6751C36.4925 70.467 36.6094 70.1848 36.6094 69.8906V66.5625C36.6094 66.2683 36.4925 65.9861 36.2844 65.7781C36.0764 65.57 35.7942 65.4531 35.5 65.4531Z" fill="#99C481"/>
</g>
<defs>
<clipPath id="clip0_1400_6025">
<rect width="71" height="71" fill="white"/>
</clipPath>
</defs>
</svg>
