<svg width="413" height="239" viewBox="0 0 413 239" fill="none" xmlns="http://www.w3.org/2000/svg">
<path fill-rule="evenodd" clip-rule="evenodd" d="M111 72C91.1492 72 75 55.8508 75 36C75 16.1492 91.1492 0 111 0C117.725 0 124.284 1.86625 129.97 5.39784C130.963 6.01446 131.268 7.32023 130.651 8.31407C130.033 9.30776 128.728 9.61449 127.735 8.99566C122.721 5.88088 116.934 4.23541 111 4.23541C93.4848 4.23541 79.2353 18.4854 79.2353 36.0002C79.2353 53.5149 93.4848 67.7647 111 67.7647C128.515 67.7647 142.765 53.5147 142.765 36C142.765 32.4795 142.193 29.0228 141.066 25.7262C140.688 24.6199 141.279 23.4155 142.385 23.0372C143.494 22.6611 144.696 23.2501 145.074 24.3564C146.352 28.0953 147 32.013 147 36.0002C147 55.8508 130.851 72 111 72ZM111 48.2143C110.463 48.2143 109.943 48.0102 109.55 47.6396L92.6089 31.7254C91.7563 30.9247 91.7144 29.5846 92.5152 28.732C93.316 27.8806 94.656 27.8364 95.5085 28.6395L110.82 43.0229L138.643 9.99414C139.395 9.09965 140.732 8.985 141.626 9.73929C142.521 10.4926 142.635 11.8282 141.881 12.7227L112.619 47.4611C112.245 47.9055 111.703 48.1769 111.123 48.2111C111.083 48.2132 111.041 48.2143 111 48.2143ZM2 35.5H0.5V37V237V238.5H2H411H412.5V237V37V35.5H411H169.383C168.554 35.5 167.883 36.1716 167.883 37C167.883 37.8284 168.554 38.5 169.383 38.5H409.5V235.5H3.5V38.5H48.3376C49.166 38.5 49.8376 37.8284 49.8376 37C49.8376 36.1716 49.166 35.5 48.3376 35.5H2Z" fill="#4F903D"/>
</svg>
