<svg width="67" height="72" viewBox="0 0 67 72" fill="none" xmlns="http://www.w3.org/2000/svg">
<path d="M33.784 72C15.6839 72 0.958984 55.8508 0.958984 36C0.958984 16.1492 15.6839 0 33.784 0C39.9155 0 45.8962 1.86625 51.0806 5.39784C51.9866 6.01446 52.2643 7.32023 51.702 8.31407C51.1388 9.30776 49.9482 9.61449 49.043 8.99566C44.4712 5.88088 39.1945 4.23541 33.784 4.23541C17.8135 4.23541 4.82072 18.4854 4.82072 36.0002C4.82072 53.5149 17.8135 67.7647 33.784 67.7647C49.7541 67.7647 62.7473 53.5147 62.7473 36C62.7473 32.4795 62.2263 29.0228 61.1986 25.7262C60.8537 24.6199 61.3927 23.4155 62.4015 23.0372C63.4122 22.6611 64.5083 23.2501 64.8533 24.3564C66.0179 28.0953 66.6092 32.013 66.6092 36.0002C66.609 55.8508 51.8841 72 33.784 72Z" fill="#74B14E"/>
<path d="M33.7842 48.2138C33.2944 48.2138 32.8208 48.0098 32.4623 47.6392L17.0152 31.7249C16.2379 30.9243 16.1996 29.5841 16.9298 28.7316C17.66 27.8801 18.8818 27.836 19.6592 28.639L33.6204 43.0224L58.9893 9.9937C59.6752 9.09921 60.894 8.98456 61.7096 9.73885C62.5252 10.4922 62.6297 11.8278 61.942 12.7223L35.2605 47.4606C34.9196 47.905 34.4258 48.1764 33.8968 48.2107C33.8597 48.2127 33.8215 48.2138 33.7842 48.2138Z" fill="#74B14E"/>
</svg>
