<svg width="35" height="35" viewBox="0 0 35 35" fill="none" xmlns="http://www.w3.org/2000/svg">
<g clip-path="url(#clip0_1400_6298)">
<path d="M17.5 0C7.83562 0 0 7.83453 0 17.5C0 27.1644 7.83562 35 17.5 35C27.1644 35 35 27.1644 35 17.5C35 7.83453 27.1644 0 17.5 0ZM12.9544 24.3655H9.38437V13.6248H12.9544V24.3655ZM11.1694 12.1581H11.1464C9.94766 12.1581 9.17328 11.3323 9.17328 10.302C9.17328 9.24875 9.97172 8.44703 11.1923 8.44703C12.413 8.44703 13.1655 9.24875 13.1884 10.302C13.1884 11.3334 12.413 12.1581 11.1694 12.1581ZM25.8267 24.3655H22.2567V18.6189C22.2567 17.1752 21.7405 16.1908 20.4477 16.1908C19.4622 16.1908 18.8748 16.8547 18.6167 17.4967C18.5227 17.7264 18.4986 18.0469 18.4986 18.3673V24.3655H14.9297C14.9297 24.3655 14.9767 14.6333 14.9297 13.6248H18.4997V15.1462C18.9733 14.4145 19.822 13.3722 21.7175 13.3722C24.0658 13.3722 25.8267 14.9078 25.8267 18.2066V24.3655Z" fill="#00491A"/>
</g>
<defs>
<clipPath id="clip0_1400_6298">
<rect width="35" height="35" fill="white"/>
</clipPath>
</defs>
</svg>
