<svg width="27" height="23" viewBox="0 0 27 23" fill="none" xmlns="http://www.w3.org/2000/svg">
<path d="M12.5783 18.2195H11.6265C11.4055 18.2195 11.192 18.285 11.009 18.409L5.45121 22.1742C5.2815 22.2892 5.13028 22.2008 5.08796 22.1709C5.04517 22.1408 4.90963 22.0268 4.96144 21.8257L5.76733 18.6997C5.797 18.5846 5.77174 18.4623 5.69897 18.3684C5.62621 18.2744 5.51404 18.2194 5.39521 18.2194H3.29468C1.92876 18.2195 0.817465 17.105 0.817465 15.735V4.16822C0.817465 2.79825 1.92876 1.68368 3.29468 1.68368H4.68693C4.89918 1.68368 5.07125 1.5116 5.07125 1.29936C5.07125 1.08711 4.89918 0.915039 4.68693 0.915039H3.29468C1.50493 0.915039 0.0488281 2.37437 0.0488281 4.16822V15.735C0.0488281 17.5288 1.50493 18.9881 3.29468 18.9881H4.89923L4.21714 21.6339C4.10267 22.078 4.27069 22.5354 4.64522 22.7993C4.83477 22.9328 5.05316 22.9998 5.27181 22.9997C5.48386 22.9997 5.69615 22.9367 5.88232 22.8106L11.4402 19.0454C11.4954 19.008 11.5598 18.9882 11.6266 18.9882H12.5783C12.7905 18.9882 12.9626 18.8161 12.9626 18.6039C12.9626 18.3916 12.7905 18.2195 12.5783 18.2195Z" fill="white"/>
<path d="M23.0383 0.915039H6.5059C6.29365 0.915039 6.12158 1.08711 6.12158 1.29936C6.12158 1.5116 6.29365 1.68368 6.5059 1.68368H23.0383C24.4043 1.68368 25.5156 2.7982 25.5156 4.16822V15.735C25.5156 17.1049 24.4043 18.2195 23.0383 18.2195H14.265C14.0527 18.2195 13.8807 18.3916 13.8807 18.6038C13.8807 18.8161 14.0527 18.9881 14.265 18.9881H23.0383C24.8281 18.9881 26.2842 17.5288 26.2842 15.735V4.16822C26.2842 2.37437 24.8281 0.915039 23.0383 0.915039Z" fill="white"/>
</svg>
