<svg width="169" height="118" viewBox="0 0 169 118" fill="none" xmlns="http://www.w3.org/2000/svg">
<path d="M122.172 76.4254H99.3764C99.1218 76.4254 98.9945 76.298 98.8672 76.0432C98.8048 75.9464 98.7715 75.8336 98.7715 75.7184C98.7715 75.6032 98.8048 75.4904 98.8672 75.3936L124.756 38.2127L98.8672 0.904367C98.8032 0.808161 98.769 0.695151 98.769 0.579559C98.769 0.463967 98.8032 0.350957 98.8672 0.254751C98.9278 0.17706 99.005 0.113876 99.093 0.0698052C99.1811 0.025734 99.2779 0.00188611 99.3764 1.82199e-08H122.172C122.273 -2.35962e-05 122.372 0.0229078 122.463 0.067051C122.553 0.111194 122.632 0.175388 122.694 0.254751L147.157 37.8942C147.22 37.9885 147.254 38.0993 147.254 38.2127C147.254 38.326 147.22 38.4369 147.157 38.5311L122.694 76.1706C122.632 76.25 122.553 76.3142 122.463 76.3583C122.372 76.4025 122.273 76.4254 122.172 76.4254Z" fill="white"/>
<path d="M122.188 76.4251H75.5409C75.2866 76.4251 75.1595 76.2962 75.0324 76.0385C74.97 75.9406 74.9368 75.8266 74.9368 75.71C74.9368 75.5934 74.97 75.4794 75.0324 75.3815L87.1233 57.7818C87.1851 57.7016 87.2642 57.6366 87.3545 57.592C87.4448 57.5473 87.544 57.5241 87.6445 57.5242H133.516C133.615 57.5261 133.711 57.5502 133.799 57.5948C133.887 57.6394 133.964 57.7033 134.025 57.7818C134.077 57.8739 134.105 57.9783 134.105 58.0846C134.105 58.1909 134.077 58.2953 134.025 58.3874L122.709 76.0385C122.582 76.2962 122.455 76.4251 122.188 76.4251Z" fill="white"/>
<path d="M70.2511 76.4254H50.8812C50.7838 76.4235 50.688 76.3996 50.6008 76.3556C50.5137 76.3115 50.4374 76.2483 50.3774 76.1706C50.3156 76.0738 50.2827 75.961 50.2827 75.8458C50.2827 75.7306 50.3156 75.6178 50.3774 75.521L98.9281 0.254751C98.9881 0.17706 99.0644 0.113876 99.1515 0.0698052C99.2387 0.0257339 99.3345 0.00188609 99.4319 0L121.988 0C122.253 0 122.379 0.127376 122.504 0.382127C122.566 0.478923 122.599 0.591704 122.599 0.706935C122.599 0.822165 122.566 0.934946 122.504 1.03174L70.7423 76.1706C70.6837 76.2467 70.6093 76.3089 70.5245 76.3529C70.4397 76.3969 70.3464 76.4216 70.2511 76.4254Z" fill="white"/>
<path d="M70.2324 76.4251H47.43C47.3316 76.4232 47.2347 76.3995 47.1466 76.3556C47.0585 76.3117 46.9814 76.2488 46.9208 76.1715L22.4506 38.7018C22.3803 38.6109 22.3423 38.4995 22.3423 38.3848C22.3423 38.2701 22.3803 38.1587 22.4506 38.0678C22.5779 37.8015 22.7052 37.8015 22.9598 37.8015H44.0816C44.1831 37.8039 44.2828 37.8291 44.3732 37.8752C44.4636 37.9213 44.5423 37.9872 44.6036 38.0678L70.729 75.5248C70.793 75.6206 70.8272 75.7331 70.8272 75.8481C70.8272 75.9632 70.793 76.0757 70.729 76.1715C70.6697 76.2472 70.5946 76.3091 70.5088 76.3529C70.4231 76.3967 70.3287 76.4214 70.2324 76.4251Z" fill="white"/>
<path d="M4.83194 90.5232L6.79103 110.982L15.7903 90.5232H21.1138L8.2586 117.143H3.01131L0 90.5232H4.83194Z" fill="white"/>
<path d="M25.9106 90.5232H31.0956L25.1422 117.143H19.8879L25.9106 90.5232Z" fill="white"/>
<path d="M42.2341 90.5232H48.326L50.7073 117.143H45.9446L45.5916 111.397H37.326L34.737 117.143H29.4136L42.2341 90.5232ZM45.3839 107.194L44.6155 94.9887L39.1536 107.174L45.3839 107.194Z" fill="white"/>
<path d="M59.5336 90.5232H65.6947C73.261 90.5232 77.0407 94.0956 77.0407 101.171C77.0407 106.288 75.2201 110.864 72.4234 113.633C69.7582 116.299 66.6085 117.136 62.1226 117.136H53.511L59.5336 90.5232ZM61.7073 112.941C64.7186 112.941 66.7469 112.588 68.706 110.559C70.6651 108.531 72.0011 105.097 72.0011 100.964C72.0011 96.2695 69.9659 94.7949 65.2793 94.7949H63.5971L59.5336 112.941H61.7073Z" fill="white"/>
<path d="M84.2606 90.5232H89.4387L83.4853 117.143H78.2795L84.2606 90.5232Z" fill="white"/>
<path d="M95.815 90.5232H102.398C108.774 90.5232 111.924 92.7663 111.924 97.5988C111.924 101.594 109.612 104.397 105.548 105.214L109.757 117.143H104.586L100.875 106.004H97.3726L94.8943 117.143H89.7786L95.815 90.5232ZM101.561 101.912C105.202 101.912 107.023 100.375 107.023 97.855C107.023 95.6118 105.694 94.5595 102.869 94.5595H99.8786L98.1964 101.912H101.561Z" fill="white"/>
<path d="M119.122 90.5232H133.66L132.677 94.7256H123.276L121.808 101.171H129.644L128.738 105.325H120.887L119.205 112.823H131.257L130.274 117.095H113.183L119.122 90.5232Z" fill="white"/>
<path d="M141.275 94.8641H134.761L135.737 90.5232H153.113L152.13 94.8641H146.384L141.358 117.143H136.173L141.275 94.8641Z" fill="white"/>
<path d="M160.146 90.5232H166.237L168.619 117.143H163.856L163.503 111.397H155.237L152.648 117.143H147.325L160.146 90.5232ZM163.295 107.194L162.527 94.9887L157.065 107.174L163.295 107.194Z" fill="white"/>
</svg>
