<?xml version="1.0" encoding="UTF-8"?>
<svg id="Camada_2" data-name="Camada 2" xmlns="http://www.w3.org/2000/svg" viewBox="0 0 712.2 669.4">
  <defs>
    <style>
      .cls-1 {
        fill-rule: evenodd;
      }

      .cls-1, .cls-2 {
        fill: #fff;
        stroke-width: 0px;
      }
    </style>
  </defs>
  <g id="Camada_1-2" data-name="Camada 1">
    <path class="cls-1" d="M.1,69.7h82.7c1.4,0,2.6,1.2,2.6,2.6s-1.2,2.6-2.6,2.6H5.3v589.3h701.8V74.9h-415.1c-1.4,0-2.6-1.2-2.6-2.6s1.2-2.6,2.6-2.6h420.2v599.7H0V69.7h.1Z"/>
    <g>
      <path class="cls-2" d="M247.25,74.25l-4.23-2.44c.71-3.53,1.07-7.07,1.07-10.53s-.35-7.05-1.05-10.54l4.21-2.43c1.3-.75,2.24-1.97,2.63-3.42s.19-2.97-.56-4.28l-11.51-19.94c-.75-1.3-1.97-2.24-3.42-2.63-1.45-.39-2.97-.19-4.28.56l-4.21,2.43c-5.32-4.68-11.59-8.31-18.25-10.56v-4.84c0-3.11-2.53-5.64-5.64-5.64h-23.03c-3.11,0-5.64,2.53-5.64,5.64v4.84c-6.63,2.25-12.89,5.87-18.23,10.57l-4.24-2.45c-1.3-.75-2.82-.95-4.28-.56-1.45.39-2.67,1.32-3.42,2.63l-11.51,19.94c-.75,1.3-.95,2.82-.56,4.28s1.32,2.67,2.63,3.42l4.23,2.44c-.71,3.53-1.07,7.07-1.07,10.53s.35,7.05,1.05,10.54l-4.21,2.43c-2.69,1.55-3.62,5.01-2.06,7.7l11.51,19.94c1.55,2.69,5.01,3.62,7.7,2.06l4.21-2.43c5.32,4.68,11.59,8.31,18.25,10.56v4.84c0,3.11,2.53,5.64,5.64,5.64h23.03c3.11,0,5.64-2.53,5.64-5.64v-4.84c6.63-2.25,12.89-5.87,18.23-10.57l4.24,2.45c2.69,1.55,6.15.63,7.7-2.06l11.51-19.94c1.55-2.69.63-6.15-2.06-7.7ZM246.2,80.15l-11.51,19.94c-.56.97-1.81,1.31-2.78.75l-5.37-3.1c-.68-.39-1.54-.3-2.12.24-5.49,5.08-12.1,8.91-19.11,11.08-.75.23-1.27.93-1.27,1.72v6.15c0,1.12-.91,2.04-2.04,2.04h-23.03c-1.12,0-2.04-.91-2.04-2.04v-6.15c0-.79-.51-1.48-1.27-1.72-7.05-2.18-13.67-6.01-19.13-11.07-.34-.32-.78-.48-1.22-.48-.31,0-.62.08-.9.24l-5.35,3.09c-.97.56-2.22.23-2.78-.75l-11.51-19.94c-.56-.97-.23-2.22.75-2.79l5.34-3.08c.68-.39,1.03-1.19.86-1.95-.82-3.65-1.24-7.36-1.24-11.05s.42-7.34,1.26-11.04c.17-.77-.17-1.56-.86-1.95l-5.36-3.09c-.47-.27-.81-.71-.95-1.24-.14-.53-.07-1.08.2-1.55l11.51-19.94c.27-.47.71-.81,1.24-.95.53-.14,1.08-.07,1.55.2l5.37,3.1c.68.39,1.54.3,2.12-.24,5.49-5.08,12.1-8.91,19.11-11.08.75-.23,1.27-.93,1.27-1.72v-6.15c0-1.12.91-2.04,2.04-2.04h23.03c1.12,0,2.04.91,2.04,2.04v6.15c0,.79.51,1.48,1.27,1.72,7.05,2.18,13.67,6.01,19.13,11.07.58.54,1.44.63,2.12.24l5.35-3.09c.47-.27,1.02-.34,1.55-.2.53.14.97.48,1.24.95l11.51,19.94c.27.47.34,1.02.2,1.55s-.48.97-.95,1.24l-5.34,3.08c-.68.39-1.03,1.19-.86,1.95.82,3.65,1.24,7.36,1.24,11.05s-.42,7.34-1.26,11.04c-.17.77.17,1.56.86,1.95l5.36,3.09c.97.56,1.31,1.81.75,2.79Z"/>
      <path class="cls-2" d="M190.49,24.94c-20.04,0-36.34,16.3-36.34,36.34s16.3,36.34,36.34,36.34,36.34-16.3,36.34-36.34-16.3-36.34-36.34-36.34ZM190.49,94.02c-18.05,0-32.74-14.69-32.74-32.74s14.69-32.74,32.74-32.74,32.74,14.69,32.74,32.74-14.69,32.74-32.74,32.74Z"/>
      <path class="cls-2" d="M197.2,51.81h-6.72c-.99,0-1.8.81-1.8,1.8v15.35c0,.99.81,1.8,1.8,1.8s1.8-.81,1.8-1.8v-3.96h4.92c3.64,0,6.6-2.96,6.6-6.6s-2.96-6.6-6.6-6.6ZM197.2,61.4h-4.92v-6h4.92c1.65,0,3,1.34,3,3s-1.34,3-3,3Z"/>
      <path class="cls-2" d="M180.66,52.98c-.26-.7-.93-1.17-1.68-1.17h-1.92c-.75,0-1.42.47-1.68,1.17l-5.76,15.35c-.35.93.12,1.97,1.05,2.32.93.35,1.97-.12,2.32-1.05l1-2.67h8.06l1,2.67c.27.72.96,1.17,1.68,1.17.21,0,.42-.04.63-.11.93-.35,1.4-1.39,1.05-2.32l-5.76-15.35ZM175.34,63.32l2.68-7.15,2.68,7.15h-5.36Z"/>
      <path class="cls-2" d="M207.76,51.81c-.99,0-1.8.81-1.8,1.8v15.35c0,.99.81,1.8,1.8,1.8s1.8-.81,1.8-1.8v-15.35c0-.99-.81-1.8-1.8-1.8Z"/>
      <path class="cls-2" d="M203.36,20.94c1.25.4,2.49.86,3.7,1.37.23.1.47.14.7.14.7,0,1.36-.41,1.66-1.09.39-.91-.04-1.97-.95-2.36-1.31-.56-2.66-1.06-4.02-1.49-.95-.3-1.96.22-2.26,1.17-.3.95.22,1.96,1.17,2.26Z"/>
      <path class="cls-2" d="M153.3,81.53c-.48-.87-1.57-1.19-2.44-.72-.87.48-1.19,1.57-.72,2.44.75,1.37,1.57,2.71,2.46,4,.35.51.91.78,1.48.78.35,0,.71-.1,1.02-.32.82-.56,1.03-1.68.46-2.5-.81-1.19-1.58-2.43-2.26-3.69Z"/>
      <path class="cls-2" d="M186.8,103.46c-9.64-.83-18.79-5.01-25.76-11.76-.71-.69-1.85-.67-2.54.04-.69.71-.67,1.85.04,2.54,7.57,7.33,17.5,11.86,27.96,12.76.05,0,.1,0,.16,0,.92,0,1.71-.71,1.79-1.64.09-.99-.65-1.86-1.64-1.95Z"/>
      <path class="cls-2" d="M216.37,23.33c-.82-.56-1.94-.35-2.5.47-.56.82-.35,1.94.47,2.5,8.36,5.71,14.4,14.21,17.02,23.93.22.8.94,1.33,1.74,1.33.15,0,.31-.02.47-.06.96-.26,1.53-1.25,1.27-2.2-2.84-10.55-9.4-19.77-18.47-25.97Z"/>
    </g>
  </g>
</svg>