<?xml version="1.0" encoding="UTF-8"?>
<svg id="Camada_2" data-name="Camada 2" xmlns="http://www.w3.org/2000/svg" viewBox="0 0 712.17 669.7">
  <defs>
    <style>
      .cls-1 {
        fill: #fff;
        fill-rule: evenodd;
        stroke-width: 0px;
      }
    </style>
  </defs>
  <g id="Camada_1-2" data-name="Camada 1">
    <path class="cls-1" d="M237.79,118.77c.22-.62.36-1.28.36-1.98s-.14-1.36-.36-1.98h4.32v-3.96h-3.96v-9.9c0-1.09-.89-1.98-1.98-1.98h-5.94v-9.9c0-1.09-.89-1.98-1.98-1.98h-1.98v-25.73c0-1.09-.89-1.98-1.98-1.98h-75.22c-1.09,0-1.98.88-1.98,1.98v57.41h-7.92V46.11l47.51-29.91,47.51,29.91v48.91h3.96v-46.41l.92.58c.33.2.69.3,1.05.3.6,0,1.2-.28,1.59-.79l5.94-7.92c.33-.44.46-1,.36-1.54-.1-.54-.42-1.02-.89-1.31L187.75.31c-.64-.41-1.47-.41-2.12,0l-59.39,37.61c-.47.29-.79.77-.89,1.31-.1.54.03,1.1.36,1.54l5.94,7.92c.62.83,1.77,1.04,2.64.49l.92-.58v70.17h-9.9v3.96h122.73v-3.96h-10.26ZM133.73,44.86l-3.56-4.74L186.69,4.32l56.52,35.79-3.56,4.74-51.9-32.68c-.32-.2-.69-.3-1.06-.3s-.73.1-1.05.3l-51.9,32.68ZM234.2,116.79c0,1.09-.89,1.98-1.98,1.98s-1.98-.89-1.98-1.98.89-1.98,1.98-1.98,1.98.89,1.98,1.98ZM210.44,116.79c0-1.09.89-1.98,1.98-1.98s1.98.89,1.98,1.98-.89,1.98-1.98,1.98-1.98-.89-1.98-1.98ZM206.48,102.93h3.96v3.96h3.96v-3.96h3.96v7.92h-11.88v-7.92ZM218,114.81h8.65c-.22.62-.37,1.28-.37,1.98s.14,1.36.36,1.98h-8.65c.22-.62.37-1.28.37-1.98s-.14-1.36-.36-1.98ZM226.28,102.93v3.96h3.96v-3.96h3.96v7.92h-11.88v-7.92h3.96ZM214.4,98.97v-7.92h3.96v3.96h3.96v-3.96h3.96v7.92h-11.88ZM212.42,87.1c-1.1,0-1.98.88-1.98,1.98v9.9h-3.96v-13.86c0-1.09-.89-1.98-1.98-1.98h-7.92v3.96h5.94v25.73c0,1.09.89,1.98,1.98,1.98h2.34c-.22.62-.36,1.28-.36,1.98s.14,1.36.36,1.98h-8.28v-9.9c0-1.09-.88-1.98-1.98-1.98h-13.86v-9.9c0-1.09-.89-1.98-1.98-1.98h-13.86v-9.9c0-1.09-.88-1.98-1.98-1.98h-13.86v-3.96h71.26v7.92h-9.9ZM151.06,106.89v-7.92h3.96v3.96h3.96v-3.96h3.96v7.92h-11.88ZM158.97,91.06v-3.96h3.96v7.92h-11.88v-7.92h3.96v3.96h3.96ZM174.81,102.93v-3.96h3.96v7.92h-11.88v-7.92h3.96v3.96h3.96ZM166.89,110.85h3.96v3.96h3.96v-3.96h3.96v7.92h-11.88v-7.92ZM182.73,110.85h3.96v3.96h3.96v-3.96h3.96v7.92h-11.88v-7.92ZM222.32,75.22h-71.26v-3.96h71.26v3.96ZM222.32,63.34v3.96h-71.26v-3.96h71.26ZM151.06,110.85h3.96v3.96h3.96v-3.96h3.96v7.92h-11.88v-7.92ZM0,70.01h82.69c1.43,0,2.59,1.16,2.59,2.59s-1.16,2.59-2.59,2.59H5.19v589.32h701.8V75.19h-415.06c-1.43,0-2.59-1.16-2.59-2.59s1.16-2.59,2.59-2.59h420.25v599.69H0V70.01ZM160.95,41.57c0-1.09.88-1.98,1.98-1.98h47.51c1.09,0,1.98.88,1.98,1.98v11.88c0,1.09-.89,1.98-1.98,1.98h-47.51c-1.09,0-1.98-.88-1.98-1.98v-11.88ZM164.91,51.47h43.55v-7.92h-43.55v7.92Z"/>
  </g>
</svg>