<?xml version="1.0" encoding="UTF-8"?>
<svg id="Camada_2" data-name="Camada 2" xmlns="http://www.w3.org/2000/svg" viewBox="0 0 734.29 359.11">
  <defs>
    <style>
      .cls-1 {
        fill-rule: evenodd;
      }

      .cls-1, .cls-2 {
        fill: #fff;
        stroke-width: 0px;
      }
    </style>
  </defs>
  <g id="Camada_1-2" data-name="Camada 1">
    <path class="cls-1" d="M0,69.7h82.69c1.43,0,2.59,1.16,2.59,2.59s-1.16,2.59-2.59,2.59H5.19v279.04h723.92V74.89h-437.18c-1.43,0-2.59-1.16-2.59-2.59s1.16-2.59,2.59-2.59h442.37v289.41H0V69.7Z"/>
    <path class="cls-2" d="M244,97.66c-.39-3.28-1.77-6.36-3.96-8.84-2.18-2.48-5.07-4.23-8.27-5.03l-23.35-6.57v-9.06c4.61-3.78,8.62-8.91,9.4-14.6h7.43c1.62,0,3.18-.64,4.33-1.79,1.15-1.15,1.79-2.7,1.79-4.33v-6.89c0-1.15-.33-2.28-.95-3.25-.62-.97-1.49-1.75-2.53-2.25.14-1.16.22-2.33.23-3.49,0-11.79-4.3-31.56-33.09-31.56s-33.09,19.77-33.09,31.56c0,1.17.09,2.34.23,3.49-1.04.5-1.92,1.27-2.53,2.25-.62.97-.94,2.1-.95,3.25v6.89c0,1.62.64,3.18,1.79,4.33,1.15,1.15,2.71,1.79,4.33,1.79h7.44c.79,5.68,4.78,10.8,9.4,14.58v9.09l-23.3,6.56c-3.21.79-6.11,2.55-8.3,5.03-2.19,2.48-3.58,5.57-3.98,8.85l-2.66,22.63c-.06.5.08,1.01.4,1.41.31.4.77.66,1.28.71.07,0,.15.01.22.01.47,0,.92-.17,1.27-.48.35-.31.57-.74.63-1.21l2.66-22.63c.31-2.52,1.38-4.9,3.07-6.8,1.69-1.9,3.92-3.24,6.39-3.84l11.74-3.3,10.9,16.35c.15.22.34.41.57.56.23.14.48.24.75.28.09.01.18.02.28.02.45,0,.88-.16,1.22-.44l8.34-6.95v13.09c0,.51.2.99.56,1.35.36.36.84.56,1.35.56s.99-.2,1.35-.56c.36-.36.56-.85.56-1.35v-13.09l8.34,6.95c.34.29.78.44,1.22.44.09,0,.18,0,.28-.02.27-.04.52-.13.75-.28.23-.14.42-.33.57-.56l10.9-16.36,11.8,3.33c2.46.61,4.68,1.95,6.35,3.84,1.68,1.9,2.74,4.26,3.04,6.77l2.66,22.63c.06.47.28.9.63,1.21.35.31.8.48,1.27.48.08,0,.15,0,.23-.01.5-.06.96-.32,1.28-.71.31-.4.46-.9.4-1.41l-2.67-22.63ZM172.21,34.43h-.64c.51-16.93,7.81-24.87,22.9-24.87,14.27,0,21.57,7.09,22.76,22.16-.47-2-1.61-3.78-3.23-5.05-1.62-1.27-3.62-1.96-5.67-1.94-2.65.08-5.25.73-7.62,1.9-1.77.9-3.7,1.42-5.68,1.51-1.98-.09-3.92-.61-5.68-1.51-2.37-1.17-4.97-1.82-7.62-1.9-6.55,0-8.96,5.58-9.52,9.71ZM227.55,47.44c0,.61-.24,1.19-.67,1.62-.43.43-1.01.67-1.62.67h-7.27v-11.48h7.27c.61,0,1.19.24,1.62.67.43.43.67,1.01.67,1.62v6.89ZM195.03,3.83c24.19,0,29.27,15.08,29.27,27.74,0,.96-.06,1.92-.18,2.87h-2.92c-.54-19.28-9.28-28.69-26.73-28.69s-26.18,9.41-26.73,28.69h-1.8c-.11-.95-.17-1.91-.18-2.87,0-12.66,5.08-27.74,29.26-27.74ZM162.51,47.44v-6.89c0-.61.24-1.19.67-1.62.43-.43,1.01-.67,1.62-.67h7.27v11.48h-7.27c-.61,0-1.19-.24-1.62-.67-.43-.43-.67-1.01-.67-1.62ZM175.9,51.56v-15.22c0-.32.11-7.8,5.83-7.8,2.13.09,4.22.63,6.12,1.59,2.23,1.11,4.68,1.73,7.17,1.82,2.49-.08,4.94-.7,7.17-1.82,1.9-.96,3.99-1.5,6.12-1.59,5.73,0,5.84,7.48,5.84,7.8v13.98l-9.02,3.38c-.87-1.02-2.08-1.7-3.4-1.92-1.32-.22-2.68.03-3.83.71-1.16.68-2.03,1.75-2.48,3.01-.45,1.26-.44,2.64.03,3.9.47,1.26,1.36,2.31,2.53,2.97,1.17.66,2.53.89,3.85.65,1.32-.24,2.51-.94,3.37-1.97.85-1.03,1.32-2.33,1.31-3.67,0-.02,0-.04,0-.06,0-.02,0-.03,0-.05l7.21-2.7c-2.43,8.85-14.67,16.2-18.63,16.2-4.42,0-19.17-9.08-19.17-19.21h0ZM202.68,57.39c0,.38-.11.75-.32,1.06-.21.31-.51.56-.86.7-.35.14-.73.18-1.11.11-.37-.07-.71-.26-.98-.52-.27-.27-.45-.61-.52-.98s-.04-.76.11-1.11c.14-.35.39-.65.71-.86.31-.21.68-.32,1.06-.32.51,0,.99.2,1.35.56.36.36.56.85.56,1.35ZM195.07,74.6c3.43-.42,6.7-1.68,9.52-3.68v6.71l-9.56,9.56-9.56-9.56v-6.74c2.85,2.01,6.15,3.28,9.61,3.71ZM183.96,96.64l-9.03-13.55,8.26-2.32,9.01,9.01-8.23,6.86ZM206.09,96.64l-8.23-6.86,9.01-9.01,8.26,2.32-9.04,13.55ZM193.68,113.42c.36-.36.84-.56,1.35-.56s.99.2,1.35.56c.36.36.56.85.56,1.35v5.74c0,.51-.2.99-.56,1.35-.36.36-.84.56-1.35.56s-.99-.2-1.35-.56c-.36-.36-.56-.85-.56-1.35v-5.74c0-.51.2-.99.56-1.35Z"/>
  </g>
</svg>