<?xml version="1.0" encoding="UTF-8"?>
<svg id="Camada_2" data-name="Camada 2" xmlns="http://www.w3.org/2000/svg" viewBox="0 0 734.3 526">
  <defs>
    <style>
      .cls-1 {
        fill-rule: evenodd;
      }

      .cls-1, .cls-2 {
        fill: #fff;
        stroke-width: 0px;
      }
    </style>
  </defs>
  <g id="Camada_1-2" data-name="Camada 1">
    <path class="cls-1" d="M0,69.8h82.7c1.4,0,2.6,1.2,2.6,2.6s-1.2,2.6-2.6,2.6H5.2v445.8h723.9V75h-437.2c-1.4,0-2.6-1.2-2.6-2.6s1.2-2.6,2.6-2.6h442.4v456.2H0V69.8Z"/>
    <g id="Transfer">
      <path class="cls-2" d="M126.33,69.85c0,.94.76,1.71,1.71,1.71h17.57c.94,0,1.71-.76,1.71-1.71s-.76-1.71-1.71-1.71h-17.57c-.94,0-1.71.76-1.71,1.71Z"/>
      <path class="cls-2" d="M161.95,52.78c0-.94-.76-1.71-1.71-1.71h-15.91c-.94,0-1.71.76-1.71,1.71s.76,1.71,1.71,1.71h15.91c.94,0,1.71-.76,1.71-1.71Z"/>
      <path class="cls-2" d="M113.29,35.79c0,.94.76,1.71,1.71,1.71h18.17c.94,0,1.71-.76,1.71-1.71s-.76-1.71-1.71-1.71h-18.17c-.94,0-1.71.76-1.71,1.71Z"/>
      <path class="cls-2" d="M150.6,18.78c0,.94.76,1.71,1.71,1.71h7.94c.94,0,1.71-.76,1.71-1.71s-.76-1.71-1.71-1.71h-7.94c-.94,0-1.71.76-1.71,1.71Z"/>
      <path class="cls-2" d="M144.33,3.48h6.4c.94,0,1.71-.76,1.71-1.71s-.76-1.71-1.71-1.71h-6.4c-.94,0-1.71.76-1.71,1.71s.76,1.71,1.71,1.71Z"/>
      <path class="cls-2" d="M142.71,17.08h-24.21c-.94,0-1.71.76-1.71,1.71s.76,1.71,1.71,1.71h24.21c.94,0,1.71-.76,1.71-1.71s-.76-1.71-1.71-1.71Z"/>
      <path class="cls-2" d="M149.79,37.5c.94,0,1.71-.76,1.71-1.71s-.76-1.71-1.71-1.71h-7.09c-.94,0-1.71.76-1.71,1.71s.76,1.71,1.71,1.71h7.09Z"/>
      <path class="cls-2" d="M136.19,54.49c.94,0,1.71-.76,1.71-1.71s-.76-1.71-1.71-1.71h-5.28c-.94,0-1.71.76-1.71,1.71s.76,1.71,1.71,1.71h5.28Z"/>
      <path class="cls-2" d="M120.22,105.56h11.95c.94,0,1.71-.76,1.71-1.71s-.76-1.71-1.71-1.71h-11.95c-.94,0-1.71.76-1.71,1.71s.76,1.71,1.71,1.71Z"/>
      <path class="cls-2" d="M121.43,88.64h28.36c.94,0,1.71-.76,1.71-1.71s-.76-1.71-1.71-1.71h-28.36c-.94,0-1.71.76-1.71,1.71s.76,1.71,1.71,1.71Z"/>
      <path class="cls-2" d="M162.87,88.64h4.03c.94,0,1.71-.76,1.71-1.71s-.76-1.71-1.71-1.71h-4.03c-.94,0-1.71.76-1.71,1.71s.76,1.71,1.71,1.71Z"/>
      <path class="cls-2" d="M147.83,105.56h8.45c.94,0,1.71-.76,1.71-1.71s-.76-1.71-1.71-1.71h-8.45c-.94,0-1.71.76-1.71,1.71s.76,1.71,1.71,1.71Z"/>
      <path class="cls-2" d="M196.67,101.36h-26.04c-.94,0-1.71.76-1.71,1.71s.76,1.71,1.71,1.71h26.04c.94,0,1.71-.76,1.71-1.71s-.76-1.71-1.71-1.71Z"/>
      <path class="cls-2" d="M173.12,119.15h-37.92c-.94,0-1.71.76-1.71,1.71s.76,1.71,1.71,1.71h37.92c.94,0,1.71-.76,1.71-1.71s-.76-1.71-1.71-1.71Z"/>
      <path class="cls-2" d="M214.65,119.15h-11.95c-.94,0-1.71.76-1.71,1.71s.76,1.71,1.71,1.71h11.95c.94,0,1.71-.76,1.71-1.71s-.76-1.71-1.71-1.71Z"/>
      <path class="cls-2" d="M192.05,119.15h-7.02c-.94,0-1.71.76-1.71,1.71s.76,1.71,1.71,1.71h7.02c.94,0,1.71-.76,1.71-1.71s-.76-1.71-1.71-1.71Z"/>
      <path class="cls-2" d="M258.73,74.24l-.2-49.42c0-4.08-3.31-7.39-7.39-7.39-.02,0-.03,0-.05,0h-16.67c4.37-10.48,4.12-9.73,4.27-10.71.5-3.18-1.67-6.16-4.85-6.66-.32-.05-.64-.07-.96-.07l-60.22.29c-4.08.07-7.33,3.42-7.29,7.5l.24,58.06c0,4.07,3.26,7.38,7.33,7.43h10.25l-3.79,9.12c-1.28,3.03.13,6.53,3.17,7.81.74.31,1.54.47,2.35.47l23.24-.1c-1.64,15.95,9.96,30.21,25.9,31.85,1.01.1,2.02.15,3.04.15,24.93,0,38.3-29.63,21.65-48.32ZM256.29,110.41l-2.73-2.73c2.98-3.5,4.77-7.86,5.12-12.45h4.01c-.4,5.63-2.65,10.97-6.4,15.18ZM211.47,95.23h3.93c.35,4.57,2.14,8.91,5.12,12.4l-2.73,2.75c-3.72-4.21-5.94-9.54-6.32-15.15ZM235.37,5.82c0,.77.29-.1-4.64,11.7h-16.48l21.12-11.7ZM206.74,17.78c-.75.44.34-1.71-17.69,41.48h-3.19c-.71-3.24-3.26-5.76-6.51-6.44l-.12-32.14c3.24-.7,5.75-3.25,6.42-6.49l27.85-.12-6.76,3.71ZM198.54,45.4c4.81,3.07,6.23,9.45,3.16,14.26-2.35,3.68-6.76,5.49-11.02,4.52l7.85-18.78ZM189.36,67.38c7.16,2.37,14.89-1.52,17.26-8.68,2.11-6.4-.75-13.38-6.76-16.45l4.47-10.72,33.88-.17c.7,3.24,3.24,5.77,6.49,6.45l.12,27.75c-9.96-2.8-20.65-.05-28.02,7.21-.36.2-.34.17-.6.6-.98,1.05-1.88,2.16-2.71,3.33h-28.02l3.89-9.31ZM255.4,93.57c-.04,10.12-8.27,18.29-18.39,18.25-10.12-.04-18.29-8.27-18.25-18.39.04-10.09,8.23-18.25,18.32-18.25,10.09-.03,18.29,8.13,18.32,18.22,0,.06,0,.11,0,.17ZM235.37,71.85c-4.56.36-8.89,2.16-12.38,5.12l-2.73-2.73c4.22-3.68,9.52-5.89,15.11-6.27v3.88ZM251.22,76.97c-3.49-2.98-7.85-4.78-12.43-5.12v-3.88c5.61.35,10.95,2.55,15.18,6.25l-2.75,2.75ZM217.77,76.68l2.73,2.75c-2.97,3.48-4.76,7.8-5.12,12.36h-3.91c.38-5.59,2.6-10.9,6.3-15.11ZM222.89,110.03c3.49,2.98,7.83,4.77,12.4,5.12v3.88c-5.6-.36-10.93-2.57-15.15-6.28l2.75-2.71ZM238.7,115.15c4.56-.36,8.89-2.15,12.36-5.12l2.75,2.73c-4.18,3.69-9.46,5.9-15.03,6.3l-.09-3.91ZM258.73,91.81c-.35-4.59-2.14-8.94-5.12-12.45l2.73-2.73c3.74,4.22,5.97,9.56,6.35,15.18h-3.96ZM251.1,20.85c2.19-.03,3.98,1.72,4.01,3.91,0,.02,0,.05,0,.07l.19,46.1c-2.14-1.74-4.51-3.16-7.05-4.23l-.14-30.44c0-.46-.19-.89-.51-1.21-.33-.32-.77-.5-1.23-.5-2.71.02-4.92-2.16-4.93-4.87,0-.02,0-.05,0-.07,0-.94-.76-1.71-1.71-1.71l-33.98.15,2.94-7.05c36.78.03,13.4-.03,42.41-.15ZM172.93,69.85c-2.2,0-3.98-1.78-4-3.98l-.24-58.06c0-2.2,1.78-3.98,3.98-4.01l59.76-.29-12.82,7.14-35.46.12c-.94,0-1.71.76-1.71,1.71,0,2.71-2.17,4.92-4.88,4.95-.94,0-1.71.76-1.71,1.71l.09,35.35c0,.46.19.89.51,1.21.33.32.77.5,1.23.5,2.72,0,4.93,2.21,4.95,4.93,0,.94.76,1.71,1.71,1.71h3.23l-2.92,7.02h-11.71ZM184.88,87.22c-1.41,0-2.56-1.15-2.56-2.57,0-.34.07-.67.2-.98l1.5-3.57,27.32-.12c-1.17,2.23-2.04,4.61-2.6,7.07l-23.87.17Z"/>
      <path class="cls-2" d="M244.88,99.34c-.48-.55-1.32-.61-1.87-.13-3.07,2.68-7.74,2.37-10.42-.71-.38-.44-.71-.92-.98-1.44h5.51c.73,0,1.32-.59,1.32-1.32s-.59-1.32-1.32-1.32h-6.31c-.03-.26-.04-.52-.04-.78,0-.26.01-.53.04-.79h6.31c.73,0,1.32-.59,1.32-1.32s-.59-1.32-1.32-1.32h-5.5c1.28-2.43,3.8-3.96,6.54-3.96,1.66,0,3.27.55,4.57,1.58.56.47,1.4.39,1.86-.17.47-.56.39-1.4-.17-1.86-.02-.01-.04-.03-.05-.04-1.76-1.4-3.95-2.15-6.2-2.14-4.22,0-7.98,2.65-9.43,6.61h-1.93c-.73,0-1.32.59-1.32,1.32s.59,1.32,1.32,1.32h1.35c-.02.26-.04.52-.04.79s.02.52.04.78h-1.35c-.73,0-1.32.59-1.32,1.32s.59,1.32,1.32,1.32h1.93c1.89,5.21,7.64,7.9,12.84,6.02,1.17-.42,2.25-1.06,3.18-1.88.55-.48.61-1.32.13-1.87,0,0,0,0,0,0h0Z"/>
      <path class="cls-2" d="M118.1,3.48h11.95c.94,0,1.71-.76,1.71-1.71s-.76-1.71-1.71-1.71h-11.95c-.94,0-1.71.76-1.71,1.71s.76,1.71,1.71,1.71Z"/>
    </g>
  </g>
</svg>