<?xml version="1.0" encoding="UTF-8"?>
<svg id="Camada_2" data-name="Camada 2" xmlns="http://www.w3.org/2000/svg" viewBox="0 0 734.3 526">
  <defs>
    <style>
      .cls-1 {
        fill-rule: evenodd;
      }

      .cls-1, .cls-2 {
        fill: #fff;
        stroke-width: 0px;
      }
    </style>
  </defs>
  <g id="Camada_1-2" data-name="Camada 1">
    <path class="cls-1" d="M0,69.8h82.7c1.4,0,2.6,1.2,2.6,2.6s-1.2,2.6-2.6,2.6H5.2v445.8h723.9V75h-437.2c-1.4,0-2.6-1.2-2.6-2.6s1.2-2.6,2.6-2.6h442.4v456.2H0V69.8Z"/>
    <g>
      <path class="cls-2" d="M137.05,87.69c-.74-1.46-1.43-2.96-2.05-4.47-.31-.78-1.19-1.16-1.97-.84-.78.31-1.16,1.19-.84,1.97,0,0,0,.01,0,.02.65,1.59,1.37,3.18,2.16,4.71.38.75,1.29,1.04,2.04.66.75-.38,1.04-1.29.66-2.04Z"/>
      <path class="cls-2" d="M133.34,78.58c-.49-1.56-.91-3.16-1.26-4.76-.19-.82-1.01-1.32-1.82-1.13-.8.19-1.31.98-1.14,1.78.37,1.68.81,3.36,1.33,5.01.25.8,1.1,1.25,1.9,1,.8-.25,1.25-1.1,1-1.9Z"/>
      <path class="cls-2" d="M129.92,70.68c.83-.11,1.41-.87,1.3-1.7-.21-1.62-.36-3.26-.44-4.91-.03-.83-.72-1.47-1.55-1.44-.01,0-.03,0-.04,0-.84.04-1.48.75-1.44,1.59,0,0,0,0,0,0,.08,1.73.24,3.46.46,5.16.11.83.87,1.41,1.7,1.31,0,0,0,0,0,0h0Z"/>
      <path class="cls-2" d="M156.43,109.58c-1.36-.92-2.69-1.9-3.96-2.93-.65-.52-1.61-.42-2.13.23-.52.65-.42,1.61.23,2.13,1.34,1.08,2.74,2.11,4.17,3.07.69.47,1.63.29,2.1-.4.47-.69.29-1.64-.41-2.11,0,0,0,0,0,0h0Z"/>
      <path class="cls-2" d="M139.47,91.98c-.43-.72-1.36-.96-2.08-.53-.72.43-.96,1.36-.53,2.08.01.02.02.04.03.05.91,1.46,1.89,2.9,2.92,4.28.5.67,1.45.81,2.12.31.67-.5.81-1.45.31-2.12h0c-.98-1.32-1.91-2.69-2.77-4.07Z"/>
      <path class="cls-2" d="M145.35,99.87c-.56-.63-1.51-.69-2.14-.13-.63.56-.69,1.51-.13,2.14,1.14,1.29,2.35,2.54,3.6,3.73.59.59,1.55.6,2.14,0,.59-.59.6-1.55,0-2.14-.02-.02-.04-.04-.06-.05-1.18-1.13-2.33-2.32-3.42-3.55Z"/>
      <path class="cls-2" d="M188.96,0c-19.94.02-38.63,9.72-50.12,26.02-.48.68-.32,1.63.37,2.11.68.48,1.63.32,2.11-.37C159.83,1.48,196.15-4.83,222.44,13.68c26.29,18.51,32.6,54.83,14.09,81.12-16.07,22.82-46.06,31.03-71.51,19.57-1.49-.67-2.97-1.42-4.4-2.22-.73-.41-1.65-.16-2.07.57-.41.73-.16,1.65.57,2.07,0,0,.01,0,.02.01,1.51.84,3.06,1.63,4.63,2.33,30.85,13.91,67.14.17,81.04-30.69,13.91-30.85.17-67.14-30.69-81.04C206.22,1.85,197.64,0,188.96,0Z"/>
      <path class="cls-2" d="M139.3,32.05c-2.07,0-3.83-1.5-4.16-3.54l-1.26-7.83c-.11-.83.47-1.59,1.3-1.7.8-.11,1.54.43,1.69,1.22l1.26,7.83c.11.64.71,1.08,1.36.98l7.83-1.26c.83-.11,1.59.47,1.7,1.3.11.8-.43,1.54-1.22,1.69l-7.83,1.26c-.22.04-.45.05-.67.05Z"/>
      <path class="cls-2" d="M228.12,35.37l-36.84-19.41c-1.42-.75-3.12-.75-4.54,0l-36.84,19.41c-1.6.84-2.6,2.5-2.6,4.3v43.19c0,1.81,1,3.46,2.6,4.3l36.84,19.41c1.42.75,3.12.75,4.54,0l36.84-19.41c1.6-.84,2.6-2.5,2.6-4.3v-43.19c0-1.81-1-3.46-2.6-4.3ZM174.64,47.81c-1.64.82-2.67,2.5-2.67,4.34v17.32c0,.07-.04.13-.1.15-.06.03-.13.02-.17-.04l-3.31-3.46c-.77-.8-1.89-1.14-2.98-.91l-2.16.47c-.09.02-.17-.04-.19-.12,0-.01,0-.02,0-.03v-19.42c0-.69.39-1.32,1-1.63l38.17-19.32,8.42,4.44-36,18.22ZM188.16,18.64c.53-.28,1.17-.28,1.71,0l9.07,4.78-36.24,18.35c-.37.19-.71.42-1.02.7l-9.55-4.83,36.03-18.99ZM187.49,103.54l-36.18-19.06c-.6-.32-.98-.94-.98-1.62v-42.74l9.8,4.96c-.08.34-.12.68-.12,1.02v19.42c0,1.76,1.43,3.19,3.19,3.19.23,0,.45-.02.67-.07l2.16-.46c.05-.01.11,0,.15.05l3.32,3.46c1.22,1.27,3.24,1.32,4.51.1.63-.6.98-1.43.98-2.3v-16.87l11.81,5.98c.22.11.45.2.68.27v44.69ZM188.18,55.88l-11.38-5.76,37.13-18.79,11.97,6.31-36.06,18.25c-.52.26-1.13.26-1.65,0h0ZM227.68,82.86c0,.68-.38,1.3-.98,1.62l-36.18,19.07v-44.69c.23-.07.46-.17.68-.28l36.47-18.46v42.74Z"/>
    </g>
  </g>
</svg>