<?xml version="1.0" encoding="UTF-8"?>
<svg id="Camada_2" data-name="Camada 2" xmlns="http://www.w3.org/2000/svg" viewBox="0 0 854.49 359.13">
  <defs>
    <style>
      .cls-1 {
        fill-rule: evenodd;
      }

      .cls-1, .cls-2 {
        fill: #fff;
        stroke-width: 0px;
      }
    </style>
  </defs>
  <g id="Camada_1-2" data-name="Camada 1">
    <path class="cls-1" d="M0,70.47h82.69c1.43,0,2.59,1.16,2.59,2.59s-1.16,2.59-2.59,2.59H5.19v278.28h844.12V75.66H291.93c-1.43,0-2.59-1.16-2.59-2.59s1.16-2.59,2.59-2.59h562.57v288.65H0V70.47Z"/>
    <path class="cls-2" d="M232.62,0h12.24c1.13,0,2.04.91,2.04,2.04v51.01c0,1.13-.91,2.04-2.04,2.04h-61.21c-1.13,0-2.04-.91-2.04-2.04v-16.32c0-.7.36-1.36.96-1.73l16.32-10.2c.63-.4,1.42-.41,2.07-.06.65.36,1.05,1.04,1.05,1.79v6.52l13.2-8.25c.63-.4,1.43-.41,2.07-.06.65.36,1.05,1.04,1.05,1.79v6.52l12.24-7.65V2.04c0-1.13.91-2.04,2.04-2.04ZM197.93,51.01v-20.8l-12.24,7.65v13.15h12.24ZM214.26,51.01v-20.8l-12.24,7.65v13.15h12.24ZM230.58,51.01v-20.8l-12.24,7.65v13.15h12.24ZM234.66,51.01h8.16v-16.32h-8.16v16.32ZM234.66,30.61h8.16V4.08h-8.16v26.52ZM187.14,65.89l-10.2-10.2c-.38-.38-.9-.6-1.44-.6h-10.2v-10.2c0-1.13-.91-2.04-2.04-2.04h-36.73c-1.13,0-2.04.91-2.04,2.04v40.81c0,1.13.91,2.04,2.04,2.04h6.41c.91,3.51,4.08,6.12,7.87,6.12s6.96-2.61,7.87-6.12h16.9c.91,3.51,4.08,6.12,7.87,6.12s6.96-2.61,7.87-6.12h4.37c1.13,0,2.04-.91,2.04-2.04v-18.36c0-.54-.21-1.06-.6-1.44ZM128.56,46.93h32.65v22.44h-32.65v-22.44ZM173.45,89.78c-2.25,0-4.08-1.83-4.08-4.08s1.83-4.08,4.08-4.08,4.08,1.83,4.08,4.08-1.83,4.08-4.08,4.08ZM183.65,83.65h-2.3c-.06-.22-.13-.42-.22-.63-.02-.06-.04-.12-.07-.17-.02-.05-.04-.11-.06-.17-.02-.08-.05-.15-.08-.23-.19-.45-.43-.88-.69-1.28-.03-.05-.08-.1-.12-.15-.03-.03-.06-.07-.08-.11-.22-.31-.46-.6-.72-.88-.08-.09-.17-.16-.26-.24h0s-.08-.07-.12-.11c-.23-.21-.47-.42-.73-.6-.15-.11-.31-.21-.46-.31-.26-.16-.53-.31-.82-.44h-.03c-.16-.09-.31-.16-.48-.23-.31-.12-.64-.22-.96-.3-.03,0-.05-.01-.07-.02l-.09-.03h0c-.1-.03-.2-.06-.31-.08-.49-.09-1-.15-1.53-.15s-1.03.06-1.53.16c-.1.02-.2.05-.29.07h0c-.06.02-.12.03-.18.05-.33.08-.65.18-.96.3-.15.06-.3.13-.45.2l-.06.03c-.28.13-.56.28-.82.44-.16.1-.31.2-.47.31-.26.19-.5.39-.73.6-.04.04-.08.07-.12.11-.09.08-.17.16-.26.24-.26.27-.5.57-.72.88-.01.02-.03.04-.04.06-.02.02-.03.04-.05.06h0s-.07.09-.11.14c-.27.4-.5.83-.7,1.28-.03.07-.06.15-.08.23h0c-.02.06-.04.11-.06.17-.02.05-.04.11-.06.16h0c-.08.21-.16.42-.22.64h-16.84c-.06-.22-.14-.42-.22-.63h0c-.02-.06-.04-.12-.07-.17-.02-.05-.04-.11-.06-.17h0c-.02-.08-.05-.15-.08-.23-.2-.45-.43-.88-.7-1.28-.03-.05-.07-.1-.12-.15-.03-.03-.06-.07-.08-.11-.22-.31-.46-.6-.72-.88-.08-.09-.17-.16-.26-.24-.04-.04-.08-.07-.12-.11-.23-.21-.47-.42-.73-.6-.15-.11-.31-.21-.47-.31-.26-.16-.53-.31-.82-.44h-.03c-.16-.09-.31-.16-.48-.23-.31-.12-.64-.22-.97-.3-.06-.01-.11-.03-.16-.05-.1-.03-.2-.06-.31-.08-.49-.1-1-.16-1.53-.16s-1.03.06-1.53.16c-.1.02-.2.05-.29.07h0s-.07.02-.1.03c-.02,0-.05.01-.07.02-.33.08-.65.18-.97.3-.17.07-.34.15-.51.23-.28.13-.56.28-.82.44-.16.1-.31.2-.47.31-.26.19-.5.39-.73.6-.04.04-.08.07-.12.11-.09.08-.17.15-.26.24-.26.27-.5.57-.72.88-.02.03-.04.06-.07.09l-.02.03h0s-.07.09-.11.14c-.27.4-.5.83-.7,1.28-.03.07-.06.15-.08.23h0c-.02.06-.04.11-.06.17-.02.06-.05.12-.07.19-.08.2-.15.41-.21.62h-4.34v-10.2h34.69c1.13,0,2.04-.91,2.04-2.04v-12.24h9.36l9.01,9.01v15.48ZM241.42,102.51c.88-1.3,1.4-2.88,1.4-4.57,0-4.5-3.66-8.16-8.16-8.16s-8.16,3.66-8.16,8.16c0,1.69.52,3.26,1.4,4.57-2.34.82-4.18,2.66-5,4.99-.58-.39-1.22-.68-1.89-.91.88-1.3,1.4-2.88,1.4-4.57,0-4.5-3.66-8.16-8.16-8.16s-8.16,3.66-8.16,8.16c0,1.69.52,3.26,1.4,4.57-.67.23-1.31.52-1.89.91-.82-2.34-2.66-4.18-4.99-4.99.88-1.3,1.4-2.88,1.4-4.57,0-4.5-3.66-8.16-8.16-8.16s-8.16,3.66-8.16,8.16c0,1.69.52,3.26,1.4,4.57-3.18,1.12-5.48,4.12-5.48,7.67v6.12c0,1.13.91,2.04,2.04,2.04h18.36v2.04c0,1.13.91,2.04,2.04,2.04h20.4c1.13,0,2.04-.91,2.04-2.04v-2.04h18.36c1.13,0,2.04-.91,2.04-2.04v-6.12c0-3.56-2.3-6.56-5.48-7.67ZM193.85,93.86c2.25,0,4.08,1.83,4.08,4.08s-1.83,4.08-4.08,4.08-4.08-1.83-4.08-4.08,1.83-4.08,4.08-4.08ZM185.69,114.26v-4.08c0-2.25,1.83-4.08,4.08-4.08h8.16c2.25,0,4.08,1.83,4.08,4.08v4.08h-16.32ZM214.26,97.94c2.25,0,4.08,1.83,4.08,4.08s-1.83,4.08-4.08,4.08-4.08-1.83-4.08-4.08,1.83-4.08,4.08-4.08ZM222.42,116.3v2.04h-16.32v-4.08c0-2.25,1.83-4.08,4.08-4.08h8.16c2.25,0,4.08,1.83,4.08,4.08v2.04ZM234.66,93.86c2.25,0,4.08,1.83,4.08,4.08s-1.83,4.08-4.08,4.08-4.08-1.83-4.08-4.08,1.83-4.08,4.08-4.08ZM242.82,114.26h-16.32v-4.08c0-2.25,1.83-4.08,4.08-4.08h8.16c2.25,0,4.08,1.83,4.08,4.08v4.08ZM210.18,40.81h-4.08v6.12h4.08v-6.12ZM222.42,40.81h4.08v6.12h-4.08v-6.12ZM193.85,40.81h-4.08v6.12h4.08v-6.12ZM233.27,70.81c.31-1.25.57-2.55.77-3.84l4.03.65c-.22,1.4-.51,2.8-.84,4.16l-3.96-.97ZM234.66,59.17c0,1.31-.05,2.63-.16,3.91l4.07.33c.11-1.39.17-2.82.17-4.24h-4.08ZM227.19,85.18c.69-1.1,1.35-2.25,1.95-3.4l3.62,1.89c-.65,1.25-1.36,2.49-2.11,3.68l-3.45-2.17ZM232.19,74.58c-.41,1.23-.88,2.47-1.38,3.66l3.76,1.59c.55-1.3,1.05-2.63,1.5-3.97l-3.87-1.28ZM147.81,24.07c.98-1,2.02-1.98,3.09-2.91l2.68,3.08c-.99.86-1.95,1.76-2.85,2.69l-2.91-2.86ZM202.6,10.91l-1.3,3.87c1.23.41,2.46.88,3.66,1.4l1.61-3.75c-1.3-.56-2.64-1.07-3.97-1.51ZM154.21,18.51c1.14-.84,2.32-1.64,3.51-2.38l2.15,3.47c-1.1.68-2.19,1.42-3.24,2.2l-2.43-3.28ZM185.92,8.16l-.02,4.08c1.31,0,2.63.06,3.91.17l.34-4.06c-1.39-.12-2.82-.18-4.24-.19ZM193.71,12.9l.67-4.03c1.4.23,2.8.52,4.16.86l-.99,3.96c-1.25-.31-2.54-.58-3.83-.79ZM210.4,14.25l-1.91,3.61c1.14.6,2.28,1.26,3.39,1.96l2.18-3.45c-1.19-.76-2.43-1.48-3.67-2.13ZM177.47,8.79c1.38-.21,2.8-.38,4.21-.48l.31,4.07c-1.31.1-2.62.25-3.89.45l-.63-4.03ZM165.25,12.24c-1.3.54-2.59,1.15-3.84,1.79l1.87,3.63c1.16-.6,2.35-1.15,3.55-1.65l-1.57-3.77ZM169.22,10.77c1.35-.44,2.72-.83,4.09-1.15l.94,3.97c-1.26.3-2.52.66-3.76,1.06l-1.27-3.88ZM167.06,107.06l-1.44,3.82c1.32.5,2.68.95,4.03,1.33l1.12-3.92c-1.25-.36-2.5-.77-3.72-1.23ZM157.96,107.26l2.03-3.54c1.13.65,2.3,1.26,3.47,1.81l-1.74,3.69c-1.27-.6-2.53-1.26-3.76-1.96ZM174.59,109.22l-.81,4c1.39.28,2.79.51,4.19.67l.49-4.05c-1.29-.15-2.59-.36-3.87-.62ZM145.43,97.28l2.99-2.77c.7.75,1.42,1.49,2.17,2.2l-2.81,2.96c-.81-.77-1.59-1.56-2.35-2.38ZM153.53,99.29l-2.57,3.17c1.1.89,2.25,1.75,3.4,2.54l2.31-3.36c-1.06-.73-2.12-1.52-3.14-2.35ZM140.8,89.78c-2.25,0-4.08-1.83-4.08-4.08s1.83-4.08,4.08-4.08,4.08,1.83,4.08,4.08-1.83,4.08-4.08,4.08Z"/>
  </g>
</svg>