<?xml version="1.0" encoding="UTF-8"?>
<svg id="Camada_2" data-name="Camada 2" xmlns="http://www.w3.org/2000/svg" viewBox="0 0 712.17 669.69">
  <defs>
    <style>
      .cls-1 {
        fill-rule: evenodd;
      }

      .cls-1, .cls-2 {
        fill: #fff;
        stroke-width: 0px;
      }
    </style>
  </defs>
  <g id="Camada_1-2" data-name="Camada 1">
    <path class="cls-1" d="M0,70h82.69c1.43,0,2.59,1.16,2.59,2.59s-1.16,2.59-2.59,2.59H5.19v589.32h701.8V75.18h-415.06c-1.43,0-2.59-1.16-2.59-2.59s1.16-2.59,2.59-2.59h420.25v599.69H0V70Z"/>
    <path class="cls-2" d="M233.56,0h7.84c3.02,0,5.48,2.46,5.48,5.48v95.57c0,3.02-2.46,5.48-5.48,5.48h-43.88l2.19,14.13c.08.52-.07,1.05-.41,1.44-.34.4-.84.63-1.37.63h-20.39c-.99,0-1.8-.8-1.8-1.8s.81-1.8,1.8-1.8h18.3l-4.96-32.04c-.31-1.98-1.58-3.65-3.42-4.47l-9.76-4.34-4.61,3.34c-1.21.88-2.64,1.33-4.1,1.33-.55,0-1.09-.06-1.64-.19-1.7-.41-3.18-1.44-4.15-2.87-.97,1.43-2.44,2.46-4.15,2.87-.54.13-1.09.19-1.64.19-1.46,0-2.9-.46-4.1-1.33l-4.61-3.34-9.76,4.34c-1.83.81-3.11,2.48-3.42,4.47l-4.96,32.04h40.02c.99,0,1.8.8,1.8,1.8s-.81,1.8-1.8,1.8h-42.12c-.52,0-1.02-.23-1.37-.63-.34-.4-.49-.93-.41-1.44l5.28-34.11c.49-3.2,2.56-5.89,5.51-7.2l8.89-3.95c-.05-.25-.06-.51-.05-.77.05-1.17.68-2.24,1.68-2.85l3.43-2.09c1.05-.64,2.38-.68,3.47-.1l.57.31.8-5.52c-1.35-.67-2.58-1.54-3.67-2.55h-3.68c-5.4,0-9.79-4.39-9.79-9.79v-5.45c0-.99.8-1.8,1.8-1.8s1.8.8,1.8,1.8v5.45c0,3.42,2.78,6.19,6.19,6.19h.82c-1.32-2.29-2.08-4.94-2.08-7.77v-11.63c0-.98.41-1.94,1.13-2.61.71-.67,1.68-1.03,2.65-.97,4.39.25,7.52-.44,9.56-2.1,1.3-1.06,3.19-1.05,4.49.02,2.68,2.2,5.65,2.99,9.1,2.42,1.03-.17,2.09.12,2.89.8.81.68,1.27,1.68,1.27,2.74v11.33c0,2.83-.76,5.48-2.08,7.77h.82c3.42,0,6.19-2.78,6.19-6.19v-17.64c0-4.6-2.07-8.88-5.67-11.75-.62-.49-1.49-.53-2.15-.09l-2.16,1.43c-1.44.95-3.26,1.15-4.87.53-1.61-.62-2.83-1.98-3.26-3.65l-.02-.09c-.21-.82-.95-1.4-1.78-1.4h-6.02c-8.28,0-15.01,6.74-15.01,15.01v5.24c0,.99-.8,1.8-1.8,1.8s-1.8-.8-1.8-1.8v-5.24c0-10.26,8.35-18.61,18.61-18.61h6.06s0-10.3,0-10.3c0-3.02,2.46-5.48,5.48-5.48h57.34c.99,0,1.8.8,1.8,1.8s-.81,1.8-1.8,1.8h-57.34c-1.04,0-1.88.84-1.88,1.88v11.7c.77.7,1.35,1.62,1.63,2.68l.02.09c.15.56.54.99,1.07,1.2.54.21,1.12.14,1.6-.17l2.16-1.43c1.97-1.3,4.53-1.19,6.37.28,4.47,3.56,7.03,8.86,7.03,14.56v17.64c0,5.4-4.39,9.79-9.79,9.79h-3.68c-1.09,1.02-2.33,1.88-3.67,2.55l.81,5.52.57-.31c1.09-.58,2.42-.54,3.47.1l3.43,2.09c1,.61,1.63,1.68,1.68,2.85.01.26,0,.52-.05.77l8.89,3.95c2.96,1.31,5.02,4.01,5.51,7.2l2.54,16.38h44.44c1.04,0,1.88-.84,1.88-1.88V5.48c0-1.04-.84-1.88-1.88-1.88h-7.84c-.99,0-1.8-.8-1.8-1.8s.8-1.8,1.8-1.8ZM151.25,38.83v11.62c0,6.59,5.36,11.95,11.95,11.95s11.95-5.36,11.95-11.95v-11.32c-4.44.73-8.45-.34-11.92-3.18-2.77,2.23-6.69,3.17-11.98,2.87ZM163.19,66c-1.19,0-2.35-.14-3.47-.39l-.89,6.09,4.36,2.33,4.36-2.33-.89-6.09c-1.12.26-2.28.39-3.47.39ZM158.21,79.27c.97-.23,1.78-.87,2.23-1.76l.35-.69-4.72-2.52-.04-.02s-.03-.02-.04-.02l-2.74-1.47-3.27,1.99,5.44,3.95c.81.58,1.82.79,2.79.55ZM168.18,79.27c.97.23,1.98.03,2.79-.55l5.44-3.95-3.27-1.99-2.74,1.47s-.06.03-.08.04l-4.72,2.52.35.69c.45.89,1.27,1.53,2.23,1.76ZM163.19,84.74c.99,0,1.8.8,1.8,1.8v3.54c0,.99-.8,1.8-1.8,1.8s-1.8-.8-1.8-1.8v-3.54c0-.99.8-1.8,1.8-1.8ZM164.99,98.15c0-.99-.8-1.8-1.8-1.8s-1.8.8-1.8,1.8v3.54c0,.99.8,1.8,1.8,1.8s1.8-.8,1.8-1.8v-3.54ZM161.4,109.76c0-.99.8-1.8,1.8-1.8s1.8.8,1.8,1.8v3.54c0,.99-.8,1.8-1.8,1.8s-1.8-.8-1.8-1.8v-3.54ZM218.08,9.91h-25.49c-1.96,0-3.55,1.59-3.55,3.55v4.63c0,1.96,1.59,3.55,3.55,3.55h25.49c1.95,0,3.55-1.59,3.55-3.55v-4.63c0-1.96-1.59-3.55-3.55-3.55ZM218.03,18.03h-25.39v-4.53h25.39v4.53ZM199.83,70.27c0,.99-.81,1.8-1.8,1.8s-1.8-.8-1.8-1.8v-.91h-1.98c-1.96,0-3.55-1.59-3.55-3.55v-13.97c0-1.96,1.59-3.55,3.55-3.55h1.98v-4.42c0-.99.8-1.8,1.8-1.8s1.8.8,1.8,1.8v4.42h1.98c1.96,0,3.55,1.59,3.55,3.55v13.97c0,1.96-1.59,3.55-3.55,3.55h-1.98v.91ZM201.76,51.88h-7.47v13.88h7.47v-13.88ZM215.09,57.18c.99,0,1.8-.8,1.8-1.8v-.91h1.98c1.96,0,3.55-1.59,3.55-3.55v-8.48c0-1.96-1.59-3.55-3.55-3.55h-1.98v-4.42c0-.99-.8-1.8-1.8-1.8s-1.8.8-1.8,1.8v4.42h-1.98c-1.96,0-3.55,1.59-3.55,3.55v8.48c0,1.96,1.59,3.55,3.55,3.55h1.98v.91c0,.99.81,1.8,1.8,1.8ZM211.35,42.48h7.47v8.39h-7.47v-8.39ZM233.42,76.15h-29.86c-.99,0-1.8.8-1.8,1.8s.81,1.8,1.8,1.8h29.86c.99,0,1.8-.8,1.8-1.8s-.81-1.8-1.8-1.8ZM203.56,83.83h29.86c.99,0,1.8.8,1.8,1.8s-.81,1.8-1.8,1.8h-29.86c-.99,0-1.8-.8-1.8-1.8s.81-1.8,1.8-1.8ZM233.42,91.51h-29.86c-.99,0-1.8.8-1.8,1.8s.81,1.8,1.8,1.8h29.86c.99,0,1.8-.8,1.8-1.8s-.81-1.8-1.8-1.8Z"/>
  </g>
</svg>