<?xml version="1.0" encoding="UTF-8"?>
<svg id="Camada_2" data-name="Camada 2" xmlns="http://www.w3.org/2000/svg" viewBox="0 0 712.17 669.39">
  <defs>
    <style>
      .cls-1 {
        fill-rule: evenodd;
      }

      .cls-1, .cls-2 {
        fill: #fff;
        stroke-width: 0px;
      }
    </style>
  </defs>
  <g id="Camada_1-2" data-name="Camada 1">
    <path class="cls-1" d="M0,69.7h82.69c1.43,0,2.59,1.16,2.59,2.59s-1.16,2.59-2.59,2.59H5.19v589.32h701.8V74.89h-415.06c-1.43,0-2.59-1.16-2.59-2.59s1.16-2.59,2.59-2.59h420.25v599.69H0V69.7Z"/>
    <path class="cls-2" d="M241.78,16.32h-28.48c2.5-4.36,3.87-9.26,4-14.28,0-.74-.4-1.41-1.04-1.78-.64-.36-1.42-.35-2.06.03l-9.02,5.42-7.06-5.3c-.62-.46-1.45-.54-2.14-.19-.69.35-1.13,1.05-1.13,1.82,0,6.95-3.17,10.47-6.97,14.28h-34.18c-1.66,0-3.26.68-4.41,1.88l-22.21,24.65c-1.02,1.11-1.59,2.57-1.6,4.08v69.37c0,3.38,2.74,6.12,6.12,6.12h85.7c1.52,0,2.98-.58,4.1-1.61l24.7-22.26c1.16-1.15,1.81-2.71,1.8-4.35V22.44c0-3.38-2.74-6.12-6.12-6.12ZM219.92,41.42c-.82-.4-1.71-.61-2.62-.61h-27.72l20.4-20.4h30.96l-21.02,21.02ZM166.28,44.89h16.32v26.36l-6.89-5.51c-.75-.6-1.81-.6-2.55,0l-6.89,5.51v-26.36ZM198.62,5.89l5.21,3.91c.66.5,1.56.54,2.27.12l6.7-4.02c-.57,4.11-2.36,7.95-5.12,11.03l-23.88,23.89h-14.63l21-21,.02-.02c3.47-3.48,7.32-7.34,8.43-13.89ZM152.24,21.02c.38-.39.91-.61,1.45-.61h30.11l-20.4,20.4h-29.02l17.86-19.79ZM131.6,118.34c-1.13,0-2.04-.91-2.04-2.04V46.93c0-.53.21-1.05.58-1.43l.03-.03c.38-.37.89-.58,1.43-.58h30.61v30.61c0,.78.45,1.5,1.16,1.84.71.34,1.55.24,2.16-.25l8.93-7.14,8.93,7.14c.61.49,1.45.59,2.16.25.71-.34,1.16-1.06,1.16-1.84v-30.61h30.61c1.13,0,2.04.91,2.04,2.04v69.37c0,1.13-.91,2.04-2.04,2.04h-85.7ZM243.29,95.59l-19.87,17.95V46.93c0-.91-.21-1.81-.61-2.62l21.02-21.02v70.91c0,.51-.18,1.01-.53,1.38ZM205.05,110.18h8.16c1.13,0,2.04.91,2.04,2.04s-.91,2.04-2.04,2.04h-8.16c-1.13,0-2.04-.91-2.04-2.04s.91-2.04,2.04-2.04ZM210.57,98.54c-.8-.8-2.09-.8-2.88,0l-4.08,4.08c-.77.8-.76,2.07.03,2.86.79.79,2.06.8,2.86.02l.6-.6v1.2c0,1.13.91,2.04,2.04,2.04s2.04-.91,2.04-2.04v-1.2l.6.6c.8.77,2.07.76,2.86-.02.79-.79.8-2.06.02-2.86l-4.08-4.08ZM137.72,97.94h32.65c2.25,0,4.08,1.83,4.08,4.08v8.16c0,2.25-1.83,4.08-4.08,4.08h-32.65c-2.25,0-4.08-1.83-4.08-4.08v-8.16c0-2.25,1.83-4.08,4.08-4.08ZM137.72,110.18h32.65v-8.16h-32.65v8.16Z"/>
  </g>
</svg>