<?xml version="1.0" encoding="utf-8"?>
<!-- Generator: Adobe Illustrator 27.0.0, SVG Export Plug-In . SVG Version: 6.00 Build 0)  -->
<svg version="1.1" id="object" xmlns="http://www.w3.org/2000/svg" xmlns:xlink="http://www.w3.org/1999/xlink" x="0px" y="0px"
	 viewBox="0 0 40 40" style="enable-background:new 0 0 40 40;" xml:space="preserve">
<style type="text/css">
	.st0{fill:#4AEA00;}
	.st1{fill:#096015;}
	.st2{fill:#087016;}
	.st3{opacity:1.000000e-02;fill:#FFFFFF;}
</style>
<g>
	<circle class="st0" cx="29.2" cy="29" r="10.5"/>
	<path class="st1" d="M29.2,39.9c-6,0-10.8-4.9-10.8-10.8s4.9-10.8,10.8-10.8S40,23.1,40,29S35.1,39.9,29.2,39.9z M29.2,18.8
		c-5.6,0-10.2,4.6-10.2,10.2s4.6,10.2,10.2,10.2S39.4,34.7,39.4,29S34.8,18.8,29.2,18.8z"/>
</g>
<g>
	<g>
		<path class="st2" d="M23.7,33.9c-0.8,0.7-0.8,1.9-0.1,2.7c0.7,0.7,2,0.7,2.7-0.1l3.5-3.8l-2.2-2.3L23.7,33.9z M25.5,35.7
			c-0.3,0.3-0.8,0.3-1.1,0c-0.3-0.3-0.3-0.8,0-1.1c0.3-0.3,0.8-0.3,1.1,0C25.7,35,25.7,35.4,25.5,35.7z"/>
		<path class="st2" d="M32.8,29.2c0.1-0.1,0.2-0.1,0.4-0.1c3,0.8,4.8-1.7,4.2-3.9c0-0.2-0.3-0.3-0.5-0.1l-1.7,1.7
			c-0.1,0.1-0.4,0.1-0.5,0l-1.4-1.4c-0.1-0.1-0.1-0.4,0-0.5l1.7-1.7c0.1-0.1,0.1-0.4-0.1-0.4c-1.9-0.6-4.8,1.1-3.9,4.2
			c0,0.1,0,0.3-0.1,0.4c0,0-0.7,0.6-0.6,0.6l2,1.9L32.8,29.2z"/>
		<path class="st2" d="M27.8,26.3l-1.7,1.7c0,0,0,0,0,0l7.8,8.3c0.6,0.6,1.6,0.6,2.2,0c0.6-0.6,0.6-1.6,0-2.2L27.8,26.3z"/>
		<path class="st2" d="M23.7,29.6l0.7-0.7c0.2-0.2,0.2-0.4,0-0.6l-0.2-0.2c-0.2-0.2-0.3-0.6-0.1-0.8c0.2-0.3,0.6-0.3,0.8,0l0.2,0.2
			c0.2,0.2,0.4,0.2,0.6,0l2.1-2.1c0.2-0.2,0.2-0.6,0-0.9L27.2,24c-0.3-0.3-0.3-0.7-0.1-1c0.7-0.7,1.6-1.3,2.6-1.9
			c0.1-0.1,0.1-0.2,0-0.2c-1,0-2,0.2-2.9,0.7c-1,0.5-1.5,1.2-3.7,3.1c-0.2,0.2-0.2,0.4,0,0.6l0.1,0.1c0.2,0.2,0.3,0.6,0.1,0.8
			c-0.2,0.3-0.6,0.3-0.9,0l-0.2-0.2c-0.2-0.2-0.4-0.2-0.6,0l-0.7,0.7c-0.1,0.1-0.1,0.4,0,0.5l2.2,2.2C23.3,29.7,23.5,29.7,23.7,29.6
			L23.7,29.6z"/>
	</g>
</g>
<rect y="40" class="st3" width="0" height="0"/>
</svg>
