<?xml version="1.0" encoding="utf-8"?>
<!-- Generator: Adobe Illustrator 27.0.0, SVG Export Plug-In . SVG Version: 6.00 Build 0)  -->
<svg version="1.1" id="object" xmlns="http://www.w3.org/2000/svg" xmlns:xlink="http://www.w3.org/1999/xlink" x="0px" y="0px"
	 viewBox="0 0 40 40" style="enable-background:new 0 0 40 40;" xml:space="preserve">
<style type="text/css">
	.st0{fill:#FC7E7E;}
	.st1{opacity:0.5;fill:#161616;enable-background:new    ;}
</style>
<g>
	<g>
		<path class="st0" d="M19.8,0C11.7,0,5.1,6.6,5.1,14.7c0,7.7,9,12.1,13.8,24.7c0.3,0.7,1.8,0.7,2.1-0.1
			c4.1-12.8,13.4-16.9,13.4-24.7C34.5,6.6,27.9,0,19.8,0z"/>
		<path class="st1" d="M19.8,1c7.5,0,13.7,6.1,13.7,13.7c0,3.6-2.2,6.4-5,9.9s-6.2,7.9-8.3,14.3c0,0-0.1,0-0.2,0s-0.1,0-0.1,0
			c-2.4-6.1-5.7-10.4-8.4-13.8c-2.9-3.8-5.3-6.7-5.3-10.4C6.1,7.1,12.3,1,19.8,1 M19.8,0C11.7,0,5.1,6.6,5.1,14.7
			c0,7.8,9,12.1,13.8,24.7c0.1,0.3,0.6,0.5,1,0.5c0.5,0,0.9-0.2,1.1-0.6c4.1-12.8,13.4-16.9,13.4-24.7C34.5,6.6,27.9,0,19.8,0
			L19.8,0z"/>
	</g>
</g>
<circle class="st1" cx="19.8" cy="13.9" r="7.5"/>
</svg>
