<?xml version="1.0" encoding="utf-8"?>
<!-- Generator: Adobe Illustrator 16.0.0, SVG Export Plug-In . SVG Version: 6.00 Build 0)  -->
<!DOCTYPE svg PUBLIC "-//W3C//DTD SVG 1.1//EN" "http://www.w3.org/Graphics/SVG/1.1/DTD/svg11.dtd">
<svg version="1.1" id="Layer_1" xmlns="http://www.w3.org/2000/svg" xmlns:xlink="http://www.w3.org/1999/xlink" x="0px" y="0px"
	 width="212.896px" height="43.02px" viewBox="0 0 212.896 43.02" enable-background="new 0 0 212.896 43.02" xml:space="preserve">
<g>
	<path fill="#EC1C24" d="M199.242,0.002c-0.153,0-0.306,0.004-0.458,0.009c-0.025-0.003-0.051-0.007-0.076-0.009V0h-4.801h-45.459
		H138.31c3.535,2.955,5.785,7.397,5.785,12.366c0,6.775-4.182,12.572-10.104,14.954l6.126,0.007l57.891,0.009l1.25,0.001
		c0.004-0.009,0.01-0.018,0.014-0.026c7.529-0.016,13.626-6.123,13.626-13.654C212.896,6.115,206.784,0.002,199.242,0.002z"/>
	<g>
		<path fill="#0D3354" d="M122.054,19.876c-1.817-1.817-2.727-4.017-2.727-6.595c0-2.58,0.909-4.778,2.727-6.596
			c1.818-1.818,4.017-2.728,6.596-2.728s4.778,0.909,6.596,2.728c0.897,0.896,1.572,1.887,2.027,2.97l1.734-4.335
			c-0.343-0.438-0.719-0.859-1.128-1.269c-2.548-2.549-5.625-3.822-9.229-3.822s-6.682,1.273-9.229,3.822
			c-2.549,2.548-3.822,5.625-3.822,9.229s1.273,6.681,3.822,9.229c2.547,2.549,5.624,3.822,9.229,3.822
			c0.688,0,1.356-0.047,2.006-0.14l1.736-4.339c-1.143,0.499-2.391,0.75-3.742,0.75C126.07,22.604,123.872,21.694,122.054,19.876z"
			/>
		<path fill="#0D3354" d="M50.341,3.612c0-0.002,0-0.004,0-0.004c-1.88-1.816-4.062-2.9-6.548-3.252
			c-0.006-0.001-0.012-0.002-0.017-0.003C43.688,0.342,43.6,0.33,43.511,0.319c-0.012-0.001-0.023-0.002-0.035-0.004
			c-0.083-0.01-0.167-0.019-0.251-0.026c-0.017-0.001-0.033-0.003-0.05-0.005c-0.079-0.007-0.158-0.013-0.237-0.019
			c-0.022-0.002-0.044-0.004-0.066-0.006c-0.075-0.005-0.15-0.009-0.226-0.013c-0.026-0.001-0.053-0.003-0.079-0.004
			c-0.075-0.003-0.151-0.006-0.227-0.008c-0.026-0.001-0.054-0.002-0.08-0.003c-0.102-0.002-0.204-0.003-0.306-0.003
			c-0.001,0-0.002,0-0.003,0l0,0c-0.001,0-0.003,0-0.003,0c-0.103,0-0.204,0.001-0.306,0.003c-0.027,0.001-0.054,0.002-0.081,0.003
			c-0.075,0.002-0.151,0.005-0.227,0.008c-0.026,0.001-0.052,0.003-0.078,0.004c-0.076,0.004-0.151,0.008-0.227,0.013
			c-0.022,0.002-0.044,0.004-0.065,0.006c-0.08,0.006-0.159,0.012-0.238,0.019c-0.017,0.002-0.033,0.004-0.05,0.005
			c-0.084,0.008-0.168,0.017-0.251,0.026c-0.012,0.002-0.023,0.003-0.035,0.004c-0.089,0.011-0.177,0.022-0.265,0.034
			c-0.006,0.001-0.012,0.002-0.017,0.003c-2.486,0.352-4.669,1.436-6.549,3.252L33.56,3.613c-0.058,0.057-0.116,0.112-0.174,0.17
			c-2.369,2.37-3.555,5.225-3.555,8.565v12.119c0,0.1,0.01,0.195,0.023,0.29c0.054,0.368,0.214,0.694,0.48,0.978
			c0.015,0.017,0.028,0.033,0.044,0.049c0.019,0.019,0.038,0.034,0.057,0.052c0.255,0.238,0.545,0.391,0.87,0.457
			c0.125,0.025,0.255,0.039,0.391,0.039l0,0c0.135,0,0.265-0.014,0.39-0.039c0.325-0.066,0.615-0.219,0.871-0.457
			c0.019-0.018,0.038-0.033,0.056-0.052c0.017-0.016,0.029-0.032,0.045-0.049c0.263-0.279,0.422-0.602,0.479-0.966
			c0.015-0.098,0.024-0.197,0.024-0.302V12.349c0-0.507,0.039-0.997,0.117-1.471c0.268-1.612,0.987-3.036,2.161-4.274
			c0.06-0.062,0.119-0.125,0.181-0.187c0.06-0.06,0.12-0.118,0.181-0.176c1.492-1.416,3.255-2.173,5.29-2.271
			c0.152-0.007,0.306-0.012,0.461-0.012c0.154,0,0.308,0.005,0.46,0.012c2.035,0.099,3.798,0.855,5.29,2.271
			c0.061,0.058,0.121,0.116,0.182,0.176c0.061,0.062,0.121,0.124,0.18,0.187c1.174,1.238,1.894,2.662,2.161,4.274
			c0.078,0.474,0.117,0.964,0.117,1.471v12.119c0,0.1,0.009,0.195,0.023,0.29c0.054,0.368,0.213,0.694,0.479,0.978
			c0.016,0.017,0.029,0.033,0.045,0.049c0.365,0.365,0.804,0.548,1.317,0.548c0.513,0,0.951-0.183,1.316-0.548
			c0.365-0.364,0.548-0.804,0.548-1.316V12.349c0-3.341-1.186-6.195-3.555-8.565C50.458,3.726,50.399,3.669,50.341,3.612z"/>
		<path fill="#0D3354" d="M57.799,13.281c0,3.604,1.274,6.681,3.822,9.229c2.108,2.108,4.578,3.344,7.409,3.708V22.44
			c-1.81-0.336-3.401-1.189-4.775-2.564c-1.818-1.817-2.727-4.017-2.727-6.595c0-2.58,0.908-4.778,2.727-6.596
			c1.374-1.374,2.966-2.229,4.775-2.564V0.344c-2.831,0.364-5.301,1.6-7.409,3.708C59.073,6.6,57.799,9.677,57.799,13.281z"/>
		<path fill="#0D3354" d="M72.671,0.344v3.777c1.809,0.336,3.401,1.19,4.775,2.564c1.817,1.817,2.727,4.016,2.727,6.596
			c0,2.578-0.909,4.777-2.727,6.595c-1.374,1.374-2.967,2.229-4.775,2.564v3.776c2.83-0.363,5.301-1.599,7.409-3.707
			c2.548-2.548,3.822-5.624,3.822-9.229S82.628,6.6,80.08,4.052C77.972,1.943,75.501,0.708,72.671,0.344z"/>
		<path fill="#0D3354" d="M90.823,0.766c-0.372-0.357-0.815-0.536-1.328-0.536s-0.951,0.183-1.316,0.548s-0.548,0.804-0.548,1.316
			c0,0.265,0.047,0.505,0.14,0.723l7.255,15.801l2.046-4.477L91.174,1.255C91.064,1.053,90.948,0.89,90.823,0.766z"/>
		<path fill="#0D3354" d="M110.005,0.229c-0.513,0-0.948,0.179-1.306,0.536c-0.14,0.124-0.264,0.287-0.373,0.489l-5.715,12.487
			c-0.031,0.083-0.066,0.164-0.106,0.243l-4.791,10.485l0.404,0.883c0.094,0.202,0.194,0.35,0.304,0.442
			c0.342,0.357,0.784,0.536,1.328,0.536c0.543,0,0.987-0.171,1.328-0.513c0.108-0.108,0.21-0.264,0.304-0.466l10.348-22.537
			c0.094-0.218,0.14-0.458,0.14-0.723c0-0.513-0.183-0.951-0.548-1.316C110.957,0.412,110.518,0.229,110.005,0.229z"/>
		<path fill="#0D3354" d="M14.871,0.287v3.776c1.81,0.336,3.401,1.19,4.775,2.564c1.367,1.367,2.222,2.944,2.564,4.73H3.892
			c0.342-1.786,1.196-3.363,2.564-4.73c1.374-1.374,2.966-2.229,4.775-2.564V0.287C8.4,0.651,5.93,1.887,3.822,3.994
			C1.273,6.542,0,9.619,0,13.223c0,3.605,1.273,6.682,3.822,9.229c2.548,2.549,5.624,3.822,9.229,3.822
			c3.264,0,6.099-1.048,8.507-3.146c0.357-0.372,0.536-0.815,0.536-1.328s-0.183-0.951-0.548-1.316
			c-0.364-0.365-0.804-0.548-1.316-0.548c-0.435,0-0.823,0.132-1.165,0.396c-1.679,1.476-3.683,2.214-6.014,2.214
			c-2.579,0-4.777-0.909-6.595-2.728c-1.368-1.367-2.223-2.943-2.564-4.73h20.347c0.513,0,0.951-0.183,1.316-0.548
			c0.365-0.364,0.548-0.804,0.548-1.317c0-3.604-1.274-6.681-3.822-9.229C20.172,1.887,17.702,0.651,14.871,0.287z"/>
	</g>
	<g opacity="0.5">
		<path fill="#231F20" d="M1.164,41.887c-0.511-0.664-0.642-1.711-0.393-3.139c0.25-1.42,0.748-2.464,1.495-3.133
			c0.747-0.668,1.769-1.002,3.063-1.002h2.803l-0.162,0.884H5.38c-0.548,0-1.021,0.062-1.42,0.187
			c-0.398,0.125-0.738,0.32-1.021,0.586c-0.283,0.266-0.513,0.602-0.691,1.009c-0.179,0.406-0.317,0.896-0.418,1.47
			c-0.099,0.573-0.132,1.062-0.099,1.469c0.032,0.407,0.143,0.744,0.33,1.01c0.187,0.266,0.458,0.461,0.815,0.585
			c0.356,0.125,0.81,0.188,1.357,0.188h1.931l0.51-2.865H4.209l0.15-0.884h3.462l-0.81,4.633H3.873
			C2.578,42.883,1.675,42.551,1.164,41.887z"/>
		<path fill="#231F20" d="M9.852,41.874c-0.507-0.673-0.636-1.715-0.387-3.126c0.25-1.403,0.746-2.443,1.489-3.12
			s1.774-1.015,3.095-1.015h2.08l-0.162,0.884h-1.855c-0.549,0-1.018,0.057-1.408,0.169c-0.39,0.111-0.72,0.281-0.989,0.51
			c-0.271,0.229-0.492,0.515-0.667,0.859c-0.174,0.345-0.315,0.75-0.423,1.215h4.757l-0.149,0.884h-4.758
			c-0.065,0.49-0.076,0.914-0.03,1.271c0.045,0.357,0.164,0.654,0.354,0.891c0.191,0.236,0.463,0.413,0.815,0.529
			c0.354,0.116,0.804,0.175,1.352,0.175h1.968l-0.149,0.884h-2.18C11.275,42.883,10.358,42.547,9.852,41.874z"/>
		<path fill="#231F20" d="M16.54,41.999h3.3c0.98,0,1.549-0.478,1.707-1.433c0.174-0.955-0.225-1.433-1.196-1.433h-1.121
			c-0.764,0-1.313-0.185-1.65-0.555c-0.336-0.369-0.438-0.936-0.305-1.699c0.142-0.765,0.444-1.333,0.909-1.706
			c0.465-0.374,1.079-0.561,1.844-0.561h3.3l-0.162,0.884h-3.188c-0.938,0-1.485,0.457-1.644,1.37
			c-0.174,0.922,0.208,1.383,1.146,1.383h1.134c0.78,0,1.341,0.19,1.682,0.572c0.34,0.382,0.439,0.964,0.299,1.744
			c-0.142,0.78-0.444,1.361-0.909,1.744c-0.465,0.381-1.088,0.572-1.868,0.572H16.39L16.54,41.999z"/>
		<path fill="#231F20" d="M27.126,35.484h-2.827l0.162-0.871h6.638l-0.161,0.871h-2.815l-1.295,7.398h-0.996L27.126,35.484z"/>
		<path fill="#231F20" d="M35.358,40.703h-3.823l-1.184,2.18H29.28l4.671-8.27h1.195l1.757,8.27h-1.108L35.358,40.703z
			 M32.009,39.819h3.188l-0.834-4.31L32.009,39.819z M33.808,33.598c-0.054,0.046-0.097,0.16-0.13,0.343l-0.025,0.137h-0.66
			l0.075-0.398c0.049-0.299,0.145-0.517,0.286-0.654c0.141-0.136,0.357-0.205,0.647-0.205h1.37c0.19,0,0.313-0.022,0.367-0.068
			s0.098-0.16,0.131-0.343l0.024-0.137h0.66l-0.074,0.398c-0.05,0.299-0.144,0.517-0.28,0.654c-0.137,0.137-0.354,0.205-0.654,0.205
			h-1.382C33.98,33.529,33.862,33.553,33.808,33.598z"/>
		<path fill="#231F20" d="M38.759,41.93c-0.531-0.727-0.677-1.787-0.436-3.182c0.24-1.395,0.755-2.456,1.544-3.183
			c0.789-0.726,1.822-1.089,3.102-1.089c1.27,0,2.169,0.363,2.696,1.089c0.527,0.727,0.67,1.788,0.43,3.183
			c-0.241,1.395-0.754,2.455-1.538,3.182c-0.785,0.727-1.816,1.09-3.096,1.09C40.191,43.02,39.29,42.656,38.759,41.93z
			 M45.036,38.748c0.398-2.25-0.345-3.375-2.229-3.375s-3.026,1.125-3.425,3.375s0.344,3.375,2.229,3.375
			C43.496,42.123,44.638,40.998,45.036,38.748z"/>
		<path fill="#231F20" d="M53.094,35.484h-2.827l0.162-0.871h6.639l-0.162,0.871H54.09l-1.295,7.398h-0.996L53.094,35.484z"/>
		<path fill="#231F20" d="M60.704,39.433h-2.192l-0.598,3.45h-0.996l1.457-8.27h3.811c0.765,0,1.327,0.201,1.688,0.604
			c0.361,0.402,0.472,0.994,0.33,1.774c-0.141,0.781-0.417,1.354-0.828,1.72c-0.41,0.365-0.911,0.593-1.5,0.685l1.73,3.487h-1.221
			L60.704,39.433z M63.133,37.029c0.183-1.021-0.241-1.532-1.271-1.532h-2.653l-0.535,3.052h2.652
			C62.356,38.549,62.958,38.042,63.133,37.029z"/>
		<path fill="#231F20" d="M70.194,40.703h-3.823l-1.184,2.18h-1.071l4.671-8.27h1.195l1.756,8.27H70.63L70.194,40.703z
			 M66.844,39.819h3.188l-0.834-4.31L66.844,39.819z"/>
		<path fill="#231F20" d="M75.139,35.934l-1.221,6.949h-0.959l1.458-8.27h1.22l3.264,6.875l1.221-6.875h0.959l-1.457,8.27h-1.171
			L75.139,35.934z"/>
		<path fill="#231F20" d="M81.827,41.999h3.301c0.979,0,1.548-0.478,1.706-1.433c0.174-0.955-0.225-1.433-1.196-1.433h-1.12
			c-0.765,0-1.314-0.185-1.65-0.555c-0.337-0.369-0.438-0.936-0.306-1.699c0.142-0.765,0.444-1.333,0.909-1.706
			c0.465-0.374,1.08-0.561,1.844-0.561h3.301l-0.162,0.884h-3.188c-0.938,0-1.486,0.457-1.645,1.37
			c-0.174,0.922,0.208,1.383,1.146,1.383h1.133c0.78,0,1.341,0.19,1.682,0.572s0.44,0.964,0.299,1.744s-0.444,1.361-0.909,1.744
			c-0.465,0.381-1.088,0.572-1.868,0.572h-3.425L81.827,41.999z"/>
		<path fill="#231F20" d="M90.832,34.613h3.462c0.855,0,1.464,0.214,1.824,0.641c0.361,0.428,0.468,1.065,0.318,1.912
			c-0.149,0.855-0.482,1.497-0.997,1.925c-0.515,0.427-1.195,0.641-2.042,0.641h-2.479l-0.548,3.151h-0.997L90.832,34.613z
			 M93.995,35.497h-2.329l-0.585,3.351h2.316c1.121,0,1.78-0.557,1.98-1.669C95.577,36.058,95.116,35.497,93.995,35.497z"/>
		<path fill="#231F20" d="M97.943,41.93c-0.531-0.727-0.677-1.787-0.437-3.182c0.241-1.395,0.756-2.456,1.545-3.183
			c0.788-0.726,1.822-1.089,3.101-1.089c1.271,0,2.169,0.363,2.696,1.089c0.528,0.727,0.671,1.788,0.43,3.183
			c-0.24,1.395-0.753,2.455-1.537,3.182c-0.785,0.727-1.816,1.09-3.095,1.09C99.376,43.02,98.475,42.656,97.943,41.93z
			 M104.221,38.748c0.397-2.25-0.346-3.375-2.229-3.375c-1.885,0-3.026,1.125-3.426,3.375c-0.398,2.25,0.345,3.375,2.23,3.375
			C102.68,42.123,103.821,40.998,104.221,38.748z"/>
		<path fill="#231F20" d="M110.211,39.433h-2.192l-0.598,3.45h-0.996l1.457-8.27h3.812c0.764,0,1.326,0.201,1.688,0.604
			s0.471,0.994,0.33,1.774c-0.142,0.781-0.418,1.354-0.828,1.72c-0.411,0.365-0.911,0.593-1.501,0.685l1.73,3.487h-1.22
			L110.211,39.433z M112.64,37.029c0.183-1.021-0.24-1.532-1.271-1.532h-2.652l-0.536,3.052h2.652
			C111.863,38.549,112.466,38.042,112.64,37.029z"/>
		<path fill="#231F20" d="M117.833,35.484h-2.827l0.162-0.871h6.639l-0.162,0.871h-2.814l-1.295,7.398h-0.997L117.833,35.484z"/>
		<path fill="#231F20" d="M122.242,41.874c-0.506-0.673-0.635-1.715-0.386-3.126c0.249-1.403,0.745-2.443,1.488-3.12
			s1.774-1.015,3.095-1.015h2.08l-0.162,0.884h-1.855c-0.548,0-1.018,0.057-1.407,0.169c-0.391,0.111-0.721,0.281-0.99,0.51
			c-0.271,0.229-0.492,0.515-0.667,0.859c-0.174,0.345-0.314,0.75-0.423,1.215h4.757l-0.149,0.884h-4.757
			c-0.066,0.49-0.077,0.914-0.031,1.271c0.046,0.357,0.164,0.654,0.355,0.891c0.19,0.236,0.462,0.413,0.815,0.529
			c0.353,0.116,0.803,0.175,1.351,0.175h1.969l-0.149,0.884h-2.18C123.666,42.883,122.749,42.547,122.242,41.874z"/>
		<path fill="#231F20" d="M128.931,41.999h3.3c0.979,0,1.549-0.478,1.706-1.433c0.175-0.955-0.224-1.433-1.195-1.433h-1.121
			c-0.763,0-1.313-0.185-1.649-0.555c-0.336-0.369-0.438-0.936-0.306-1.699c0.142-0.765,0.444-1.333,0.909-1.706
			c0.465-0.374,1.079-0.561,1.843-0.561h3.302l-0.162,0.884h-3.189c-0.938,0-1.485,0.457-1.643,1.37
			c-0.175,0.922,0.207,1.383,1.146,1.383h1.133c0.78,0,1.341,0.19,1.682,0.572s0.439,0.964,0.299,1.744s-0.444,1.361-0.909,1.744
			c-0.465,0.381-1.088,0.572-1.868,0.572h-3.425L128.931,41.999z"/>
		<path fill="#231F20" d="M139.704,42.304c-0.333-0.386-0.437-0.932-0.312-1.638c0.059-0.349,0.156-0.65,0.293-0.903
			s0.293-0.465,0.467-0.635c0.175-0.17,0.366-0.302,0.573-0.393c0.208-0.091,0.42-0.153,0.636-0.187
			c-0.1-0.009-0.214-0.042-0.343-0.1c-0.129-0.059-0.247-0.156-0.354-0.293c-0.108-0.137-0.189-0.317-0.243-0.542
			c-0.055-0.224-0.052-0.511,0.006-0.859c0.125-0.706,0.411-1.239,0.859-1.601c0.449-0.36,1.025-0.541,1.731-0.541h2.441
			l-0.162,0.871h-2.242c-0.465,0-0.828,0.106-1.09,0.317c-0.261,0.212-0.434,0.551-0.517,1.016s-0.029,0.804,0.162,1.015
			c0.191,0.212,0.519,0.318,0.984,0.318h4.646l-0.163,0.871h-1.271l-0.672,3.861h-3.749
			C140.597,42.883,140.035,42.689,139.704,42.304z M142.257,39.021c-0.515,0-0.92,0.121-1.215,0.361
			c-0.294,0.241-0.487,0.619-0.578,1.134c-0.092,0.515-0.032,0.893,0.181,1.134c0.211,0.24,0.574,0.36,1.09,0.36h2.577l0.523-2.989
			H142.257z"/>
		<path fill="#231F20" d="M151.361,39.831l0.922-5.218h0.996l-0.909,5.131c-0.142,0.806-0.069,1.383,0.218,1.731
			c0.286,0.349,0.832,0.523,1.638,0.523h1.855l-0.148,0.884h-2.056C151.843,42.883,151.005,41.865,151.361,39.831z"/>
		<path fill="#231F20" d="M157.576,41.93c-0.531-0.727-0.677-1.787-0.437-3.182c0.241-1.395,0.756-2.456,1.545-3.183
			c0.789-0.726,1.822-1.089,3.101-1.089c1.271,0,2.17,0.363,2.697,1.089c0.527,0.727,0.67,1.788,0.43,3.183
			c-0.241,1.395-0.754,2.455-1.539,3.182c-0.784,0.727-1.815,1.09-3.095,1.09C159.008,43.02,158.107,42.656,157.576,41.93z
			 M163.854,38.748c0.398-2.25-0.345-3.375-2.229-3.375c-1.886,0-3.026,1.125-3.426,3.375c-0.398,2.25,0.345,3.375,2.229,3.375
			S163.454,40.998,163.854,38.748z"/>
		<path fill="#231F20" d="M166.649,41.887c-0.511-0.664-0.642-1.711-0.393-3.139c0.249-1.42,0.747-2.464,1.495-3.133
			c0.747-0.668,1.768-1.002,3.062-1.002h2.802l-0.161,0.884h-2.591c-0.547,0-1.021,0.062-1.42,0.187
			c-0.398,0.125-0.738,0.32-1.021,0.586s-0.513,0.602-0.691,1.009c-0.179,0.406-0.317,0.896-0.417,1.47s-0.133,1.062-0.1,1.469
			c0.033,0.407,0.144,0.744,0.33,1.01s0.459,0.461,0.816,0.585c0.355,0.125,0.809,0.188,1.356,0.188h1.931l0.511-2.865h-2.466
			l0.149-0.884h3.462l-0.809,4.633h-3.139C168.062,42.883,167.159,42.551,166.649,41.887z"/>
		<path fill="#231F20" d="M176.208,34.613h0.996l-1.457,8.27h-0.996L176.208,34.613z M177.454,32.421h1.07l-1.258,1.693h-0.859
			L177.454,32.421z"/>
		<path fill="#231F20" d="M177.952,41.999h3.299c0.98,0,1.55-0.478,1.707-1.433c0.175-0.955-0.225-1.433-1.195-1.433h-1.121
			c-0.764,0-1.313-0.185-1.65-0.555c-0.336-0.369-0.438-0.936-0.305-1.699c0.141-0.765,0.443-1.333,0.909-1.706
			c0.465-0.374,1.079-0.561,1.843-0.561h3.301l-0.162,0.884h-3.188c-0.938,0-1.486,0.457-1.644,1.37
			c-0.174,0.922,0.207,1.383,1.146,1.383h1.133c0.779,0,1.34,0.19,1.682,0.572c0.34,0.382,0.439,0.964,0.298,1.744
			c-0.141,0.78-0.444,1.361-0.909,1.744c-0.465,0.381-1.088,0.572-1.867,0.572h-3.426L177.952,41.999z"/>
		<path fill="#231F20" d="M188.538,35.484h-2.828l0.163-0.871h6.638l-0.162,0.871h-2.814l-1.295,7.398h-0.996L188.538,35.484z"/>
		<path fill="#231F20" d="M193.818,34.613h0.997l-1.458,8.27h-0.997L193.818,34.613z"/>
		<path fill="#231F20" d="M196.341,41.887c-0.512-0.664-0.642-1.711-0.393-3.139c0.249-1.42,0.747-2.464,1.494-3.133
			c0.748-0.668,1.765-1.002,3.053-1.002h2.241l-0.162,0.884h-2.018c-0.549,0-1.022,0.062-1.42,0.187
			c-0.398,0.125-0.739,0.32-1.021,0.586s-0.513,0.602-0.69,1.009c-0.18,0.406-0.318,0.896-0.418,1.47s-0.133,1.062-0.1,1.469
			c0.033,0.407,0.143,0.744,0.33,1.01s0.459,0.461,0.815,0.585c0.357,0.125,0.81,0.188,1.358,0.188h2.042l-0.149,0.884h-2.254
			C197.755,42.883,196.851,42.551,196.341,41.887z"/>
		<path fill="#231F20" d="M207.843,40.703h-3.824l-1.184,2.18h-1.07l4.67-8.27h1.196l1.756,8.27h-1.108L207.843,40.703z
			 M204.492,39.819h3.188l-0.834-4.31L204.492,39.819z"/>
	</g>
	<g>
		<path fill="#FFFFFF" d="M153.146,8.122l-6.133-0.019l1.191-3.288l16.098,0.047l-1.19,3.289l-6.105-0.018l-5.537,15.535
			l-3.861-0.012L153.146,8.122z"/>
		<path fill="#FFFFFF" d="M183.237,8.381L172.96,23.732l-4.543-0.014l0.652-15.38l-5.478,15.366l-3.663-0.012l6.729-18.823
			l6.359,0.019L172.213,19.7l9.776-14.785l6.36,0.019l-6.729,18.824l-3.861-0.012L183.237,8.381z"/>
		<path fill="#FFFFFF" d="M186.672,20.48l8.319,0.024c1.552,0.005,2.588-0.749,3.107-2.261c0.558-1.512,0.061-2.271-1.492-2.274
			l-3.236-0.01c-3.691-0.011-4.871-1.859-3.541-5.545c1.284-3.647,3.781-5.466,7.491-5.455l8.83,0.026l-1.192,3.289l-8.062-0.024
			c-1.477-0.005-2.49,0.73-3.041,2.204c-0.531,1.475-0.05,2.214,1.445,2.219l3.209,0.009c1.854,0.006,3.091,0.473,3.709,1.402
			c0.617,0.929,0.598,2.319-0.059,4.171c-0.658,1.853-1.628,3.24-2.912,4.163c-1.285,0.924-2.846,1.383-4.682,1.377l-9.057-0.026
			L186.672,20.48z"/>
	</g>
</g>
</svg>
