<?xml version="1.0" encoding="UTF-8"?>
<svg id="Camada_2" data-name="Camada 2" xmlns="http://www.w3.org/2000/svg" viewBox="0 0 734.3 433.41">
  <defs>
    <style>
      .cls-1, .cls-2 {
        fill: #4f903d;
        stroke-width: 0px;
      }

      .cls-2 {
        fill-rule: evenodd;
      }
    </style>
  </defs>
  <g id="Camada_1-2" data-name="Camada 1">
    <path class="cls-2" d="M0,76.11h82.7c1.4,0,2.6,1.2,2.6,2.6s-1.2,2.6-2.6,2.6H5.2v346.9h723.9V81.31h-437.2c-1.4,0-2.6-1.2-2.6-2.6s1.2-2.6,2.6-2.6h442.4v357.3H0V76.11Z"/>
    <g>
      <polygon class="cls-1" points="226.6 63.48 224.18 63.07 224.18 63.07 226.6 63.48"/>
      <path class="cls-1" d="M223.41,82.45l.82,2.31c.84-.3,1.45-1.03,1.6-1.9l-2.42-.41Z"/>
      <path class="cls-1" d="M209.8,87.26l-1.9-1.54c-.69.85-.73,2.06-.1,2.96.63.9,1.78,1.26,2.82.9l-.82-2.31Z"/>
      <polygon class="cls-1" points="215.19 80.6 217.1 82.15 217.1 82.15 215.19 80.6"/>
      <polygon class="cls-1" points="214.22 70.34 212.64 72.21 212.64 72.21 214.22 70.34"/>
      <polygon class="cls-1" points="204.3 70.84 206.02 72.58 206.02 72.58 204.3 70.84"/>
      <path class="cls-1" d="M198.61,76.48l1.69,1.77s.02-.02.03-.03l-1.72-1.74Z"/>
      <path class="cls-1" d="M190.41,96.11l-2.45-.14s0,.09,0,.14h2.45Z"/>
      <polygon class="cls-1" points="215.47 113.95 213.05 114.34 213.05 114.34 215.47 113.95"/>
      <polygon class="cls-1" points="215.17 112.08 212.75 112.46 212.75 112.46 215.17 112.08"/>
      <polygon class="cls-1" points="218.15 105.44 216.84 103.37 216.84 103.37 218.15 105.44"/>
      <polygon class="cls-1" points="232.42 96.01 233.8 98.04 233.8 98.04 232.42 96.01"/>
      <polygon class="cls-1" points="238.09 86.56 235.66 86.29 235.66 86.29 238.09 86.56"/>
      <polygon class="cls-1" points="240.56 63.99 238.12 63.73 238.12 63.73 240.56 63.99"/>
      <path class="cls-1" d="M154.55,49.4l1.13-2.17c-.71-.37-1.55-.37-2.26,0l1.13,2.17Z"/>
      <polygon class="cls-1" points="148.98 52.29 150.11 54.47 150.11 54.47 148.98 52.29"/>
      <polygon class="cls-1" points="144.58 49.13 142.16 48.71 142.16 48.71 144.58 49.13"/>
      <path class="cls-1" d="M145.64,43l2.41.42c.14-.8-.13-1.62-.71-2.18l-1.7,1.76Z"/>
      <polygon class="cls-1" points="141.13 38.66 142.83 36.89 142.83 36.89 141.13 38.66"/>
      <polygon class="cls-1" points="142.81 33.54 142.47 31.12 142.47 31.12 142.81 33.54"/>
      <path class="cls-1" d="M149.04,32.65l.35,2.43c.8-.11,1.48-.61,1.84-1.33l-2.19-1.09Z"/>
      <polygon class="cls-1" points="151.83 27.07 149.64 25.97 149.64 25.97 151.83 27.07"/>
      <polygon class="cls-1" points="157.27 27.07 159.47 25.97 159.47 25.97 157.27 27.07"/>
      <path class="cls-1" d="M160.06,32.65l-2.19,1.09c.36.72,1.05,1.22,1.84,1.33l.35-2.43Z"/>
      <polygon class="cls-1" points="166.29 33.54 166.64 31.12 166.64 31.12 166.29 33.54"/>
      <polygon class="cls-1" points="167.97 38.66 166.27 36.89 166.27 36.89 167.97 38.66"/>
      <path class="cls-1" d="M163.47,43l-1.7-1.76c-.59.56-.85,1.38-.71,2.18l2.41-.42Z"/>
      <polygon class="cls-1" points="164.53 49.13 166.94 48.71 166.94 48.71 164.53 49.13"/>
      <polygon class="cls-1" points="160.13 52.29 161.26 50.12 161.26 50.12 160.13 52.29"/>
      <path class="cls-1" d="M216.22,49.4l1.13-2.17c-.71-.37-1.55-.37-2.26,0l1.13,2.17Z"/>
      <polygon class="cls-1" points="210.65 52.29 211.78 54.47 211.78 54.47 210.65 52.29"/>
      <polygon class="cls-1" points="206.24 49.13 203.83 48.71 203.83 48.71 206.24 49.13"/>
      <path class="cls-1" d="M207.31,43l2.41.42c.14-.8-.13-1.62-.72-2.18l-1.7,1.76Z"/>
      <polygon class="cls-1" points="202.8 38.66 204.5 36.89 204.5 36.89 202.8 38.66"/>
      <polygon class="cls-1" points="204.48 33.54 204.13 31.12 204.13 31.12 204.48 33.54"/>
      <path class="cls-1" d="M210.71,32.65l.35,2.43c.8-.11,1.48-.61,1.84-1.33l-2.19-1.09Z"/>
      <polygon class="cls-1" points="213.5 27.07 211.31 25.97 211.31 25.97 213.5 27.07"/>
      <polygon class="cls-1" points="218.94 27.07 221.13 25.97 221.13 25.97 218.94 27.07"/>
      <path class="cls-1" d="M221.73,32.65l-2.19,1.09c.36.72,1.05,1.22,1.84,1.33l.35-2.43Z"/>
      <polygon class="cls-1" points="227.96 33.54 228.31 31.12 228.31 31.12 227.96 33.54"/>
      <polygon class="cls-1" points="229.64 38.66 227.94 36.89 227.94 36.89 229.64 38.66"/>
      <path class="cls-1" d="M225.13,43l-1.7-1.76c-.59.56-.85,1.38-.72,2.18l2.41-.42Z"/>
      <polygon class="cls-1" points="226.2 49.13 228.61 48.71 228.61 48.71 226.2 49.13"/>
      <polygon class="cls-1" points="221.79 52.29 222.92 50.12 222.92 50.12 221.79 52.29"/>
      <path class="cls-1" d="M185.39,26.45l1.17-2.15c-.73-.4-1.62-.4-2.35,0l1.18,2.15Z"/>
      <polygon class="cls-1" points="180.09 29.35 181.27 31.5 181.27 31.5 180.09 29.35"/>
      <polygon class="cls-1" points="175.91 26.19 173.49 25.79 173.49 25.79 175.91 26.19"/>
      <path class="cls-1" d="M176.92,20.05l2.42.4c.13-.77-.12-1.56-.67-2.12l-1.74,1.72Z"/>
      <polygon class="cls-1" points="172.64 15.71 174.38 13.99 174.38 13.99 172.64 15.71"/>
      <polygon class="cls-1" points="174.24 10.6 173.87 8.17 173.87 8.17 174.24 10.6"/>
      <path class="cls-1" d="M180.16,9.7l.37,2.42c.81-.12,1.5-.64,1.85-1.37l-2.21-1.05Z"/>
      <polygon class="cls-1" points="182.8 4.12 180.59 3.07 180.59 3.07 182.8 4.12"/>
      <polygon class="cls-1" points="187.97 4.12 190.19 3.07 190.19 3.07 187.97 4.12"/>
      <path class="cls-1" d="M190.62,9.7l-2.21,1.05c.35.74,1.04,1.25,1.85,1.37l.37-2.42Z"/>
      <polygon class="cls-1" points="196.54 10.6 196.91 8.17 196.91 8.17 196.54 10.6"/>
      <polygon class="cls-1" points="198.14 15.71 196.39 13.99 196.39 13.99 198.14 15.71"/>
      <path class="cls-1" d="M193.86,20.05l-1.74-1.72c-.55.56-.8,1.35-.67,2.12l2.42-.4Z"/>
      <polygon class="cls-1" points="194.87 26.19 197.28 25.79 197.28 25.79 194.87 26.19"/>
      <polygon class="cls-1" points="190.68 29.35 191.86 27.2 191.86 27.2 190.68 29.35"/>
      <path class="cls-1" d="M189.36,65.97c-1.35,0-2.45,1.1-2.45,2.45s1.1,2.45,2.45,2.45v-4.9Z"/>
      <polygon class="cls-1" points="195.97 63.87 193.64 64.64 193.64 64.64 195.97 63.87"/>
      <path class="cls-1" d="M190.05,56.66l-1.12-2.18c-.82.42-1.33,1.26-1.33,2.18,0,.92.51,1.76,1.32,2.18l1.13-2.18Z"/>
      <path class="cls-1" d="M180.73,56.66l1.13,2.18c.81-.42,1.32-1.26,1.32-2.18,0-.92-.51-1.76-1.33-2.18l-1.12,2.18Z"/>
      <polygon class="cls-1" points="174.81 63.87 172.48 63.1 172.48 63.1 174.81 63.87"/>
      <path class="cls-1" d="M181.42,70.87c1.35,0,2.45-1.1,2.45-2.45s-1.1-2.45-2.45-2.45v4.9Z"/>
      <path class="cls-1" d="M134.45,80.22c-.15-1.35-1.36-2.32-2.7-2.17-1.35.15-2.32,1.36-2.17,2.7l4.87-.53Z"/>
      <polygon class="cls-1" points="132.68 86.56 130.25 86.82 130.25 86.82 132.68 86.56"/>
      <polygon class="cls-1" points="138.35 96.01 136.97 98.04 136.97 98.04 138.35 96.01"/>
      <polygon class="cls-1" points="152.62 105.44 153.94 103.37 153.94 103.37 152.62 105.44"/>
      <polygon class="cls-1" points="155.6 112.08 158.02 112.46 158.02 112.46 155.6 112.08"/>
      <polygon class="cls-1" points="155.3 113.95 152.88 113.57 152.88 113.57 155.3 113.95"/>
      <path class="cls-1" d="M180.37,96.11h2.45s0-.09,0-.14l-2.45.14Z"/>
      <path class="cls-1" d="M172.17,76.48l-1.72,1.74s.02.02.03.03l1.69-1.77Z"/>
      <polygon class="cls-1" points="166.48 70.84 164.75 72.58 164.75 72.58 166.48 70.84"/>
      <polygon class="cls-1" points="156.56 70.34 154.98 68.47 154.98 68.47 156.56 70.34"/>
      <polygon class="cls-1" points="155.58 80.6 153.68 82.15 153.68 82.15 155.58 80.6"/>
      <path class="cls-1" d="M160.97,87.26l-.82,2.31c1.03.37,2.18,0,2.82-.9.63-.9.59-2.1-.1-2.96l-1.9,1.54Z"/>
      <path class="cls-1" d="M147.36,82.45l-2.42.41c.15.88.76,1.61,1.6,1.9l.82-2.31Z"/>
      <polygon class="cls-1" points="144.18 63.48 146.59 63.07 146.59 63.07 144.18 63.48"/>
      <polygon class="cls-1" points="130.21 63.99 127.78 64.26 127.78 64.26 130.21 63.99"/>
      <path class="cls-1" d="M128.68,72.51c.15,1.35,1.36,2.32,2.7,2.17,1.35-.15,2.32-1.36,2.17-2.7l-4.87.53Z"/>
      <path class="cls-1" d="M234.28,54.5c-4.83,0-9.3,3.81-10.1,8.58l4.83.81c.41-2.42,2.85-4.49,5.27-4.49v-4.9Z"/>
      <rect class="cls-1" x="215.39" y="70.52" width="19.24" height="4.9" transform="translate(115.77 282.77) rotate(-80.46)"/>
      <rect class="cls-1" x="209.39" y="82.41" width="14.43" height="4.9" transform="translate(-15.9 77.03) rotate(-19.47)"/>
      <rect class="cls-1" x="208.21" y="81.48" width="8.57" height="4.9" transform="translate(13.55 196.26) rotate(-51)"/>
      <path class="cls-1" d="M217.1,82.15c3.35-4.14,2.8-10.23-1.3-13.68l-3.16,3.75c2.04,1.73,2.33,4.78.65,6.85l3.81,3.08Z"/>
      <path class="cls-1" d="M215.8,68.47c-3.92-3.31-9.67-2.89-13.23.64l3.45,3.48c1.85-1.83,4.73-1.96,6.62-.37l3.16-3.75Z"/>
      <rect class="cls-1" x="197.45" y="71.21" width="8.01" height="4.9" transform="translate(6.52 163.16) rotate(-44.75)"/>
      <path class="cls-1" d="M196.92,74.71c-5.93,5.67-8.52,13.56-8.96,21.26l4.89.28c.39-6.87,2.68-13.43,7.45-18l-3.39-3.54Z"/>
      <rect class="cls-1" x="187.96" y="96.11" width="4.9" height="18.67"/>
      <path class="cls-1" d="M187.96,114.78c0,4.25,3.43,7.72,7.69,7.72v-4.9c-1.53,0-2.79-1.25-2.79-2.82h-4.9Z"/>
      <rect class="cls-1" x="195.64" y="117.6" width="14.66" height="4.9"/>
      <path class="cls-1" d="M210.3,122.5c4.74,0,8.33-4.26,7.59-8.93l-4.84.77c.27,1.73-1.05,3.26-2.75,3.26v4.9Z"/>
      <rect class="cls-1" x="212.87" y="112.07" width="4.9" height="1.9" transform="translate(-15.04 35.12) rotate(-9.01)"/>
      <path class="cls-1" d="M217.59,111.69c-.26-1.65.48-3.3,1.88-4.19l-2.63-4.13c-3.05,1.94-4.65,5.52-4.08,9.09l4.84-.77Z"/>
      <path class="cls-1" d="M219.47,107.5c5.4-3.43,10.66-6.97,14.33-9.47l-2.76-4.05c-3.65,2.49-8.87,5.99-14.21,9.38l2.63,4.13Z"/>
      <path class="cls-1" d="M233.8,98.04c3.77-2.57,6.23-6.67,6.73-11.22l-4.87-.53c-.34,3.13-2.03,5.94-4.61,7.7l2.76,4.05Z"/>
      <path class="cls-1" d="M240.53,86.82c.68-6.23,1.75-15.97,2.47-22.56l-4.87-.53c-.72,6.59-1.79,16.33-2.47,22.56l4.87.53Z"/>
      <path class="cls-1" d="M243,64.26c.58-5.31-3.36-9.76-8.71-9.76v4.9c2.4,0,4.11,1.89,3.84,4.33l4.87.53Z"/>
      <rect class="cls-1" x="148.63" y="48.4" width="6.28" height="4.9" transform="translate(-6.35 75.69) rotate(-27.45)"/>
      <path class="cls-1" d="M147.85,50.12c-.23.12-.45.09-.64-.04-.1-.07-.16-.15-.2-.23-.03-.07-.05-.16-.03-.29l-4.83-.84c-.78,4.51,3.98,7.82,7.95,5.75l-2.26-4.35Z"/>
      <rect class="cls-1" x="142" y="43.62" width="6.22" height="4.9" transform="translate(74.91 181.16) rotate(-80.15)"/>
      <rect class="cls-1" x="140.94" y="37.7" width="4.9" height="6.26" transform="translate(14.51 115.78) rotate(-46.08)"/>
      <path class="cls-1" d="M142.83,36.89c-.3-.29-.18-.85.33-.93l-.7-4.85c-4.47.64-6.33,6.13-3.03,9.31l3.4-3.53Z"/>
      <rect class="cls-1" x="142.78" y="30.64" width="6.29" height="4.9" transform="translate(-3.22 21.07) rotate(-8.17)"/>
      <rect class="cls-1" x="147.32" y="27.41" width="6.24" height="4.9" transform="translate(56.51 151.1) rotate(-63.46)"/>
      <path class="cls-1" d="M154.02,28.16c.1-.2.28-.32.53-.32s.43.11.53.32l4.38-2.19c-2.02-4.04-7.81-4.04-9.83,0l4.38,2.19Z"/>
      <rect class="cls-1" x="156.22" y="26.74" width="4.9" height="6.24" transform="translate(3.38 74.05) rotate(-26.54)"/>
      <rect class="cls-1" x="160.73" y="29.95" width="4.9" height="6.29" transform="translate(107.23 189.91) rotate(-81.83)"/>
      <path class="cls-1" d="M165.94,35.97c.51.07.63.64.33.93l3.4,3.53c3.3-3.18,1.43-8.66-3.03-9.31l-.7,4.85Z"/>
      <rect class="cls-1" x="162.59" y="38.38" width="6.26" height="4.9" transform="translate(18.03 126.38) rotate(-43.92)"/>
      <rect class="cls-1" x="161.55" y="42.95" width="4.9" height="6.22" transform="translate(-5.46 28.72) rotate(-9.85)"/>
      <path class="cls-1" d="M162.12,49.55c.02.13,0,.22-.03.29-.03.08-.1.16-.2.23-.19.14-.41.16-.64.04l-2.26,4.35c3.97,2.06,8.73-1.24,7.95-5.75l-4.83.84Z"/>
      <rect class="cls-1" x="154.89" y="47.71" width="4.9" height="6.28" transform="translate(39.69 167.03) rotate(-62.55)"/>
      <rect class="cls-1" x="210.29" y="48.4" width="6.28" height="4.9" transform="translate(.59 104.11) rotate(-27.45)"/>
      <path class="cls-1" d="M209.52,50.12c-.23.12-.45.09-.64-.04-.1-.07-.16-.15-.2-.23-.03-.07-.05-.16-.03-.29l-4.83-.84c-.78,4.51,3.98,7.82,7.95,5.75l-2.26-4.35Z"/>
      <rect class="cls-1" x="203.66" y="43.62" width="6.22" height="4.9" transform="translate(126.01 241.91) rotate(-80.15)"/>
      <rect class="cls-1" x="202.6" y="37.7" width="4.9" height="6.26" transform="translate(33.39 160.18) rotate(-46.07)"/>
      <path class="cls-1" d="M204.5,36.89c-.3-.29-.18-.85.33-.93l-.7-4.85c-4.47.64-6.33,6.13-3.03,9.31l3.4-3.53Z"/>
      <rect class="cls-1" x="204.45" y="30.64" width="6.3" height="4.9" transform="translate(-2.6 29.84) rotate(-8.17)"/>
      <rect class="cls-1" x="208.99" y="27.41" width="6.24" height="4.9" transform="translate(90.62 206.27) rotate(-63.46)"/>
      <path class="cls-1" d="M215.69,28.16c.1-.2.28-.32.53-.32s.43.11.53.32l4.38-2.19c-2.02-4.04-7.81-4.04-9.83,0l4.38,2.19Z"/>
      <rect class="cls-1" x="217.89" y="26.74" width="4.9" height="6.24" transform="translate(9.88 101.6) rotate(-26.54)"/>
      <rect class="cls-1" x="222.39" y="29.95" width="4.9" height="6.3" transform="translate(160.13 250.95) rotate(-81.83)"/>
      <path class="cls-1" d="M227.61,35.97c.51.07.63.64.33.93l3.4,3.53c3.3-3.18,1.43-8.66-3.03-9.31l-.7,4.85Z"/>
      <rect class="cls-1" x="224.26" y="38.38" width="6.26" height="4.9" transform="translate(35.3 169.18) rotate(-43.93)"/>
      <rect class="cls-1" x="223.22" y="42.95" width="4.9" height="6.22" transform="translate(-4.55 39.29) rotate(-9.85)"/>
      <path class="cls-1" d="M223.78,49.55c.02.13,0,.22-.03.29-.03.08-.1.16-.19.23-.19.14-.41.16-.64.04l-2.26,4.35c3.97,2.06,8.73-1.24,7.95-5.75l-4.83.84Z"/>
      <rect class="cls-1" x="216.56" y="47.71" width="4.9" height="6.28" transform="translate(72.93 221.76) rotate(-62.55)"/>
      <rect class="cls-1" x="179.72" y="25.45" width="6.03" height="4.9" transform="translate(9.02 91.1) rotate(-28.67)"/>
      <path class="cls-1" d="M178.92,27.2c-.1.05-.16.05-.19.05-.05,0-.12-.03-.19-.08-.15-.11-.25-.3-.21-.58l-4.84-.8c-.7,4.24,3.67,7.95,7.78,5.71l-2.35-4.3Z"/>
      <rect class="cls-1" x="173.31" y="20.67" width="6.21" height="4.9" transform="translate(124.9 193.42) rotate(-80.64)"/>
      <rect class="cls-1" x="172.33" y="14.83" width="4.9" height="6.1" transform="translate(37.8 127.9) rotate(-44.61)"/>
      <path class="cls-1" d="M174.38,13.99c-.15-.16-.21-.38-.14-.62.04-.12.1-.21.15-.26.05-.04.11-.08.2-.09l-.73-4.84c-4.47.68-6,6.19-2.98,9.26l3.49-3.44Z"/>
      <rect class="cls-1" x="174.2" y="7.7" width="5.99" height="4.9" transform="translate(.47 26.59) rotate(-8.59)"/>
      <rect class="cls-1" x="178.39" y="4.46" width="6.17" height="4.9" transform="translate(97.43 167.9) rotate(-64.61)"/>
      <path class="cls-1" d="M185.02,5.17c.06-.13.13-.19.18-.22.05-.03.12-.05.19-.05s.14.02.19.05c.05.03.11.09.18.22l4.43-2.1c-1.94-4.1-7.66-4.1-9.6,0l4.43,2.1Z"/>
      <rect class="cls-1" x="186.85" y="3.82" width="4.9" height="6.17" transform="translate(15.3 81.79) rotate(-25.37)"/>
      <rect class="cls-1" x="191.13" y="7.15" width="4.9" height="5.99" transform="translate(154.62 200.04) rotate(-81.41)"/>
      <path class="cls-1" d="M196.17,13.02c.09.01.15.05.2.09.06.05.12.14.16.26.08.25.02.47-.14.62l3.49,3.44c3.02-3.07,1.5-8.58-2.98-9.26l-.73,4.84Z"/>
      <rect class="cls-1" x="192.95" y="15.43" width="6.1" height="4.9" transform="translate(45.64 144.88) rotate(-45.4)"/>
      <rect class="cls-1" x="191.91" y="20.01" width="4.9" height="6.21" transform="translate(-1.17 31.93) rotate(-9.36)"/>
      <path class="cls-1" d="M192.45,26.58c.05.28-.06.47-.21.58-.08.06-.15.08-.19.08-.04,0-.1,0-.19-.05l-2.35,4.3c4.1,2.24,8.48-1.47,7.78-5.71l-4.83.8Z"/>
      <rect class="cls-1" x="185.59" y="24.88" width="4.9" height="6.03" transform="translate(73.35 179.5) rotate(-61.33)"/>
      <rect class="cls-1" x="189.36" y="65.97" width="3.35" height="4.9"/>
      <path class="cls-1" d="M192.71,70.87c4.01,0,6.85-3.96,5.59-7.77l-4.65,1.54c.22.67-.29,1.33-.94,1.33v4.9Z"/>
      <path class="cls-1" d="M198.3,63.1c-1.24-3.75-3.78-6.89-7.12-8.62l-2.25,4.35c2.09,1.08,3.84,3.14,4.72,5.8l4.65-1.54Z"/>
      <path class="cls-1" d="M191.17,58.84c4.15-2.13,6.99-6.49,6.99-11.51h-4.9c0,3.13-1.77,5.84-4.33,7.15l2.24,4.36Z"/>
      <path class="cls-1" d="M198.16,47.33c0-7.1-5.69-12.91-12.77-12.91v4.9c4.32,0,7.87,3.56,7.87,8.01h4.9Z"/>
      <path class="cls-1" d="M185.39,34.42c-7.08,0-12.77,5.81-12.77,12.91h4.9c0-4.46,3.56-8.01,7.87-8.01v-4.9Z"/>
      <path class="cls-1" d="M172.62,47.33c0,5.02,2.84,9.38,6.99,11.51l2.24-4.36c-2.56-1.32-4.33-4.02-4.33-7.15h-4.9Z"/>
      <path class="cls-1" d="M179.6,54.49c-3.34,1.73-5.88,4.87-7.12,8.62l4.65,1.54c.88-2.66,2.62-4.72,4.72-5.8l-2.25-4.35Z"/>
      <path class="cls-1" d="M172.48,63.1c-1.26,3.81,1.57,7.77,5.59,7.77v-4.9c-.65,0-1.16-.66-.94-1.33l-4.65-1.54Z"/>
      <rect class="cls-1" x="178.07" y="65.97" width="3.35" height="4.9"/>
      <rect class="cls-1" x="129.9" y="80.47" width="4.9" height="6.1" transform="translate(-8.29 14.88) rotate(-6.24)"/>
      <path class="cls-1" d="M130.25,86.82c.5,4.55,2.95,8.65,6.72,11.22l2.76-4.05c-2.58-1.76-4.27-4.57-4.61-7.7l-4.87.53Z"/>
      <path class="cls-1" d="M136.97,98.04c3.67,2.5,8.94,6.03,14.34,9.47l2.63-4.13c-5.34-3.4-10.56-6.9-14.21-9.38l-2.76,4.05Z"/>
      <path class="cls-1" d="M151.31,107.5c1.4.89,2.14,2.53,1.88,4.19l4.84.77c.57-3.57-1.03-7.15-4.08-9.09l-2.63,4.13Z"/>
      <rect class="cls-1" x="154.5" y="110.57" width="1.9" height="4.9" transform="translate(19.42 248.78) rotate(-80.96)"/>
      <path class="cls-1" d="M152.88,113.57c-.74,4.67,2.85,8.93,7.59,8.93v-4.9c-1.7,0-3.03-1.54-2.75-3.26l-4.84-.77Z"/>
      <rect class="cls-1" x="160.47" y="117.6" width="14.66" height="4.9"/>
      <path class="cls-1" d="M175.13,122.5c4.26,0,7.69-3.47,7.69-7.72h-4.9c0,1.57-1.26,2.82-2.79,2.82v4.9Z"/>
      <rect class="cls-1" x="177.92" y="96.11" width="4.9" height="18.67"/>
      <path class="cls-1" d="M182.81,95.97c-.43-7.7-3.03-15.59-8.95-21.26l-3.39,3.54c4.77,4.56,7.06,11.13,7.45,18l4.89-.28Z"/>
      <rect class="cls-1" x="166.87" y="69.66" width="4.9" height="8.01" transform="translate(-2.19 142.07) rotate(-45.26)"/>
      <path class="cls-1" d="M168.2,69.1c-3.55-3.52-9.3-3.95-13.22-.64l3.16,3.75c1.89-1.59,4.77-1.46,6.62.37l3.45-3.48Z"/>
      <path class="cls-1" d="M154.98,68.47c-4.09,3.45-4.65,9.54-1.3,13.68l3.81-3.08c-1.68-2.07-1.4-5.12.65-6.85l-3.16-3.75Z"/>
      <rect class="cls-1" x="155.83" y="79.65" width="4.9" height="8.57" transform="translate(-17.55 118.31) rotate(-39)"/>
      <rect class="cls-1" x="151.72" y="77.64" width="4.9" height="14.43" transform="translate(22.79 201.93) rotate(-70.53)"/>
      <rect class="cls-1" x="143.32" y="63.35" width="4.9" height="19.24" transform="translate(-10.07 25.15) rotate(-9.53)"/>
      <path class="cls-1" d="M146.59,63.07c-.8-4.76-5.27-8.58-10.1-8.58v4.9c2.42,0,4.86,2.07,5.27,4.49l4.83-.81Z"/>
      <path class="cls-1" d="M136.49,54.5c-5.35,0-9.29,4.45-8.71,9.76l4.87-.53c-.27-2.44,1.44-4.33,3.84-4.33v-4.9Z"/>
      <rect class="cls-1" x="128.22" y="63.97" width="4.9" height="8.3" transform="translate(-6.63 14.61) rotate(-6.24)"/>
    </g>
  </g>
</svg>