<?xml version="1.0" encoding="UTF-8"?>
<svg id="Camada_2" data-name="Camada 2" xmlns="http://www.w3.org/2000/svg" viewBox="0 0 734.3 359.61">
  <defs>
    <style>
      .cls-1, .cls-2 {
        fill: #4f903d;
        stroke-width: 0px;
      }

      .cls-2 {
        fill-rule: evenodd;
      }
    </style>
  </defs>
  <g id="Camada_1-2" data-name="Camada 1">
    <path class="cls-2" d="M0,70.21h82.7c1.4,0,2.6,1.2,2.6,2.6s-1.2,2.6-2.6,2.6H5.2v279h723.9V75.41h-437.2c-1.4,0-2.6-1.2-2.6-2.6s1.2-2.6,2.6-2.6h442.4v289.4H0V70.21Z"/>
    <g>
      <polygon class="cls-1" points="229.7 63.48 227.28 63.07 227.28 63.07 229.7 63.48"/>
      <path class="cls-1" d="M226.51,82.45l.82,2.31c.84-.3,1.45-1.03,1.6-1.9l-2.42-.41Z"/>
      <path class="cls-1" d="M212.9,87.26l-1.9-1.54c-.69.85-.73,2.06-.1,2.96.63.9,1.78,1.26,2.82.9l-.82-2.31Z"/>
      <polygon class="cls-1" points="218.29 80.6 220.19 82.15 220.19 82.15 218.29 80.6"/>
      <polygon class="cls-1" points="217.32 70.34 215.74 72.21 215.74 72.21 217.32 70.34"/>
      <polygon class="cls-1" points="207.4 70.84 209.12 72.58 209.12 72.58 207.4 70.84"/>
      <path class="cls-1" d="M201.71,76.48l1.69,1.77s.02-.02.03-.03l-1.72-1.74Z"/>
      <path class="cls-1" d="M193.51,96.11l-2.45-.14s0,.09,0,.14h2.45Z"/>
      <polygon class="cls-1" points="218.57 113.95 216.15 114.34 216.15 114.34 218.57 113.95"/>
      <polygon class="cls-1" points="218.27 112.08 215.85 112.46 215.85 112.46 218.27 112.08"/>
      <polygon class="cls-1" points="221.25 105.44 219.94 103.37 219.94 103.37 221.25 105.44"/>
      <polygon class="cls-1" points="235.52 96.01 236.9 98.04 236.9 98.04 235.52 96.01"/>
      <polygon class="cls-1" points="241.19 86.56 238.76 86.29 238.76 86.29 241.19 86.56"/>
      <polygon class="cls-1" points="243.66 63.99 241.22 63.73 241.22 63.73 243.66 63.99"/>
      <path class="cls-1" d="M157.65,49.4l1.13-2.17c-.71-.37-1.55-.37-2.26,0l1.13,2.17Z"/>
      <polygon class="cls-1" points="152.08 52.29 153.21 54.47 153.21 54.47 152.08 52.29"/>
      <polygon class="cls-1" points="147.68 49.13 145.26 48.71 145.26 48.71 147.68 49.13"/>
      <path class="cls-1" d="M148.74,43l2.41.42c.14-.8-.13-1.62-.71-2.18l-1.7,1.76Z"/>
      <polygon class="cls-1" points="144.23 38.66 145.93 36.89 145.93 36.89 144.23 38.66"/>
      <polygon class="cls-1" points="145.91 33.54 145.56 31.12 145.56 31.12 145.91 33.54"/>
      <path class="cls-1" d="M152.14,32.65l.35,2.43c.8-.11,1.48-.61,1.84-1.33l-2.19-1.09Z"/>
      <polygon class="cls-1" points="154.93 27.07 152.74 25.97 152.74 25.97 154.93 27.07"/>
      <polygon class="cls-1" points="160.37 27.07 162.57 25.97 162.57 25.97 160.37 27.07"/>
      <path class="cls-1" d="M163.16,32.65l-2.19,1.09c.36.72,1.05,1.22,1.84,1.33l.35-2.43Z"/>
      <polygon class="cls-1" points="169.39 33.54 169.74 31.12 169.74 31.12 169.39 33.54"/>
      <polygon class="cls-1" points="171.07 38.66 169.37 36.89 169.37 36.89 171.07 38.66"/>
      <path class="cls-1" d="M166.57,43l-1.7-1.76c-.59.56-.85,1.38-.71,2.18l2.41-.42Z"/>
      <polygon class="cls-1" points="167.63 49.13 170.04 48.71 170.04 48.71 167.63 49.13"/>
      <polygon class="cls-1" points="163.23 52.29 164.35 50.12 164.35 50.12 163.23 52.29"/>
      <path class="cls-1" d="M219.32,49.4l1.13-2.17c-.71-.37-1.55-.37-2.26,0l1.13,2.17Z"/>
      <polygon class="cls-1" points="213.75 52.29 214.88 54.47 214.88 54.47 213.75 52.29"/>
      <polygon class="cls-1" points="209.34 49.13 206.93 48.71 206.93 48.71 209.34 49.13"/>
      <path class="cls-1" d="M210.41,43l2.41.42c.14-.8-.13-1.62-.72-2.18l-1.7,1.76Z"/>
      <polygon class="cls-1" points="205.9 38.66 207.6 36.89 207.6 36.89 205.9 38.66"/>
      <polygon class="cls-1" points="207.58 33.54 207.23 31.12 207.23 31.12 207.58 33.54"/>
      <path class="cls-1" d="M213.81,32.65l.35,2.43c.8-.11,1.48-.61,1.84-1.33l-2.19-1.09Z"/>
      <polygon class="cls-1" points="216.6 27.07 214.41 25.97 214.41 25.97 216.6 27.07"/>
      <polygon class="cls-1" points="222.04 27.07 224.23 25.97 224.23 25.97 222.04 27.07"/>
      <path class="cls-1" d="M224.83,32.65l-2.19,1.09c.36.72,1.05,1.22,1.84,1.33l.35-2.43Z"/>
      <polygon class="cls-1" points="231.06 33.54 231.41 31.12 231.41 31.12 231.06 33.54"/>
      <polygon class="cls-1" points="232.74 38.66 231.04 36.89 231.04 36.89 232.74 38.66"/>
      <path class="cls-1" d="M228.23,43l-1.7-1.76c-.59.56-.85,1.38-.72,2.18l2.41-.42Z"/>
      <polygon class="cls-1" points="229.3 49.13 231.71 48.71 231.71 48.71 229.3 49.13"/>
      <polygon class="cls-1" points="224.89 52.29 226.02 50.12 226.02 50.12 224.89 52.29"/>
      <path class="cls-1" d="M188.49,26.45l1.17-2.15c-.73-.4-1.62-.4-2.35,0l1.18,2.15Z"/>
      <polygon class="cls-1" points="183.19 29.35 184.37 31.5 184.37 31.5 183.19 29.35"/>
      <polygon class="cls-1" points="179.01 26.19 176.59 25.79 176.59 25.79 179.01 26.19"/>
      <path class="cls-1" d="M180.02,20.05l2.42.4c.13-.77-.12-1.56-.67-2.12l-1.74,1.72Z"/>
      <polygon class="cls-1" points="175.74 15.71 177.48 13.99 177.48 13.99 175.74 15.71"/>
      <polygon class="cls-1" points="177.34 10.6 176.97 8.17 176.97 8.17 177.34 10.6"/>
      <path class="cls-1" d="M183.26,9.7l.37,2.42c.81-.12,1.5-.64,1.85-1.37l-2.21-1.05Z"/>
      <polygon class="cls-1" points="185.9 4.12 183.69 3.07 183.69 3.07 185.9 4.12"/>
      <polygon class="cls-1" points="191.07 4.12 193.29 3.07 193.29 3.07 191.07 4.12"/>
      <path class="cls-1" d="M193.72,9.7l-2.21,1.05c.35.74,1.04,1.25,1.85,1.37l.37-2.42Z"/>
      <polygon class="cls-1" points="199.64 10.6 200.01 8.17 200.01 8.17 199.64 10.6"/>
      <polygon class="cls-1" points="201.24 15.71 199.49 13.99 199.49 13.99 201.24 15.71"/>
      <path class="cls-1" d="M196.96,20.05l-1.74-1.72c-.55.56-.8,1.35-.67,2.12l2.42-.4Z"/>
      <polygon class="cls-1" points="197.97 26.19 200.38 25.79 200.38 25.79 197.97 26.19"/>
      <polygon class="cls-1" points="193.78 29.35 194.96 27.2 194.96 27.2 193.78 29.35"/>
      <path class="cls-1" d="M192.46,65.97c-1.35,0-2.45,1.1-2.45,2.45s1.1,2.45,2.45,2.45v-4.9Z"/>
      <polygon class="cls-1" points="199.07 63.87 196.74 64.64 196.74 64.64 199.07 63.87"/>
      <path class="cls-1" d="M193.15,56.66l-1.12-2.18c-.82.42-1.33,1.26-1.33,2.18,0,.92.51,1.76,1.32,2.18l1.13-2.18Z"/>
      <path class="cls-1" d="M183.83,56.66l1.13,2.18c.81-.42,1.32-1.26,1.32-2.18,0-.92-.51-1.76-1.33-2.18l-1.12,2.18Z"/>
      <polygon class="cls-1" points="177.91 63.87 175.58 63.1 175.58 63.1 177.91 63.87"/>
      <path class="cls-1" d="M184.52,70.87c1.35,0,2.45-1.1,2.45-2.45s-1.1-2.45-2.45-2.45v4.9Z"/>
      <path class="cls-1" d="M137.55,80.22c-.15-1.35-1.36-2.32-2.7-2.17-1.35.15-2.32,1.36-2.17,2.7l4.87-.53Z"/>
      <polygon class="cls-1" points="135.78 86.56 133.35 86.82 133.35 86.82 135.78 86.56"/>
      <polygon class="cls-1" points="141.45 96.01 140.07 98.04 140.07 98.04 141.45 96.01"/>
      <polygon class="cls-1" points="155.72 105.44 157.04 103.37 157.04 103.37 155.72 105.44"/>
      <polygon class="cls-1" points="158.7 112.08 161.12 112.46 161.12 112.46 158.7 112.08"/>
      <polygon class="cls-1" points="158.4 113.95 155.98 113.57 155.98 113.57 158.4 113.95"/>
      <path class="cls-1" d="M183.47,96.11h2.45s0-.09,0-.14l-2.45.14Z"/>
      <path class="cls-1" d="M175.27,76.48l-1.72,1.74s.02.02.03.03l1.69-1.77Z"/>
      <polygon class="cls-1" points="169.58 70.84 167.85 72.58 167.85 72.58 169.58 70.84"/>
      <polygon class="cls-1" points="159.66 70.34 158.08 68.47 158.08 68.47 159.66 70.34"/>
      <polygon class="cls-1" points="158.68 80.6 156.78 82.15 156.78 82.15 158.68 80.6"/>
      <path class="cls-1" d="M164.07,87.26l-.82,2.31c1.03.37,2.18,0,2.82-.9.63-.9.59-2.1-.1-2.96l-1.9,1.54Z"/>
      <path class="cls-1" d="M150.46,82.45l-2.42.41c.15.88.76,1.61,1.6,1.9l.82-2.31Z"/>
      <polygon class="cls-1" points="147.28 63.48 149.69 63.07 149.69 63.07 147.28 63.48"/>
      <polygon class="cls-1" points="133.31 63.99 130.88 64.26 130.88 64.26 133.31 63.99"/>
      <path class="cls-1" d="M131.78,72.51c.15,1.35,1.36,2.32,2.7,2.17,1.35-.15,2.32-1.36,2.17-2.7l-4.87.53Z"/>
      <path class="cls-1" d="M237.38,54.5c-4.83,0-9.3,3.81-10.1,8.58l4.83.81c.41-2.42,2.85-4.49,5.27-4.49v-4.9Z"/>
      <rect class="cls-1" x="218.48" y="70.52" width="19.24" height="4.9" transform="translate(118.36 285.83) rotate(-80.46)"/>
      <rect class="cls-1" x="212.49" y="82.41" width="14.43" height="4.9" transform="translate(-15.72 78.07) rotate(-19.47)"/>
      <rect class="cls-1" x="211.31" y="81.48" width="8.57" height="4.9" transform="translate(14.7 198.67) rotate(-51)"/>
      <path class="cls-1" d="M220.19,82.15c3.35-4.14,2.8-10.23-1.3-13.68l-3.16,3.75c2.04,1.73,2.33,4.78.65,6.85l3.81,3.08Z"/>
      <path class="cls-1" d="M218.9,68.47c-3.92-3.31-9.67-2.89-13.23.64l3.45,3.48c1.85-1.83,4.73-1.96,6.62-.37l3.16-3.75Z"/>
      <rect class="cls-1" x="200.55" y="71.21" width="8.01" height="4.9" transform="translate(7.42 165.34) rotate(-44.75)"/>
      <path class="cls-1" d="M200.02,74.71c-5.93,5.67-8.52,13.56-8.96,21.26l4.89.28c.39-6.87,2.68-13.43,7.45-18l-3.39-3.54Z"/>
      <rect class="cls-1" x="191.06" y="96.11" width="4.9" height="18.67"/>
      <path class="cls-1" d="M191.06,114.78c0,4.25,3.43,7.72,7.69,7.72v-4.9c-1.53,0-2.79-1.25-2.79-2.82h-4.9Z"/>
      <rect class="cls-1" x="198.74" y="117.6" width="14.66" height="4.9"/>
      <path class="cls-1" d="M213.4,122.5c4.74,0,8.33-4.26,7.59-8.93l-4.84.77c.27,1.73-1.05,3.26-2.75,3.26v4.9Z"/>
      <rect class="cls-1" x="215.97" y="112.07" width="4.9" height="1.9" transform="translate(-15 35.6) rotate(-9.01)"/>
      <path class="cls-1" d="M220.69,111.69c-.26-1.65.48-3.3,1.88-4.19l-2.63-4.13c-3.05,1.94-4.65,5.52-4.08,9.09l4.84-.77Z"/>
      <path class="cls-1" d="M222.57,107.5c5.4-3.43,10.66-6.97,14.33-9.47l-2.76-4.05c-3.65,2.49-8.87,5.99-14.21,9.38l2.63,4.13Z"/>
      <path class="cls-1" d="M236.9,98.04c3.77-2.57,6.23-6.67,6.73-11.22l-4.87-.53c-.34,3.13-2.03,5.94-4.61,7.7l2.76,4.05Z"/>
      <path class="cls-1" d="M243.63,86.82c.68-6.23,1.75-15.97,2.47-22.56l-4.87-.53c-.72,6.59-1.79,16.33-2.47,22.56l4.87.53Z"/>
      <path class="cls-1" d="M246.09,64.26c.58-5.31-3.36-9.76-8.71-9.76v4.9c2.4,0,4.11,1.89,3.84,4.33l4.87.53Z"/>
      <rect class="cls-1" x="151.73" y="48.4" width="6.28" height="4.9" transform="translate(-6 77.11) rotate(-27.45)"/>
      <path class="cls-1" d="M150.95,50.12c-.23.12-.45.09-.64-.04-.1-.07-.16-.15-.2-.23-.03-.07-.05-.16-.03-.29l-4.83-.84c-.78,4.51,3.98,7.82,7.95,5.75l-2.26-4.35Z"/>
      <rect class="cls-1" x="145.1" y="43.62" width="6.22" height="4.9" transform="translate(77.47 184.21) rotate(-80.15)"/>
      <rect class="cls-1" x="144.03" y="37.7" width="4.9" height="6.26" transform="translate(15.46 118.01) rotate(-46.08)"/>
      <path class="cls-1" d="M145.93,36.89c-.3-.29-.18-.85.33-.93l-.7-4.85c-4.47.64-6.33,6.13-3.03,9.31l3.4-3.53Z"/>
      <rect class="cls-1" x="145.88" y="30.64" width="6.29" height="4.9" transform="translate(-3.19 21.51) rotate(-8.17)"/>
      <rect class="cls-1" x="150.42" y="27.41" width="6.24" height="4.9" transform="translate(58.22 153.87) rotate(-63.46)"/>
      <path class="cls-1" d="M157.12,28.16c.1-.2.28-.32.53-.32s.43.11.53.32l4.38-2.19c-2.02-4.04-7.81-4.04-9.83,0l4.38,2.19Z"/>
      <rect class="cls-1" x="159.32" y="26.74" width="4.9" height="6.24" transform="translate(3.71 75.43) rotate(-26.54)"/>
      <rect class="cls-1" x="163.83" y="29.95" width="4.9" height="6.29" transform="translate(109.89 192.98) rotate(-81.83)"/>
      <path class="cls-1" d="M169.04,35.97c.51.07.63.64.33.93l3.4,3.53c3.3-3.18,1.43-8.66-3.03-9.31l-.7,4.85Z"/>
      <rect class="cls-1" x="165.69" y="38.38" width="6.26" height="4.9" transform="translate(18.9 128.53) rotate(-43.92)"/>
      <rect class="cls-1" x="164.65" y="42.95" width="4.9" height="6.22" transform="translate(-5.42 29.25) rotate(-9.85)"/>
      <path class="cls-1" d="M165.22,49.55c.02.13,0,.22-.03.29-.03.08-.1.16-.2.23-.19.14-.41.16-.64.04l-2.26,4.35c3.97,2.06,8.73-1.24,7.95-5.75l-4.83.84Z"/>
      <rect class="cls-1" x="157.99" y="47.71" width="4.9" height="6.28" transform="translate(41.36 169.78) rotate(-62.55)"/>
      <rect class="cls-1" x="213.39" y="48.4" width="6.28" height="4.9" transform="translate(.94 105.54) rotate(-27.45)"/>
      <path class="cls-1" d="M212.62,50.12c-.23.12-.45.09-.64-.04-.1-.07-.16-.15-.2-.23-.03-.07-.05-.16-.03-.29l-4.83-.84c-.78,4.51,3.98,7.82,7.95,5.75l-2.26-4.35Z"/>
      <rect class="cls-1" x="206.76" y="43.62" width="6.22" height="4.9" transform="translate(128.58 244.96) rotate(-80.15)"/>
      <rect class="cls-1" x="205.7" y="37.7" width="4.9" height="6.26" transform="translate(34.34 162.42) rotate(-46.07)"/>
      <path class="cls-1" d="M207.6,36.89c-.3-.29-.18-.85.33-.93l-.7-4.85c-4.47.64-6.33,6.13-3.03,9.31l3.4-3.53Z"/>
      <rect class="cls-1" x="207.55" y="30.64" width="6.3" height="4.9" transform="translate(-2.56 30.28) rotate(-8.17)"/>
      <rect class="cls-1" x="212.09" y="27.41" width="6.24" height="4.9" transform="translate(92.33 209.04) rotate(-63.46)"/>
      <path class="cls-1" d="M218.79,28.16c.1-.2.28-.32.53-.32s.43.11.53.32l4.38-2.19c-2.02-4.04-7.81-4.04-9.83,0l4.38,2.19Z"/>
      <rect class="cls-1" x="220.99" y="26.74" width="4.9" height="6.24" transform="translate(10.2 102.99) rotate(-26.54)"/>
      <rect class="cls-1" x="225.49" y="29.95" width="4.9" height="6.3" transform="translate(162.79 254.02) rotate(-81.83)"/>
      <path class="cls-1" d="M230.71,35.97c.51.07.63.64.33.93l3.4,3.53c3.3-3.18,1.43-8.66-3.03-9.31l-.7,4.85Z"/>
      <rect class="cls-1" x="227.36" y="38.38" width="6.26" height="4.9" transform="translate(36.16 171.33) rotate(-43.93)"/>
      <rect class="cls-1" x="226.31" y="42.95" width="4.9" height="6.22" transform="translate(-4.51 39.82) rotate(-9.85)"/>
      <path class="cls-1" d="M226.88,49.55c.02.13,0,.22-.03.29-.03.08-.1.16-.19.23-.19.14-.41.16-.64.04l-2.26,4.35c3.97,2.06,8.73-1.24,7.95-5.75l-4.83.84Z"/>
      <rect class="cls-1" x="219.66" y="47.71" width="4.9" height="6.28" transform="translate(74.6 224.51) rotate(-62.55)"/>
      <rect class="cls-1" x="182.82" y="25.45" width="6.03" height="4.9" transform="translate(9.4 92.59) rotate(-28.67)"/>
      <path class="cls-1" d="M182.02,27.2c-.1.05-.16.05-.19.05-.05,0-.12-.03-.19-.08-.15-.11-.25-.3-.21-.58l-4.84-.8c-.7,4.24,3.67,7.95,7.78,5.71l-2.35-4.3Z"/>
      <rect class="cls-1" x="176.41" y="20.67" width="6.21" height="4.9" transform="translate(127.5 196.48) rotate(-80.64)"/>
      <rect class="cls-1" x="175.43" y="14.83" width="4.9" height="6.1" transform="translate(38.69 130.08) rotate(-44.61)"/>
      <path class="cls-1" d="M177.48,13.99c-.15-.16-.21-.38-.14-.62.04-.12.1-.21.15-.26.05-.04.11-.08.2-.09l-.73-4.84c-4.47.68-6,6.19-2.98,9.26l3.49-3.44Z"/>
      <rect class="cls-1" x="177.3" y="7.7" width="5.99" height="4.9" transform="translate(.51 27.06) rotate(-8.59)"/>
      <rect class="cls-1" x="181.49" y="4.46" width="6.17" height="4.9" transform="translate(99.2 170.7) rotate(-64.61)"/>
      <path class="cls-1" d="M188.12,5.17c.06-.13.13-.19.18-.22.05-.03.12-.05.19-.05s.14.02.19.05c.05.03.11.09.18.22l4.43-2.1c-1.94-4.1-7.66-4.1-9.6,0l4.43,2.1Z"/>
      <rect class="cls-1" x="189.95" y="3.82" width="4.9" height="6.17" transform="translate(15.6 83.11) rotate(-25.37)"/>
      <rect class="cls-1" x="194.23" y="7.15" width="4.9" height="5.99" transform="translate(157.26 203.1) rotate(-81.41)"/>
      <path class="cls-1" d="M199.27,13.02c.09.01.15.05.2.09.06.05.12.14.16.26.08.25.02.47-.14.62l3.49,3.44c3.02-3.07,1.5-8.58-2.98-9.26l-.73,4.84Z"/>
      <rect class="cls-1" x="196.05" y="15.43" width="6.1" height="4.9" transform="translate(46.56 147.08) rotate(-45.4)"/>
      <rect class="cls-1" x="195.01" y="20.01" width="4.9" height="6.21" transform="translate(-1.13 32.43) rotate(-9.36)"/>
      <path class="cls-1" d="M195.55,26.58c.05.28-.06.47-.21.58-.08.06-.15.08-.19.08-.04,0-.1,0-.19-.05l-2.35,4.3c4.1,2.24,8.48-1.47,7.78-5.71l-4.83.8Z"/>
      <rect class="cls-1" x="188.69" y="24.88" width="4.9" height="6.03" transform="translate(74.96 182.22) rotate(-61.33)"/>
      <rect class="cls-1" x="192.46" y="65.97" width="3.35" height="4.9"/>
      <path class="cls-1" d="M195.81,70.87c4.01,0,6.85-3.96,5.59-7.77l-4.65,1.54c.22.67-.29,1.33-.94,1.33v4.9Z"/>
      <path class="cls-1" d="M201.4,63.1c-1.24-3.75-3.78-6.89-7.12-8.62l-2.25,4.35c2.09,1.08,3.84,3.14,4.72,5.8l4.65-1.54Z"/>
      <path class="cls-1" d="M194.27,58.84c4.15-2.13,6.99-6.49,6.99-11.51h-4.9c0,3.13-1.77,5.84-4.33,7.15l2.24,4.36Z"/>
      <path class="cls-1" d="M201.26,47.33c0-7.1-5.69-12.91-12.77-12.91v4.9c4.32,0,7.87,3.56,7.87,8.01h4.9Z"/>
      <path class="cls-1" d="M188.49,34.42c-7.08,0-12.77,5.81-12.77,12.91h4.9c0-4.46,3.56-8.01,7.87-8.01v-4.9Z"/>
      <path class="cls-1" d="M175.72,47.33c0,5.02,2.84,9.38,6.99,11.51l2.24-4.36c-2.56-1.32-4.33-4.02-4.33-7.15h-4.9Z"/>
      <path class="cls-1" d="M182.7,54.49c-3.34,1.73-5.88,4.87-7.12,8.62l4.65,1.54c.88-2.66,2.62-4.72,4.72-5.8l-2.25-4.35Z"/>
      <path class="cls-1" d="M175.58,63.1c-1.26,3.81,1.57,7.77,5.59,7.77v-4.9c-.65,0-1.16-.66-.94-1.33l-4.65-1.54Z"/>
      <rect class="cls-1" x="181.17" y="65.97" width="3.35" height="4.9"/>
      <rect class="cls-1" x="133" y="80.47" width="4.9" height="6.1" transform="translate(-8.28 15.22) rotate(-6.24)"/>
      <path class="cls-1" d="M133.35,86.82c.5,4.55,2.95,8.65,6.72,11.22l2.76-4.05c-2.58-1.76-4.27-4.57-4.61-7.7l-4.87.53Z"/>
      <path class="cls-1" d="M140.07,98.04c3.67,2.5,8.94,6.03,14.34,9.47l2.63-4.13c-5.34-3.4-10.56-6.9-14.21-9.38l-2.76,4.05Z"/>
      <path class="cls-1" d="M154.41,107.5c1.4.89,2.14,2.53,1.88,4.19l4.84.77c.57-3.57-1.03-7.15-4.08-9.09l-2.63,4.13Z"/>
      <rect class="cls-1" x="157.6" y="110.57" width="1.9" height="4.9" transform="translate(22.03 251.84) rotate(-80.96)"/>
      <path class="cls-1" d="M155.98,113.57c-.74,4.67,2.85,8.93,7.59,8.93v-4.9c-1.7,0-3.03-1.54-2.75-3.26l-4.84-.77Z"/>
      <rect class="cls-1" x="163.57" y="117.6" width="14.66" height="4.9"/>
      <path class="cls-1" d="M178.23,122.5c4.26,0,7.69-3.47,7.69-7.72h-4.9c0,1.57-1.26,2.82-2.79,2.82v4.9Z"/>
      <rect class="cls-1" x="181.02" y="96.11" width="4.9" height="18.67"/>
      <path class="cls-1" d="M185.91,95.97c-.43-7.7-3.03-15.59-8.95-21.26l-3.39,3.54c4.77,4.56,7.06,11.13,7.45,18l4.89-.28Z"/>
      <rect class="cls-1" x="169.97" y="69.66" width="4.9" height="8.01" transform="translate(-1.27 144.27) rotate(-45.26)"/>
      <path class="cls-1" d="M171.3,69.1c-3.55-3.52-9.3-3.95-13.22-.64l3.16,3.75c1.89-1.59,4.77-1.46,6.62.37l3.45-3.48Z"/>
      <path class="cls-1" d="M158.08,68.47c-4.09,3.45-4.65,9.54-1.3,13.68l3.81-3.08c-1.68-2.07-1.4-5.12.65-6.85l-3.16-3.75Z"/>
      <rect class="cls-1" x="158.93" y="79.65" width="4.9" height="8.57" transform="translate(-16.86 120.26) rotate(-39)"/>
      <rect class="cls-1" x="154.82" y="77.64" width="4.9" height="14.43" transform="translate(24.85 204.86) rotate(-70.53)"/>
      <rect class="cls-1" x="146.42" y="63.35" width="4.9" height="19.24" transform="translate(-10.03 25.67) rotate(-9.53)"/>
      <path class="cls-1" d="M149.69,63.07c-.8-4.76-5.27-8.58-10.1-8.58v4.9c2.42,0,4.86,2.07,5.27,4.49l4.83-.81Z"/>
      <path class="cls-1" d="M139.59,54.5c-5.35,0-9.29,4.45-8.71,9.76l4.87-.53c-.27-2.44,1.44-4.33,3.84-4.33v-4.9Z"/>
      <rect class="cls-1" x="131.32" y="63.97" width="4.9" height="8.3" transform="translate(-6.61 14.94) rotate(-6.24)"/>
    </g>
  </g>
</svg>