 <svg class="icone-valuesabout" width="100%" height="100%" viewBox="0 0 413 246" fill="none" xmlns="http://www.w3.org/2000/svg">
                        <path d="M132.035 39.3651L130.556 39.1167L130.556 39.1167L132.035 39.3651ZM130.084 50.98L130.584 52.3942C131.098 52.2125 131.473 51.7662 131.564 51.2284L130.084 50.98ZM121.752 53.9249L120.587 52.9809C120.164 53.5028 120.14 54.2418 120.527 54.7903C120.915 55.3387 121.619 55.5629 122.252 55.3392L121.752 53.9249ZM125.053 49.8494L126.218 50.7933L126.218 50.7933L125.053 49.8494ZM124.457 43.5653L123.49 44.7119L123.49 44.7119L124.457 43.5653ZM118.383 43.8742L119.439 44.9396L119.439 44.9396L118.383 43.8742ZM114.9 47.3266L115.936 48.4106C115.943 48.4044 115.949 48.3982 115.956 48.392L114.9 47.3266ZM109.878 59.3437L108.38 59.2592C108.379 59.2873 108.378 59.3155 108.378 59.3437H109.878ZM125.223 70.267L123.742 70.5028L123.742 70.5028L125.223 70.267ZM125.04 69.1193L123.559 69.355L123.559 69.355L125.04 69.1193ZM126.865 65.0539L126.06 63.7885L126.06 63.7885L126.865 65.0539ZM135.603 59.2832L136.447 60.523L136.447 60.523L135.603 59.2832ZM139.073 53.4935L137.582 53.3304L137.582 53.3304L139.073 53.4935ZM140.584 39.6788L139.093 39.5156L139.093 39.5157L140.584 39.6788ZM87.9265 30.7446L88.618 29.4135C88.1845 29.1883 87.6685 29.1883 87.235 29.4135L87.9265 30.7446ZM84.5145 32.517L85.2059 33.8482L85.206 33.8481L84.5145 32.517ZM81.8181 30.5813L80.3402 30.3248L80.3402 30.3248L81.8181 30.5813ZM82.4697 26.827L83.9476 27.0835C84.0328 26.5929 83.8689 26.0921 83.5103 25.7466L82.4697 26.827ZM79.7093 24.1683L80.7499 23.0879L80.7499 23.0879L79.7093 24.1683ZM80.7393 21.0361L80.5261 19.5513L80.5261 19.5513L80.7393 21.0361ZM84.5541 20.4884L84.7673 21.9732C85.2543 21.9032 85.6761 21.5989 85.896 21.1586L84.5541 20.4884ZM86.2601 17.0727L84.9182 16.4024L84.9182 16.4025L86.2601 17.0727ZM89.5931 17.0727L90.935 16.4025L90.935 16.4024L89.5931 17.0727ZM91.2991 20.4884L89.9571 21.1586C90.177 21.5989 90.5988 21.9032 91.0859 21.9732L91.2991 20.4884ZM95.1139 21.0361L95.3271 19.5513L95.327 19.5513L95.1139 21.0361ZM96.1438 24.1683L95.1033 23.0879L95.1033 23.0879L96.1438 24.1683ZM93.3834 26.827L92.3428 25.7466C91.9842 26.0921 91.8204 26.5929 91.9055 27.0835L93.3834 26.827ZM94.035 30.5813L95.5129 30.3248L95.5129 30.3248L94.035 30.5813ZM91.3386 32.517L92.0302 31.186L92.0301 31.1859L91.3386 32.517ZM125.683 30.7446L126.374 29.4135C125.941 29.1883 125.425 29.1883 124.991 29.4135L125.683 30.7446ZM122.27 32.517L122.962 33.8482L122.962 33.8482L122.27 32.517ZM119.574 30.5813L118.096 30.3248L118.096 30.3248L119.574 30.5813ZM120.226 26.827L121.704 27.0835C121.789 26.5929 121.625 26.0921 121.266 25.7466L120.226 26.827ZM117.465 24.1683L118.506 23.0879L118.506 23.0879L117.465 24.1683ZM118.495 21.0361L118.282 19.5513L118.282 19.5513L118.495 21.0361ZM122.31 20.4884L122.523 21.9732C123.01 21.9032 123.432 21.5989 123.652 21.1586L122.31 20.4884ZM124.016 17.0727L122.674 16.4024L122.674 16.4025L124.016 17.0727ZM127.349 17.0727L128.691 16.4025L128.691 16.4024L127.349 17.0727ZM129.055 20.4884L127.713 21.1586C127.933 21.5989 128.355 21.9032 128.842 21.9732L129.055 20.4884ZM132.87 21.0361L133.083 19.5513L133.083 19.5513L132.87 21.0361ZM133.9 24.1683L132.859 23.0879L132.859 23.0879L133.9 24.1683ZM131.139 26.827L130.099 25.7466C129.74 26.0921 129.576 26.5929 129.661 27.0835L131.139 26.827ZM131.791 30.5813L133.269 30.3248L133.269 30.3248L131.791 30.5813ZM129.095 32.517L129.786 31.186L129.786 31.1859L129.095 32.517ZM106.806 16.6955L107.525 15.3793C107.077 15.1341 106.534 15.1342 106.086 15.3794L106.806 16.6955ZM103.564 18.4679L104.284 19.784L104.284 19.784L103.564 18.4679ZM101.003 16.5322L99.5226 16.2881L99.5226 16.2881L101.003 16.5322ZM101.622 12.7779L103.102 13.0219C103.18 12.5484 103.027 12.0662 102.69 11.7245L101.622 12.7779ZM98.9993 10.1191L100.067 9.06581L100.067 9.06579L98.9993 10.1191ZM99.9777 6.98695L99.7536 5.50379L99.7536 5.5038L99.9777 6.98695ZM103.602 6.43926L103.826 7.92242C104.319 7.84787 104.743 7.53298 104.957 7.08228L103.602 6.43926ZM105.223 3.02359L103.867 2.38051L103.867 2.38057L105.223 3.02359ZM108.389 3.02359L109.744 2.38057L109.744 2.38051L108.389 3.02359ZM110.01 6.43926L108.654 7.08228C108.868 7.53298 109.292 7.84787 109.785 7.92242L110.01 6.43926ZM113.634 6.98695L113.858 5.5038L113.858 5.50379L113.634 6.98695ZM114.612 10.1191L113.544 9.06579L113.544 9.06581L114.612 10.1191ZM111.99 12.7779L110.922 11.7245C110.585 12.0662 110.432 12.5484 110.51 13.0219L111.99 12.7779ZM112.609 16.5322L114.089 16.2881L114.089 16.2881L112.609 16.5322ZM110.047 18.4679L110.767 17.1519L110.767 17.1518L110.047 18.4679ZM109.238 40.89C108.409 40.89 107.738 41.5616 107.738 42.39C107.738 43.2184 108.409 43.89 109.238 43.89V40.89ZM113.283 39.6047L111.859 40.0747L111.859 40.0748L113.283 39.6047ZM109.66 35.1904L108.974 33.8564C108.475 34.1131 108.161 34.627 108.16 35.1883C108.159 35.7497 108.472 36.2645 108.97 36.5225L109.66 35.1904ZM103.952 35.1904L104.642 36.5225C105.14 36.2645 105.453 35.7497 105.452 35.1884C105.451 34.6271 105.137 34.1132 104.638 33.8565L103.952 35.1904ZM100.329 39.6047L98.9044 39.1346L98.9043 39.1347L100.329 39.6047ZM104.374 43.89C105.203 43.89 105.874 43.2184 105.874 42.39C105.874 41.5616 105.203 40.89 104.374 40.89V43.89ZM75.6213 49.6167C75.5313 48.7932 74.7907 48.1986 73.9672 48.2886C73.1437 48.3787 72.5491 49.1192 72.6391 49.9428L75.6213 49.6167ZM74.5362 53.4929L73.0451 53.6559L73.0451 53.6559L74.5362 53.4929ZM78.0066 59.2832L77.1623 60.523L77.1623 60.523L78.0066 59.2832ZM86.7443 65.0539L87.5498 63.7885L87.5497 63.7885L86.7443 65.0539ZM88.5694 69.1193L90.0507 69.355L90.0507 69.355L88.5694 69.1193ZM88.3867 70.267L86.9054 70.0313L86.9054 70.0314L88.3867 70.267ZM103.732 59.3437H105.232C105.232 59.3155 105.231 59.2873 105.229 59.2592L103.732 59.3437ZM98.7101 47.3266L97.6541 48.392C97.6605 48.3982 97.6668 48.4044 97.6733 48.4106L98.7101 47.3266ZM95.2268 43.8742L94.1709 44.9396L94.1709 44.9396L95.2268 43.8742ZM89.1531 43.5653L88.186 42.4186L88.186 42.4186L89.1531 43.5653ZM88.5571 49.8494L87.3913 50.7933L87.3914 50.7933L88.5571 49.8494ZM91.8573 53.9249L91.3574 55.3392C91.9905 55.5629 92.6951 55.3387 93.0825 54.7903C93.4699 54.2418 93.4456 53.5028 93.023 52.9809L91.8573 53.9249ZM83.5254 50.98L82.0461 51.2284C82.1364 51.7662 82.5114 52.2125 83.0255 52.3942L83.5254 50.98ZM81.5746 39.3651L83.0539 39.1167L83.0539 39.1166L81.5746 39.3651ZM73.0258 39.6795L71.5346 39.8425L71.5346 39.8425L73.0258 39.6795ZM72.087 44.8943C72.1771 45.7178 72.9177 46.3124 73.7412 46.2224C74.5647 46.1323 75.1593 45.3918 75.0693 44.5682L72.087 44.8943ZM48.3376 45.5C49.166 45.5 49.8376 44.8284 49.8376 44C49.8376 43.1716 49.166 42.5 48.3376 42.5V45.5ZM2 44V42.5H0.5V44H2ZM2 244H0.5V245.5H2V244ZM411 244V245.5H412.5V244H411ZM411 44H412.5V42.5H411V44ZM169.383 42.5C168.554 42.5 167.883 43.1716 167.883 44C167.883 44.8284 168.554 45.5 169.383 45.5V42.5ZM136.74 33.8661C133.783 33.8661 131.046 36.2005 130.556 39.1167L133.514 39.6136C133.763 38.1306 135.26 36.8661 136.74 36.8661V33.8661ZM130.556 39.1167L128.605 50.7315L131.564 51.2284L133.514 39.6136L130.556 39.1167ZM129.585 49.5657L121.253 52.5106L122.252 55.3392L130.584 52.3942L129.585 49.5657ZM122.918 54.8689L126.218 50.7933L123.887 48.9054L120.587 52.9809L122.918 54.8689ZM126.218 50.7933C128.269 48.261 127.931 44.533 125.424 42.4186L123.49 44.7119C124.742 45.7683 124.914 47.6368 123.887 48.9054L126.218 50.7933ZM125.424 42.4187C123.021 40.3923 119.503 40.6521 117.327 42.8089L119.439 44.9396C120.569 43.8194 122.335 43.7383 123.49 44.7119L125.424 42.4187ZM117.327 42.8089L113.844 46.2612L115.956 48.392L119.439 44.9396L117.327 42.8089ZM113.863 46.2426C110.235 49.7128 108.646 54.5453 108.38 59.2592L111.376 59.4282C111.613 55.2228 113.016 51.2042 115.936 48.4106L113.863 46.2426ZM108.378 59.3437V70.7765H111.378V59.3437H108.378ZM108.378 70.7765C108.378 73.3776 110.477 75.5002 113.084 75.5002V72.5002C112.15 72.5002 111.378 71.7363 111.378 70.7765H108.378ZM113.084 75.5002H122.057V72.5002H113.084V75.5002ZM122.057 75.5002C124.962 75.5002 127.16 72.8915 126.704 70.0313L123.742 70.5028C123.91 71.5601 123.098 72.5002 122.057 72.5002V75.5002ZM126.704 70.0313L126.522 68.8836L123.559 69.355L123.742 70.5028L126.704 70.0313ZM126.522 68.8836C126.361 67.8713 126.816 66.8637 127.671 66.3193L126.06 63.7885C124.192 64.9776 123.211 67.167 123.559 69.355L126.522 68.8836ZM127.671 66.3194C130.975 64.2164 134.199 62.0541 136.447 60.523L134.759 58.0434C132.524 59.565 129.328 61.7085 126.06 63.7885L127.671 66.3194ZM136.447 60.523C138.758 58.9498 140.26 56.4393 140.565 53.6565L137.582 53.3304C137.373 55.2451 136.34 56.9667 134.759 58.0434L136.447 60.523ZM140.565 53.6565C140.982 49.8408 141.634 43.8773 142.075 39.8418L139.093 39.5157C138.652 43.5512 138 49.5147 137.582 53.3304L140.565 53.6565ZM142.075 39.8419C142.431 36.5907 140.015 33.8661 136.74 33.8661V36.8661C138.212 36.8661 139.256 38.0224 139.093 39.5156L142.075 39.8419ZM87.235 29.4135L83.823 31.1859L85.206 33.8481L88.618 32.0757L87.235 29.4135ZM83.823 31.1859C83.6844 31.2579 83.5484 31.2422 83.4322 31.1587C83.3731 31.1163 83.3338 31.0645 83.3126 31.0161C83.2941 30.9736 83.282 30.9184 83.296 30.8378L80.3402 30.3248C79.8606 33.0883 82.7778 35.1095 85.2059 33.8482L83.823 31.1859ZM83.296 30.8378L83.9476 27.0835L80.9918 26.5705L80.3402 30.3248L83.296 30.8378ZM83.5103 25.7466L80.7499 23.0879L78.6687 25.2486L81.4291 27.9074L83.5103 25.7466ZM80.7499 23.0879C80.5648 22.9097 80.6384 22.566 80.9525 22.5209L80.5261 19.5513C77.7916 19.944 76.6478 23.3022 78.6687 25.2487L80.7499 23.0879ZM80.9524 22.5209L84.7673 21.9732L84.3409 19.0036L80.5261 19.5513L80.9524 22.5209ZM85.896 21.1586L87.602 17.743L84.9182 16.4025L83.2122 19.8182L85.896 21.1586ZM87.602 17.743C87.6644 17.6181 87.7752 17.5491 87.9266 17.5491C88.078 17.5491 88.1888 17.6181 88.2512 17.743L90.935 16.4024C89.7006 13.9314 86.1525 13.9314 84.9182 16.4024L87.602 17.743ZM88.2511 17.743L89.9571 21.1586L92.641 19.8182L90.935 16.4025L88.2511 17.743ZM91.0859 21.9732L94.9007 22.5209L95.327 19.5513L91.5122 19.0036L91.0859 21.9732ZM94.9007 22.5209C95.2147 22.566 95.2883 22.9097 95.1033 23.0879L97.1844 25.2487C99.2053 23.3022 98.0615 19.944 95.3271 19.5513L94.9007 22.5209ZM95.1033 23.0879L92.3428 25.7466L94.424 27.9074L97.1844 25.2486L95.1033 23.0879ZM91.9055 27.0835L92.5571 30.8378L95.5129 30.3248L94.8613 26.5705L91.9055 27.0835ZM92.5571 30.8378C92.5711 30.9184 92.5591 30.9736 92.5405 31.0161C92.5194 31.0646 92.48 31.1164 92.4209 31.1588C92.3047 31.2422 92.1689 31.258 92.0302 31.186L90.6471 33.8481C93.0755 35.1098 95.9925 33.0881 95.5129 30.3248L92.5571 30.8378ZM92.0301 31.1859L88.618 29.4135L87.235 32.0757L90.6472 33.8482L92.0301 31.1859ZM124.991 29.4135L121.579 31.1859L122.962 33.8482L126.374 32.0757L124.991 29.4135ZM121.579 31.1859C121.44 31.2579 121.304 31.2422 121.188 31.1587C121.129 31.1163 121.09 31.0645 121.068 31.0161C121.05 30.9736 121.038 30.9184 121.052 30.8378L118.096 30.3248C117.616 33.0883 120.534 35.1095 122.962 33.8482L121.579 31.1859ZM121.052 30.8378L121.704 27.0835L118.748 26.5705L118.096 30.3248L121.052 30.8378ZM121.266 25.7466L118.506 23.0879L116.425 25.2486L119.185 27.9074L121.266 25.7466ZM118.506 23.0879C118.321 22.9097 118.394 22.566 118.708 22.5209L118.282 19.5513C115.548 19.944 114.404 23.3022 116.425 25.2487L118.506 23.0879ZM118.708 22.5209L122.523 21.9732L122.097 19.0036L118.282 19.5513L118.708 22.5209ZM123.652 21.1586L125.358 17.743L122.674 16.4025L120.968 19.8182L123.652 21.1586ZM125.358 17.743C125.42 17.6181 125.531 17.5491 125.682 17.5491C125.834 17.5491 125.945 17.6181 126.007 17.743L128.691 16.4024C127.456 13.9314 123.908 13.9314 122.674 16.4024L125.358 17.743ZM126.007 17.743L127.713 21.1586L130.397 19.8181L128.691 16.4025L126.007 17.743ZM128.842 21.9732L132.657 22.5209L133.083 19.5513L129.268 19.0036L128.842 21.9732ZM132.657 22.5209C132.971 22.566 133.044 22.9097 132.859 23.0879L134.94 25.2487C136.961 23.3022 135.817 19.944 133.083 19.5513L132.657 22.5209ZM132.859 23.0879L130.099 25.7466L132.18 27.9074L134.94 25.2486L132.859 23.0879ZM129.661 27.0835L130.313 30.8378L133.269 30.3248L132.617 26.5705L129.661 27.0835ZM130.313 30.8378C130.327 30.9184 130.315 30.9736 130.296 31.0161C130.275 31.0646 130.236 31.1164 130.177 31.1588C130.061 31.2422 129.925 31.258 129.786 31.186L128.403 33.8481C130.831 35.1098 133.748 33.0881 133.269 30.3248L130.313 30.8378ZM129.786 31.1859L126.374 29.4135L124.991 32.0757L128.403 33.8481L129.786 31.1859ZM106.086 15.3794L102.845 17.1518L104.284 19.784L107.525 18.0115L106.086 15.3794ZM102.845 17.1518C102.786 17.1836 102.75 17.1844 102.728 17.1822C102.698 17.1793 102.655 17.1661 102.609 17.1314C102.52 17.0639 102.455 16.9467 102.483 16.7762L99.5226 16.2881C99.0945 18.8846 101.772 21.1576 104.284 19.784L102.845 17.1518ZM102.483 16.7762L103.102 13.0219L100.142 12.5338L99.5226 16.2881L102.483 16.7762ZM102.69 11.7245L100.067 9.06581L97.9313 11.1725L100.554 13.8312L102.69 11.7245ZM100.067 9.06579C99.9727 8.96996 99.9372 8.83487 99.9843 8.68402C100.007 8.61045 100.045 8.55763 100.079 8.52604C100.108 8.49929 100.144 8.47887 100.202 8.4701L99.7536 5.5038C97.014 5.91787 96.0797 9.29527 97.9313 11.1725L100.067 9.06579ZM100.202 8.47011L103.826 7.92242L103.378 4.9561L99.7536 5.50379L100.202 8.47011ZM104.957 7.08228L106.578 3.66661L103.867 2.38057L102.247 5.79624L104.957 7.08228ZM106.578 3.66667C106.616 3.58511 106.658 3.55009 106.687 3.5326C106.72 3.51217 106.761 3.5 106.806 3.5C106.85 3.5 106.891 3.51217 106.925 3.5326C106.953 3.55009 106.995 3.58511 107.034 3.66667L109.744 2.38051C108.554 -0.126835 105.057 -0.126835 103.867 2.38051L106.578 3.66667ZM107.034 3.66661L108.654 7.08228L111.365 5.79624L109.744 2.38057L107.034 3.66661ZM109.785 7.92242L113.409 8.47011L113.858 5.50379L110.234 4.9561L109.785 7.92242ZM113.409 8.4701C113.467 8.47887 113.503 8.49929 113.532 8.52604C113.567 8.55763 113.604 8.61045 113.627 8.68402C113.674 8.83487 113.639 8.96996 113.544 9.06579L115.68 11.1725C117.532 9.29527 116.597 5.91787 113.858 5.5038L113.409 8.4701ZM113.544 9.06581L110.922 11.7245L113.058 13.8312L115.68 11.1725L113.544 9.06581ZM110.51 13.0219L111.129 16.7762L114.089 16.2881L113.47 12.5338L110.51 13.0219ZM111.129 16.7762C111.157 16.9467 111.091 17.064 111.002 17.1315C110.956 17.1662 110.913 17.1793 110.884 17.1822C110.861 17.1844 110.825 17.1837 110.767 17.1519L109.327 19.7839C111.84 21.158 114.517 18.8844 114.089 16.2881L111.129 16.7762ZM110.767 17.1518L107.525 15.3793L106.086 18.0116L109.328 19.784L110.767 17.1518ZM109.238 43.89H111.286V40.89H109.238V43.89ZM111.286 43.89C113.743 43.89 115.477 41.4673 114.708 39.1347L111.859 40.0748C111.994 40.4835 111.681 40.89 111.286 40.89V43.89ZM114.708 39.1347C113.95 36.8373 112.395 34.9171 110.349 33.8583L108.97 36.5225C110.252 37.1859 111.322 38.4468 111.859 40.0747L114.708 39.1347ZM110.346 36.5244C112.888 35.2175 114.625 32.5497 114.625 29.4772H111.625C111.625 31.3961 110.543 33.0499 108.974 33.8564L110.346 36.5244ZM114.625 29.4772C114.625 25.1309 111.143 21.5729 106.806 21.5729V24.5729C109.448 24.5729 111.625 26.7495 111.625 29.4772H114.625ZM106.806 21.5729C102.469 21.5729 98.9874 25.1309 98.9874 29.4772H101.987C101.987 26.7495 104.164 24.5729 106.806 24.5729V21.5729ZM98.9874 29.4772C98.9874 32.5498 100.724 35.2173 103.266 36.5244L104.638 33.8565C103.069 33.0498 101.987 31.396 101.987 29.4772H98.9874ZM103.262 33.8583C101.217 34.9172 99.6625 36.8374 98.9044 39.1346L101.753 40.0748C102.29 38.4468 103.36 37.1859 104.642 36.5225L103.262 33.8583ZM98.9043 39.1347C98.1346 41.4672 99.8685 43.89 102.326 43.89V40.89C101.93 40.89 101.618 40.4836 101.753 40.0748L98.9043 39.1347ZM102.326 43.89H104.374V40.89H102.326V43.89ZM72.6391 49.9428L73.0451 53.6559L76.0273 53.3299L75.6213 49.6167L72.6391 49.9428ZM73.0451 53.6559C73.3493 56.4386 74.852 58.9497 77.1623 60.523L78.8509 58.0434C77.2699 56.9667 76.2366 55.2446 76.0273 53.3299L73.0451 53.6559ZM77.1623 60.523C79.4106 62.0541 82.6349 64.2164 85.9389 66.3194L87.5497 63.7885C84.2817 61.7085 81.0854 59.565 78.8509 58.0434L77.1623 60.523ZM85.9389 66.3193C86.7941 66.8637 87.2491 67.8713 87.088 68.8836L90.0507 69.355C90.3989 67.167 89.4179 64.9776 87.5498 63.7885L85.9389 66.3193ZM87.088 68.8836L86.9054 70.0313L89.8681 70.5028L90.0507 69.355L87.088 68.8836ZM86.9054 70.0314C86.4504 72.8914 88.6476 75.5002 91.5525 75.5002V72.5002C90.512 72.5002 89.6999 71.5602 89.8681 70.5027L86.9054 70.0314ZM91.5525 75.5002H100.526V72.5002H91.5525V75.5002ZM100.526 75.5002C103.133 75.5002 105.232 73.3774 105.232 70.7765H102.232C102.232 71.7363 101.46 72.5002 100.526 72.5002V75.5002ZM105.232 70.7765V59.3437H102.232V70.7765H105.232ZM105.229 59.2592C104.963 54.5454 103.375 49.7126 99.7469 46.2426L97.6733 48.4106C100.594 51.2041 101.997 55.2227 102.234 59.4282L105.229 59.2592ZM99.766 46.2612L96.2828 42.8089L94.1709 44.9396L97.6541 48.392L99.766 46.2612ZM96.2828 42.8089C94.1069 40.6523 90.5884 40.3925 88.186 42.4186L90.1201 44.7119C91.2744 43.7385 93.0408 43.8196 94.1709 44.9396L96.2828 42.8089ZM88.186 42.4186C85.6791 44.533 85.3409 48.2608 87.3913 50.7933L89.7229 48.9055C88.6956 47.6367 88.8676 45.7683 90.1201 44.7119L88.186 42.4186ZM87.3914 50.7933L90.6915 54.8689L93.023 52.9809L89.7229 48.9054L87.3914 50.7933ZM92.3572 52.5106L84.0252 49.5657L83.0255 52.3942L91.3574 55.3392L92.3572 52.5106ZM85.0046 50.7315L83.0539 39.1167L80.0954 39.6136L82.0461 51.2284L85.0046 50.7315ZM83.0539 39.1166C82.5641 36.2007 79.8265 33.8661 76.8696 33.8661V36.8661C78.3494 36.8661 79.8463 38.1307 80.0954 39.6136L83.0539 39.1166ZM76.8696 33.8661C73.594 33.8661 71.1792 36.5916 71.5346 39.8425L74.5169 39.5164C74.3535 38.0227 75.3982 36.8661 76.8696 36.8661V33.8661ZM71.5346 39.8425L72.087 44.8943L75.0693 44.5682L74.5169 39.5164L71.5346 39.8425ZM48.3376 42.5H2V45.5H48.3376V42.5ZM0.5 44V244H3.5V44H0.5ZM2 245.5H411V242.5H2V245.5ZM412.5 244V44H409.5V244H412.5ZM411 42.5H169.383V45.5H411V42.5Z" />
                    </svg>