<?xml version="1.0" encoding="UTF-8"?>
<svg id="Camada_2" data-name="Camada 2" xmlns="http://www.w3.org/2000/svg" viewBox="0 0 712.2 669.91">
  <defs>
    <style>
      .cls-1, .cls-2 {
        fill: #4f903d;
        stroke-width: 0px;
      }

      .cls-2 {
        fill-rule: evenodd;
      }
    </style>
  </defs>
  <g id="Camada_1-2" data-name="Camada 1">
    <path class="cls-2" d="M.1,70.21h82.7c1.4,0,2.6,1.2,2.6,2.6s-1.2,2.6-2.6,2.6H5.3v589.3h701.8V75.41h-415.1c-1.4,0-2.6-1.2-2.6-2.6s1.2-2.6,2.6-2.6h420.2v599.7H0V70.21h.1Z"/>
    <g>
      <polygon class="cls-1" points="230.01 63.48 227.59 63.07 227.59 63.07 230.01 63.48"/>
      <path class="cls-1" d="M226.82,82.45l.82,2.31c.84-.3,1.45-1.03,1.6-1.9l-2.42-.41Z"/>
      <path class="cls-1" d="M213.21,87.26l-1.9-1.54c-.69.85-.73,2.06-.1,2.96.63.9,1.78,1.26,2.82.9l-.82-2.31Z"/>
      <polygon class="cls-1" points="218.61 80.6 220.51 82.15 220.51 82.15 218.61 80.6"/>
      <polygon class="cls-1" points="217.63 70.34 216.05 72.21 216.05 72.21 217.63 70.34"/>
      <polygon class="cls-1" points="207.71 70.84 209.44 72.58 209.44 72.58 207.71 70.84"/>
      <path class="cls-1" d="M202.02,76.48l1.69,1.77s.02-.02.03-.03l-1.72-1.74Z"/>
      <path class="cls-1" d="M193.82,96.11l-2.45-.14s0,.09,0,.14h2.45Z"/>
      <polygon class="cls-1" points="218.88 113.95 216.46 114.34 216.46 114.34 218.88 113.95"/>
      <polygon class="cls-1" points="218.58 112.08 216.17 112.46 216.17 112.46 218.58 112.08"/>
      <polygon class="cls-1" points="221.57 105.44 220.25 103.37 220.25 103.37 221.57 105.44"/>
      <polygon class="cls-1" points="235.84 96.01 237.22 98.04 237.22 98.04 235.84 96.01"/>
      <polygon class="cls-1" points="241.51 86.56 239.07 86.29 239.07 86.29 241.51 86.56"/>
      <polygon class="cls-1" points="243.97 63.99 241.54 63.73 241.54 63.73 243.97 63.99"/>
      <path class="cls-1" d="M157.97,49.4l1.13-2.17c-.71-.37-1.55-.37-2.26,0l1.13,2.17Z"/>
      <polygon class="cls-1" points="152.39 52.29 153.52 54.47 153.52 54.47 152.39 52.29"/>
      <polygon class="cls-1" points="147.99 49.13 145.58 48.71 145.58 48.71 147.99 49.13"/>
      <path class="cls-1" d="M149.05,43l2.41.42c.14-.8-.13-1.62-.71-2.18l-1.7,1.76Z"/>
      <polygon class="cls-1" points="144.54 38.66 146.24 36.89 146.24 36.89 144.54 38.66"/>
      <polygon class="cls-1" points="146.23 33.54 145.88 31.12 145.88 31.12 146.23 33.54"/>
      <path class="cls-1" d="M152.46,32.65l.35,2.43c.8-.11,1.48-.61,1.84-1.33l-2.19-1.09Z"/>
      <polygon class="cls-1" points="155.24 27.07 153.05 25.97 153.05 25.97 155.24 27.07"/>
      <polygon class="cls-1" points="160.69 27.07 162.88 25.97 162.88 25.97 160.69 27.07"/>
      <path class="cls-1" d="M163.47,32.65l-2.19,1.09c.36.72,1.05,1.22,1.84,1.33l.35-2.43Z"/>
      <polygon class="cls-1" points="169.71 33.54 170.05 31.12 170.05 31.12 169.71 33.54"/>
      <polygon class="cls-1" points="171.39 38.66 169.69 36.89 169.69 36.89 171.39 38.66"/>
      <path class="cls-1" d="M166.88,43l-1.7-1.76c-.59.56-.85,1.38-.71,2.18l2.41-.42Z"/>
      <polygon class="cls-1" points="167.94 49.13 170.36 48.71 170.36 48.71 167.94 49.13"/>
      <polygon class="cls-1" points="163.54 52.29 164.67 50.12 164.67 50.12 163.54 52.29"/>
      <path class="cls-1" d="M219.64,49.4l1.13-2.17c-.71-.37-1.55-.37-2.26,0l1.13,2.17Z"/>
      <polygon class="cls-1" points="214.06 52.29 215.19 54.47 215.19 54.47 214.06 52.29"/>
      <polygon class="cls-1" points="209.66 49.13 207.24 48.71 207.24 48.71 209.66 49.13"/>
      <path class="cls-1" d="M210.72,43l2.41.42c.14-.8-.13-1.62-.72-2.18l-1.7,1.76Z"/>
      <polygon class="cls-1" points="206.21 38.66 207.91 36.89 207.91 36.89 206.21 38.66"/>
      <polygon class="cls-1" points="207.89 33.54 207.55 31.12 207.55 31.12 207.89 33.54"/>
      <path class="cls-1" d="M214.13,32.65l.35,2.43c.8-.11,1.48-.61,1.84-1.33l-2.19-1.09Z"/>
      <polygon class="cls-1" points="216.91 27.07 214.72 25.97 214.72 25.97 216.91 27.07"/>
      <polygon class="cls-1" points="222.36 27.07 224.55 25.97 224.55 25.97 222.36 27.07"/>
      <path class="cls-1" d="M225.14,32.65l-2.19,1.09c.36.72,1.05,1.22,1.84,1.33l.35-2.43Z"/>
      <polygon class="cls-1" points="231.37 33.54 231.72 31.12 231.72 31.12 231.37 33.54"/>
      <polygon class="cls-1" points="233.06 38.66 231.36 36.89 231.36 36.89 233.06 38.66"/>
      <path class="cls-1" d="M228.55,43l-1.7-1.76c-.59.56-.85,1.38-.72,2.18l2.41-.42Z"/>
      <polygon class="cls-1" points="229.61 49.13 232.03 48.71 232.03 48.71 229.61 49.13"/>
      <polygon class="cls-1" points="225.21 52.29 226.34 50.12 226.34 50.12 225.21 52.29"/>
      <path class="cls-1" d="M188.8,26.45l1.17-2.15c-.73-.4-1.62-.4-2.35,0l1.18,2.15Z"/>
      <polygon class="cls-1" points="183.51 29.35 184.68 31.5 184.68 31.5 183.51 29.35"/>
      <polygon class="cls-1" points="179.32 26.19 176.91 25.79 176.91 25.79 179.32 26.19"/>
      <path class="cls-1" d="M180.34,20.05l2.42.4c.13-.77-.12-1.56-.67-2.12l-1.74,1.72Z"/>
      <polygon class="cls-1" points="176.05 15.71 177.8 13.99 177.8 13.99 176.05 15.71"/>
      <polygon class="cls-1" points="177.65 10.6 177.28 8.17 177.28 8.17 177.65 10.6"/>
      <path class="cls-1" d="M183.57,9.7l.37,2.42c.81-.12,1.5-.64,1.85-1.37l-2.21-1.05Z"/>
      <polygon class="cls-1" points="186.22 4.12 184 3.07 184 3.07 186.22 4.12"/>
      <polygon class="cls-1" points="191.39 4.12 193.6 3.07 193.6 3.07 191.39 4.12"/>
      <path class="cls-1" d="M194.04,9.7l-2.21,1.05c.35.74,1.04,1.25,1.85,1.37l.37-2.42Z"/>
      <polygon class="cls-1" points="199.96 10.6 200.32 8.17 200.32 8.17 199.96 10.6"/>
      <polygon class="cls-1" points="201.55 15.71 199.81 13.99 199.81 13.99 201.55 15.71"/>
      <path class="cls-1" d="M197.27,20.05l-1.74-1.72c-.55.56-.8,1.35-.67,2.12l2.42-.4Z"/>
      <polygon class="cls-1" points="198.28 26.19 200.7 25.79 200.7 25.79 198.28 26.19"/>
      <polygon class="cls-1" points="194.1 29.35 195.27 27.2 195.27 27.2 194.1 29.35"/>
      <path class="cls-1" d="M192.77,65.97c-1.35,0-2.45,1.1-2.45,2.45s1.1,2.45,2.45,2.45v-4.9Z"/>
      <polygon class="cls-1" points="199.38 63.87 197.06 64.64 197.06 64.64 199.38 63.87"/>
      <path class="cls-1" d="M193.46,56.66l-1.12-2.18c-.82.42-1.33,1.26-1.33,2.18,0,.92.51,1.76,1.32,2.18l1.13-2.18Z"/>
      <path class="cls-1" d="M184.14,56.66l1.13,2.18c.81-.42,1.32-1.26,1.32-2.18,0-.92-.51-1.76-1.33-2.18l-1.12,2.18Z"/>
      <polygon class="cls-1" points="178.22 63.87 175.9 63.1 175.9 63.1 178.22 63.87"/>
      <path class="cls-1" d="M184.83,70.87c1.35,0,2.45-1.1,2.45-2.45s-1.1-2.45-2.45-2.45v4.9Z"/>
      <path class="cls-1" d="M137.87,80.22c-.15-1.35-1.36-2.32-2.7-2.17-1.35.15-2.32,1.36-2.17,2.7l4.87-.53Z"/>
      <polygon class="cls-1" points="136.1 86.56 133.66 86.82 133.66 86.82 136.1 86.56"/>
      <polygon class="cls-1" points="141.76 96.01 140.38 98.04 140.38 98.04 141.76 96.01"/>
      <polygon class="cls-1" points="156.04 105.44 157.35 103.37 157.35 103.37 156.04 105.44"/>
      <polygon class="cls-1" points="159.02 112.08 161.44 112.46 161.44 112.46 159.02 112.08"/>
      <polygon class="cls-1" points="158.72 113.95 156.3 113.57 156.3 113.57 158.72 113.95"/>
      <path class="cls-1" d="M183.78,96.11h2.45s0-.09,0-.14l-2.45.14Z"/>
      <path class="cls-1" d="M175.58,76.48l-1.72,1.74s.02.02.03.03l1.69-1.77Z"/>
      <polygon class="cls-1" points="169.89 70.84 168.17 72.58 168.17 72.58 169.89 70.84"/>
      <polygon class="cls-1" points="159.97 70.34 158.39 68.47 158.39 68.47 159.97 70.34"/>
      <polygon class="cls-1" points="159 80.6 157.09 82.15 157.09 82.15 159 80.6"/>
      <path class="cls-1" d="M164.39,87.26l-.82,2.31c1.03.37,2.18,0,2.82-.9.63-.9.59-2.1-.1-2.96l-1.9,1.54Z"/>
      <path class="cls-1" d="M150.78,82.45l-2.42.41c.15.88.76,1.61,1.6,1.9l.82-2.31Z"/>
      <polygon class="cls-1" points="147.59 63.48 150.01 63.07 150.01 63.07 147.59 63.48"/>
      <polygon class="cls-1" points="133.63 63.99 131.19 64.26 131.19 64.26 133.63 63.99"/>
      <path class="cls-1" d="M132.09,72.51c.15,1.35,1.36,2.32,2.7,2.17,1.35-.15,2.32-1.36,2.17-2.7l-4.87.53Z"/>
      <path class="cls-1" d="M237.69,54.5c-4.83,0-9.3,3.81-10.1,8.58l4.83.81c.41-2.42,2.85-4.49,5.27-4.49v-4.9Z"/>
      <rect class="cls-1" x="218.8" y="70.52" width="19.24" height="4.9" transform="translate(118.62 286.14) rotate(-80.46)"/>
      <rect class="cls-1" x="212.8" y="82.41" width="14.43" height="4.9" transform="translate(-15.7 78.17) rotate(-19.47)"/>
      <rect class="cls-1" x="211.63" y="81.48" width="8.57" height="4.9" transform="translate(14.81 198.92) rotate(-51)"/>
      <path class="cls-1" d="M220.51,82.15c3.35-4.14,2.8-10.23-1.3-13.68l-3.16,3.75c2.04,1.73,2.33,4.78.65,6.85l3.81,3.08Z"/>
      <path class="cls-1" d="M219.21,68.47c-3.92-3.31-9.67-2.89-13.23.64l3.45,3.48c1.85-1.83,4.73-1.96,6.62-.37l3.16-3.75Z"/>
      <rect class="cls-1" x="200.86" y="71.21" width="8.01" height="4.9" transform="translate(7.51 165.57) rotate(-44.75)"/>
      <path class="cls-1" d="M200.33,74.71c-5.93,5.67-8.52,13.56-8.96,21.26l4.89.28c.39-6.87,2.68-13.43,7.45-18l-3.39-3.54Z"/>
      <rect class="cls-1" x="191.37" y="96.11" width="4.9" height="18.67"/>
      <path class="cls-1" d="M191.37,114.78c0,4.25,3.43,7.72,7.69,7.72v-4.9c-1.53,0-2.79-1.25-2.79-2.82h-4.9Z"/>
      <rect class="cls-1" x="199.06" y="117.6" width="14.66" height="4.9"/>
      <path class="cls-1" d="M213.71,122.5c4.74,0,8.33-4.26,7.59-8.93l-4.84.77c.27,1.73-1.05,3.26-2.75,3.26v4.9Z"/>
      <rect class="cls-1" x="216.28" y="112.07" width="4.9" height="1.9" transform="translate(-15 35.65) rotate(-9.01)"/>
      <path class="cls-1" d="M221.01,111.69c-.26-1.65.48-3.3,1.88-4.19l-2.63-4.13c-3.05,1.94-4.65,5.52-4.08,9.09l4.84-.77Z"/>
      <path class="cls-1" d="M222.88,107.5c5.4-3.43,10.66-6.97,14.33-9.47l-2.76-4.05c-3.65,2.49-8.87,5.99-14.21,9.38l2.63,4.13Z"/>
      <path class="cls-1" d="M237.22,98.04c3.77-2.57,6.23-6.67,6.73-11.22l-4.87-.53c-.34,3.13-2.03,5.94-4.61,7.7l2.76,4.05Z"/>
      <path class="cls-1" d="M243.94,86.82c.68-6.23,1.75-15.97,2.47-22.56l-4.87-.53c-.72,6.59-1.79,16.33-2.47,22.56l4.87.53Z"/>
      <path class="cls-1" d="M246.41,64.26c.58-5.31-3.36-9.76-8.71-9.76v4.9c2.4,0,4.11,1.89,3.84,4.33l4.87.53Z"/>
      <rect class="cls-1" x="152.04" y="48.4" width="6.28" height="4.9" transform="translate(-5.97 77.26) rotate(-27.45)"/>
      <path class="cls-1" d="M151.26,50.12c-.23.12-.45.09-.64-.04-.1-.07-.16-.15-.2-.23-.03-.07-.05-.16-.03-.29l-4.83-.84c-.78,4.51,3.98,7.82,7.95,5.75l-2.26-4.35Z"/>
      <rect class="cls-1" x="145.41" y="43.62" width="6.22" height="4.9" transform="translate(77.74 184.52) rotate(-80.15)"/>
      <rect class="cls-1" x="144.35" y="37.7" width="4.9" height="6.26" transform="translate(15.56 118.24) rotate(-46.08)"/>
      <path class="cls-1" d="M146.24,36.89c-.3-.29-.18-.85.33-.93l-.7-4.85c-4.47.64-6.33,6.13-3.03,9.31l3.4-3.53Z"/>
      <rect class="cls-1" x="146.2" y="30.64" width="6.29" height="4.9" transform="translate(-3.19 21.56) rotate(-8.17)"/>
      <rect class="cls-1" x="150.73" y="27.41" width="6.24" height="4.9" transform="translate(58.39 154.15) rotate(-63.46)"/>
      <path class="cls-1" d="M157.44,28.16c.1-.2.28-.32.53-.32s.43.11.53.32l4.38-2.19c-2.02-4.04-7.81-4.04-9.83,0l4.38,2.19Z"/>
      <rect class="cls-1" x="159.63" y="26.74" width="4.9" height="6.24" transform="translate(3.74 75.57) rotate(-26.54)"/>
      <rect class="cls-1" x="164.14" y="29.95" width="4.9" height="6.29" transform="translate(110.16 193.29) rotate(-81.83)"/>
      <path class="cls-1" d="M169.36,35.97c.51.07.63.64.33.93l3.4,3.53c3.3-3.18,1.43-8.66-3.03-9.31l-.7,4.85Z"/>
      <rect class="cls-1" x="166" y="38.38" width="6.26" height="4.9" transform="translate(18.99 128.75) rotate(-43.92)"/>
      <rect class="cls-1" x="164.96" y="42.95" width="4.9" height="6.22" transform="translate(-5.41 29.31) rotate(-9.85)"/>
      <path class="cls-1" d="M165.53,49.55c.02.13,0,.22-.03.29-.03.08-.1.16-.2.23-.19.14-.41.16-.64.04l-2.26,4.35c3.97,2.06,8.73-1.24,7.95-5.75l-4.83.84Z"/>
      <rect class="cls-1" x="158.3" y="47.71" width="4.9" height="6.28" transform="translate(41.53 170.06) rotate(-62.55)"/>
      <rect class="cls-1" x="213.71" y="48.4" width="6.28" height="4.9" transform="translate(.98 105.69) rotate(-27.45)"/>
      <path class="cls-1" d="M212.93,50.12c-.23.12-.45.09-.64-.04-.1-.07-.16-.15-.2-.23-.03-.07-.05-.16-.03-.29l-4.83-.84c-.78,4.51,3.98,7.82,7.95,5.75l-2.26-4.35Z"/>
      <rect class="cls-1" x="207.08" y="43.62" width="6.22" height="4.9" transform="translate(128.84 245.27) rotate(-80.15)"/>
      <rect class="cls-1" x="206.02" y="37.7" width="4.9" height="6.26" transform="translate(34.43 162.64) rotate(-46.07)"/>
      <path class="cls-1" d="M207.91,36.89c-.3-.29-.18-.85.33-.93l-.7-4.85c-4.47.64-6.33,6.13-3.03,9.31l3.4-3.53Z"/>
      <rect class="cls-1" x="207.86" y="30.64" width="6.3" height="4.9" transform="translate(-2.56 30.32) rotate(-8.17)"/>
      <rect class="cls-1" x="212.4" y="27.41" width="6.24" height="4.9" transform="translate(92.51 209.32) rotate(-63.46)"/>
      <path class="cls-1" d="M219.1,28.16c.1-.2.28-.32.53-.32s.43.11.53.32l4.38-2.19c-2.02-4.04-7.81-4.04-9.83,0l4.38,2.19Z"/>
      <rect class="cls-1" x="221.3" y="26.74" width="4.9" height="6.24" transform="translate(10.24 103.13) rotate(-26.54)"/>
      <rect class="cls-1" x="225.81" y="29.95" width="4.9" height="6.3" transform="translate(163.06 254.33) rotate(-81.83)"/>
      <path class="cls-1" d="M231.03,35.97c.51.07.63.64.33.93l3.4,3.53c3.3-3.18,1.43-8.66-3.03-9.31l-.7,4.85Z"/>
      <rect class="cls-1" x="227.67" y="38.38" width="6.26" height="4.9" transform="translate(36.25 171.55) rotate(-43.93)"/>
      <rect class="cls-1" x="226.63" y="42.95" width="4.9" height="6.22" transform="translate(-4.5 39.88) rotate(-9.85)"/>
      <path class="cls-1" d="M227.2,49.55c.02.13,0,.22-.03.29-.03.08-.1.16-.19.23-.19.14-.41.16-.64.04l-2.26,4.35c3.97,2.06,8.73-1.24,7.95-5.75l-4.83.84Z"/>
      <rect class="cls-1" x="219.97" y="47.71" width="4.9" height="6.28" transform="translate(74.77 224.79) rotate(-62.55)"/>
      <rect class="cls-1" x="183.14" y="25.45" width="6.03" height="4.9" transform="translate(9.44 92.74) rotate(-28.67)"/>
      <path class="cls-1" d="M182.33,27.2c-.1.05-.16.05-.19.05-.05,0-.12-.03-.19-.08-.15-.11-.25-.3-.21-.58l-4.84-.8c-.7,4.24,3.67,7.95,7.78,5.71l-2.35-4.3Z"/>
      <rect class="cls-1" x="176.72" y="20.67" width="6.21" height="4.9" transform="translate(127.76 196.79) rotate(-80.64)"/>
      <rect class="cls-1" x="175.74" y="14.83" width="4.9" height="6.1" transform="translate(38.78 130.3) rotate(-44.61)"/>
      <path class="cls-1" d="M177.8,13.99c-.15-.16-.21-.38-.14-.62.04-.12.1-.21.15-.26.05-.04.11-.08.2-.09l-.73-4.84c-4.47.68-6,6.19-2.98,9.26l3.49-3.44Z"/>
      <rect class="cls-1" x="177.62" y="7.7" width="5.99" height="4.9" transform="translate(.51 27.1) rotate(-8.59)"/>
      <rect class="cls-1" x="181.81" y="4.46" width="6.17" height="4.9" transform="translate(99.38 170.99) rotate(-64.61)"/>
      <path class="cls-1" d="M188.43,5.17c.06-.13.13-.19.18-.22.05-.03.12-.05.19-.05s.14.02.19.05c.05.03.11.09.18.22l4.43-2.1c-1.94-4.1-7.66-4.1-9.6,0l4.43,2.1Z"/>
      <rect class="cls-1" x="190.26" y="3.82" width="4.9" height="6.17" transform="translate(15.63 83.25) rotate(-25.37)"/>
      <rect class="cls-1" x="194.54" y="7.15" width="4.9" height="5.99" transform="translate(157.52 203.41) rotate(-81.41)"/>
      <path class="cls-1" d="M199.59,13.02c.09.01.15.05.2.09.06.05.12.14.16.26.08.25.02.47-.14.62l3.49,3.44c3.02-3.07,1.5-8.58-2.98-9.26l-.73,4.84Z"/>
      <rect class="cls-1" x="196.36" y="15.43" width="6.1" height="4.9" transform="translate(46.66 147.31) rotate(-45.4)"/>
      <rect class="cls-1" x="195.33" y="20.01" width="4.9" height="6.21" transform="translate(-1.13 32.48) rotate(-9.36)"/>
      <path class="cls-1" d="M195.86,26.58c.05.28-.06.47-.21.58-.08.06-.15.08-.19.08-.04,0-.1,0-.19-.05l-2.35,4.3c4.1,2.24,8.48-1.47,7.78-5.71l-4.83.8Z"/>
      <rect class="cls-1" x="189" y="24.88" width="4.9" height="6.03" transform="translate(75.13 182.5) rotate(-61.33)"/>
      <rect class="cls-1" x="192.77" y="65.97" width="3.35" height="4.9"/>
      <path class="cls-1" d="M196.12,70.87c4.01,0,6.85-3.96,5.59-7.77l-4.65,1.54c.22.67-.29,1.33-.94,1.33v4.9Z"/>
      <path class="cls-1" d="M201.71,63.1c-1.24-3.75-3.78-6.89-7.12-8.62l-2.25,4.35c2.09,1.08,3.84,3.14,4.72,5.8l4.65-1.54Z"/>
      <path class="cls-1" d="M194.58,58.84c4.15-2.13,6.99-6.49,6.99-11.51h-4.9c0,3.13-1.77,5.84-4.33,7.15l2.24,4.36Z"/>
      <path class="cls-1" d="M201.57,47.33c0-7.1-5.69-12.91-12.77-12.91v4.9c4.32,0,7.87,3.56,7.87,8.01h4.9Z"/>
      <path class="cls-1" d="M188.8,34.42c-7.08,0-12.77,5.81-12.77,12.91h4.9c0-4.46,3.56-8.01,7.87-8.01v-4.9Z"/>
      <path class="cls-1" d="M176.03,47.33c0,5.02,2.84,9.38,6.99,11.51l2.24-4.36c-2.56-1.32-4.33-4.02-4.33-7.15h-4.9Z"/>
      <path class="cls-1" d="M183.01,54.49c-3.34,1.73-5.88,4.87-7.12,8.62l4.65,1.54c.88-2.66,2.62-4.72,4.72-5.8l-2.25-4.35Z"/>
      <path class="cls-1" d="M175.9,63.1c-1.26,3.81,1.57,7.77,5.59,7.77v-4.9c-.65,0-1.16-.66-.94-1.33l-4.65-1.54Z"/>
      <rect class="cls-1" x="181.49" y="65.97" width="3.35" height="4.9"/>
      <rect class="cls-1" x="133.31" y="80.47" width="4.9" height="6.1" transform="translate(-8.27 15.25) rotate(-6.24)"/>
      <path class="cls-1" d="M133.66,86.82c.5,4.55,2.95,8.65,6.72,11.22l2.76-4.05c-2.58-1.76-4.27-4.57-4.61-7.7l-4.87.53Z"/>
      <path class="cls-1" d="M140.38,98.04c3.67,2.5,8.94,6.03,14.34,9.47l2.63-4.13c-5.34-3.4-10.56-6.9-14.21-9.38l-2.76,4.05Z"/>
      <path class="cls-1" d="M154.72,107.5c1.4.89,2.14,2.53,1.88,4.19l4.84.77c.57-3.57-1.03-7.15-4.08-9.09l-2.63,4.13Z"/>
      <rect class="cls-1" x="157.92" y="110.57" width="1.9" height="4.9" transform="translate(22.29 252.15) rotate(-80.96)"/>
      <path class="cls-1" d="M156.3,113.57c-.74,4.67,2.85,8.93,7.59,8.93v-4.9c-1.7,0-3.03-1.54-2.75-3.26l-4.84-.77Z"/>
      <rect class="cls-1" x="163.89" y="117.6" width="14.66" height="4.9"/>
      <path class="cls-1" d="M178.55,122.5c4.26,0,7.69-3.47,7.69-7.72h-4.9c0,1.57-1.26,2.82-2.79,2.82v4.9Z"/>
      <rect class="cls-1" x="181.33" y="96.11" width="4.9" height="18.67"/>
      <path class="cls-1" d="M186.23,95.97c-.43-7.7-3.03-15.59-8.95-21.26l-3.39,3.54c4.77,4.56,7.06,11.13,7.45,18l4.89-.28Z"/>
      <rect class="cls-1" x="170.28" y="69.66" width="4.9" height="8.01" transform="translate(-1.18 144.49) rotate(-45.26)"/>
      <path class="cls-1" d="M171.61,69.1c-3.55-3.52-9.3-3.95-13.22-.64l3.16,3.75c1.89-1.59,4.77-1.46,6.62.37l3.45-3.48Z"/>
      <path class="cls-1" d="M158.39,68.47c-4.09,3.45-4.65,9.54-1.3,13.68l3.81-3.08c-1.68-2.07-1.4-5.12.65-6.85l-3.16-3.75Z"/>
      <rect class="cls-1" x="159.24" y="79.65" width="4.9" height="8.57" transform="translate(-16.79 120.45) rotate(-39)"/>
      <rect class="cls-1" x="155.13" y="77.64" width="4.9" height="14.43" transform="translate(25.06 205.15) rotate(-70.53)"/>
      <rect class="cls-1" x="146.73" y="63.35" width="4.9" height="19.24" transform="translate(-10.02 25.72) rotate(-9.53)"/>
      <path class="cls-1" d="M150.01,63.07c-.8-4.76-5.27-8.58-10.1-8.58v4.9c2.42,0,4.86,2.07,5.27,4.49l4.83-.81Z"/>
      <path class="cls-1" d="M139.91,54.5c-5.35,0-9.29,4.45-8.71,9.76l4.87-.53c-.27-2.44,1.44-4.33,3.84-4.33v-4.9Z"/>
      <rect class="cls-1" x="131.63" y="63.97" width="4.9" height="8.3" transform="translate(-6.61 14.98) rotate(-6.24)"/>
    </g>
  </g>
</svg>