<?xml version="1.0" encoding="UTF-8"?>
<svg id="Camada_2" data-name="Camada 2" xmlns="http://www.w3.org/2000/svg" viewBox="0 0 734.3 526.51">
  <defs>
    <style>
      .cls-1, .cls-2 {
        fill: #4f903d;
        stroke-width: 0px;
      }

      .cls-2 {
        fill-rule: evenodd;
      }
    </style>
  </defs>
  <g id="Camada_1-2" data-name="Camada 1">
    <path class="cls-2" d="M0,70.31h82.7c1.4,0,2.6,1.2,2.6,2.6s-1.2,2.6-2.6,2.6H5.2v445.8h723.9V75.51h-437.2c-1.4,0-2.6-1.2-2.6-2.6s1.2-2.6,2.6-2.6h442.4v456.2H0V70.31Z"/>
    <g>
      <polygon class="cls-1" points="231.21 63.48 228.79 63.07 228.79 63.07 231.21 63.48"/>
      <path class="cls-1" d="M228.02,82.45l.82,2.31c.84-.3,1.45-1.03,1.6-1.9l-2.42-.41Z"/>
      <path class="cls-1" d="M214.41,87.26l-1.9-1.54c-.69.85-.73,2.06-.1,2.96.63.9,1.78,1.26,2.82.9l-.82-2.31Z"/>
      <polygon class="cls-1" points="219.81 80.6 221.71 82.15 221.71 82.15 219.81 80.6"/>
      <polygon class="cls-1" points="218.83 70.34 217.25 72.21 217.25 72.21 218.83 70.34"/>
      <polygon class="cls-1" points="208.91 70.84 210.64 72.58 210.64 72.58 208.91 70.84"/>
      <path class="cls-1" d="M203.22,76.48l1.69,1.77s.02-.02.03-.03l-1.72-1.74Z"/>
      <path class="cls-1" d="M195.02,96.11l-2.45-.14s0,.09,0,.14h2.45Z"/>
      <polygon class="cls-1" points="220.08 113.95 217.66 114.34 217.66 114.34 220.08 113.95"/>
      <polygon class="cls-1" points="219.78 112.08 217.37 112.46 217.37 112.46 219.78 112.08"/>
      <polygon class="cls-1" points="222.76 105.44 221.45 103.37 221.45 103.37 222.76 105.44"/>
      <polygon class="cls-1" points="237.04 96.01 238.42 98.04 238.42 98.04 237.04 96.01"/>
      <polygon class="cls-1" points="242.7 86.56 240.27 86.29 240.27 86.29 242.7 86.56"/>
      <polygon class="cls-1" points="245.17 63.99 242.74 63.73 242.74 63.73 245.17 63.99"/>
      <path class="cls-1" d="M159.17,49.4l1.13-2.17c-.71-.37-1.55-.37-2.26,0l1.13,2.17Z"/>
      <polygon class="cls-1" points="153.59 52.29 154.72 54.47 154.72 54.47 153.59 52.29"/>
      <polygon class="cls-1" points="149.19 49.13 146.77 48.71 146.77 48.71 149.19 49.13"/>
      <path class="cls-1" d="M150.25,43l2.41.42c.14-.8-.13-1.62-.71-2.18l-1.7,1.76Z"/>
      <polygon class="cls-1" points="145.74 38.66 147.44 36.89 147.44 36.89 145.74 38.66"/>
      <polygon class="cls-1" points="147.43 33.54 147.08 31.12 147.08 31.12 147.43 33.54"/>
      <path class="cls-1" d="M153.66,32.65l.35,2.43c.8-.11,1.48-.61,1.84-1.33l-2.19-1.09Z"/>
      <polygon class="cls-1" points="156.44 27.07 154.25 25.97 154.25 25.97 156.44 27.07"/>
      <polygon class="cls-1" points="161.89 27.07 164.08 25.97 164.08 25.97 161.89 27.07"/>
      <path class="cls-1" d="M164.67,32.65l-2.19,1.09c.36.72,1.05,1.22,1.84,1.33l.35-2.43Z"/>
      <polygon class="cls-1" points="170.9 33.54 171.25 31.12 171.25 31.12 170.9 33.54"/>
      <polygon class="cls-1" points="172.59 38.66 170.89 36.89 170.89 36.89 172.59 38.66"/>
      <path class="cls-1" d="M168.08,43l-1.7-1.76c-.59.56-.85,1.38-.71,2.18l2.41-.42Z"/>
      <polygon class="cls-1" points="169.14 49.13 171.56 48.71 171.56 48.71 169.14 49.13"/>
      <polygon class="cls-1" points="164.74 52.29 165.87 50.12 165.87 50.12 164.74 52.29"/>
      <path class="cls-1" d="M220.83,49.4l1.13-2.17c-.71-.37-1.55-.37-2.26,0l1.13,2.17Z"/>
      <polygon class="cls-1" points="215.26 52.29 216.39 54.47 216.39 54.47 215.26 52.29"/>
      <polygon class="cls-1" points="210.86 49.13 208.44 48.71 208.44 48.71 210.86 49.13"/>
      <path class="cls-1" d="M211.92,43l2.41.42c.14-.8-.13-1.62-.72-2.18l-1.7,1.76Z"/>
      <polygon class="cls-1" points="207.41 38.66 209.11 36.89 209.11 36.89 207.41 38.66"/>
      <polygon class="cls-1" points="209.09 33.54 208.75 31.12 208.75 31.12 209.09 33.54"/>
      <path class="cls-1" d="M215.33,32.65l.35,2.43c.8-.11,1.48-.61,1.84-1.33l-2.19-1.09Z"/>
      <polygon class="cls-1" points="218.11 27.07 215.92 25.97 215.92 25.97 218.11 27.07"/>
      <polygon class="cls-1" points="223.56 27.07 225.75 25.97 225.75 25.97 223.56 27.07"/>
      <path class="cls-1" d="M226.34,32.65l-2.19,1.09c.36.72,1.05,1.22,1.84,1.33l.35-2.43Z"/>
      <polygon class="cls-1" points="232.57 33.54 232.92 31.12 232.92 31.12 232.57 33.54"/>
      <polygon class="cls-1" points="234.26 38.66 232.56 36.89 232.56 36.89 234.26 38.66"/>
      <path class="cls-1" d="M229.75,43l-1.7-1.76c-.59.56-.85,1.38-.72,2.18l2.41-.42Z"/>
      <polygon class="cls-1" points="230.81 49.13 233.22 48.71 233.22 48.71 230.81 49.13"/>
      <polygon class="cls-1" points="226.41 52.29 227.54 50.12 227.54 50.12 226.41 52.29"/>
      <path class="cls-1" d="M190,26.45l1.17-2.15c-.73-.4-1.62-.4-2.35,0l1.18,2.15Z"/>
      <polygon class="cls-1" points="184.71 29.35 185.88 31.5 185.88 31.5 184.71 29.35"/>
      <polygon class="cls-1" points="180.52 26.19 178.11 25.79 178.11 25.79 180.52 26.19"/>
      <path class="cls-1" d="M181.53,20.05l2.42.4c.13-.77-.12-1.56-.67-2.12l-1.74,1.72Z"/>
      <polygon class="cls-1" points="177.25 15.71 178.99 13.99 178.99 13.99 177.25 15.71"/>
      <polygon class="cls-1" points="178.85 10.6 178.48 8.17 178.48 8.17 178.85 10.6"/>
      <path class="cls-1" d="M184.77,9.7l.37,2.42c.81-.12,1.5-.64,1.85-1.37l-2.21-1.05Z"/>
      <polygon class="cls-1" points="187.42 4.12 185.2 3.07 185.2 3.07 187.42 4.12"/>
      <polygon class="cls-1" points="192.59 4.12 194.8 3.07 194.8 3.07 192.59 4.12"/>
      <path class="cls-1" d="M195.24,9.7l-2.21,1.05c.35.74,1.04,1.25,1.85,1.37l.37-2.42Z"/>
      <polygon class="cls-1" points="201.15 10.6 201.52 8.17 201.52 8.17 201.15 10.6"/>
      <polygon class="cls-1" points="202.75 15.71 201.01 13.99 201.01 13.99 202.75 15.71"/>
      <path class="cls-1" d="M198.47,20.05l-1.74-1.72c-.55.56-.8,1.35-.67,2.12l2.42-.4Z"/>
      <polygon class="cls-1" points="199.48 26.19 201.9 25.79 201.9 25.79 199.48 26.19"/>
      <polygon class="cls-1" points="195.3 29.35 196.47 27.2 196.47 27.2 195.3 29.35"/>
      <path class="cls-1" d="M193.97,65.97c-1.35,0-2.45,1.1-2.45,2.45s1.1,2.45,2.45,2.45v-4.9Z"/>
      <polygon class="cls-1" points="200.58 63.87 198.26 64.64 198.26 64.64 200.58 63.87"/>
      <path class="cls-1" d="M194.66,56.66l-1.12-2.18c-.82.42-1.33,1.26-1.33,2.18,0,.92.51,1.76,1.32,2.18l1.13-2.18Z"/>
      <path class="cls-1" d="M185.34,56.66l1.13,2.18c.81-.42,1.32-1.26,1.32-2.18,0-.92-.51-1.76-1.33-2.18l-1.12,2.18Z"/>
      <polygon class="cls-1" points="179.42 63.87 177.1 63.1 177.1 63.1 179.42 63.87"/>
      <path class="cls-1" d="M186.03,70.87c1.35,0,2.45-1.1,2.45-2.45s-1.1-2.45-2.45-2.45v4.9Z"/>
      <path class="cls-1" d="M139.07,80.22c-.15-1.35-1.36-2.32-2.7-2.17-1.35.15-2.32,1.36-2.17,2.7l4.87-.53Z"/>
      <polygon class="cls-1" points="137.29 86.56 134.86 86.82 134.86 86.82 137.29 86.56"/>
      <polygon class="cls-1" points="142.96 96.01 141.58 98.04 141.58 98.04 142.96 96.01"/>
      <polygon class="cls-1" points="157.23 105.44 158.55 103.37 158.55 103.37 157.23 105.44"/>
      <polygon class="cls-1" points="160.22 112.08 162.63 112.46 162.63 112.46 160.22 112.08"/>
      <polygon class="cls-1" points="159.92 113.95 157.5 113.57 157.5 113.57 159.92 113.95"/>
      <path class="cls-1" d="M184.98,96.11h2.45s0-.09,0-.14l-2.45.14Z"/>
      <path class="cls-1" d="M176.78,76.48l-1.72,1.74s.02.02.03.03l1.69-1.77Z"/>
      <polygon class="cls-1" points="171.09 70.84 169.36 72.58 169.36 72.58 171.09 70.84"/>
      <polygon class="cls-1" points="161.17 70.34 159.59 68.47 159.59 68.47 161.17 70.34"/>
      <polygon class="cls-1" points="160.2 80.6 158.29 82.15 158.29 82.15 160.2 80.6"/>
      <path class="cls-1" d="M165.59,87.26l-.82,2.31c1.03.37,2.18,0,2.82-.9.63-.9.59-2.1-.1-2.96l-1.9,1.54Z"/>
      <path class="cls-1" d="M151.98,82.45l-2.42.41c.15.88.76,1.61,1.6,1.9l.82-2.31Z"/>
      <polygon class="cls-1" points="148.79 63.48 151.21 63.07 151.21 63.07 148.79 63.48"/>
      <polygon class="cls-1" points="134.83 63.99 132.39 64.26 132.39 64.26 134.83 63.99"/>
      <path class="cls-1" d="M133.29,72.51c.15,1.35,1.36,2.32,2.7,2.17,1.35-.15,2.32-1.36,2.17-2.7l-4.87.53Z"/>
      <path class="cls-1" d="M238.89,54.5c-4.83,0-9.3,3.81-10.1,8.58l4.83.81c.41-2.42,2.85-4.49,5.27-4.49v-4.9Z"/>
      <rect class="cls-1" x="220" y="70.52" width="19.24" height="4.9" transform="translate(119.62 287.32) rotate(-80.46)"/>
      <rect class="cls-1" x="214" y="82.41" width="14.43" height="4.9" transform="translate(-15.63 78.57) rotate(-19.47)"/>
      <rect class="cls-1" x="212.83" y="81.48" width="8.57" height="4.9" transform="translate(15.26 199.85) rotate(-51)"/>
      <path class="cls-1" d="M221.71,82.15c3.35-4.14,2.8-10.23-1.3-13.68l-3.16,3.75c2.04,1.73,2.33,4.78.65,6.85l3.81,3.08Z"/>
      <path class="cls-1" d="M220.41,68.47c-3.92-3.31-9.67-2.89-13.23.64l3.45,3.48c1.85-1.83,4.73-1.96,6.62-.37l3.16-3.75Z"/>
      <rect class="cls-1" x="202.06" y="71.21" width="8.01" height="4.9" transform="translate(7.85 166.41) rotate(-44.75)"/>
      <path class="cls-1" d="M201.53,74.71c-5.93,5.67-8.52,13.56-8.96,21.26l4.89.28c.39-6.87,2.68-13.43,7.45-18l-3.39-3.54Z"/>
      <rect class="cls-1" x="192.57" y="96.11" width="4.9" height="18.67"/>
      <path class="cls-1" d="M192.57,114.78c0,4.25,3.43,7.72,7.69,7.72v-4.9c-1.53,0-2.79-1.25-2.79-2.82h-4.9Z"/>
      <rect class="cls-1" x="200.26" y="117.6" width="14.66" height="4.9"/>
      <path class="cls-1" d="M214.91,122.5c4.74,0,8.33-4.26,7.59-8.93l-4.84.77c.27,1.73-1.05,3.26-2.75,3.26v4.9Z"/>
      <rect class="cls-1" x="217.48" y="112.07" width="4.9" height="1.9" transform="translate(-14.99 35.84) rotate(-9.01)"/>
      <path class="cls-1" d="M222.2,111.69c-.26-1.65.48-3.3,1.88-4.19l-2.63-4.13c-3.05,1.94-4.65,5.52-4.08,9.09l4.84-.77Z"/>
      <path class="cls-1" d="M224.08,107.5c5.4-3.43,10.66-6.97,14.33-9.47l-2.76-4.05c-3.65,2.49-8.87,5.99-14.21,9.38l2.63,4.13Z"/>
      <path class="cls-1" d="M238.42,98.04c3.77-2.57,6.23-6.67,6.73-11.22l-4.87-.53c-.34,3.13-2.03,5.94-4.61,7.7l2.76,4.05Z"/>
      <path class="cls-1" d="M245.14,86.82c.68-6.23,1.75-15.97,2.47-22.56l-4.87-.53c-.72,6.59-1.79,16.33-2.47,22.56l4.87.53Z"/>
      <path class="cls-1" d="M247.61,64.26c.58-5.31-3.36-9.76-8.71-9.76v4.9c2.4,0,4.11,1.89,3.84,4.33l4.87.53Z"/>
      <rect class="cls-1" x="153.24" y="48.4" width="6.28" height="4.9" transform="translate(-5.83 77.81) rotate(-27.45)"/>
      <path class="cls-1" d="M152.46,50.12c-.23.12-.45.09-.64-.04-.1-.07-.16-.15-.2-.23-.03-.07-.05-.16-.03-.29l-4.83-.84c-.78,4.51,3.98,7.82,7.95,5.75l-2.26-4.35Z"/>
      <rect class="cls-1" x="146.61" y="43.62" width="6.22" height="4.9" transform="translate(78.73 185.7) rotate(-80.15)"/>
      <rect class="cls-1" x="145.55" y="37.7" width="4.9" height="6.26" transform="translate(15.92 119.1) rotate(-46.08)"/>
      <path class="cls-1" d="M147.44,36.89c-.3-.29-.18-.85.33-.93l-.7-4.85c-4.47.64-6.33,6.13-3.03,9.31l3.4-3.53Z"/>
      <rect class="cls-1" x="147.39" y="30.64" width="6.29" height="4.9" transform="translate(-3.18 21.73) rotate(-8.17)"/>
      <rect class="cls-1" x="151.93" y="27.41" width="6.24" height="4.9" transform="translate(59.06 155.23) rotate(-63.46)"/>
      <path class="cls-1" d="M158.64,28.16c.1-.2.28-.32.53-.32s.43.11.53.32l4.38-2.19c-2.02-4.04-7.81-4.04-9.83,0l4.38,2.19Z"/>
      <rect class="cls-1" x="160.83" y="26.74" width="4.9" height="6.24" transform="translate(3.87 76.11) rotate(-26.54)"/>
      <rect class="cls-1" x="165.34" y="29.95" width="4.9" height="6.29" transform="translate(111.18 194.48) rotate(-81.83)"/>
      <path class="cls-1" d="M170.56,35.97c.51.07.63.64.33.93l3.4,3.53c3.3-3.18,1.43-8.66-3.03-9.31l-.7,4.85Z"/>
      <rect class="cls-1" x="167.2" y="38.38" width="6.26" height="4.9" transform="translate(19.32 129.58) rotate(-43.92)"/>
      <rect class="cls-1" x="166.16" y="42.95" width="4.9" height="6.22" transform="translate(-5.39 29.51) rotate(-9.85)"/>
      <path class="cls-1" d="M166.73,49.55c.02.13,0,.22-.03.29-.03.08-.1.16-.2.23-.19.14-.41.16-.64.04l-2.26,4.35c3.97,2.06,8.73-1.24,7.95-5.75l-4.83.84Z"/>
      <rect class="cls-1" x="159.5" y="47.71" width="4.9" height="6.28" transform="translate(42.18 171.13) rotate(-62.55)"/>
      <rect class="cls-1" x="214.91" y="48.4" width="6.28" height="4.9" transform="translate(1.11 106.24) rotate(-27.45)"/>
      <path class="cls-1" d="M214.13,50.12c-.23.12-.45.09-.64-.04-.1-.07-.16-.15-.2-.23-.03-.07-.05-.16-.03-.29l-4.83-.84c-.78,4.51,3.98,7.82,7.95,5.75l-2.26-4.35Z"/>
      <rect class="cls-1" x="208.28" y="43.62" width="6.22" height="4.9" transform="translate(129.83 246.46) rotate(-80.15)"/>
      <rect class="cls-1" x="207.22" y="37.7" width="4.9" height="6.26" transform="translate(34.8 163.51) rotate(-46.07)"/>
      <path class="cls-1" d="M209.11,36.89c-.3-.29-.18-.85.33-.93l-.7-4.85c-4.47.64-6.33,6.13-3.03,9.31l3.4-3.53Z"/>
      <rect class="cls-1" x="209.06" y="30.64" width="6.3" height="4.9" transform="translate(-2.55 30.49) rotate(-8.17)"/>
      <rect class="cls-1" x="213.6" y="27.41" width="6.24" height="4.9" transform="translate(93.17 210.4) rotate(-63.46)"/>
      <path class="cls-1" d="M220.3,28.16c.1-.2.28-.32.53-.32s.43.11.53.32l4.38-2.19c-2.02-4.04-7.81-4.04-9.83,0l4.38,2.19Z"/>
      <rect class="cls-1" x="222.5" y="26.74" width="4.9" height="6.24" transform="translate(10.36 103.66) rotate(-26.54)"/>
      <rect class="cls-1" x="227.01" y="29.95" width="4.9" height="6.3" transform="translate(164.09 255.52) rotate(-81.83)"/>
      <path class="cls-1" d="M232.23,35.97c.51.07.63.64.33.93l3.4,3.53c3.3-3.18,1.43-8.66-3.03-9.31l-.7,4.85Z"/>
      <rect class="cls-1" x="228.87" y="38.38" width="6.26" height="4.9" transform="translate(36.59 172.38) rotate(-43.93)"/>
      <rect class="cls-1" x="227.83" y="42.95" width="4.9" height="6.22" transform="translate(-4.49 40.08) rotate(-9.85)"/>
      <path class="cls-1" d="M228.4,49.55c.02.13,0,.22-.03.29-.03.08-.1.16-.19.23-.19.14-.41.16-.64.04l-2.26,4.35c3.97,2.06,8.73-1.24,7.95-5.75l-4.83.84Z"/>
      <rect class="cls-1" x="221.17" y="47.71" width="4.9" height="6.28" transform="translate(75.41 225.85) rotate(-62.55)"/>
      <rect class="cls-1" x="184.34" y="25.45" width="6.03" height="4.9" transform="translate(9.59 93.32) rotate(-28.67)"/>
      <path class="cls-1" d="M183.53,27.2c-.1.05-.16.05-.19.05-.05,0-.12-.03-.19-.08-.15-.11-.25-.3-.21-.58l-4.84-.8c-.7,4.24,3.67,7.95,7.78,5.71l-2.35-4.3Z"/>
      <rect class="cls-1" x="177.92" y="20.67" width="6.21" height="4.9" transform="translate(128.77 197.98) rotate(-80.64)"/>
      <rect class="cls-1" x="176.94" y="14.83" width="4.9" height="6.1" transform="translate(39.13 131.14) rotate(-44.61)"/>
      <path class="cls-1" d="M178.99,13.99c-.15-.16-.21-.38-.14-.62.04-.12.1-.21.15-.26.05-.04.11-.08.2-.09l-.73-4.84c-4.47.68-6,6.19-2.98,9.26l3.49-3.44Z"/>
      <rect class="cls-1" x="178.82" y="7.7" width="5.99" height="4.9" transform="translate(.52 27.28) rotate(-8.59)"/>
      <rect class="cls-1" x="183" y="4.46" width="6.17" height="4.9" transform="translate(100.06 172.07) rotate(-64.61)"/>
      <path class="cls-1" d="M189.63,5.17c.06-.13.13-.19.18-.22.05-.03.12-.05.19-.05s.14.02.19.05c.05.03.11.09.18.22l4.43-2.1c-1.94-4.1-7.66-4.1-9.6,0l4.43,2.1Z"/>
      <rect class="cls-1" x="191.46" y="3.82" width="4.9" height="6.17" transform="translate(15.75 83.76) rotate(-25.37)"/>
      <rect class="cls-1" x="195.74" y="7.15" width="4.9" height="5.99" transform="translate(158.54 204.6) rotate(-81.41)"/>
      <path class="cls-1" d="M200.79,13.02c.09.01.15.05.2.09.06.05.12.14.16.26.08.25.02.47-.14.62l3.49,3.44c3.02-3.07,1.5-8.58-2.98-9.26l-.73,4.84Z"/>
      <rect class="cls-1" x="197.56" y="15.43" width="6.1" height="4.9" transform="translate(47.01 148.16) rotate(-45.4)"/>
      <rect class="cls-1" x="196.52" y="20.01" width="4.9" height="6.21" transform="translate(-1.11 32.68) rotate(-9.36)"/>
      <path class="cls-1" d="M197.06,26.58c.05.28-.06.47-.21.58-.08.06-.15.08-.19.08-.04,0-.1,0-.19-.05l-2.35,4.3c4.1,2.24,8.48-1.47,7.78-5.71l-4.83.8Z"/>
      <rect class="cls-1" x="190.2" y="24.88" width="4.9" height="6.03" transform="translate(75.75 183.55) rotate(-61.33)"/>
      <rect class="cls-1" x="193.97" y="65.97" width="3.35" height="4.9"/>
      <path class="cls-1" d="M197.32,70.87c4.01,0,6.85-3.96,5.59-7.77l-4.65,1.54c.22.67-.29,1.33-.94,1.33v4.9Z"/>
      <path class="cls-1" d="M202.91,63.1c-1.24-3.75-3.78-6.89-7.12-8.62l-2.25,4.35c2.09,1.08,3.84,3.14,4.72,5.8l4.65-1.54Z"/>
      <path class="cls-1" d="M195.78,58.84c4.15-2.13,6.99-6.49,6.99-11.51h-4.9c0,3.13-1.77,5.84-4.33,7.15l2.24,4.36Z"/>
      <path class="cls-1" d="M202.77,47.33c0-7.1-5.69-12.91-12.77-12.91v4.9c4.32,0,7.87,3.56,7.87,8.01h4.9Z"/>
      <path class="cls-1" d="M190,34.42c-7.08,0-12.77,5.81-12.77,12.91h4.9c0-4.46,3.56-8.01,7.87-8.01v-4.9Z"/>
      <path class="cls-1" d="M177.23,47.33c0,5.02,2.84,9.38,6.99,11.51l2.24-4.36c-2.56-1.32-4.33-4.02-4.33-7.15h-4.9Z"/>
      <path class="cls-1" d="M184.21,54.49c-3.34,1.73-5.88,4.87-7.12,8.62l4.65,1.54c.88-2.66,2.62-4.72,4.72-5.8l-2.25-4.35Z"/>
      <path class="cls-1" d="M177.1,63.1c-1.26,3.81,1.57,7.77,5.59,7.77v-4.9c-.65,0-1.16-.66-.94-1.33l-4.65-1.54Z"/>
      <rect class="cls-1" x="182.68" y="65.97" width="3.35" height="4.9"/>
      <rect class="cls-1" x="134.51" y="80.47" width="4.9" height="6.1" transform="translate(-8.27 15.38) rotate(-6.24)"/>
      <path class="cls-1" d="M134.86,86.82c.5,4.55,2.95,8.65,6.72,11.22l2.76-4.05c-2.58-1.76-4.27-4.57-4.61-7.7l-4.87.53Z"/>
      <path class="cls-1" d="M141.58,98.04c3.67,2.5,8.94,6.03,14.34,9.47l2.63-4.13c-5.34-3.4-10.56-6.9-14.21-9.38l-2.76,4.05Z"/>
      <path class="cls-1" d="M155.92,107.5c1.4.89,2.14,2.53,1.88,4.19l4.84.77c.57-3.57-1.03-7.15-4.08-9.09l-2.63,4.13Z"/>
      <rect class="cls-1" x="159.12" y="110.57" width="1.9" height="4.9" transform="translate(23.31 253.34) rotate(-80.96)"/>
      <path class="cls-1" d="M157.5,113.57c-.74,4.67,2.85,8.93,7.59,8.93v-4.9c-1.7,0-3.03-1.54-2.75-3.26l-4.84-.77Z"/>
      <rect class="cls-1" x="165.09" y="117.6" width="14.66" height="4.9"/>
      <path class="cls-1" d="M179.74,122.5c4.26,0,7.69-3.47,7.69-7.72h-4.9c0,1.57-1.26,2.82-2.79,2.82v4.9Z"/>
      <rect class="cls-1" x="182.53" y="96.11" width="4.9" height="18.67"/>
      <path class="cls-1" d="M187.43,95.97c-.43-7.7-3.03-15.59-8.95-21.26l-3.39,3.54c4.77,4.56,7.06,11.13,7.45,18l4.89-.28Z"/>
      <rect class="cls-1" x="171.48" y="69.66" width="4.9" height="8.01" transform="translate(-.83 145.34) rotate(-45.26)"/>
      <path class="cls-1" d="M172.81,69.1c-3.55-3.52-9.3-3.95-13.22-.64l3.16,3.75c1.89-1.59,4.77-1.46,6.62.37l3.45-3.48Z"/>
      <path class="cls-1" d="M159.59,68.47c-4.09,3.45-4.65,9.54-1.3,13.68l3.81-3.08c-1.68-2.07-1.4-5.12.65-6.85l-3.16-3.75Z"/>
      <rect class="cls-1" x="160.44" y="79.65" width="4.9" height="8.57" transform="translate(-16.52 121.21) rotate(-39)"/>
      <rect class="cls-1" x="156.33" y="77.64" width="4.9" height="14.43" transform="translate(25.86 206.28) rotate(-70.53)"/>
      <rect class="cls-1" x="147.93" y="63.35" width="4.9" height="19.24" transform="translate(-10.01 25.92) rotate(-9.53)"/>
      <path class="cls-1" d="M151.21,63.07c-.8-4.76-5.27-8.58-10.1-8.58v4.9c2.42,0,4.86,2.07,5.27,4.49l4.83-.81Z"/>
      <path class="cls-1" d="M141.11,54.5c-5.35,0-9.29,4.45-8.71,9.76l4.87-.53c-.27-2.44,1.44-4.33,3.84-4.33v-4.9Z"/>
      <rect class="cls-1" x="132.83" y="63.97" width="4.9" height="8.3" transform="translate(-6.6 15.11) rotate(-6.24)"/>
    </g>
  </g>
</svg>