<?xml version="1.0" encoding="UTF-8"?>
<svg id="Camada_2" data-name="Camada 2" xmlns="http://www.w3.org/2000/svg" viewBox="0 0 854.5 346.79">
  <defs>
    <style>
      .cls-1, .cls-2 {
        fill: #4f903d;
        stroke-width: 0px;
      }

      .cls-2 {
        fill-rule: evenodd;
      }
    </style>
  </defs>
  <g id="Camada_1-2" data-name="Camada 1">
    <path class="cls-2" d="M0,58.09h82.7c1.4,0,2.6,1.2,2.6,2.6s-1.2,2.6-2.6,2.6H5.2v278.3h844.1V63.29H291.9c-1.4,0-2.6-1.2-2.6-2.6s1.2-2.6,2.6-2.6h562.6v288.7H0V58.09Z"/>
    <path class="cls-1" d="M120.35,55.63l-13.31-5.1c-2.57-.98-3.83-3.8-2.81-6.29L120.96,3.07c1.01-2.49,3.92-3.71,6.48-2.73l13.31,5.1c2.37.91,3.62,3.39,3,5.72l4.31,1.75c1.6.65,3.37.94,5.1.83,1.83-.11,2.73-.06,8.55.26,1.19.07,2.58.14,4.23.23,3.32.18,6.59.83,9.72,1.9,1.04-.97,1.96-1.86,2.74-2.63,2.78-2.73,6.78-4,10.69-3.4l9.29,1.43c1.33.21,2.24,1.42,2.03,2.72-.21,1.3-1.46,2.18-2.8,1.97l-9.29-1.43c-2.37-.36-4.77.4-6.45,2.05-6.73,6.61-15.09,13.69-23.16,18.73-.96.6-.95,1.67-.32,2.25,6.34,5.85,15.39.34,21.87-5.32,2.25-1.96,5.64-1.85,7.72.26,6.68,6.77,15.76,10.27,25.9,8.6.75-.12,1.4.05,1.92.42.52.37,7.45,5.34,13.07,9.36,3.64,2.61,6.73,4.82,7.17,5.14h0s.18.13.18.13l10.5-6.55-13.93-34.27-7.2,2.58c-3.01,1.08-6.27,1.39-9.43.9l-7.21-1.11c-1.33-.21-2.24-1.42-2.03-2.72.21-1.3,1.47-2.18,2.8-1.97l7.21,1.11c2.34.36,4.75.13,6.97-.67l7.14-2.56c-.64-2.35.62-4.83,3-5.74l13.31-5.1c2.56-.98,5.47.24,6.48,2.73l6.45,15.87c.49,1.22-.12,2.6-1.38,3.08s-2.68-.12-3.18-1.34l-6.45-15.87s-.02-.04-.05-.05c-.04-.02-.07,0-.08,0l-13.31,5.1s-.04.02-.06.05c-.02.04,0,.06,0,.08l16.73,41.17c.02.05.08.08.13.06l13.31-5.1c.05-.02.08-.08.06-.13l-6.08-14.97c-.5-1.22.12-2.6,1.38-3.08,1.26-.48,2.68.12,3.17,1.34l6.08,14.97c1.01,2.49-.25,5.31-2.81,6.29l-13.31,5.1c-2.02.77-4.29.18-5.65-1.39l-9.53,5.94c3.43,7.45-3.6,15.08-11.37,13.06-.33,5.6-5.65,9.83-11.64,8.73-.1,6.64-6.84,10.96-13.2,8.72-.8,7.34-9.51,10.96-15.68,6.54l-3.56-2.55-2.11,2.41c-3.18,3.64-8.81,4.09-12.56,1-1.94-1.6-3-3.83-3.13-6.12-2.52.27-4.9-.49-6.74-2-1.85-1.53-2.99-3.69-3.13-6.12-2.53.27-4.91-.5-6.73-2-1.85-1.53-2.99-3.69-3.13-6.12-2.38.25-4.82-.42-6.73-2-3.49-2.87-4.07-7.69-1.78-11.21l-1.81-1.23-10.54-6.45c-1.37,1.12-3.29,1.47-5.05.8ZM142.7,70.11c1.69,1.39,4.23,1.19,5.67-.45l6.05-6.89h0c1.44-1.65,1.23-4.11-.47-5.5-1.72-1.41-4.27-1.15-5.67.45l-6.05,6.9c-1.43,1.63-1.23,4.1.47,5.5ZM152.56,78.23c1.7,1.4,4.23,1.19,5.67-.45l6.05-6.89c1.33-1.53,1.24-3.77-.14-5.2-.01-.01-.02-.02-.03-.03-1.68-1.69-4.46-1.54-5.97.18l-6.05,6.9c-1.43,1.63-1.23,4.1.47,5.5ZM162.43,86.36c1.69,1.39,4.22,1.2,5.67-.45l6.05-6.89h0c1.43-1.64,1.23-4.11-.47-5.5-1.68-1.38-4.23-1.19-5.67.45l-6.05,6.9c-1.43,1.63-1.23,4.1.47,5.5ZM184.04,87.1s0,0,0,0c1.41-1.66,1.16-4.1-.5-5.46-1.69-1.39-4.23-1.2-5.67.45l-6.05,6.9c-1.43,1.64-1.22,4.11.47,5.5,1.69,1.39,4.23,1.19,5.67-.45l6.05-6.9s.01-.02.02-.03ZM146.17,17.3l-4.18-1.7-14.24,35.06,10.86,6.65s.07.04.1.07l2.16,1.47,3.69-4.2c3.18-3.64,8.81-4.09,12.56-1,1.88,1.55,3,3.74,3.14,6.12,2.93-.31,5.8.79,7.72,2.95l.02.03c1.21,1.37,1.95,3.07,2.11,4.91,0,.05,0,.1,0,.15,0,.03,0,.05,0,.08.08,0,.16-.02.24-.02,2.38-.19,4.68.53,6.49,2.02,1.91,1.58,3,3.83,3.13,6.12,2.53-.27,4.91.5,6.74,2,1.75,1.44,2.92,3.51,3.12,5.89.2,2.35-.58,4.58-2.09,6.31l-.75.86,3.29,2.36c2.05,1.47,4.88,1.28,6.58-.44,1.56-1.58,1.79-3.97.6-5.8l-5.2-3.91c-1.07-.8-1.26-2.29-.44-3.33.83-1.04,2.36-1.23,3.43-.42,4.03,3.03,4.91,3.7,5.8,4.35.54.4,1.1.79,2.38,1.7,2.1,1.51,5.05,1.25,6.71-.58,1.54-1.7,1.61-4.26.2-6.04l-7.5-5.61c-1.07-.8-1.27-2.29-.45-3.33.82-1.04,2.36-1.23,3.43-.43,6.66,4.98,7.43,5.56,8.21,6.13.26.19.52.37,1.01.72,2.01,1.44,4.8,1.28,6.49-.36,1.72-1.67,1.9-4.36.44-6.23l-8.46-6.33c-1.07-.8-1.27-2.29-.44-3.33.82-1.04,2.36-1.23,3.43-.43,7.26,5.43,8.26,6.19,9.29,6.93.41.3.83.59,1.67,1.19,2.15,1.54,5.12,1.14,6.76-.9,1.73-2.15,1.11-5.26-1.1-6.85-17.78-12.74-18.41-13.2-19.06-13.64-.11-.07-.21-.14-.39-.26-11.33,1.55-21.83-2.65-29.24-10.15-.24-.24-.64-.25-.92,0-15.29,13.33-24.43,9-28.51,5.22-2.99-2.76-2.48-7.5.97-9.65,5.38-3.36,10.76-7.56,15.55-11.76-1.92-.49-3.89-.78-5.88-.89-1.74-.09-3.18-.18-4.39-.24-5.56-.31-6.26-.35-7.79-.25-2.48.15-5.01-.26-7.3-1.19ZM125.51,4.81l-16.73,41.17c-.02.05,0,.11.06.13l13.31,5.1c.05.02.11,0,.13-.06l16.73-41.17c.02-.05,0-.11-.06-.13l-13.31-5.1s-.03,0-.04,0c-.04,0-.08.02-.1.06Z"/>
  </g>
</svg>