<?xml version="1.0" encoding="UTF-8"?>
<svg id="Camada_2" data-name="Camada 2" xmlns="http://www.w3.org/2000/svg" viewBox="0 0 854.5 359.71">
  <defs>
    <style>
      .cls-1, .cls-2 {
        fill: #4f903d;
        stroke-width: 0px;
      }

      .cls-2 {
        fill-rule: evenodd;
      }
    </style>
  </defs>
  <g id="Camada_1-2" data-name="Camada 1">
    <path class="cls-2" d="M0,71.01h82.7c1.4,0,2.6,1.2,2.6,2.6s-1.2,2.6-2.6,2.6H5.2v278.3h844.1V76.21H291.9c-1.4,0-2.6-1.2-2.6-2.6s1.2-2.6,2.6-2.6h562.6v288.7H0V71.01Z"/>
    <g>
      <path class="cls-1" d="M243.04,0h-74.52c-2.54,0-4.59,2.06-4.59,4.59v36.24h4.08V4.59c0-.28.23-.51.51-.51h74.52c.28,0,.51.23.51.51v36.24h4.08V4.59c0-2.54-2.06-4.59-4.59-4.59Z"/>
      <path class="cls-1" d="M243.04,118.42c.28,0,.51-.23.51-.51V44.92h4.08v72.99c0,2.54-2.06,4.59-4.59,4.59h-56.66v-4.08h56.66Z"/>
      <path class="cls-1" d="M223.14,62.45l12.85-12.85,2.89,2.89-14.29,14.29c-.8.8-2.09.8-2.89,0l-6.13-6.13,2.89-2.89,4.68,4.68Z"/>
      <path class="cls-1" d="M208.84,73.5c0,1.13.92,2.04,2.04,2.04h20.42v-4.08h-18.38v-18.37h14.29v-4.08h-16.33c-1.13,0-2.04.91-2.04,2.04v22.46Z"/>
      <path class="cls-1" d="M215.57,95.36l2.89-2.89,4.68,4.68,12.85-12.85,2.89,2.89-14.29,14.29c-.8.8-2.09.8-2.89,0l-6.13-6.13Z"/>
      <path class="cls-1" d="M208.84,108.21c0,1.13.92,2.04,2.04,2.04h20.42v-4.08h-18.38v-18.38h14.29v-4.08h-16.33c-1.13,0-2.04.91-2.04,2.04v22.46Z"/>
      <path class="cls-1" d="M223.14,25.7l12.85-12.85,2.89,2.89-14.29,14.29c-.8.8-2.09.8-2.89,0l-6.13-6.13,2.89-2.89,4.68,4.68Z"/>
      <path class="cls-1" d="M208.84,14.29v22.46c0,1.13.92,2.04,2.04,2.04h20.42v-4.08h-18.38v-18.37h14.29v-4.08h-16.33c-1.13,0-2.04.91-2.04,2.04Z"/>
      <path class="cls-1" d="M178.82,23.9l2.89-2.89,4.68,4.68,12.85-12.85,2.89,2.89-14.29,14.29c-.8.8-2.09.8-2.89,0l-6.13-6.13Z"/>
      <path class="cls-1" d="M172.1,14.29v22.46c0,1.13.91,2.04,2.04,2.04h20.42v-4.08h-18.38v-18.37h14.29v-4.08h-16.33c-1.13,0-2.04.91-2.04,2.04Z"/>
      <path class="cls-1" d="M163.93,44.92c21.39,0,38.79,17.4,38.79,38.79s-17.4,38.79-38.79,38.79c-19.75-.02-36.34-14.86-38.55-34.48l4.06-.45c1.99,17.56,16.83,30.83,34.5,30.85,19.14,0,34.71-15.57,34.71-34.71s-15.57-34.71-34.71-34.71-34.71,15.57-34.71,34.71h-4.08c0-21.39,17.4-38.79,38.79-38.79Z"/>
      <path class="cls-1" d="M161.89,86.81l-9.44,7.55,2.55,3.19,10.21-8.17c.48-.39.77-.97.77-1.59v-20.42h-4.08v19.44Z"/>
      <path class="cls-1" d="M171.51,58.27c-1.81-.54-3.66-.88-5.54-1.03v4.01h-4.08v-4.01c-5.62.43-10.95,2.64-15.22,6.32l2.82,2.82-2.89,2.89-2.82-2.82c-3.67,4.27-5.89,9.6-6.32,15.22h4.01v4.08h-4.01c.43,5.62,2.64,10.95,6.32,15.22l2.82-2.82,2.89,2.89-2.82,2.82c4.27,3.67,9.6,5.89,15.22,6.32v-4.01h4.08v4.01c5.62-.43,10.95-2.64,15.22-6.32l-2.82-2.82,2.89-2.89,2.82,2.82c3.67-4.27,5.89-9.6,6.32-15.22h-4.01v-4.08h4c-.45-5.61-2.67-10.93-6.33-15.21l-2.81,2.81-2.89-2.89,2.82-2.82c-1.78-1.54-3.76-2.83-5.88-3.84l1.76-3.69c13.68,6.5,20.56,22.01,16.22,36.51-4.86,16.24-21.96,25.46-38.2,20.6-16.24-4.86-25.46-21.96-20.6-38.2,4.86-16.24,21.96-25.46,38.2-20.6l-1.17,3.91Z"/>
    </g>
  </g>
</svg>