<svg class="icone-valuesabout" width="100%" height="100%" viewBox="0 0 413 244" fill="none" xmlns="http://www.w3.org/2000/svg">
                        <path fill-rule="evenodd" clip-rule="evenodd" d="M142.3 0H98.5C97.0096 0.0018 95.8018 1.2096 95.8 2.7V24H98.2V2.7C98.2 2.53425 98.3343 2.4 98.5 2.4H142.3C142.466 2.4 142.6 2.53425 142.6 2.7V24H145V2.7C144.998 1.2096 143.79 0.0018 142.3 0ZM142.3 69.6C142.466 69.6 142.6 69.4658 142.6 69.3V26.4001H145V69.3C144.998 70.7904 143.79 71.9982 142.3 72H109V69.6H142.3ZM2 40.5H0.5V42V242V243.5H2H411H412.5V242V42V40.5H411H169.383C168.554 40.5 167.883 41.1716 167.883 42C167.883 42.8284 168.554 43.5 169.383 43.5H409.5V240.5H3.5V43.5H48.3376C49.166 43.5 49.8376 42.8284 49.8376 42C49.8376 41.1716 49.166 40.5 48.3376 40.5H2ZM130.599 36.703L138.15 29.1514L139.848 30.8485L131.448 39.2485C130.979 39.7171 130.219 39.7171 129.75 39.2485L126.15 35.6485L127.848 33.9514L130.599 36.703ZM122.199 43.1999C122.199 43.8626 122.737 44.3999 123.399 44.3999H135.399V41.9999H124.599V31.2H132.999V28.8H123.399C122.737 28.8 122.199 29.3373 122.199 30V43.1999ZM126.15 56.0485L127.848 54.3514L130.599 57.103L138.15 49.5514L139.848 51.2485L131.448 59.6485C130.979 60.1171 130.219 60.1171 129.75 59.6485L126.15 56.0485ZM122.199 63.6001C122.199 64.2628 122.737 64.8001 123.399 64.8001H135.399V62.4001H124.599V51.6001H132.999V49.2001H123.399C122.737 49.2001 122.199 49.7374 122.199 50.4001V63.6001ZM130.599 15.1031L138.15 7.55149L139.848 9.24859L131.448 17.6486C130.979 18.1172 130.219 18.1172 129.75 17.6486L126.15 14.0486L127.848 12.3515L130.599 15.1031ZM122.199 8.40005V21.6C122.199 22.2627 122.737 22.8 123.399 22.8H135.399V20.4H124.599V9.60005H132.999V7.20005H123.399C122.737 7.20005 122.199 7.73735 122.199 8.40005ZM104.552 14.0486L106.249 12.3515L109 15.1031L116.552 7.55149L118.249 9.24859L109.849 17.6486C109.38 18.1172 108.62 18.1172 108.152 17.6486L104.552 14.0486ZM100.6 8.40005V21.6C100.6 22.2627 101.137 22.8 101.8 22.8H113.8V20.4H103V9.60005H111.4V7.20005H101.8C101.137 7.20005 100.6 7.73735 100.6 8.40005ZM95.8 26.4001C108.372 26.4001 118.6 36.6281 118.6 49.2C118.6 61.772 108.372 72 95.8 72C84.193 71.9862 74.4436 63.2661 73.1401 51.7325L75.5251 51.4676C76.6933 61.7859 85.4158 69.5865 95.8 69.6C107.049 69.6 116.2 60.4485 116.2 49.2C116.2 37.9515 107.049 28.8001 95.8 28.8001C84.5513 28.8001 75.4 37.9515 75.4 49.2H73C73 36.6281 83.228 26.4001 95.8 26.4001ZM94.6 51.0233L89.05 55.4633L90.55 57.3374L96.55 52.5374C96.8346 52.3095 97.0002 51.9647 97 51.6V39.6H94.6V51.0233ZM100.257 34.2483C99.1958 33.9318 98.1041 33.7297 97.0001 33.6457V36H94.6001V33.6457C91.2992 33.8983 88.1652 35.1991 85.6554 37.3581L87.3147 39.0175L85.6178 40.7148L83.9583 39.0552C81.7992 41.565 80.4984 44.6989 80.2458 48H82.6001V50.4H80.2458C80.4984 53.701 81.7992 56.835 83.9583 59.3448L85.6178 57.6859L87.3147 59.3832L85.6554 61.0426C88.1652 63.2016 91.2992 64.5024 94.6001 64.755V62.4H97.0001V64.755C100.301 64.5022 103.436 63.2013 105.945 61.0419L104.286 59.3824L105.983 57.6852L107.643 59.3448C109.802 56.835 111.102 53.701 111.355 50.4H109V48H111.353C111.087 44.7031 109.786 41.5749 107.635 39.0622L105.982 40.7143L104.285 39.0171L105.942 37.3609C104.895 36.4585 103.732 35.6998 102.484 35.1052L103.516 32.9385C111.554 36.7602 115.602 45.8731 113.05 54.399C110.193 63.9415 100.142 69.3616 90.5991 66.5052C81.0566 63.6487 75.6365 53.5972 78.4929 44.0547C81.3494 34.5121 91.4009 29.092 100.943 31.9485L100.257 34.2483Z" />
                    </svg>