<svg class="icone-valuesabout" width="100%" height="100%" viewBox="0 0 413 243" fill="none" xmlns="http://www.w3.org/2000/svg">
                        <path fill-rule="evenodd" clip-rule="evenodd" d="M121.805 32.6769H117.473V18.3396C117.473 12.9714 114.862 7.88653 110.31 4.38891C109.727 3.9413 108.851 4.00331 108.354 4.5277C107.857 5.05209 107.926 5.8403 108.508 6.28805C112.442 9.3105 114.698 13.7032 114.698 18.3395V32.6768H110.557V18.3396C110.557 11.6592 104.518 6.2242 97.0969 6.2242C89.6742 6.2242 83.6355 11.6592 83.6355 18.3396V29.971C83.6355 30.6606 84.2566 31.2196 85.0228 31.2196C85.7891 31.2196 86.4102 30.6606 86.4102 29.971V18.3396C86.4102 13.0362 91.2042 8.72142 97.0969 8.72142C102.989 8.72142 107.782 13.0361 107.782 18.3396V32.6769H79.4942V18.3396C79.4942 9.60398 87.3908 2.49708 97.097 2.49708C99.7767 2.49708 102.351 3.02752 104.747 4.07348C105.438 4.37484 106.267 4.11525 106.601 3.49481C106.936 2.87437 106.648 2.12752 105.958 1.82644C103.181 0.614531 100.2 0 97.0972 0C85.8609 0 76.7197 8.22713 76.7197 18.3398V32.677H72.3873C71.6211 32.677 71 33.236 71 33.9256V57.4381C71 58.1278 71.6211 58.6868 72.3873 58.6868C73.1536 58.6868 73.7747 58.1278 73.7747 57.4381V35.1741H120.418V69.5028H73.7747V61.7605C73.7747 61.0709 73.1536 60.5119 72.3873 60.5119C71.6211 60.5119 71 61.0709 71 61.7605V70.7514C71 71.441 71.6211 72 72.3873 72H121.805C122.572 72 123.193 71.441 123.193 70.7514V33.9255C123.193 33.2359 122.572 32.6769 121.805 32.6769ZM0.5 39.5H2H48.3376C49.166 39.5 49.8376 40.1716 49.8376 41C49.8376 41.8284 49.166 42.5 48.3376 42.5H3.5V239.5H409.5V42.5H169.383C168.554 42.5 167.883 41.8284 167.883 41C167.883 40.1716 168.554 39.5 169.383 39.5H411H412.5V41V241V242.5H411H2H0.5V241V41V39.5ZM106.111 47.8079C106.111 50.3602 104.643 52.6666 102.28 53.9619L105.483 62.4312C105.627 62.8124 105.558 63.2329 105.297 63.5604C105.037 63.8878 104.617 64.0821 104.169 64.0821H92.0226C91.5751 64.0821 91.1551 63.8879 90.8946 63.5604C90.6342 63.233 90.5653 62.8124 90.7093 62.4312L93.9118 53.9619C91.5492 52.6667 90.0811 50.3602 90.0811 47.8079C90.0811 43.8304 93.6765 40.5945 98.0959 40.5945C102.515 40.5945 106.111 43.8304 106.111 47.8079ZM96.9267 53.7406L93.9603 61.5849H102.232L99.2657 53.7406C99.0286 53.1135 99.3765 52.4291 100.059 52.1807C102.05 51.4558 103.336 49.7394 103.336 47.8077C103.336 45.2073 100.986 43.0916 98.0961 43.0916C95.2067 43.0916 92.8559 45.2073 92.8559 47.8077C92.8559 49.7395 94.1425 51.4558 96.1336 52.1807C96.8157 52.4292 97.1639 53.1136 96.9267 53.7406Z"/>
                    </svg>