<?xml version="1.0" encoding="UTF-8"?>
<svg id="Camada_2" data-name="Camada 2" xmlns="http://www.w3.org/2000/svg" viewBox="0 0 734.3 433.41">
  <defs>
    <style>
      .cls-1, .cls-2 {
        fill: #4f903d;
        stroke-width: 0px;
      }

      .cls-2 {
        fill-rule: evenodd;
      }
    </style>
  </defs>
  <g id="Camada_1-2" data-name="Camada 1">
    <path class="cls-2" d="M0,76.11h82.7c1.4,0,2.6,1.2,2.6,2.6s-1.2,2.6-2.6,2.6H5.2v346.9h723.9V81.31h-437.2c-1.4,0-2.6-1.2-2.6-2.6s1.2-2.6,2.6-2.6h442.4v357.3H0V76.11Z"/>
    <g>
      <path class="cls-1" d="M230.19,55.6h-7.37v-24.39c0-9.13-4.44-17.78-12.19-23.74-.99-.76-2.48-.66-3.33.24-.85.89-.73,2.23.26,3,6.69,5.14,10.53,12.62,10.53,20.5v24.39h-7.05v-24.39c0-11.37-10.27-20.61-22.9-20.61s-22.9,9.25-22.9,20.61v19.79c0,1.17,1.06,2.12,2.36,2.12s2.36-.95,2.36-2.12v-19.79c0-9.02,8.16-16.36,18.18-16.36s18.18,7.34,18.18,16.36v24.39h-48.13v-24.39c0-14.86,13.44-26.95,29.95-26.95,4.56,0,8.94.9,13.02,2.68,1.18.51,2.59.07,3.15-.98.57-1.06.08-2.33-1.09-2.84-4.72-2.06-9.8-3.11-15.08-3.11-19.12,0-34.67,14-34.67,31.2v24.39h-7.37c-1.3,0-2.36.95-2.36,2.12v40c0,1.17,1.06,2.12,2.36,2.12s2.36-.95,2.36-2.12v-37.88h79.36v58.41h-79.36v-13.17c0-1.17-1.06-2.12-2.36-2.12s-2.36.95-2.36,2.12v15.3c0,1.17,1.06,2.12,2.36,2.12h84.08c1.3,0,2.36-.95,2.36-2.12v-62.66c0-1.17-1.06-2.12-2.36-2.12Z"/>
      <path class="cls-1" d="M203.49,81.34c0,4.34-2.5,8.27-6.52,10.47l5.45,14.41c.24.65.13,1.36-.32,1.92-.44.56-1.16.89-1.92.89h-20.67c-.76,0-1.48-.33-1.92-.89-.44-.56-.56-1.27-.32-1.92l5.45-14.41c-4.02-2.2-6.52-6.13-6.52-10.47,0-6.77,6.12-12.27,13.64-12.27s13.64,5.51,13.64,12.27ZM187.86,91.43l-5.05,13.35h14.07l-5.05-13.35c-.4-1.07.19-2.23,1.35-2.65,3.39-1.23,5.58-4.15,5.58-7.44,0-4.42-4-8.02-8.92-8.02s-8.92,3.6-8.92,8.02c0,3.29,2.19,6.21,5.58,7.44,1.16.42,1.75,1.59,1.35,2.65Z"/>
    </g>
  </g>
</svg>