<?xml version="1.0" encoding="UTF-8"?>
<svg id="Camada_2" data-name="Camada 2" xmlns="http://www.w3.org/2000/svg" viewBox="0 0 734.3 354.83">
  <defs>
    <style>
      .cls-1, .cls-2 {
        fill: #4f903d;
        stroke-width: 0px;
      }

      .cls-2 {
        fill-rule: evenodd;
      }
    </style>
  </defs>
  <g id="Camada_1-2" data-name="Camada 1">
    <path class="cls-2" d="M0,65.43h82.7c1.4,0,2.6,1.2,2.6,2.6s-1.2,2.6-2.6,2.6H5.2v279h723.9V70.63h-437.2c-1.4,0-2.6-1.2-2.6-2.6s1.2-2.6,2.6-2.6h442.4v289.4H0V65.43Z"/>
    <g>
      <path class="cls-1" d="M187.1,112.33c-30.97,0-56.17-25.2-56.17-56.17S156.13,0,187.1,0c10.49,0,20.73,2.91,29.6,8.42,1.55.96,2.03,3,1.06,4.55-.96,1.55-3,2.03-4.55,1.06-7.82-4.86-16.85-7.43-26.11-7.43-27.33,0-49.56,22.23-49.56,49.56s22.23,49.56,49.56,49.56,49.56-22.23,49.56-49.56c0-5.49-.89-10.89-2.65-16.03-.59-1.73.33-3.61,2.06-4.2,1.73-.59,3.61.33,4.2,2.06,1.99,5.83,3,11.95,3,18.17,0,30.97-25.2,56.17-56.17,56.17Z"/>
      <path class="cls-1" d="M187.1,75.22c-.84,0-1.65-.32-2.26-.9l-26.43-24.83c-1.33-1.25-1.4-3.34-.15-4.67,1.25-1.33,3.34-1.4,4.67-.14l23.89,22.44,43.41-51.53c1.17-1.4,3.26-1.57,4.65-.4,1.4,1.18,1.57,3.26.4,4.65l-45.65,54.2c-.58.69-1.43,1.12-2.33,1.17-.06,0-.13,0-.19,0Z"/>
    </g>
  </g>
</svg>