 <svg class="icone-valuesabout" width="100%" height="100%"  viewBox="0 0 412 245" fill="none" xmlns="http://www.w3.org/2000/svg">
                        <path d="M110.5 78C90.6492 78 74.5 61.8508 74.5 42C74.5 22.1492 90.6492 6 110.5 6C117.225 6 123.784 7.86625 129.47 11.3978C130.463 12.0145 130.768 13.3202 130.151 14.3141C129.533 15.3078 128.228 15.6145 127.235 14.9957C122.221 11.8809 116.434 10.2354 110.5 10.2354C92.9848 10.2354 78.7353 24.4854 78.7353 42.0002C78.7353 59.5149 92.9848 73.7647 110.5 73.7647C128.015 73.7647 142.265 59.5147 142.265 42C142.265 38.4795 141.693 35.0228 140.566 31.7262C140.188 30.6199 140.779 29.4155 141.885 29.0372C142.994 28.6611 144.196 29.2501 144.574 30.3564C145.852 34.0953 146.5 38.013 146.5 42.0002C146.5 61.8508 130.351 78 110.5 78Z" />
                        <path d="M110.5 54.2143C109.963 54.2143 109.443 54.0102 109.05 53.6396L92.1089 37.7254C91.2563 36.9247 91.2144 35.5846 92.0152 34.732C92.816 33.8806 94.156 33.8364 95.0085 34.6395L110.32 49.0229L138.143 15.9941C138.895 15.0997 140.232 14.985 141.126 15.7393C142.021 16.4926 142.135 17.8282 141.381 18.7227L112.119 53.4611C111.745 53.9055 111.203 54.1769 110.623 54.2111C110.583 54.2132 110.541 54.2143 110.5 54.2143Z"/>
                        <path d="M0 41.5V244.5H412V41.5H168.883C168.054 41.5 167.383 42.1716 167.383 43C167.383 43.8284 168.054 44.5 168.883 44.5H409V241.5H3V44.5H47.8376C48.666 44.5 49.3376 43.8284 49.3376 43C49.3376 42.1716 48.666 41.5 47.8376 41.5H0Z" />
                    </svg>