 <svg class="icone-valuesabout" width="100%" height="100%"  viewBox="0 0 412 245" fill="none" xmlns="http://www.w3.org/2000/svg">
                        <path fill-rule="evenodd" clip-rule="evenodd" d="M77.3913 50.4444L71.0155 47.9291C69.785 47.4438 69.1827 46.0552 69.6678 44.8252L77.6805 24.5148C78.1645 23.2874 79.5567 22.6827 80.7844 23.1671L87.1601 25.6821C88.2948 26.1296 88.8953 27.3535 88.5972 28.5057L90.6625 29.3699C91.4304 29.6912 92.2748 29.8323 93.1048 29.7793C93.9832 29.7228 94.4106 29.7473 97.1987 29.9071C97.7674 29.9397 98.4342 29.9779 99.2231 30.0223C100.814 30.1116 102.378 30.4294 103.879 30.9615C104.376 30.4813 104.817 30.0435 105.19 29.6665C106.521 28.3193 108.436 27.6924 110.311 27.9896L114.76 28.6948C115.399 28.796 115.835 29.3965 115.734 30.0357C115.632 30.6747 115.033 31.111 114.393 31.0096L109.945 30.3044C108.812 30.1249 107.659 30.5022 106.856 31.314C103.633 34.5746 99.6281 38.0666 95.7618 40.5536C95.3039 40.8493 95.3061 41.3783 95.6076 41.6647C98.6428 44.5493 102.981 41.8307 106.085 39.0427C107.164 38.0743 108.788 38.13 109.784 39.1696C112.983 42.5107 117.333 44.2369 122.188 43.4114C122.547 43.3505 122.859 43.4338 123.11 43.6193C123.359 43.8031 126.677 46.2517 129.368 48.2375C131.111 49.524 132.591 50.6163 132.803 50.7727L132.804 50.7735L132.889 50.8364L137.918 47.6066L131.248 30.7002L127.8 31.9733C126.36 32.5047 124.798 32.6587 123.282 32.4185L119.827 31.8708C119.188 31.7696 118.752 31.1691 118.853 30.5299C118.954 29.891 119.555 29.4549 120.194 29.556L123.649 30.1037C124.77 30.2813 125.924 30.1674 126.988 29.7748L130.406 28.5132C130.1 27.3543 130.702 26.1318 131.841 25.6824L138.217 23.1671C139.444 22.6829 140.837 23.2876 141.32 24.5148L144.41 32.3449C144.647 32.9469 144.352 33.6276 143.75 33.8651C143.148 34.1026 142.467 33.8072 142.229 33.2051L139.14 25.3748C139.138 25.369 139.132 25.3558 139.114 25.3479C139.095 25.3398 139.082 25.3449 139.077 25.3473L132.701 27.8626C132.695 27.8649 132.682 27.8701 132.674 27.8887C132.666 27.9073 132.671 27.9204 132.673 27.926L140.686 48.2366C140.696 48.2617 140.724 48.2739 140.749 48.2641L147.125 45.7489C147.15 45.7389 147.163 45.7103 147.153 45.6852L144.239 38.2988C144.001 37.6968 144.297 37.0161 144.899 36.7786C145.501 36.5411 146.182 36.8365 146.419 37.4386L149.333 44.8252C149.817 46.0527 149.213 47.445 147.985 47.9291L141.61 50.4442C140.642 50.8261 139.556 50.5338 138.903 49.7599L134.34 52.6903C135.983 56.3672 132.618 60.1275 128.896 59.1336C128.737 61.8973 126.191 63.9809 123.322 63.4416C123.275 66.7172 120.044 68.8501 117 67.7442C116.616 71.3659 112.443 73.1509 109.491 70.972L107.784 69.712L106.771 70.9012C105.249 72.6958 102.549 72.9165 100.755 71.3945C99.8257 70.6067 99.319 69.5037 99.256 68.3739C98.0512 68.5053 96.9098 68.1344 96.029 67.3875C95.1411 66.6347 94.5957 65.5664 94.5282 64.367C93.3151 64.4994 92.1759 64.1205 91.3032 63.3805C90.4153 62.6278 89.8697 61.5592 89.8026 60.3594C88.6612 60.4838 87.4951 60.1517 86.5775 59.3736C84.9073 57.9575 84.6259 55.5819 85.7244 53.8434L84.8584 53.2347L79.8094 50.0505C79.1523 50.6011 78.2337 50.7766 77.3913 50.4444ZM88.0933 57.5859C88.9036 58.2728 90.1212 58.1724 90.8079 57.3624L93.704 53.9631L93.7048 53.9622C94.3936 53.1502 94.2932 51.9358 93.4814 51.2475C92.6581 50.5497 91.4371 50.68 90.7667 51.4711L87.8681 54.8733C87.1851 55.6788 87.2776 56.8944 88.0933 57.5859ZM92.819 61.593C93.6314 62.2816 94.8453 62.1813 95.5336 61.3695L98.4306 57.9694C99.0696 57.2156 99.0265 56.1094 98.365 55.4058C98.3596 55.4002 98.3551 55.3941 98.3498 55.3886C97.5465 54.5545 96.2123 54.6288 95.4925 55.4781L92.5939 58.8803C91.9109 59.6858 92.0034 60.9014 92.819 61.593ZM97.5448 65.5998C98.3534 66.2855 99.5685 66.1912 100.259 65.3764L103.156 61.9772L103.156 61.9762C103.843 61.1663 103.743 59.9486 102.933 59.2616C102.129 58.5794 100.907 58.6731 100.218 59.485L97.3195 62.8873C96.6365 63.6928 96.7292 64.9084 97.5448 65.5998ZM107.894 65.9671C107.896 65.9656 107.897 65.9641 107.898 65.9626C108.575 65.1439 108.453 63.942 107.659 63.2686C106.851 62.5834 105.635 62.6773 104.944 63.492L102.045 66.8944C101.36 67.7023 101.46 68.92 102.271 69.6069C103.081 70.2936 104.298 70.1934 104.985 69.3833L107.884 65.9809C107.888 65.9766 107.891 65.9718 107.894 65.9671ZM89.7576 31.5324L87.755 30.6944L80.9323 47.988L86.1333 51.2681C86.1498 51.2785 86.1661 51.2894 86.182 51.3006L87.2143 52.0263L88.9804 49.9533C90.5012 48.1596 93.2007 47.9374 94.9968 49.46C95.8993 50.2253 96.4328 51.3044 96.4987 52.4811C97.8998 52.3305 99.2745 52.8702 100.198 53.9384L100.208 53.9511C100.789 54.6281 101.142 55.4674 101.217 56.3734C101.219 56.3986 101.22 56.4237 101.221 56.4487C101.222 56.4612 101.222 56.4736 101.223 56.4861C101.261 56.4819 101.299 56.4783 101.337 56.4752C102.475 56.3822 103.579 56.7366 104.448 57.4739C105.365 58.2517 105.884 59.3609 105.948 60.4931C107.161 60.3616 108.301 60.7408 109.174 61.4809C110.013 62.1928 110.571 63.2131 110.668 64.3873C110.764 65.5466 110.391 66.6483 109.669 67.4989L109.308 67.9237L110.883 69.0862C111.866 69.812 113.221 69.7178 114.034 68.8673C114.779 68.0883 114.89 66.9076 114.323 66.0062L111.833 64.0792C111.321 63.6831 111.228 62.9472 111.624 62.4353C112.02 61.9234 112.756 61.8297 113.268 62.2258C115.2 63.7212 115.62 64.0511 116.048 64.3715C116.309 64.5672 116.573 64.7594 117.186 65.2119C118.192 65.9544 119.604 65.8286 120.401 64.9251C121.141 64.0855 121.174 62.8236 120.496 61.9462L116.905 59.1811C116.392 58.7863 116.296 58.0505 116.691 57.5377C117.086 57.0249 117.822 56.9289 118.334 57.3239C121.526 59.7813 121.894 60.0679 122.268 60.3454C122.393 60.4383 122.519 60.5301 122.752 60.702C123.713 61.4108 125.05 61.3342 125.862 60.5238C126.688 59.6997 126.771 58.3711 126.073 57.4517L122.023 54.3308C121.51 53.9356 121.415 53.1999 121.81 52.6872C122.205 52.1745 122.94 52.0791 123.453 52.4742C126.929 55.1524 127.411 55.5284 127.901 55.8927C128.099 56.0401 128.299 56.1855 128.699 56.4808C129.727 57.2397 131.15 57.0445 131.937 56.0372C132.766 54.9767 132.47 53.4402 131.411 52.6589C122.896 46.3749 122.592 46.1461 122.281 45.9286C122.23 45.8934 122.18 45.8585 122.094 45.7983C116.665 46.5613 111.637 44.4933 108.09 40.7911C107.975 40.6707 107.782 40.6691 107.651 40.7869C100.329 47.363 95.9507 45.2246 93.9931 43.3644C92.5607 42.0032 92.8057 39.6669 94.4593 38.6054C97.0386 36.9491 99.6135 34.8736 101.907 32.803C100.986 32.5637 100.044 32.4162 99.0912 32.3626C98.2598 32.3158 97.5677 32.2762 96.9866 32.2429C94.3238 32.0903 93.9903 32.0712 93.2546 32.1185C92.0661 32.1949 90.8567 31.9922 89.7576 31.5324ZM79.8605 25.3751L71.848 45.6855C71.8378 45.7107 71.8503 45.7389 71.8756 45.7489L78.2514 48.2642C78.277 48.2742 78.3045 48.2622 78.3148 48.2367L86.3275 27.9262C86.3373 27.9012 86.325 27.8726 86.2998 27.8627L79.9241 25.3474C79.9181 25.3451 79.912 25.344 79.9061 25.344C79.8866 25.344 79.8681 25.3557 79.8605 25.3751Z" />
                        <path d="M0 41.5V244.5H412V41.5H168.883C168.054 41.5 167.383 42.1716 167.383 43C167.383 43.8284 168.054 44.5 168.883 44.5H409V241.5H3V44.5H47.8376C48.666 44.5 49.3376 43.8284 49.3376 43C49.3376 42.1716 48.666 41.5 47.8376 41.5H0Z" />
                    </svg>